<svg preserveAspectRatio="none" width="100%" height="100%" overflow="visible" style="display: block;" viewBox="0 0 718.76 223.136" fill="none" xmlns="http://www.w3.org/2000/svg">
<g id="Group">
<path id="Vector" d="M289.236 47.9125C290.376 47.9125 291.301 46.9879 291.301 45.8474C291.301 44.7068 290.376 43.7822 289.236 43.7822C288.095 43.7822 287.17 44.7068 287.17 45.8474C287.17 46.9879 288.095 47.9125 289.236 47.9125Z" fill="var(--fill-0, #00ADEF)"/>
<path id="Vector_2" d="M362.872 80.4252C362.872 81.5657 363.797 82.4904 364.937 82.4904C366.078 82.4904 367.002 81.5657 367.002 80.4252C367.002 79.2845 366.078 78.36 364.937 78.36C363.797 78.36 362.872 79.2845 362.872 80.4252Z" fill="var(--fill-0, #00ADEF)"/>
<path id="Vector_3" d="M354.528 109.531C354.528 110.671 355.453 111.596 356.593 111.596C357.734 111.596 358.658 110.671 358.658 109.531C358.658 108.39 357.734 107.465 356.593 107.465C355.453 107.465 354.528 108.39 354.528 109.531Z" fill="var(--fill-0, #00ADEF)"/>
<path id="Vector_4" d="M356.593 174.283C357.734 174.283 358.659 173.359 358.659 172.218C358.659 171.078 357.734 170.153 356.593 170.153C355.453 170.153 354.528 171.078 354.528 172.218C354.528 173.359 355.453 174.283 356.593 174.283Z" fill="var(--fill-0, #00ADEF)"/>
<path id="Vector_5" d="M345.937 195.295C345.937 196.436 346.861 197.36 348.002 197.36C349.142 197.36 350.067 196.435 350.067 195.295C350.067 194.154 349.142 193.23 348.002 193.23C346.861 193.23 345.937 194.154 345.937 195.295Z" fill="var(--fill-0, #00ADEF)"/>
<path id="Vector_6" d="M339.946 188.804C341.086 188.804 342.011 187.879 342.011 186.739C342.011 185.598 341.086 184.674 339.946 184.674C338.805 184.674 337.88 185.598 337.88 186.739C337.88 187.879 338.805 188.804 339.946 188.804Z" fill="var(--fill-0, #00ADEF)"/>
<path id="Vector_7" d="M344.155 163.587C345.296 163.587 346.221 162.662 346.221 161.522C346.221 160.381 345.296 159.457 344.155 159.457C343.015 159.457 342.09 160.381 342.09 161.522C342.09 162.662 343.015 163.587 344.155 163.587Z" fill="var(--fill-0, #00ADEF)"/>
<path id="Vector_8" d="M306.364 164.2C306.364 165.341 307.289 166.265 308.429 166.265C309.57 166.265 310.494 165.34 310.494 164.2C310.494 163.059 309.57 162.135 308.429 162.135C307.289 162.135 306.364 163.059 306.364 164.2Z" fill="var(--fill-0, #00ADEF)"/>
<path id="Vector_9" d="M293.926 215.196C293.926 216.336 294.85 217.261 295.991 217.261C297.131 217.261 298.056 216.336 298.056 215.196C298.056 214.055 297.131 213.131 295.991 213.131C294.85 213.131 293.926 214.055 293.926 215.196Z" fill="var(--fill-0, #00ADEF)"/>
<path id="Vector_10" d="M251.846 176.887C251.846 178.027 252.771 178.952 253.911 178.952C255.052 178.952 255.977 178.027 255.977 176.887C255.977 175.746 255.052 174.821 253.911 174.821C252.771 174.821 251.846 175.746 251.846 176.887Z" fill="var(--fill-0, #00ADEF)"/>
<path id="Vector_11" d="M251.846 202.345C251.846 203.485 252.771 204.41 253.911 204.41C255.052 204.41 255.977 203.485 255.977 202.345C255.977 201.204 255.052 200.279 253.911 200.279C252.771 200.279 251.846 201.204 251.846 202.345Z" fill="var(--fill-0, #00ADEF)"/>
<path id="Vector_12" d="M239.006 169.98C239.006 171.12 239.931 172.045 241.072 172.045C242.212 172.045 243.137 171.12 243.137 169.98C243.137 168.839 242.212 167.915 241.072 167.915C239.931 167.915 239.006 168.839 239.006 169.98Z" fill="var(--fill-0, #00ADEF)"/>
<path id="Vector_13" d="M231.046 150.145C231.046 151.285 231.971 152.21 233.111 152.21C234.252 152.21 235.176 151.285 235.176 150.145C235.176 149.004 234.252 148.079 233.111 148.079C231.971 148.079 231.046 149.004 231.046 150.145Z" fill="var(--fill-0, #00ADEF)"/>
<path id="Vector_14" d="M239.006 99.1576C239.006 100.298 239.931 101.223 241.072 101.223C242.212 101.223 243.137 100.298 243.137 99.1576C243.137 98.0172 242.212 97.0925 241.072 97.0925C239.931 97.0925 239.006 98.0172 239.006 99.1576Z" fill="var(--fill-0, #00ADEF)"/>
<path id="Vector_15" d="M231.046 60.773C231.046 61.9137 231.971 62.8382 233.111 62.8382C234.252 62.8382 235.176 61.9134 235.176 60.773C235.176 59.6325 234.252 58.7078 233.111 58.7078C231.971 58.7078 231.046 59.6325 231.046 60.773Z" fill="var(--fill-0, #00ADEF)"/>
<path id="Vector_16" d="M203.931 96.5364C203.931 97.6772 204.856 98.6016 205.996 98.6016C207.137 98.6016 208.061 97.6769 208.061 96.5364C208.061 95.396 207.137 94.4712 205.996 94.4712C204.856 94.4712 203.931 95.3957 203.931 96.5364Z" fill="var(--fill-0, #00ADEF)"/>
<path id="Vector_17" d="M178.881 21.4106C178.881 22.5513 179.806 23.4758 180.946 23.4758C182.087 23.4758 183.011 22.551 183.011 21.4106C183.011 20.2701 182.087 19.3454 180.946 19.3454C179.806 19.3451 178.881 20.2698 178.881 21.4106Z" fill="var(--fill-0, #00ADEF)"/>
<path id="Vector_18" d="M166.443 72.4067C166.443 73.5472 167.368 74.4719 168.508 74.4719C169.649 74.4719 170.573 73.5472 170.573 72.4067C170.573 71.2663 169.649 70.3415 168.508 70.3415C167.368 70.3415 166.443 71.266 166.443 72.4067Z" fill="var(--fill-0, #00ADEF)"/>
<path id="Vector_19" d="M179.814 116.437C179.814 117.578 180.739 118.503 181.879 118.503C183.02 118.503 183.944 117.578 183.944 116.437C183.944 115.297 183.02 114.372 181.879 114.372C180.739 114.372 179.814 115.297 179.814 116.437Z" fill="var(--fill-0, #00ADEF)"/>
<path id="Vector_20" d="M195.587 189.076C195.587 190.217 196.512 191.141 197.652 191.141C198.793 191.141 199.717 190.216 199.717 189.076C199.717 187.935 198.793 187.011 197.652 187.011C196.512 187.011 195.587 187.935 195.587 189.076Z" fill="var(--fill-0, #00ADEF)"/>
<path id="Vector_21" d="M195.587 174.687C195.587 175.828 196.512 176.752 197.652 176.752C198.793 176.752 199.717 175.827 199.717 174.687C199.717 173.546 198.793 172.622 197.652 172.622C196.512 172.622 195.587 173.546 195.587 174.687Z" fill="var(--fill-0, #00ADEF)"/>
<path id="Vector_22" d="M222.702 189.076C222.702 190.217 223.627 191.141 224.767 191.141C225.908 191.141 226.832 190.216 226.832 189.076C226.832 187.935 225.908 187.011 224.767 187.011C223.627 187.011 222.702 187.935 222.702 189.076Z" fill="var(--fill-0, #00ADEF)"/>
<path id="Vector_23" d="M180.648 202.345C180.648 203.485 181.573 204.41 182.713 204.41C183.854 204.41 184.779 203.485 184.779 202.345C184.779 201.204 183.854 200.279 182.713 200.279C181.573 200.279 180.648 201.204 180.648 202.345Z" fill="var(--fill-0, #00ADEF)"/>
<path id="Vector_24" d="M180.648 215.196C180.648 216.336 181.573 217.261 182.713 217.261C183.854 217.261 184.779 216.336 184.779 215.196C184.779 214.055 183.854 213.131 182.713 213.131C181.573 213.131 180.648 214.055 180.648 215.196Z" fill="var(--fill-0, #00ADEF)"/>
<path id="Vector_25" d="M152.761 192.808C152.761 193.948 153.686 194.873 154.826 194.873C155.967 194.873 156.891 193.948 156.891 192.808C156.891 191.667 155.967 190.742 154.826 190.742C153.686 190.742 152.761 191.667 152.761 192.808Z" fill="var(--fill-0, #00ADEF)"/>
<path id="Vector_26" d="M104.004 99.7703C104.004 100.911 104.928 101.836 106.069 101.836C107.209 101.836 108.134 100.911 108.134 99.7703C108.134 98.6299 107.209 97.7052 106.069 97.7052C104.928 97.7052 104.004 98.6299 104.004 99.7703Z" fill="var(--fill-0, #00ADEF)"/>
<path id="Vector_27" d="M95.6599 129.871C95.6599 131.011 96.5846 131.936 97.725 131.936C98.8658 131.936 99.7902 131.011 99.7902 129.871C99.7902 128.73 98.8655 127.806 97.725 127.806C96.5843 127.806 95.6599 128.73 95.6599 129.871Z" fill="var(--fill-0, #00ADEF)"/>
<path id="Vector_28" d="M95.6599 191.141C95.6599 192.282 96.5846 193.206 97.725 193.206C98.8658 193.206 99.7902 192.282 99.7902 191.141C99.7902 190.001 98.8655 189.076 97.725 189.076C96.5843 189.076 95.6599 190 95.6599 191.141Z" fill="var(--fill-0, #00ADEF)"/>
<path id="Vector_29" d="M83.2218 180.867C83.2218 182.008 84.1465 182.932 85.287 182.932C86.4274 182.932 87.3522 182.007 87.3522 180.867C87.3522 179.726 86.4274 178.802 85.287 178.802C84.1465 178.802 83.2218 179.726 83.2218 180.867Z" fill="var(--fill-0, #00ADEF)"/>
<path id="Vector_30" d="M56.4122 145.045C56.4122 146.186 57.337 147.111 58.4774 147.111C59.6182 147.111 60.5425 146.186 60.5425 145.045C60.5425 143.905 59.6179 142.98 58.4774 142.98C57.337 142.98 56.4122 143.905 56.4122 145.045Z" fill="var(--fill-0, #00ADEF)"/>
<path id="Vector_31" d="M47.4958 152.494C47.4958 153.634 48.4205 154.559 49.561 154.559C50.7014 154.559 51.6261 153.634 51.6261 152.494C51.6261 151.353 50.7014 150.429 49.561 150.429C48.4202 150.429 47.4958 151.353 47.4958 152.494Z" fill="var(--fill-0, #00ADEF)"/>
<path id="Vector_32" d="M35.0575 203.49C35.0575 204.631 35.9822 205.555 37.1227 205.555C38.2631 205.555 39.1878 204.63 39.1878 203.49C39.1878 202.349 38.2631 201.425 37.1227 201.425C35.9822 201.425 35.0575 202.349 35.0575 203.49Z" fill="var(--fill-0, #00ADEF)"/>
<path id="Vector_33" d="M8.2482 167.914C8.2482 169.055 9.17293 169.979 10.3134 169.979C11.4538 169.979 12.3786 169.055 12.3786 167.914C12.3786 166.774 11.4538 165.849 10.3134 165.849C9.17293 165.849 8.2482 166.774 8.2482 167.914Z" fill="var(--fill-0, #00ADEF)"/>
<path id="Vector_34" d="M2.36813e-05 140.502C2.36813e-05 141.642 0.924751 142.567 2.06521 142.567C3.20597 142.567 4.13039 141.642 4.13039 140.502C4.13039 139.361 3.20566 138.436 2.06521 138.436C0.924751 138.436 2.36813e-05 139.361 2.36813e-05 140.502Z" fill="var(--fill-0, #00ADEF)"/>
<path id="Vector_35" d="M131.119 65.1925C131.119 66.3329 132.044 67.2577 133.184 67.2577C134.324 67.2577 135.249 66.3329 135.249 65.1925C135.249 64.052 134.324 63.1273 133.184 63.1273C132.044 63.1273 131.119 64.052 131.119 65.1925Z" fill="var(--fill-0, #00ADEF)"/>
<path id="Vector_36" d="M392.052 47.9125C393.193 47.9125 394.117 46.9879 394.117 45.8474C394.117 44.7068 393.193 43.7822 392.052 43.7822C390.912 43.7822 389.987 44.7068 389.987 45.8474C389.987 46.9879 390.912 47.9125 392.052 47.9125Z" fill="var(--fill-0, #00ADEF)"/>
<path id="Vector_37" d="M439.814 4.13032C440.955 4.13032 441.88 3.20574 441.88 2.06518C441.88 0.924623 440.955 0 439.814 0C438.674 0 437.749 0.924623 437.749 2.06518C437.749 3.20574 438.674 4.13032 439.814 4.13032Z" fill="var(--fill-0, #00ADEF)"/>
<path id="Vector_38" d="M427.376 55.1264C428.517 55.1264 429.442 54.2018 429.442 53.0613C429.442 51.9207 428.517 50.9961 427.376 50.9961C426.236 50.9961 425.311 51.9207 425.311 53.0613C425.311 54.2018 426.236 55.1264 427.376 55.1264Z" fill="var(--fill-0, #00ADEF)"/>
<path id="Vector_39" d="M462.799 77.1913C462.799 78.332 463.724 79.2565 464.864 79.2565C466.005 79.2565 466.93 78.3317 466.93 77.1913C466.93 76.0508 466.005 75.1261 464.864 75.1261C463.724 75.1261 462.799 76.0508 462.799 77.1913Z" fill="var(--fill-0, #00ADEF)"/>
<path id="Vector_40" d="M497.875 80.4252C497.875 81.5657 498.799 82.4904 499.94 82.4904C501.08 82.4904 502.005 81.5657 502.005 80.4252C502.005 79.2845 501.08 78.36 499.94 78.36C498.799 78.36 497.875 79.2845 497.875 80.4252Z" fill="var(--fill-0, #00ADEF)"/>
<path id="Vector_41" d="M438.682 97.0925C438.682 98.2333 439.607 99.1577 440.747 99.1577C441.888 99.1577 442.813 98.233 442.813 97.0925C442.813 95.9521 441.888 95.0273 440.747 95.0273C439.607 95.0273 438.682 95.9518 438.682 97.0925Z" fill="var(--fill-0, #00ADEF)"/>
<path id="Vector_42" d="M454.455 155.341C454.455 156.482 455.38 157.407 456.52 157.407C457.661 157.407 458.586 156.482 458.586 155.341C458.586 154.201 457.661 153.276 456.52 153.276C455.38 153.276 454.455 154.201 454.455 155.341Z" fill="var(--fill-0, #00ADEF)"/>
<path id="Vector_43" d="M454.455 169.731C454.455 170.871 455.38 171.796 456.52 171.796C457.661 171.796 458.586 170.871 458.586 169.731C458.586 168.59 457.661 167.666 456.52 167.666C455.38 167.666 454.455 168.59 454.455 169.731Z" fill="var(--fill-0, #00ADEF)"/>
<path id="Vector_44" d="M440.144 197.916C440.144 199.057 441.068 199.981 442.209 199.981C443.349 199.981 444.274 199.057 444.274 197.916C444.274 196.776 443.349 195.851 442.209 195.851C441.068 195.851 440.144 196.775 440.144 197.916Z" fill="var(--fill-0, #00ADEF)"/>
<path id="Vector_45" d="M440.144 182.608C440.144 183.749 441.068 184.673 442.209 184.673C443.349 184.673 444.274 183.749 444.274 182.608C444.274 181.467 443.349 180.543 442.209 180.543C441.068 180.543 440.144 181.468 440.144 182.608Z" fill="var(--fill-0, #00ADEF)"/>
<path id="Vector_46" d="M411.63 173.213C411.63 174.354 412.554 175.279 413.695 175.279C414.835 175.279 415.76 174.354 415.76 173.213C415.76 172.073 414.835 171.148 413.695 171.148C412.554 171.148 411.63 172.073 411.63 173.213Z" fill="var(--fill-0, #00ADEF)"/>
<path id="Vector_47" d="M489.914 130.8C489.914 131.94 490.839 132.865 491.98 132.865C493.12 132.865 494.045 131.94 494.045 130.8C494.045 129.659 493.12 128.735 491.98 128.735C490.839 128.735 489.914 129.659 489.914 130.8Z" fill="var(--fill-0, #00ADEF)"/>
<path id="Vector_48" d="M481.57 168.811C481.57 169.952 482.495 170.876 483.636 170.876C484.776 170.876 485.701 169.951 485.701 168.811C485.701 167.67 484.776 166.746 483.636 166.746C482.495 166.746 481.57 167.67 481.57 168.811Z" fill="var(--fill-0, #00ADEF)"/>
<path id="Vector_49" d="M499.1 165.328C499.1 166.469 500.024 167.394 501.165 167.394C502.305 167.394 503.23 166.469 503.23 165.328C503.23 164.188 502.305 163.263 501.165 163.263C500.024 163.263 499.1 164.188 499.1 165.328Z" fill="var(--fill-0, #00ADEF)"/>
<path id="Vector_50" d="M508.285 154.566C508.285 155.707 509.209 156.631 510.35 156.631C511.49 156.631 512.415 155.707 512.415 154.566C512.415 153.425 511.49 152.501 510.35 152.501C509.209 152.501 508.285 153.425 508.285 154.566Z" fill="var(--fill-0, #00ADEF)"/>
<path id="Vector_51" d="M554.86 197.916C556 197.916 556.925 196.991 556.925 195.851C556.925 194.71 556 193.786 554.86 193.786C553.719 193.786 552.794 194.71 552.794 195.851C552.794 196.991 553.719 197.916 554.86 197.916Z" fill="var(--fill-0, #00ADEF)"/>
<path id="Vector_52" d="M565.233 144.855C565.233 145.995 566.157 146.92 567.298 146.92C568.438 146.92 569.363 145.995 569.363 144.855C569.363 143.714 568.438 142.789 567.298 142.789C566.157 142.789 565.233 143.714 565.233 144.855Z" fill="var(--fill-0, #00ADEF)"/>
<path id="Vector_53" d="M574.053 95.1021C574.053 96.2428 574.978 97.1673 576.118 97.1673C577.259 97.1673 578.183 96.2425 578.183 95.1021C578.183 93.9616 577.259 93.0369 576.118 93.0369C574.978 93.0369 574.053 93.9616 574.053 95.1021Z" fill="var(--fill-0, #00ADEF)"/>
<path id="Vector_54" d="M601.168 112.018C601.168 113.159 602.093 114.083 603.233 114.083C604.374 114.083 605.298 113.159 605.298 112.018C605.298 110.877 604.374 109.953 603.233 109.953C602.093 109.953 601.168 110.877 601.168 112.018Z" fill="var(--fill-0, #00ADEF)"/>
<path id="Vector_55" d="M609.129 98.336C609.129 99.4768 610.053 100.401 611.194 100.401C612.334 100.401 613.259 99.4765 613.259 98.336C613.259 97.1956 612.334 96.2709 611.194 96.2709C610.053 96.2709 609.129 97.1956 609.129 98.336Z" fill="var(--fill-0, #00ADEF)"/>
<path id="Vector_56" d="M601.168 148.71C601.168 149.851 602.093 150.776 603.233 150.776C604.374 150.776 605.298 149.851 605.298 148.71C605.298 147.57 604.374 146.645 603.233 146.645C602.093 146.645 601.168 147.57 601.168 148.71Z" fill="var(--fill-0, #00ADEF)"/>
<path id="Vector_57" d="M609.129 169.731C609.129 170.871 610.053 171.796 611.194 171.796C612.334 171.796 613.259 170.871 613.259 169.731C613.259 168.59 612.334 167.666 611.194 167.666C610.053 167.666 609.129 168.59 609.129 169.731Z" fill="var(--fill-0, #00ADEF)"/>
<path id="Vector_58" d="M626.374 202.217C627.515 202.217 628.439 201.292 628.439 200.152C628.439 199.011 627.515 198.087 626.374 198.087C625.234 198.087 624.309 199.011 624.309 200.152C624.309 201.292 625.234 202.217 626.374 202.217Z" fill="var(--fill-0, #00ADEF)"/>
<path id="Vector_59" d="M666.113 215.827C667.254 215.827 668.178 214.902 668.178 213.762C668.178 212.621 667.254 211.697 666.113 211.697C664.973 211.697 664.048 212.621 664.048 213.762C664.048 214.902 664.973 215.827 666.113 215.827Z" fill="var(--fill-0, #00ADEF)"/>
<path id="Vector_60" d="M716.695 154.566C717.835 154.566 718.76 153.641 718.76 152.501C718.76 151.36 717.835 150.436 716.695 150.436C715.554 150.436 714.63 151.36 714.63 152.501C714.63 153.641 715.554 154.566 716.695 154.566Z" fill="var(--fill-0, #00ADEF)"/>
<path id="Vector_61" d="M676.486 120.725C676.486 121.865 677.411 122.79 678.551 122.79C679.692 122.79 680.617 121.865 680.617 120.725C680.617 119.584 679.692 118.66 678.551 118.66C677.411 118.66 676.486 119.584 676.486 120.725Z" fill="var(--fill-0, #00ADEF)"/>
<path id="Vector_62" d="M676.486 163.263C676.486 164.404 677.411 165.328 678.551 165.328C679.692 165.328 680.617 164.404 680.617 163.263C680.617 162.123 679.692 161.198 678.551 161.198C677.411 161.198 676.486 162.122 676.486 163.263Z" fill="var(--fill-0, #00ADEF)"/>
<path id="Vector_63" d="M695.685 215.665C695.685 216.805 696.609 217.73 697.75 217.73C698.891 217.73 699.815 216.805 699.815 215.665C699.815 214.524 698.891 213.599 697.75 213.599C696.609 213.599 695.685 214.524 695.685 215.665Z" fill="var(--fill-0, #00ADEF)"/>
<path id="Vector_64" d="M686.634 185.403C686.634 186.544 687.559 187.468 688.7 187.468C689.84 187.468 690.765 186.544 690.765 185.403C690.765 184.262 689.84 183.338 688.7 183.338C687.559 183.338 686.634 184.262 686.634 185.403Z" fill="var(--fill-0, #00ADEF)"/>
<path id="Vector_65" d="M677.826 221.071C677.826 222.212 678.751 223.136 679.891 223.136C681.032 223.136 681.956 222.211 681.956 221.071C681.956 219.931 681.032 219.006 679.891 219.006C678.751 219.006 677.826 219.931 677.826 221.071Z" fill="var(--fill-0, #00ADEF)"/>
<path id="Vector_66" d="M592.824 187.642C592.824 188.782 593.749 189.707 594.89 189.707C596.03 189.707 596.955 188.782 596.955 187.642C596.955 186.501 596.03 185.577 594.89 185.577C593.749 185.577 592.824 186.501 592.824 187.642Z" fill="var(--fill-0, #00ADEF)"/>
<path id="Vector_67" d="M508.285 175.279C508.285 176.419 509.209 177.344 510.35 177.344C511.49 177.344 512.415 176.419 512.415 175.279C512.415 174.138 511.49 173.214 510.35 173.214C509.209 173.214 508.285 174.138 508.285 175.279Z" fill="var(--fill-0, #00ADEF)"/>
<path id="Vector_68" d="M489.914 42.3646C489.914 43.5051 490.839 44.4298 491.98 44.4298C493.12 44.4298 494.045 43.5051 494.045 42.3646C494.045 41.2242 493.12 40.2995 491.98 40.2995C490.839 40.2995 489.914 41.2242 489.914 42.3646Z" fill="var(--fill-0, #00ADEF)"/>
</g>
</svg>
