<svg preserveAspectRatio="none" width="100%" height="100%" overflow="visible" style="display: block;" viewBox="0 0 657.927 394.905" fill="none" xmlns="http://www.w3.org/2000/svg">
<g id="Group">
<path id="Vector" d="M350.891 321.258V135.925L329.869 114.904V1.51596e-05" stroke="var(--stroke-0, #00ADEF)" stroke-width="3" stroke-miterlimit="10"/>
<path id="Vector_2" d="M329.87 63.7221L320.651 54.5035V13.9981" stroke="var(--stroke-0, #00ADEF)" stroke-width="3" stroke-miterlimit="10"/>
<path id="Vector_3" d="M329.869 97.7439L339.574 88.0396V30.2239" stroke="var(--stroke-0, #00ADEF)" stroke-width="3" stroke-miterlimit="10"/>
<path id="Vector_4" d="M340.38 317.333V147.468" stroke="var(--stroke-0, #00ADEF)" stroke-width="3" stroke-miterlimit="10"/>
<path id="Vector_5" d="M329.87 327.649V194.052L319.502 183.685V84.6585" stroke="var(--stroke-0, #00ADEF)" stroke-width="3" stroke-miterlimit="10"/>
<path id="Vector_6" d="M319.502 133.336L306.877 120.711V38.86" stroke="var(--stroke-0, #00ADEF)" stroke-width="3" stroke-miterlimit="10"/>
<path id="Vector_7" d="M319.502 296.117V203.997" stroke="var(--stroke-0, #00ADEF)" stroke-width="3" stroke-miterlimit="10"/>
<path id="Vector_8" d="M306.877 280.938V138.034" stroke="var(--stroke-0, #00ADEF)" stroke-width="3" stroke-miterlimit="10"/>
<path id="Vector_9" d="M246.632 347.38V207.237L267.654 186.216V71.3118" stroke="var(--stroke-0, #00ADEF)" stroke-width="3" stroke-miterlimit="10"/>
<path id="Vector_10" d="M267.654 135.034L276.872 125.815V85.3098" stroke="var(--stroke-0, #00ADEF)" stroke-width="3" stroke-miterlimit="10"/>
<path id="Vector_11" d="M267.654 169.056L257.949 159.351V101.536" stroke="var(--stroke-0, #00ADEF)" stroke-width="3" stroke-miterlimit="10"/>
<path id="Vector_12" d="M257.143 327.649V218.78" stroke="var(--stroke-0, #00ADEF)" stroke-width="3" stroke-miterlimit="10"/>
<path id="Vector_13" d="M267.654 332.883V265.363L278.02 254.996V155.97" stroke="var(--stroke-0, #00ADEF)" stroke-width="3" stroke-miterlimit="10"/>
<path id="Vector_14" d="M278.02 204.648L290.646 192.022V110.172" stroke="var(--stroke-0, #00ADEF)" stroke-width="3" stroke-miterlimit="10"/>
<path id="Vector_15" d="M290.646 352.25V209.346" stroke="var(--stroke-0, #00ADEF)" stroke-width="3" stroke-miterlimit="10"/>
<path id="Vector_16" d="M408.403 344.945V204.802L387.381 183.781V68.8767" stroke="var(--stroke-0, #00ADEF)" stroke-width="3" stroke-miterlimit="10"/>
<path id="Vector_17" d="M387.381 132.599L378.162 123.38V82.8751" stroke="var(--stroke-0, #00ADEF)" stroke-width="3" stroke-miterlimit="10"/>
<path id="Vector_18" d="M387.381 166.621L397.086 156.916V99.1007" stroke="var(--stroke-0, #00ADEF)" stroke-width="3" stroke-miterlimit="10"/>
<path id="Vector_19" d="M397.892 325.214V216.345" stroke="var(--stroke-0, #00ADEF)" stroke-width="3" stroke-miterlimit="10"/>
<path id="Vector_20" d="M387.381 330.448V262.928L377.014 252.561V153.535" stroke="var(--stroke-0, #00ADEF)" stroke-width="3" stroke-miterlimit="10"/>
<path id="Vector_21" d="M377.014 202.213L364.389 189.588V107.737" stroke="var(--stroke-0, #00ADEF)" stroke-width="3" stroke-miterlimit="10"/>
<path id="Vector_22" d="M364.389 349.814V206.911" stroke="var(--stroke-0, #00ADEF)" stroke-width="3" stroke-miterlimit="10"/>
<path id="Vector_23" d="M233.176 291.424V121.81L245.723 109.263V47.2922" stroke="var(--stroke-0, #00ADEF)" stroke-width="3" stroke-miterlimit="10"/>
<path id="Vector_24" d="M217.681 291.424V144.671" stroke="var(--stroke-0, #00ADEF)" stroke-width="3" stroke-miterlimit="10"/>
<path id="Vector_25" d="M201.772 291.424V95.3398" stroke="var(--stroke-0, #00ADEF)" stroke-width="3" stroke-miterlimit="10"/>
<path id="Vector_26" d="M37.9905 354.62V169.287L59.012 148.265V33.361" stroke="var(--stroke-0, #00ADEF)" stroke-width="3" stroke-miterlimit="10"/>
<path id="Vector_27" d="M48.5012 350.694V180.829" stroke="var(--stroke-0, #00ADEF)" stroke-width="3" stroke-miterlimit="10"/>
<path id="Vector_28" d="M59.0119 361.011V227.413L69.3787 217.046V118.02" stroke="var(--stroke-0, #00ADEF)" stroke-width="3" stroke-miterlimit="10"/>
<path id="Vector_29" d="M69.3787 166.697L82.0041 154.072V72.2213" stroke="var(--stroke-0, #00ADEF)" stroke-width="3" stroke-miterlimit="10"/>
<path id="Vector_30" d="M69.3787 329.478V237.358" stroke="var(--stroke-0, #00ADEF)" stroke-width="3" stroke-miterlimit="10"/>
<path id="Vector_31" d="M82.0042 314.299V171.395" stroke="var(--stroke-0, #00ADEF)" stroke-width="3" stroke-miterlimit="10"/>
<path id="Vector_32" d="M142.249 380.741V240.598L121.228 219.577V104.673" stroke="var(--stroke-0, #00ADEF)" stroke-width="3" stroke-miterlimit="10"/>
<path id="Vector_33" d="M121.228 202.417L130.932 192.712V134.897" stroke="var(--stroke-0, #00ADEF)" stroke-width="3" stroke-miterlimit="10"/>
<path id="Vector_34" d="M131.738 361.01V242.117" stroke="var(--stroke-0, #00ADEF)" stroke-width="3" stroke-miterlimit="10"/>
<path id="Vector_35" d="M656.427 301.737V192.868" stroke="var(--stroke-0, #00ADEF)" stroke-width="3" stroke-miterlimit="10"/>
<path id="Vector_36" d="M121.228 366.244V298.724L110.861 288.358V189.332" stroke="var(--stroke-0, #00ADEF)" stroke-width="3" stroke-miterlimit="10"/>
<path id="Vector_37" d="M110.861 238.009L98.2355 225.384V143.533" stroke="var(--stroke-0, #00ADEF)" stroke-width="3" stroke-miterlimit="10"/>
<path id="Vector_38" d="M98.2355 385.611V235.574" stroke="var(--stroke-0, #00ADEF)" stroke-width="3" stroke-miterlimit="10"/>
<path id="Vector_39" d="M1.5 363.81V296.29L11.8668 285.923V186.897" stroke="var(--stroke-0, #00ADEF)" stroke-width="3" stroke-miterlimit="10"/>
<path id="Vector_40" d="M11.8668 235.574L24.4922 222.948V141.098" stroke="var(--stroke-0, #00ADEF)" stroke-width="3" stroke-miterlimit="10"/>
<path id="Vector_41" d="M24.4921 383.176V240.272" stroke="var(--stroke-0, #00ADEF)" stroke-width="3" stroke-miterlimit="10"/>
<path id="Vector_42" d="M155.705 324.785V155.171L143.158 142.625V80.6537" stroke="var(--stroke-0, #00ADEF)" stroke-width="3" stroke-miterlimit="10"/>
<path id="Vector_43" d="M171.2 324.785V178.032" stroke="var(--stroke-0, #00ADEF)" stroke-width="3" stroke-miterlimit="10"/>
<path id="Vector_44" d="M187.109 324.785V128.701" stroke="var(--stroke-0, #00ADEF)" stroke-width="3" stroke-miterlimit="10"/>
<path id="Vector_45" d="M643.416 363.803V167.719" stroke="var(--stroke-0, #00ADEF)" stroke-width="3" stroke-miterlimit="10"/>
<path id="Vector_46" d="M572.918 363.913V178.58L551.896 157.559V42.6549" stroke="var(--stroke-0, #00ADEF)" stroke-width="3" stroke-miterlimit="10"/>
<path id="Vector_47" d="M562.407 359.988V190.123" stroke="var(--stroke-0, #00ADEF)" stroke-width="3" stroke-miterlimit="10"/>
<path id="Vector_48" d="M551.896 370.304V236.707L541.529 226.34V127.313" stroke="var(--stroke-0, #00ADEF)" stroke-width="3" stroke-miterlimit="10"/>
<path id="Vector_49" d="M541.529 175.991L528.904 163.365V81.515" stroke="var(--stroke-0, #00ADEF)" stroke-width="3" stroke-miterlimit="10"/>
<path id="Vector_50" d="M541.529 338.772V238.903" stroke="var(--stroke-0, #00ADEF)" stroke-width="3" stroke-miterlimit="10"/>
<path id="Vector_51" d="M528.904 323.593V180.689" stroke="var(--stroke-0, #00ADEF)" stroke-width="3" stroke-miterlimit="10"/>
<path id="Vector_52" d="M468.659 390.035V249.892L489.68 228.871V113.967" stroke="var(--stroke-0, #00ADEF)" stroke-width="3" stroke-miterlimit="10"/>
<path id="Vector_53" d="M489.68 211.711L479.976 202.006V144.191" stroke="var(--stroke-0, #00ADEF)" stroke-width="3" stroke-miterlimit="10"/>
<path id="Vector_54" d="M479.17 370.304V248.809" stroke="var(--stroke-0, #00ADEF)" stroke-width="3" stroke-miterlimit="10"/>
<path id="Vector_55" d="M489.68 375.538V308.018L500.047 297.651V198.625" stroke="var(--stroke-0, #00ADEF)" stroke-width="3" stroke-miterlimit="10"/>
<path id="Vector_56" d="M500.047 247.303L512.673 234.677V152.827" stroke="var(--stroke-0, #00ADEF)" stroke-width="3" stroke-miterlimit="10"/>
<path id="Vector_57" d="M512.673 394.905V252.001" stroke="var(--stroke-0, #00ADEF)" stroke-width="3" stroke-miterlimit="10"/>
<path id="Vector_58" d="M630.43 387.6V247.457L609.408 226.436V111.532" stroke="var(--stroke-0, #00ADEF)" stroke-width="3" stroke-miterlimit="10"/>
<path id="Vector_59" d="M609.408 209.276L619.112 199.571V141.756" stroke="var(--stroke-0, #00ADEF)" stroke-width="3" stroke-miterlimit="10"/>
<path id="Vector_60" d="M619.919 367.869V249.566" stroke="var(--stroke-0, #00ADEF)" stroke-width="3" stroke-miterlimit="10"/>
<path id="Vector_61" d="M609.408 373.104V305.584L599.041 295.216V196.19" stroke="var(--stroke-0, #00ADEF)" stroke-width="3" stroke-miterlimit="10"/>
<path id="Vector_62" d="M599.041 244.868L586.416 232.242V150.392" stroke="var(--stroke-0, #00ADEF)" stroke-width="3" stroke-miterlimit="10"/>
<path id="Vector_63" d="M586.416 392.47V249.566" stroke="var(--stroke-0, #00ADEF)" stroke-width="3" stroke-miterlimit="10"/>
<path id="Vector_64" d="M455.203 334.079V164.465L467.75 151.918V89.9471" stroke="var(--stroke-0, #00ADEF)" stroke-width="3" stroke-miterlimit="10"/>
<path id="Vector_65" d="M439.708 334.079V187.326" stroke="var(--stroke-0, #00ADEF)" stroke-width="3" stroke-miterlimit="10"/>
<path id="Vector_66" d="M423.799 334.079V137.995" stroke="var(--stroke-0, #00ADEF)" stroke-width="3" stroke-miterlimit="10"/>
</g>
</svg>
