<svg preserveAspectRatio="none" width="100%" height="100%" overflow="visible" style="display: block;" viewBox="0 0 729.588 471.068" fill="none" xmlns="http://www.w3.org/2000/svg">
<g id="Group">
<path id="Vector" d="M330.621 285.13V187.318L303.754 160.452V73.8823L278.38 48.5087V0" stroke="var(--stroke-0, #00ADEF)" stroke-width="3" stroke-miterlimit="10"/>
<path id="Vector_2" d="M337.835 273.895V186.572L309.973 158.71V70.151L290.819 50.9961" stroke="var(--stroke-0, #00ADEF)" stroke-width="3" stroke-miterlimit="10"/>
<path id="Vector_3" d="M413.842 365.929V295.778L386.975 268.912V182.343L361.602 156.969V108.461" stroke="var(--stroke-0, #00ADEF)" stroke-width="3" stroke-miterlimit="10"/>
<path id="Vector_4" d="M421.056 368.417V295.032L393.194 267.171V178.611L374.04 159.457" stroke="var(--stroke-0, #00ADEF)" stroke-width="3" stroke-miterlimit="10"/>
<path id="Vector_5" d="M345.297 278.576V139.804L326.143 120.65V43.7822" stroke="var(--stroke-0, #00ADEF)" stroke-width="3" stroke-miterlimit="10"/>
<path id="Vector_6" d="M353.258 297.302C353.258 295.809 353.258 78.6091 353.258 78.6091" stroke="var(--stroke-0, #00ADEF)" stroke-width="3" stroke-miterlimit="10"/>
<path id="Vector_7" d="M361.602 292.152V171.148" stroke="var(--stroke-0, #00ADEF)" stroke-width="3" stroke-miterlimit="10"/>
<path id="Vector_8" d="M245.37 277.874V136.322L226.215 117.167V40.2995" stroke="var(--stroke-0, #00ADEF)" stroke-width="3" stroke-miterlimit="10"/>
<path id="Vector_9" d="M253.331 277.406C253.331 275.914 253.331 75.1264 253.331 75.1264" stroke="var(--stroke-0, #00ADEF)" stroke-width="3" stroke-miterlimit="10"/>
<path id="Vector_10" d="M261.674 280.449V167.666" stroke="var(--stroke-0, #00ADEF)" stroke-width="3" stroke-miterlimit="10"/>
<path id="Vector_11" d="M226.215 300.878C226.215 299.386 226.215 128.735 226.215 128.735" stroke="var(--stroke-0, #00ADEF)" stroke-width="3" stroke-miterlimit="10"/>
<path id="Vector_12" d="M207.845 346.028C207.845 344.536 207.845 173.885 207.845 173.885" stroke="var(--stroke-0, #00ADEF)" stroke-width="3" stroke-miterlimit="10"/>
<path id="Vector_13" d="M217.03 336.824C217.03 335.332 217.03 164.681 217.03 164.681" stroke="var(--stroke-0, #00ADEF)" stroke-width="3" stroke-miterlimit="10"/>
<path id="Vector_14" d="M370.193 365.373C370.193 363.881 370.193 193.23 370.193 193.23" stroke="var(--stroke-0, #00ADEF)" stroke-width="3" stroke-miterlimit="10"/>
<path id="Vector_15" d="M378.249 357.596C378.249 356.103 378.249 185.452 378.249 185.452" stroke="var(--stroke-0, #00ADEF)" stroke-width="3" stroke-miterlimit="10"/>
<path id="Vector_16" d="M477.123 340.058C477.123 338.566 477.123 167.915 477.123 167.915" stroke="var(--stroke-0, #00ADEF)" stroke-width="3" stroke-miterlimit="10"/>
<path id="Vector_17" d="M464.284 372.423C464.284 370.93 464.284 200.279 464.284 200.279" stroke="var(--stroke-0, #00ADEF)" stroke-width="3" stroke-miterlimit="10"/>
<path id="Vector_18" d="M234.559 288.641V167.666" stroke="var(--stroke-0, #00ADEF)" stroke-width="3" stroke-miterlimit="10"/>
<path id="Vector_19" d="M400.849 279.981V123.635L428.959 95.5246V44.0309" stroke="var(--stroke-0, #00ADEF)" stroke-width="3" stroke-miterlimit="10"/>
<path id="Vector_20" d="M203.137 400.259V330.107L176.271 303.241V216.672L150.897 191.298V142.79" stroke="var(--stroke-0, #00ADEF)" stroke-width="3" stroke-miterlimit="10"/>
<path id="Vector_21" d="M210.351 402.746V329.361L182.49 301.5V212.94L163.335 193.786" stroke="var(--stroke-0, #00ADEF)" stroke-width="3" stroke-miterlimit="10"/>
<path id="Vector_22" d="M85.3201 427.966V354.581L57.4587 326.72V238.16L38.3041 219.006" stroke="var(--stroke-0, #00ADEF)" stroke-width="3" stroke-miterlimit="10"/>
<path id="Vector_23" d="M127.819 396.03V322.645L99.958 294.783V206.224L91.8208 198.087" stroke="var(--stroke-0, #00ADEF)" stroke-width="3" stroke-miterlimit="10"/>
<path id="Vector_24" d="M190.145 291.549V157.964L218.255 129.854V78.3603" stroke="var(--stroke-0, #00ADEF)" stroke-width="3" stroke-miterlimit="10"/>
<path id="Vector_25" d="M134.116 271.897V154.233L114.962 135.078V109.953" stroke="var(--stroke-0, #00ADEF)" stroke-width="3" stroke-miterlimit="10"/>
<path id="Vector_26" d="M142.077 265.181C142.077 263.688 142.077 93.0372 142.077 93.0372" stroke="var(--stroke-0, #00ADEF)" stroke-width="3" stroke-miterlimit="10"/>
<path id="Vector_27" d="M114.962 318.789C114.962 317.296 114.962 146.645 114.962 146.645" stroke="var(--stroke-0, #00ADEF)" stroke-width="3" stroke-miterlimit="10"/>
<path id="Vector_28" d="M1.5 323.267C1.5 321.774 1.5 151.123 1.5 151.123" stroke="var(--stroke-0, #00ADEF)" stroke-width="3" stroke-miterlimit="10"/>
<path id="Vector_29" d="M716.13 310.58C716.13 309.087 716.13 138.436 716.13 138.436" stroke="var(--stroke-0, #00ADEF)" stroke-width="3" stroke-miterlimit="10"/>
<path id="Vector_30" d="M123.306 271.897V185.577" stroke="var(--stroke-0, #00ADEF)" stroke-width="3" stroke-miterlimit="10"/>
<path id="Vector_31" d="M91.8838 418.169V348.018L65.0174 321.152V234.583L39.6438 209.209V160.701" stroke="var(--stroke-0, #00ADEF)" stroke-width="3" stroke-miterlimit="10"/>
<path id="Vector_32" d="M99.0978 420.657V347.272L71.2364 319.411V230.851L52.0818 211.697" stroke="var(--stroke-0, #00ADEF)" stroke-width="3" stroke-miterlimit="10"/>
<path id="Vector_33" d="M78.8911 309.46V175.875L107.001 147.765V96.2712" stroke="var(--stroke-0, #00ADEF)" stroke-width="3" stroke-miterlimit="10"/>
<path id="Vector_34" d="M720.874 407.897V337.747L694.008 310.88V224.311L668.634 198.937V150.429" stroke="var(--stroke-0, #00ADEF)" stroke-width="3" stroke-miterlimit="10"/>
<path id="Vector_35" d="M728.088 410.385V337L700.227 309.139V220.58L681.072 201.425" stroke="var(--stroke-0, #00ADEF)" stroke-width="3" stroke-miterlimit="10"/>
<path id="Vector_36" d="M707.881 299.188V165.603" stroke="var(--stroke-0, #00ADEF)" stroke-width="3" stroke-miterlimit="10"/>
<path id="Vector_37" d="M322.909 278.108V190.054L304.252 171.397" stroke="var(--stroke-0, #00ADEF)" stroke-width="3" stroke-miterlimit="10"/>
<path id="Vector_38" d="M314.327 288.875V193.289L295.669 174.631L277.447 156.41V95.0273" stroke="var(--stroke-0, #00ADEF)" stroke-width="3" stroke-miterlimit="10"/>
<path id="Vector_39" d="M307.486 293.088V199.087L261.674 153.276" stroke="var(--stroke-0, #00ADEF)" stroke-width="3" stroke-miterlimit="10"/>
<path id="Vector_40" d="M589.489 276.814V206.663L562.623 179.797V93.2277L537.249 67.8542V19.3454" stroke="var(--stroke-0, #00ADEF)" stroke-width="3" stroke-miterlimit="10"/>
<path id="Vector_41" d="M596.703 279.302V205.917L568.842 178.055V89.4961L549.687 70.3415" stroke="var(--stroke-0, #00ADEF)" stroke-width="3" stroke-miterlimit="10"/>
<path id="Vector_42" d="M672.71 385.274V315.124L645.844 288.257V201.688L620.47 176.314V127.806" stroke="var(--stroke-0, #00ADEF)" stroke-width="3" stroke-miterlimit="10"/>
<path id="Vector_43" d="M679.924 387.762V314.377L652.063 286.516V197.957L632.908 178.802" stroke="var(--stroke-0, #00ADEF)" stroke-width="3" stroke-miterlimit="10"/>
<path id="Vector_44" d="M604.166 276.814V159.15L585.011 139.995V63.1276" stroke="var(--stroke-0, #00ADEF)" stroke-width="3" stroke-miterlimit="10"/>
<path id="Vector_45" d="M612.126 270.097C612.126 268.605 612.126 97.9542 612.126 97.9542" stroke="var(--stroke-0, #00ADEF)" stroke-width="3" stroke-miterlimit="10"/>
<path id="Vector_46" d="M620.47 276.814V190.494" stroke="var(--stroke-0, #00ADEF)" stroke-width="3" stroke-miterlimit="10"/>
<path id="Vector_47" d="M504.238 273.332V155.667L485.084 136.512V59.6449" stroke="var(--stroke-0, #00ADEF)" stroke-width="3" stroke-miterlimit="10"/>
<path id="Vector_48" d="M512.199 266.615C512.199 265.123 512.199 94.4715 512.199 94.4715" stroke="var(--stroke-0, #00ADEF)" stroke-width="3" stroke-miterlimit="10"/>
<path id="Vector_49" d="M520.543 273.332V187.011" stroke="var(--stroke-0, #00ADEF)" stroke-width="3" stroke-miterlimit="10"/>
<path id="Vector_50" d="M485.084 320.223C485.084 318.73 485.084 148.079 485.084 148.079" stroke="var(--stroke-0, #00ADEF)" stroke-width="3" stroke-miterlimit="10"/>
<path id="Vector_51" d="M493.428 273.332V187.011" stroke="var(--stroke-0, #00ADEF)" stroke-width="3" stroke-miterlimit="10"/>
<path id="Vector_52" d="M275.986 283.282V196.962" stroke="var(--stroke-0, #00ADEF)" stroke-width="3" stroke-miterlimit="10"/>
<path id="Vector_53" d="M107.001 285.364V167.666" stroke="var(--stroke-0, #00ADEF)" stroke-width="3" stroke-miterlimit="10"/>
<path id="Vector_54" d="M29.4956 269.658V183.338" stroke="var(--stroke-0, #00ADEF)" stroke-width="3" stroke-miterlimit="10"/>
<path id="Vector_55" d="M659.718 276.566V142.98" stroke="var(--stroke-0, #00ADEF)" stroke-width="3" stroke-miterlimit="10"/>
<path id="Vector_56" d="M462.006 419.604V349.453L435.139 322.586V236.017L409.766 210.643V162.135" stroke="var(--stroke-0, #00ADEF)" stroke-width="3" stroke-miterlimit="10"/>
<path id="Vector_57" d="M11.5281 308.685V175.099L39.6383 146.989V118.66" stroke="var(--stroke-0, #00ADEF)" stroke-width="3" stroke-miterlimit="10"/>
<path id="Vector_58" d="M72.685 471.068V400.917L45.8186 374.051V287.482L20.445 262.108V213.599" stroke="var(--stroke-0, #00ADEF)" stroke-width="3" stroke-miterlimit="10"/>
<path id="Vector_59" d="M469.22 422.091V348.706L441.358 320.845V232.286L422.204 213.131" stroke="var(--stroke-0, #00ADEF)" stroke-width="3" stroke-miterlimit="10"/>
<path id="Vector_60" d="M449.013 310.895V177.309L477.123 149.199V97.7055" stroke="var(--stroke-0, #00ADEF)" stroke-width="3" stroke-miterlimit="10"/>
<path id="Vector_61" d="M581.777 270.097V209.4L563.12 190.742" stroke="var(--stroke-0, #00ADEF)" stroke-width="3" stroke-miterlimit="10"/>
<path id="Vector_62" d="M455.826 266.615V183.279L464.284 174.822" stroke="var(--stroke-0, #00ADEF)" stroke-width="3" stroke-miterlimit="10"/>
<path id="Vector_63" d="M573.195 273.331V212.633L554.538 193.976L536.316 175.754V114.372" stroke="var(--stroke-0, #00ADEF)" stroke-width="3" stroke-miterlimit="10"/>
<path id="Vector_64" d="M566.354 270.097V218.433L520.543 172.622" stroke="var(--stroke-0, #00ADEF)" stroke-width="3" stroke-miterlimit="10"/>
<path id="Vector_65" d="M559.71 300.11V224.508L535.481 200.28" stroke="var(--stroke-0, #00ADEF)" stroke-width="3" stroke-miterlimit="10"/>
<path id="Vector_66" d="M300.215 279.044V204.772L275.986 180.543" stroke="var(--stroke-0, #00ADEF)" stroke-width="3" stroke-miterlimit="10"/>
<path id="Vector_67" d="M198.237 263.937V162.109L207.845 152.501" stroke="var(--stroke-0, #00ADEF)" stroke-width="3" stroke-miterlimit="10"/>
<path id="Vector_68" d="M535.481 285.598V213.131" stroke="var(--stroke-0, #00ADEF)" stroke-width="3" stroke-miterlimit="10"/>
</g>
</svg>
