<svg preserveAspectRatio="none" width="100%" height="100%" overflow="visible" style="display: block;" viewBox="0 0 718.76 223.136" fill="none" xmlns="http://www.w3.org/2000/svg">
<g id="Group">
<path id="Vector" d="M431.59 45.8474C431.59 46.9878 430.665 47.9125 429.525 47.9125C428.384 47.9125 427.46 46.9878 427.46 45.8474C427.46 44.7066 428.384 43.7822 429.525 43.7822C430.665 43.7822 431.59 44.7066 431.59 45.8474Z" fill="var(--fill-0, #00ADEF)"/>
<path id="Vector_2" d="M353.823 82.4904C354.963 82.4904 355.888 81.5658 355.888 80.4252C355.888 79.2847 354.963 78.36 353.823 78.36C352.682 78.36 351.758 79.2847 351.758 80.4252C351.758 81.5658 352.682 82.4904 353.823 82.4904Z" fill="var(--fill-0, #00ADEF)"/>
<path id="Vector_3" d="M364.232 109.531C364.232 110.671 363.307 111.596 362.167 111.596C361.026 111.596 360.102 110.671 360.102 109.531C360.102 108.39 361.026 107.465 362.167 107.465C363.307 107.465 364.232 108.39 364.232 109.531Z" fill="var(--fill-0, #00ADEF)"/>
<path id="Vector_4" d="M364.232 172.218C364.232 173.359 363.307 174.283 362.167 174.283C361.026 174.283 360.102 173.359 360.102 172.218C360.102 171.078 361.026 170.153 362.167 170.153C363.307 170.153 364.232 171.078 364.232 172.218Z" fill="var(--fill-0, #00ADEF)"/>
<path id="Vector_5" d="M372.823 195.295C372.823 196.435 371.899 197.36 370.758 197.36C369.617 197.36 368.693 196.435 368.693 195.295C368.693 194.154 369.618 193.23 370.758 193.23C371.899 193.23 372.823 194.154 372.823 195.295Z" fill="var(--fill-0, #00ADEF)"/>
<path id="Vector_6" d="M380.88 186.739C380.88 187.879 379.955 188.804 378.814 188.804C377.674 188.804 376.749 187.879 376.749 186.739C376.749 185.598 377.674 184.674 378.814 184.674C379.955 184.674 380.88 185.598 380.88 186.739Z" fill="var(--fill-0, #00ADEF)"/>
<path id="Vector_7" d="M376.67 161.522C376.67 162.663 375.745 163.587 374.605 163.587C373.465 163.587 372.54 162.662 372.54 161.522C372.54 160.381 373.465 159.457 374.605 159.457C375.746 159.456 376.67 160.381 376.67 161.522Z" fill="var(--fill-0, #00ADEF)"/>
<path id="Vector_8" d="M412.396 164.2C412.396 165.34 411.471 166.265 410.331 166.265C409.191 166.265 408.266 165.34 408.266 164.2C408.266 163.059 409.191 162.135 410.331 162.135C411.471 162.135 412.396 163.059 412.396 164.2Z" fill="var(--fill-0, #00ADEF)"/>
<path id="Vector_9" d="M422.769 217.261C423.91 217.261 424.834 216.336 424.834 215.196C424.834 214.055 423.91 213.131 422.769 213.131C421.628 213.131 420.704 214.055 420.704 215.196C420.704 216.336 421.628 217.261 422.769 217.261Z" fill="var(--fill-0, #00ADEF)"/>
<path id="Vector_10" d="M466.914 176.887C466.914 178.028 465.989 178.952 464.849 178.952C463.708 178.952 462.784 178.027 462.784 176.887C462.784 175.746 463.708 174.822 464.849 174.822C465.989 174.822 466.914 175.746 466.914 176.887Z" fill="var(--fill-0, #00ADEF)"/>
<path id="Vector_11" d="M464.849 204.41C465.989 204.41 466.914 203.485 466.914 202.345C466.914 201.204 465.989 200.28 464.849 200.28C463.708 200.28 462.784 201.204 462.784 202.345C462.784 203.485 463.708 204.41 464.849 204.41Z" fill="var(--fill-0, #00ADEF)"/>
<path id="Vector_12" d="M479.754 169.98C479.754 171.12 478.829 172.045 477.688 172.045C476.548 172.045 475.623 171.12 475.623 169.98C475.623 168.839 476.548 167.915 477.688 167.915C478.829 167.915 479.754 168.839 479.754 169.98Z" fill="var(--fill-0, #00ADEF)"/>
<path id="Vector_13" d="M487.714 150.145C487.714 151.285 486.789 152.21 485.649 152.21C484.508 152.21 483.584 151.285 483.584 150.145C483.584 149.004 484.508 148.08 485.649 148.08C486.789 148.08 487.714 149.004 487.714 150.145Z" fill="var(--fill-0, #00ADEF)"/>
<path id="Vector_14" d="M477.688 101.223C478.829 101.223 479.754 100.298 479.754 99.1573C479.754 98.0168 478.829 97.0922 477.688 97.0922C476.548 97.0922 475.623 98.0168 475.623 99.1573C475.623 100.298 476.548 101.223 477.688 101.223Z" fill="var(--fill-0, #00ADEF)"/>
<path id="Vector_15" d="M487.714 60.773C487.714 61.9138 486.789 62.8382 485.649 62.8382C484.508 62.8382 483.584 61.9135 483.584 60.773C483.584 59.6326 484.508 58.7078 485.649 58.7078C486.789 58.7075 487.714 59.6323 487.714 60.773Z" fill="var(--fill-0, #00ADEF)"/>
<path id="Vector_16" d="M514.829 96.5364C514.829 97.6768 513.905 98.6016 512.764 98.6016C511.624 98.6016 510.699 97.6768 510.699 96.5364C510.699 95.3956 511.624 94.4712 512.764 94.4712C513.905 94.4712 514.829 95.3959 514.829 96.5364Z" fill="var(--fill-0, #00ADEF)"/>
<path id="Vector_17" d="M539.879 21.4103C539.879 22.5511 538.954 23.4755 537.814 23.4755C536.673 23.4755 535.749 22.5508 535.749 21.4103C535.749 20.2699 536.673 19.3452 537.814 19.3452C538.954 19.3452 539.879 20.2696 539.879 21.4103Z" fill="var(--fill-0, #00ADEF)"/>
<path id="Vector_18" d="M552.317 72.4067C552.317 73.5475 551.393 74.4719 550.252 74.4719C549.112 74.4719 548.187 73.5472 548.187 72.4067C548.187 71.2663 549.112 70.3415 550.252 70.3415C551.393 70.3415 552.317 71.266 552.317 72.4067Z" fill="var(--fill-0, #00ADEF)"/>
<path id="Vector_19" d="M538.946 116.437C538.946 117.578 538.022 118.503 536.881 118.503C535.74 118.503 534.816 117.578 534.816 116.437C534.816 115.297 535.74 114.372 536.881 114.372C538.022 114.372 538.946 115.297 538.946 116.437Z" fill="var(--fill-0, #00ADEF)"/>
<path id="Vector_20" d="M523.173 189.076C523.173 190.217 522.248 191.141 521.108 191.141C519.968 191.141 519.043 190.217 519.043 189.076C519.043 187.936 519.968 187.011 521.108 187.011C522.248 187.011 523.173 187.935 523.173 189.076Z" fill="var(--fill-0, #00ADEF)"/>
<path id="Vector_21" d="M523.173 174.687C523.173 175.827 522.248 176.752 521.108 176.752C519.968 176.752 519.043 175.827 519.043 174.687C519.043 173.546 519.968 172.621 521.108 172.621C522.248 172.621 523.173 173.546 523.173 174.687Z" fill="var(--fill-0, #00ADEF)"/>
<path id="Vector_22" d="M496.058 189.076C496.058 190.217 495.133 191.141 493.993 191.141C492.852 191.141 491.928 190.217 491.928 189.076C491.928 187.936 492.852 187.011 493.993 187.011C495.134 187.011 496.058 187.935 496.058 189.076Z" fill="var(--fill-0, #00ADEF)"/>
<path id="Vector_23" d="M538.112 202.345C538.112 203.485 537.187 204.41 536.047 204.41C534.906 204.41 533.982 203.485 533.982 202.345C533.982 201.204 534.906 200.28 536.047 200.28C537.187 200.28 538.112 201.204 538.112 202.345Z" fill="var(--fill-0, #00ADEF)"/>
<path id="Vector_24" d="M538.112 215.196C538.112 216.337 537.187 217.261 536.047 217.261C534.906 217.261 533.982 216.336 533.982 215.196C533.982 214.055 534.906 213.131 536.047 213.131C537.187 213.131 538.112 214.055 538.112 215.196Z" fill="var(--fill-0, #00ADEF)"/>
<path id="Vector_25" d="M565.999 192.807C565.999 193.948 565.074 194.872 563.934 194.872C562.794 194.872 561.869 193.948 561.869 192.807C561.869 191.667 562.794 190.742 563.934 190.742C565.074 190.742 565.999 191.667 565.999 192.807Z" fill="var(--fill-0, #00ADEF)"/>
<path id="Vector_26" d="M614.757 99.7703C614.757 100.911 613.832 101.836 612.692 101.836C611.551 101.836 610.626 100.911 610.626 99.7703C610.626 98.6296 611.551 97.7052 612.692 97.7052C613.832 97.7052 614.757 98.6296 614.757 99.7703Z" fill="var(--fill-0, #00ADEF)"/>
<path id="Vector_27" d="M623.101 129.871C623.101 131.011 622.176 131.936 621.035 131.936C619.895 131.936 618.97 131.011 618.97 129.871C618.97 128.73 619.895 127.806 621.035 127.806C622.176 127.806 623.101 128.73 623.101 129.871Z" fill="var(--fill-0, #00ADEF)"/>
<path id="Vector_28" d="M623.101 191.141C623.101 192.282 622.176 193.206 621.035 193.206C619.895 193.206 618.97 192.282 618.97 191.141C618.97 190.001 619.895 189.076 621.035 189.076C622.176 189.076 623.101 190.001 623.101 191.141Z" fill="var(--fill-0, #00ADEF)"/>
<path id="Vector_29" d="M635.538 180.867C635.538 182.008 634.614 182.932 633.473 182.932C632.333 182.932 631.408 182.007 631.408 180.867C631.408 179.726 632.333 178.802 633.473 178.802C634.614 178.802 635.538 179.726 635.538 180.867Z" fill="var(--fill-0, #00ADEF)"/>
<path id="Vector_30" d="M662.348 145.045C662.348 146.186 661.423 147.11 660.283 147.11C659.142 147.11 658.218 146.186 658.218 145.045C658.218 143.904 659.142 142.98 660.283 142.98C661.423 142.98 662.348 143.904 662.348 145.045Z" fill="var(--fill-0, #00ADEF)"/>
<path id="Vector_31" d="M671.265 152.494C671.265 153.635 670.34 154.559 669.199 154.559C668.059 154.559 667.134 153.635 667.134 152.494C667.134 151.354 668.059 150.429 669.199 150.429C670.34 150.429 671.265 151.353 671.265 152.494Z" fill="var(--fill-0, #00ADEF)"/>
<path id="Vector_32" d="M683.703 203.49C683.703 204.631 682.778 205.555 681.637 205.555C680.497 205.555 679.572 204.631 679.572 203.49C679.572 202.349 680.497 201.425 681.637 201.425C682.778 201.425 683.703 202.349 683.703 203.49Z" fill="var(--fill-0, #00ADEF)"/>
<path id="Vector_33" d="M710.512 167.915C710.512 169.055 709.587 169.98 708.447 169.98C707.306 169.98 706.382 169.055 706.382 167.915C706.382 166.774 707.306 165.849 708.447 165.849C709.587 165.849 710.512 166.774 710.512 167.915Z" fill="var(--fill-0, #00ADEF)"/>
<path id="Vector_34" d="M716.695 142.566C717.835 142.566 718.76 141.642 718.76 140.501C718.76 139.361 717.835 138.436 716.695 138.436C715.554 138.436 714.63 139.361 714.63 140.501C714.63 141.642 715.554 142.566 716.695 142.566Z" fill="var(--fill-0, #00ADEF)"/>
<path id="Vector_35" d="M587.642 65.1925C587.642 66.3329 586.717 67.2577 585.576 67.2577C584.436 67.2577 583.511 66.3329 583.511 65.1925C583.511 64.0517 584.436 63.1273 585.576 63.1273C586.717 63.127 587.642 64.0517 587.642 65.1925Z" fill="var(--fill-0, #00ADEF)"/>
<path id="Vector_36" d="M328.773 45.8474C328.773 46.9878 327.848 47.9125 326.708 47.9125C325.567 47.9125 324.643 46.9878 324.643 45.8474C324.643 44.7066 325.568 43.7822 326.708 43.7822C327.848 43.7822 328.773 44.7066 328.773 45.8474Z" fill="var(--fill-0, #00ADEF)"/>
<path id="Vector_37" d="M281.011 2.06514C281.011 3.2059 280.086 4.13032 278.946 4.13032C277.805 4.13032 276.88 3.2056 276.88 2.06514C276.88 0.924689 277.805 0 278.946 0C280.086 0 281.011 0.924689 281.011 2.06514Z" fill="var(--fill-0, #00ADEF)"/>
<path id="Vector_38" d="M291.384 55.1264C292.524 55.1264 293.449 54.2018 293.449 53.0613C293.449 51.9207 292.524 50.9961 291.384 50.9961C290.243 50.9961 289.319 51.9207 289.319 53.0613C289.319 54.2018 290.243 55.1264 291.384 55.1264Z" fill="var(--fill-0, #00ADEF)"/>
<path id="Vector_39" d="M253.896 79.2567C255.036 79.2567 255.961 78.3321 255.961 77.1915C255.961 76.0509 255.036 75.1264 253.896 75.1264C252.755 75.1264 251.831 76.0509 251.831 77.1915C251.831 78.3321 252.755 79.2567 253.896 79.2567Z" fill="var(--fill-0, #00ADEF)"/>
<path id="Vector_40" d="M220.885 80.4252C220.885 81.5657 219.961 82.4904 218.82 82.4904C217.679 82.4904 216.755 81.5657 216.755 80.4252C216.755 79.2845 217.679 78.36 218.82 78.36C219.961 78.36 220.885 79.2848 220.885 80.4252Z" fill="var(--fill-0, #00ADEF)"/>
<path id="Vector_41" d="M280.078 97.0922C280.078 98.233 279.153 99.1574 278.013 99.1574C276.872 99.1574 275.948 98.2327 275.948 97.0922C275.948 95.9518 276.872 95.0271 278.013 95.0271C279.153 95.0271 280.078 95.9518 280.078 97.0922Z" fill="var(--fill-0, #00ADEF)"/>
<path id="Vector_42" d="M262.24 157.407C263.38 157.407 264.305 156.482 264.305 155.342C264.305 154.201 263.38 153.276 262.24 153.276C261.099 153.276 260.174 154.201 260.174 155.342C260.174 156.482 261.099 157.407 262.24 157.407Z" fill="var(--fill-0, #00ADEF)"/>
<path id="Vector_43" d="M262.24 171.796C263.38 171.796 264.305 170.871 264.305 169.731C264.305 168.59 263.38 167.666 262.24 167.666C261.099 167.666 260.174 168.59 260.174 169.731C260.174 170.871 261.099 171.796 262.24 171.796Z" fill="var(--fill-0, #00ADEF)"/>
<path id="Vector_44" d="M278.616 197.916C278.616 199.057 277.692 199.981 276.551 199.981C275.411 199.981 274.486 199.057 274.486 197.916C274.486 196.776 275.411 195.851 276.551 195.851C277.692 195.851 278.616 196.776 278.616 197.916Z" fill="var(--fill-0, #00ADEF)"/>
<path id="Vector_45" d="M276.551 184.674C277.692 184.674 278.616 183.749 278.616 182.608C278.616 181.468 277.692 180.543 276.551 180.543C275.411 180.543 274.486 181.468 274.486 182.608C274.486 183.749 275.411 184.674 276.551 184.674Z" fill="var(--fill-0, #00ADEF)"/>
<path id="Vector_46" d="M307.131 173.214C307.131 174.354 306.206 175.279 305.066 175.279C303.925 175.279 303 174.354 303 173.214C303 172.073 303.925 171.148 305.066 171.148C306.206 171.148 307.131 172.073 307.131 173.214Z" fill="var(--fill-0, #00ADEF)"/>
<path id="Vector_47" d="M228.846 130.8C228.846 131.94 227.921 132.865 226.781 132.865C225.64 132.865 224.715 131.94 224.715 130.8C224.715 129.659 225.64 128.735 226.781 128.735C227.921 128.735 228.846 129.659 228.846 130.8Z" fill="var(--fill-0, #00ADEF)"/>
<path id="Vector_48" d="M237.19 168.811C237.19 169.951 236.265 170.876 235.124 170.876C233.984 170.876 233.059 169.951 233.059 168.811C233.059 167.67 233.984 166.746 235.124 166.746C236.265 166.746 237.19 167.67 237.19 168.811Z" fill="var(--fill-0, #00ADEF)"/>
<path id="Vector_49" d="M219.661 165.328C219.661 166.469 218.736 167.394 217.596 167.394C216.455 167.394 215.531 166.469 215.531 165.328C215.531 164.188 216.455 163.263 217.596 163.263C218.736 163.263 219.661 164.188 219.661 165.328Z" fill="var(--fill-0, #00ADEF)"/>
<path id="Vector_50" d="M208.41 156.631C209.551 156.631 210.475 155.706 210.475 154.566C210.475 153.425 209.551 152.501 208.41 152.501C207.27 152.501 206.345 153.425 206.345 154.566C206.345 155.706 207.27 156.631 208.41 156.631Z" fill="var(--fill-0, #00ADEF)"/>
<path id="Vector_51" d="M165.966 195.851C165.966 196.992 165.041 197.916 163.901 197.916C162.76 197.916 161.836 196.992 161.836 195.851C161.836 194.71 162.76 193.786 163.901 193.786C165.041 193.786 165.966 194.71 165.966 195.851Z" fill="var(--fill-0, #00ADEF)"/>
<path id="Vector_52" d="M153.528 144.855C153.528 145.996 152.603 146.92 151.463 146.92C150.322 146.92 149.397 145.995 149.397 144.855C149.397 143.714 150.322 142.79 151.463 142.79C152.603 142.789 153.528 143.714 153.528 144.855Z" fill="var(--fill-0, #00ADEF)"/>
<path id="Vector_53" d="M144.707 95.1023C144.707 96.2428 143.783 97.1675 142.642 97.1675C141.501 97.1675 140.577 96.2428 140.577 95.1023C140.577 93.9616 141.502 93.0372 142.642 93.0372C143.783 93.0372 144.707 93.9616 144.707 95.1023Z" fill="var(--fill-0, #00ADEF)"/>
<path id="Vector_54" d="M117.592 112.018C117.592 113.159 116.668 114.083 115.527 114.083C114.387 114.083 113.462 113.159 113.462 112.018C113.462 110.878 114.387 109.953 115.527 109.953C116.668 109.953 117.592 110.877 117.592 112.018Z" fill="var(--fill-0, #00ADEF)"/>
<path id="Vector_55" d="M109.632 98.336C109.632 99.4765 108.707 100.401 107.566 100.401C106.426 100.401 105.501 99.4765 105.501 98.336C105.501 97.1956 106.426 96.2709 107.566 96.2709C108.707 96.2709 109.632 97.1956 109.632 98.336Z" fill="var(--fill-0, #00ADEF)"/>
<path id="Vector_56" d="M117.592 148.71C117.592 149.851 116.668 150.775 115.527 150.775C114.387 150.775 113.462 149.851 113.462 148.71C113.462 147.569 114.387 146.645 115.527 146.645C116.668 146.645 117.592 147.57 117.592 148.71Z" fill="var(--fill-0, #00ADEF)"/>
<path id="Vector_57" d="M107.566 171.796C108.707 171.796 109.632 170.871 109.632 169.731C109.632 168.59 108.707 167.666 107.566 167.666C106.426 167.666 105.501 168.59 105.501 169.731C105.501 170.871 106.426 171.796 107.566 171.796Z" fill="var(--fill-0, #00ADEF)"/>
<path id="Vector_58" d="M92.386 202.217C93.5266 202.217 94.4512 201.292 94.4512 200.152C94.4512 199.011 93.5266 198.087 92.386 198.087C91.2454 198.087 90.3208 199.011 90.3208 200.152C90.3208 201.292 91.2454 202.217 92.386 202.217Z" fill="var(--fill-0, #00ADEF)"/>
<path id="Vector_59" d="M54.7122 213.762C54.7122 214.903 53.7875 215.827 52.6471 215.827C51.5066 215.827 50.5819 214.902 50.5819 213.762C50.5819 212.621 51.5066 211.697 52.6471 211.697C53.7875 211.697 54.7122 212.621 54.7122 213.762Z" fill="var(--fill-0, #00ADEF)"/>
<path id="Vector_60" d="M2.06518 154.566C3.20574 154.566 4.13036 153.641 4.13036 152.501C4.13036 151.36 3.20574 150.436 2.06518 150.436C0.924623 150.436 0 151.36 0 152.501C0 153.641 0.924623 154.566 2.06518 154.566Z" fill="var(--fill-0, #00ADEF)"/>
<path id="Vector_61" d="M42.2742 120.724C42.2742 121.865 41.3495 122.79 40.2091 122.79C39.0686 122.79 38.1439 121.865 38.1439 120.724C38.1439 119.584 39.0686 118.659 40.2091 118.659C41.3495 118.659 42.2742 119.584 42.2742 120.724Z" fill="var(--fill-0, #00ADEF)"/>
<path id="Vector_62" d="M42.2742 163.263C42.2742 164.403 41.3495 165.328 40.2091 165.328C39.0686 165.328 38.1439 164.403 38.1439 163.263C38.1439 162.122 39.0686 161.198 40.2091 161.198C41.3495 161.198 42.2742 162.122 42.2742 163.263Z" fill="var(--fill-0, #00ADEF)"/>
<path id="Vector_63" d="M21.0101 217.729C22.1507 217.729 23.0752 216.805 23.0752 215.664C23.0752 214.524 22.1507 213.599 21.0101 213.599C19.8696 213.599 18.945 214.524 18.945 215.664C18.945 216.805 19.8696 217.729 21.0101 217.729Z" fill="var(--fill-0, #00ADEF)"/>
<path id="Vector_64" d="M32.1262 185.403C32.1262 186.544 31.2015 187.468 30.0607 187.468C28.9203 187.468 27.9956 186.543 27.9956 185.403C27.9956 184.262 28.9203 183.338 30.0607 183.338C31.2015 183.338 32.1262 184.262 32.1262 185.403Z" fill="var(--fill-0, #00ADEF)"/>
<path id="Vector_65" d="M40.9345 221.071C40.9345 222.212 40.0098 223.136 38.8693 223.136C37.7289 223.136 36.8041 222.211 36.8041 221.071C36.8041 219.931 37.7289 219.006 38.8693 219.006C40.0098 219.006 40.9345 219.93 40.9345 221.071Z" fill="var(--fill-0, #00ADEF)"/>
<path id="Vector_66" d="M123.871 189.707C125.011 189.707 125.936 188.782 125.936 187.642C125.936 186.501 125.011 185.576 123.871 185.576C122.73 185.576 121.806 186.501 121.806 187.642C121.806 188.782 122.73 189.707 123.871 189.707Z" fill="var(--fill-0, #00ADEF)"/>
<path id="Vector_67" d="M208.41 177.344C209.551 177.344 210.475 176.419 210.475 175.279C210.475 174.138 209.551 173.214 208.41 173.214C207.27 173.214 206.345 174.138 206.345 175.279C206.345 176.419 207.27 177.344 208.41 177.344Z" fill="var(--fill-0, #00ADEF)"/>
<path id="Vector_68" d="M226.781 44.4298C227.921 44.4298 228.846 43.5052 228.846 42.3646C228.846 41.2241 227.921 40.2995 226.781 40.2995C225.64 40.2995 224.715 41.2241 224.715 42.3646C224.715 43.5052 225.64 44.4298 226.781 44.4298Z" fill="var(--fill-0, #00ADEF)"/>
</g>
</svg>
