<svg preserveAspectRatio="none" width="100%" height="100%" overflow="visible" style="display: block;" viewBox="0 0 729.588 471.068" fill="none" xmlns="http://www.w3.org/2000/svg">
<g id="Group">
<path id="Vector" d="M398.968 257.469V187.318L425.834 160.452V73.8823L451.208 48.5084V0" stroke="var(--stroke-0, #00ADEF)" stroke-width="3" stroke-miterlimit="10"/>
<path id="Vector_2" d="M391.754 259.956V186.571L419.615 158.71V70.1507L438.77 50.9961" stroke="var(--stroke-0, #00ADEF)" stroke-width="3" stroke-miterlimit="10"/>
<path id="Vector_3" d="M315.746 365.929V295.778L342.613 268.912V182.342L367.987 156.969V108.46" stroke="var(--stroke-0, #00ADEF)" stroke-width="3" stroke-miterlimit="10"/>
<path id="Vector_4" d="M308.532 368.416V295.032L336.394 267.17V178.611L355.549 159.456" stroke="var(--stroke-0, #00ADEF)" stroke-width="3" stroke-miterlimit="10"/>
<path id="Vector_5" d="M384.291 257.469V139.804L403.446 120.649V43.7822" stroke="var(--stroke-0, #00ADEF)" stroke-width="3" stroke-miterlimit="10"/>
<path id="Vector_6" d="M376.33 250.752C376.33 249.26 376.33 78.6088 376.33 78.6088" stroke="var(--stroke-0, #00ADEF)" stroke-width="3" stroke-miterlimit="10"/>
<path id="Vector_7" d="M367.987 257.469V171.148" stroke="var(--stroke-0, #00ADEF)" stroke-width="3" stroke-miterlimit="10"/>
<path id="Vector_8" d="M484.218 253.986V136.322L503.373 117.167V40.2995" stroke="var(--stroke-0, #00ADEF)" stroke-width="3" stroke-miterlimit="10"/>
<path id="Vector_9" d="M476.258 247.27C476.258 245.777 476.258 75.1261 476.258 75.1261" stroke="var(--stroke-0, #00ADEF)" stroke-width="3" stroke-miterlimit="10"/>
<path id="Vector_10" d="M467.914 253.986V167.666" stroke="var(--stroke-0, #00ADEF)" stroke-width="3" stroke-miterlimit="10"/>
<path id="Vector_11" d="M503.373 300.878C503.373 299.385 503.373 128.734 503.373 128.734" stroke="var(--stroke-0, #00ADEF)" stroke-width="3" stroke-miterlimit="10"/>
<path id="Vector_12" d="M521.743 346.028C521.743 344.536 521.743 173.885 521.743 173.885" stroke="var(--stroke-0, #00ADEF)" stroke-width="3" stroke-miterlimit="10"/>
<path id="Vector_13" d="M512.558 336.824C512.558 335.332 512.558 164.681 512.558 164.681" stroke="var(--stroke-0, #00ADEF)" stroke-width="3" stroke-miterlimit="10"/>
<path id="Vector_14" d="M359.395 365.373C359.395 363.881 359.395 193.23 359.395 193.23" stroke="var(--stroke-0, #00ADEF)" stroke-width="3" stroke-miterlimit="10"/>
<path id="Vector_15" d="M351.339 357.596C351.339 356.103 351.339 185.452 351.339 185.452" stroke="var(--stroke-0, #00ADEF)" stroke-width="3" stroke-miterlimit="10"/>
<path id="Vector_16" d="M252.465 340.058C252.465 338.565 252.465 167.914 252.465 167.914" stroke="var(--stroke-0, #00ADEF)" stroke-width="3" stroke-miterlimit="10"/>
<path id="Vector_17" d="M265.305 372.423C265.305 370.93 265.305 200.279 265.305 200.279" stroke="var(--stroke-0, #00ADEF)" stroke-width="3" stroke-miterlimit="10"/>
<path id="Vector_18" d="M495.029 253.986V167.666" stroke="var(--stroke-0, #00ADEF)" stroke-width="3" stroke-miterlimit="10"/>
<path id="Vector_19" d="M328.739 257.22V123.635L300.629 95.5246V44.0309" stroke="var(--stroke-0, #00ADEF)" stroke-width="3" stroke-miterlimit="10"/>
<path id="Vector_20" d="M526.451 400.258V330.107L553.317 303.241V216.672L578.691 191.298V142.789" stroke="var(--stroke-0, #00ADEF)" stroke-width="3" stroke-miterlimit="10"/>
<path id="Vector_21" d="M519.237 402.746V329.361L547.098 301.5V212.94L566.253 193.786" stroke="var(--stroke-0, #00ADEF)" stroke-width="3" stroke-miterlimit="10"/>
<path id="Vector_22" d="M644.268 427.966V354.582L672.13 326.72V238.161L691.284 219.006" stroke="var(--stroke-0, #00ADEF)" stroke-width="3" stroke-miterlimit="10"/>
<path id="Vector_23" d="M601.769 396.029V322.644L629.63 294.783V206.224L637.768 198.087" stroke="var(--stroke-0, #00ADEF)" stroke-width="3" stroke-miterlimit="10"/>
<path id="Vector_24" d="M539.443 291.549V157.964L511.333 129.854V78.36" stroke="var(--stroke-0, #00ADEF)" stroke-width="3" stroke-miterlimit="10"/>
<path id="Vector_25" d="M595.472 271.897V154.232L614.627 135.078V109.953" stroke="var(--stroke-0, #00ADEF)" stroke-width="3" stroke-miterlimit="10"/>
<path id="Vector_26" d="M587.512 265.18C587.512 263.688 587.512 93.0369 587.512 93.0369" stroke="var(--stroke-0, #00ADEF)" stroke-width="3" stroke-miterlimit="10"/>
<path id="Vector_27" d="M614.627 318.789C614.627 317.296 614.627 146.645 614.627 146.645" stroke="var(--stroke-0, #00ADEF)" stroke-width="3" stroke-miterlimit="10"/>
<path id="Vector_28" d="M728.088 323.266C728.088 321.774 728.088 151.123 728.088 151.123" stroke="var(--stroke-0, #00ADEF)" stroke-width="3" stroke-miterlimit="10"/>
<path id="Vector_29" d="M13.4589 310.579C13.4589 309.087 13.4589 138.436 13.4589 138.436" stroke="var(--stroke-0, #00ADEF)" stroke-width="3" stroke-miterlimit="10"/>
<path id="Vector_30" d="M606.283 271.897V185.577" stroke="var(--stroke-0, #00ADEF)" stroke-width="3" stroke-miterlimit="10"/>
<path id="Vector_31" d="M637.705 418.169V348.018L664.571 321.152V234.583L689.945 209.209V160.7" stroke="var(--stroke-0, #00ADEF)" stroke-width="3" stroke-miterlimit="10"/>
<path id="Vector_32" d="M630.491 420.657V347.272L658.352 319.411V230.851L677.507 211.697" stroke="var(--stroke-0, #00ADEF)" stroke-width="3" stroke-miterlimit="10"/>
<path id="Vector_33" d="M650.697 309.46V175.875L622.587 147.765V96.2709" stroke="var(--stroke-0, #00ADEF)" stroke-width="3" stroke-miterlimit="10"/>
<path id="Vector_34" d="M8.71427 407.897V337.746L35.5804 310.88V224.311L60.9543 198.937V150.428" stroke="var(--stroke-0, #00ADEF)" stroke-width="3" stroke-miterlimit="10"/>
<path id="Vector_35" d="M1.5 410.385V337L29.3614 309.139V220.579L48.5163 201.424" stroke="var(--stroke-0, #00ADEF)" stroke-width="3" stroke-miterlimit="10"/>
<path id="Vector_36" d="M21.707 299.188V165.603" stroke="var(--stroke-0, #00ADEF)" stroke-width="3" stroke-miterlimit="10"/>
<path id="Vector_37" d="M406.68 250.752V190.054L425.337 171.397" stroke="var(--stroke-0, #00ADEF)" stroke-width="3" stroke-miterlimit="10"/>
<path id="Vector_38" d="M415.262 253.986V193.288L433.919 174.631L452.141 156.409V95.0271" stroke="var(--stroke-0, #00ADEF)" stroke-width="3" stroke-miterlimit="10"/>
<path id="Vector_39" d="M422.103 250.752V199.088L467.914 153.276" stroke="var(--stroke-0, #00ADEF)" stroke-width="3" stroke-miterlimit="10"/>
<path id="Vector_40" d="M140.1 276.814V206.663L166.966 179.797V93.2275L192.34 67.8536V19.3452" stroke="var(--stroke-0, #00ADEF)" stroke-width="3" stroke-miterlimit="10"/>
<path id="Vector_41" d="M132.885 279.302V205.917L160.747 178.055V89.4961L179.901 70.3415" stroke="var(--stroke-0, #00ADEF)" stroke-width="3" stroke-miterlimit="10"/>
<path id="Vector_42" d="M56.878 385.274V315.123L83.7444 288.257V201.688L109.118 176.314V127.806" stroke="var(--stroke-0, #00ADEF)" stroke-width="3" stroke-miterlimit="10"/>
<path id="Vector_43" d="M49.664 387.762V314.377L77.5254 286.516V197.956L96.6803 178.802" stroke="var(--stroke-0, #00ADEF)" stroke-width="3" stroke-miterlimit="10"/>
<path id="Vector_44" d="M125.423 276.814V159.15L144.577 139.995V63.1271" stroke="var(--stroke-0, #00ADEF)" stroke-width="3" stroke-miterlimit="10"/>
<path id="Vector_45" d="M117.462 270.097C117.462 268.605 117.462 97.9537 117.462 97.9537" stroke="var(--stroke-0, #00ADEF)" stroke-width="3" stroke-miterlimit="10"/>
<path id="Vector_46" d="M109.118 276.814V190.493" stroke="var(--stroke-0, #00ADEF)" stroke-width="3" stroke-miterlimit="10"/>
<path id="Vector_47" d="M225.35 273.331V155.667L244.505 136.512V59.6446" stroke="var(--stroke-0, #00ADEF)" stroke-width="3" stroke-miterlimit="10"/>
<path id="Vector_48" d="M217.389 266.615C217.389 265.122 217.389 94.4713 217.389 94.4713" stroke="var(--stroke-0, #00ADEF)" stroke-width="3" stroke-miterlimit="10"/>
<path id="Vector_49" d="M209.046 273.331V187.011" stroke="var(--stroke-0, #00ADEF)" stroke-width="3" stroke-miterlimit="10"/>
<path id="Vector_50" d="M244.505 320.223C244.505 318.73 244.505 148.079 244.505 148.079" stroke="var(--stroke-0, #00ADEF)" stroke-width="3" stroke-miterlimit="10"/>
<path id="Vector_51" d="M236.161 273.331V187.011" stroke="var(--stroke-0, #00ADEF)" stroke-width="3" stroke-miterlimit="10"/>
<path id="Vector_52" d="M453.602 283.282V196.961" stroke="var(--stroke-0, #00ADEF)" stroke-width="3" stroke-miterlimit="10"/>
<path id="Vector_53" d="M622.587 253.986V167.666" stroke="var(--stroke-0, #00ADEF)" stroke-width="3" stroke-miterlimit="10"/>
<path id="Vector_54" d="M700.093 269.658V183.338" stroke="var(--stroke-0, #00ADEF)" stroke-width="3" stroke-miterlimit="10"/>
<path id="Vector_55" d="M69.8708 276.565V142.98" stroke="var(--stroke-0, #00ADEF)" stroke-width="3" stroke-miterlimit="10"/>
<path id="Vector_56" d="M267.583 419.604V349.452L294.449 322.586V236.017L319.823 210.643V162.135" stroke="var(--stroke-0, #00ADEF)" stroke-width="3" stroke-miterlimit="10"/>
<path id="Vector_57" d="M718.06 308.685V175.099L689.95 146.989V118.66" stroke="var(--stroke-0, #00ADEF)" stroke-width="3" stroke-miterlimit="10"/>
<path id="Vector_58" d="M656.903 471.068V400.917L683.769 374.051V287.482L709.143 262.108V213.599" stroke="var(--stroke-0, #00ADEF)" stroke-width="3" stroke-miterlimit="10"/>
<path id="Vector_59" d="M260.368 422.091V348.706L288.23 320.845V232.286L307.385 213.131" stroke="var(--stroke-0, #00ADEF)" stroke-width="3" stroke-miterlimit="10"/>
<path id="Vector_60" d="M280.575 310.894V177.309L252.465 149.199V97.7049" stroke="var(--stroke-0, #00ADEF)" stroke-width="3" stroke-miterlimit="10"/>
<path id="Vector_61" d="M147.811 270.097V209.399L166.468 190.742" stroke="var(--stroke-0, #00ADEF)" stroke-width="3" stroke-miterlimit="10"/>
<path id="Vector_62" d="M273.763 266.615V183.279L265.305 174.821" stroke="var(--stroke-0, #00ADEF)" stroke-width="3" stroke-miterlimit="10"/>
<path id="Vector_63" d="M156.394 273.331V212.633L175.051 193.976L193.272 175.754V114.372" stroke="var(--stroke-0, #00ADEF)" stroke-width="3" stroke-miterlimit="10"/>
<path id="Vector_64" d="M163.234 270.097V218.432L209.046 172.621" stroke="var(--stroke-0, #00ADEF)" stroke-width="3" stroke-miterlimit="10"/>
<path id="Vector_65" d="M169.878 252.245V224.508L194.107 200.279" stroke="var(--stroke-0, #00ADEF)" stroke-width="3" stroke-miterlimit="10"/>
<path id="Vector_66" d="M429.374 257.469V204.771L453.602 180.543" stroke="var(--stroke-0, #00ADEF)" stroke-width="3" stroke-miterlimit="10"/>
<path id="Vector_67" d="M531.351 263.937V162.109L521.743 152.501" stroke="var(--stroke-0, #00ADEF)" stroke-width="3" stroke-miterlimit="10"/>
<path id="Vector_68" d="M194.107 257.469V213.131" stroke="var(--stroke-0, #00ADEF)" stroke-width="3" stroke-miterlimit="10"/>
</g>
</svg>
