<svg preserveAspectRatio="none" width="100%" height="100%" overflow="visible" style="display: block;" viewBox="0 0 657.927 394.905" fill="none" xmlns="http://www.w3.org/2000/svg">
<g id="Group">
<path id="Vector" d="M307.036 321.259V135.926L328.058 114.904V8.62011e-05" stroke="var(--stroke-0, #00ADEF)" stroke-width="3" stroke-miterlimit="10"/>
<path id="Vector_2" d="M328.058 63.7224L337.276 54.5035V13.9984" stroke="var(--stroke-0, #00ADEF)" stroke-width="3" stroke-miterlimit="10"/>
<path id="Vector_3" d="M328.058 97.7443L318.353 88.0397V30.224" stroke="var(--stroke-0, #00ADEF)" stroke-width="3" stroke-miterlimit="10"/>
<path id="Vector_4" d="M317.547 317.333V147.468" stroke="var(--stroke-0, #00ADEF)" stroke-width="3" stroke-miterlimit="10"/>
<path id="Vector_5" d="M328.058 327.649V194.052L338.424 183.685V84.6589" stroke="var(--stroke-0, #00ADEF)" stroke-width="3" stroke-miterlimit="10"/>
<path id="Vector_6" d="M338.424 133.336L351.05 120.711V38.8604" stroke="var(--stroke-0, #00ADEF)" stroke-width="3" stroke-miterlimit="10"/>
<path id="Vector_7" d="M338.424 296.117V203.996" stroke="var(--stroke-0, #00ADEF)" stroke-width="3" stroke-miterlimit="10"/>
<path id="Vector_8" d="M351.05 280.938V138.034" stroke="var(--stroke-0, #00ADEF)" stroke-width="3" stroke-miterlimit="10"/>
<path id="Vector_9" d="M411.295 347.38V207.237L390.273 186.216V71.3116" stroke="var(--stroke-0, #00ADEF)" stroke-width="3" stroke-miterlimit="10"/>
<path id="Vector_10" d="M390.274 135.034L381.055 125.815V85.3102" stroke="var(--stroke-0, #00ADEF)" stroke-width="3" stroke-miterlimit="10"/>
<path id="Vector_11" d="M390.273 169.056L399.978 159.351V101.536" stroke="var(--stroke-0, #00ADEF)" stroke-width="3" stroke-miterlimit="10"/>
<path id="Vector_12" d="M400.784 327.649V218.78" stroke="var(--stroke-0, #00ADEF)" stroke-width="3" stroke-miterlimit="10"/>
<path id="Vector_13" d="M390.273 332.884V265.363L379.906 254.997V155.971" stroke="var(--stroke-0, #00ADEF)" stroke-width="3" stroke-miterlimit="10"/>
<path id="Vector_14" d="M379.907 204.648L367.281 192.023V110.172" stroke="var(--stroke-0, #00ADEF)" stroke-width="3" stroke-miterlimit="10"/>
<path id="Vector_15" d="M367.281 352.25V209.346" stroke="var(--stroke-0, #00ADEF)" stroke-width="3" stroke-miterlimit="10"/>
<path id="Vector_16" d="M249.524 344.945V204.802L270.546 183.781V68.8768" stroke="var(--stroke-0, #00ADEF)" stroke-width="3" stroke-miterlimit="10"/>
<path id="Vector_17" d="M270.546 132.599L279.764 123.38V82.8754" stroke="var(--stroke-0, #00ADEF)" stroke-width="3" stroke-miterlimit="10"/>
<path id="Vector_18" d="M270.546 166.621L260.841 156.916V99.1005" stroke="var(--stroke-0, #00ADEF)" stroke-width="3" stroke-miterlimit="10"/>
<path id="Vector_19" d="M260.035 325.214V216.345" stroke="var(--stroke-0, #00ADEF)" stroke-width="3" stroke-miterlimit="10"/>
<path id="Vector_20" d="M270.546 330.448V262.928L280.912 252.561V153.536" stroke="var(--stroke-0, #00ADEF)" stroke-width="3" stroke-miterlimit="10"/>
<path id="Vector_21" d="M280.912 202.213L293.538 189.587V107.737" stroke="var(--stroke-0, #00ADEF)" stroke-width="3" stroke-miterlimit="10"/>
<path id="Vector_22" d="M293.538 349.815V206.911" stroke="var(--stroke-0, #00ADEF)" stroke-width="3" stroke-miterlimit="10"/>
<path id="Vector_23" d="M424.75 291.424V121.81L412.204 109.263V47.2925" stroke="var(--stroke-0, #00ADEF)" stroke-width="3" stroke-miterlimit="10"/>
<path id="Vector_24" d="M440.246 291.424V144.672" stroke="var(--stroke-0, #00ADEF)" stroke-width="3" stroke-miterlimit="10"/>
<path id="Vector_25" d="M456.155 291.424V95.3401" stroke="var(--stroke-0, #00ADEF)" stroke-width="3" stroke-miterlimit="10"/>
<path id="Vector_26" d="M619.936 354.62V169.287L598.915 148.265V33.3614" stroke="var(--stroke-0, #00ADEF)" stroke-width="3" stroke-miterlimit="10"/>
<path id="Vector_27" d="M609.426 350.694V180.829" stroke="var(--stroke-0, #00ADEF)" stroke-width="3" stroke-miterlimit="10"/>
<path id="Vector_28" d="M598.915 361.011V227.413L588.548 217.046V118.02" stroke="var(--stroke-0, #00ADEF)" stroke-width="3" stroke-miterlimit="10"/>
<path id="Vector_29" d="M588.548 166.697L575.923 154.072V72.2214" stroke="var(--stroke-0, #00ADEF)" stroke-width="3" stroke-miterlimit="10"/>
<path id="Vector_30" d="M588.548 329.478V237.358" stroke="var(--stroke-0, #00ADEF)" stroke-width="3" stroke-miterlimit="10"/>
<path id="Vector_31" d="M575.923 314.299V171.395" stroke="var(--stroke-0, #00ADEF)" stroke-width="3" stroke-miterlimit="10"/>
<path id="Vector_32" d="M515.678 380.741V240.598L536.699 219.577V104.673" stroke="var(--stroke-0, #00ADEF)" stroke-width="3" stroke-miterlimit="10"/>
<path id="Vector_33" d="M536.699 202.417L526.995 192.713V134.897" stroke="var(--stroke-0, #00ADEF)" stroke-width="3" stroke-miterlimit="10"/>
<path id="Vector_34" d="M526.188 361.011V242.116" stroke="var(--stroke-0, #00ADEF)" stroke-width="3" stroke-miterlimit="10"/>
<path id="Vector_35" d="M1.5 301.738V192.868" stroke="var(--stroke-0, #00ADEF)" stroke-width="3" stroke-miterlimit="10"/>
<path id="Vector_36" d="M536.699 366.245V298.725L547.066 288.358V189.332" stroke="var(--stroke-0, #00ADEF)" stroke-width="3" stroke-miterlimit="10"/>
<path id="Vector_37" d="M547.066 238.009L559.691 225.384V143.533" stroke="var(--stroke-0, #00ADEF)" stroke-width="3" stroke-miterlimit="10"/>
<path id="Vector_38" d="M559.691 385.611V235.574" stroke="var(--stroke-0, #00ADEF)" stroke-width="3" stroke-miterlimit="10"/>
<path id="Vector_39" d="M656.427 363.81V296.289L646.06 285.923V186.897" stroke="var(--stroke-0, #00ADEF)" stroke-width="3" stroke-miterlimit="10"/>
<path id="Vector_40" d="M646.06 235.574L633.435 222.949V141.098" stroke="var(--stroke-0, #00ADEF)" stroke-width="3" stroke-miterlimit="10"/>
<path id="Vector_41" d="M633.435 383.176V240.272" stroke="var(--stroke-0, #00ADEF)" stroke-width="3" stroke-miterlimit="10"/>
<path id="Vector_42" d="M502.222 324.785V155.171L514.769 142.624V80.6535" stroke="var(--stroke-0, #00ADEF)" stroke-width="3" stroke-miterlimit="10"/>
<path id="Vector_43" d="M486.727 324.785V178.033" stroke="var(--stroke-0, #00ADEF)" stroke-width="3" stroke-miterlimit="10"/>
<path id="Vector_44" d="M470.818 324.785V128.701" stroke="var(--stroke-0, #00ADEF)" stroke-width="3" stroke-miterlimit="10"/>
<path id="Vector_45" d="M14.5112 363.804V167.72" stroke="var(--stroke-0, #00ADEF)" stroke-width="3" stroke-miterlimit="10"/>
<path id="Vector_46" d="M85.0092 363.914V178.581L106.031 157.559V42.655" stroke="var(--stroke-0, #00ADEF)" stroke-width="3" stroke-miterlimit="10"/>
<path id="Vector_47" d="M95.52 359.988V190.123" stroke="var(--stroke-0, #00ADEF)" stroke-width="3" stroke-miterlimit="10"/>
<path id="Vector_48" d="M106.031 370.304V236.707L116.398 226.34V127.314" stroke="var(--stroke-0, #00ADEF)" stroke-width="3" stroke-miterlimit="10"/>
<path id="Vector_49" d="M116.398 175.991L129.023 163.366V81.5153" stroke="var(--stroke-0, #00ADEF)" stroke-width="3" stroke-miterlimit="10"/>
<path id="Vector_50" d="M116.398 338.772V238.903" stroke="var(--stroke-0, #00ADEF)" stroke-width="3" stroke-miterlimit="10"/>
<path id="Vector_51" d="M129.023 323.593V180.689" stroke="var(--stroke-0, #00ADEF)" stroke-width="3" stroke-miterlimit="10"/>
<path id="Vector_52" d="M189.268 390.035V249.892L168.247 228.871V113.967" stroke="var(--stroke-0, #00ADEF)" stroke-width="3" stroke-miterlimit="10"/>
<path id="Vector_53" d="M168.247 211.711L177.951 202.007V144.191" stroke="var(--stroke-0, #00ADEF)" stroke-width="3" stroke-miterlimit="10"/>
<path id="Vector_54" d="M178.757 370.304V248.809" stroke="var(--stroke-0, #00ADEF)" stroke-width="3" stroke-miterlimit="10"/>
<path id="Vector_55" d="M168.247 375.539V308.018L157.879 297.652V198.626" stroke="var(--stroke-0, #00ADEF)" stroke-width="3" stroke-miterlimit="10"/>
<path id="Vector_56" d="M157.88 247.303L145.254 234.678V152.827" stroke="var(--stroke-0, #00ADEF)" stroke-width="3" stroke-miterlimit="10"/>
<path id="Vector_57" d="M145.254 394.905V252.001" stroke="var(--stroke-0, #00ADEF)" stroke-width="3" stroke-miterlimit="10"/>
<path id="Vector_58" d="M27.4975 387.6V247.457L48.5186 226.436V111.532" stroke="var(--stroke-0, #00ADEF)" stroke-width="3" stroke-miterlimit="10"/>
<path id="Vector_59" d="M48.5185 209.276L38.8143 199.571V141.755" stroke="var(--stroke-0, #00ADEF)" stroke-width="3" stroke-miterlimit="10"/>
<path id="Vector_60" d="M38.0081 367.869V249.566" stroke="var(--stroke-0, #00ADEF)" stroke-width="3" stroke-miterlimit="10"/>
<path id="Vector_61" d="M48.5187 373.103V305.583L58.8858 295.217V196.191" stroke="var(--stroke-0, #00ADEF)" stroke-width="3" stroke-miterlimit="10"/>
<path id="Vector_62" d="M58.8858 244.868L71.5108 232.243V150.392" stroke="var(--stroke-0, #00ADEF)" stroke-width="3" stroke-miterlimit="10"/>
<path id="Vector_63" d="M71.5109 392.47V249.566" stroke="var(--stroke-0, #00ADEF)" stroke-width="3" stroke-miterlimit="10"/>
<path id="Vector_64" d="M202.724 334.079V164.465L190.177 151.918V89.9474" stroke="var(--stroke-0, #00ADEF)" stroke-width="3" stroke-miterlimit="10"/>
<path id="Vector_65" d="M218.219 334.079V187.326" stroke="var(--stroke-0, #00ADEF)" stroke-width="3" stroke-miterlimit="10"/>
<path id="Vector_66" d="M234.128 334.079V137.995" stroke="var(--stroke-0, #00ADEF)" stroke-width="3" stroke-miterlimit="10"/>
</g>
</svg>
