<svg preserveAspectRatio="none" width="100%" height="100%" overflow="visible" style="display: block;" viewBox="0 0 648.351 255.931" fill="none" xmlns="http://www.w3.org/2000/svg">
<g id="Group">
<path id="Vector" d="M644.56 194.763C644.56 195.81 645.409 196.658 646.455 196.658C647.502 196.658 648.351 195.81 648.351 194.763C648.351 193.716 647.502 192.868 646.455 192.868C645.409 192.868 644.56 193.716 644.56 194.763Z" fill="var(--fill-0, #00ADEF)"/>
<path id="Vector_2" d="M631.549 168.516C631.549 169.563 632.397 170.411 633.444 170.411C634.491 170.411 635.339 169.563 635.339 168.516C635.339 167.469 634.491 166.621 633.444 166.621C632.397 166.621 631.549 167.469 631.549 168.516Z" fill="var(--fill-0, #00ADEF)"/>
<path id="Vector_3" d="M607.246 143.651C607.246 144.697 608.094 145.546 609.141 145.546C610.188 145.546 611.037 144.698 611.037 143.651C611.037 142.604 610.188 141.756 609.141 141.756C608.094 141.756 607.246 142.604 607.246 143.651Z" fill="var(--fill-0, #00ADEF)"/>
<path id="Vector_4" d="M597.541 113.427C597.541 114.474 598.39 115.322 599.437 115.322C600.483 115.322 601.332 114.474 601.332 113.427C601.332 112.38 600.483 111.532 599.437 111.532C598.39 111.532 597.541 112.38 597.541 113.427Z" fill="var(--fill-0, #00ADEF)"/>
<path id="Vector_5" d="M540.03 44.5501C540.03 45.5968 540.878 46.4454 541.925 46.4454C542.972 46.4454 543.82 45.5968 543.82 44.5501C543.82 43.5035 542.972 42.6549 541.925 42.6549C540.878 42.6549 540.03 43.5035 540.03 44.5501Z" fill="var(--fill-0, #00ADEF)"/>
<path id="Vector_6" d="M587.175 198.085C587.175 199.132 588.023 199.981 589.07 199.981C590.117 199.981 590.965 199.132 590.965 198.085C590.965 197.039 590.117 196.19 589.07 196.19C588.023 196.19 587.175 197.039 587.175 198.085Z" fill="var(--fill-0, #00ADEF)"/>
<path id="Vector_7" d="M574.549 151.369C574.549 152.416 575.398 153.265 576.445 153.265C577.491 153.265 578.34 152.416 578.34 151.369C578.34 150.323 577.491 149.474 576.445 149.474C575.398 149.474 574.549 150.323 574.549 151.369Z" fill="var(--fill-0, #00ADEF)"/>
<path id="Vector_8" d="M550.541 192.018C550.541 193.065 551.389 193.913 552.436 193.913C553.482 193.913 554.331 193.065 554.331 192.018C554.331 190.971 553.482 190.123 552.436 190.123C551.389 190.123 550.541 190.972 550.541 192.018Z" fill="var(--fill-0, #00ADEF)"/>
<path id="Vector_9" d="M529.663 129.451C529.663 130.497 530.511 131.346 531.558 131.346C532.605 131.346 533.453 130.497 533.453 129.451C533.453 128.404 532.605 127.555 531.558 127.555C530.511 127.555 529.663 128.404 529.663 129.451Z" fill="var(--fill-0, #00ADEF)"/>
<path id="Vector_10" d="M517.038 182.584C517.038 183.631 517.886 184.479 518.933 184.479C519.98 184.479 520.828 183.631 520.828 182.584C520.828 181.538 519.98 180.689 518.933 180.689C517.886 180.689 517.038 181.538 517.038 182.584Z" fill="var(--fill-0, #00ADEF)"/>
<path id="Vector_11" d="M500.806 154.722C500.806 155.769 501.655 156.617 502.701 156.617C503.748 156.617 504.597 155.769 504.597 154.722C504.597 153.675 503.748 152.827 502.701 152.827C501.655 152.827 500.806 153.675 500.806 154.722Z" fill="var(--fill-0, #00ADEF)"/>
<path id="Vector_12" d="M529.663 240.799C529.663 241.845 530.511 242.694 531.558 242.694C532.605 242.694 533.453 241.845 533.453 240.799C533.453 239.752 532.605 238.904 531.558 238.904C530.511 238.904 529.663 239.752 529.663 240.799Z" fill="var(--fill-0, #00ADEF)"/>
<path id="Vector_13" d="M488.181 200.52C488.181 201.567 489.029 202.416 490.076 202.416C491.123 202.416 491.971 201.567 491.971 200.52C491.971 199.474 491.123 198.625 490.076 198.625C489.029 198.625 488.181 199.474 488.181 200.52Z" fill="var(--fill-0, #00ADEF)"/>
<path id="Vector_14" d="M477.814 115.862C477.814 116.908 478.662 117.757 479.709 117.757C480.756 117.757 481.604 116.908 481.604 115.862C481.604 114.815 480.756 113.966 479.709 113.966C478.662 113.966 477.814 114.815 477.814 115.862Z" fill="var(--fill-0, #00ADEF)"/>
<path id="Vector_15" d="M455.884 91.8423C455.884 92.8889 456.732 93.7376 457.779 93.7376C458.826 93.7376 459.674 92.8889 459.674 91.8423C459.674 90.7957 458.826 89.9473 457.779 89.9473C456.732 89.9473 455.884 90.7957 455.884 91.8423Z" fill="var(--fill-0, #00ADEF)"/>
<path id="Vector_16" d="M468.11 146.086C468.11 147.132 468.958 147.981 470.005 147.981C471.052 147.981 471.9 147.132 471.9 146.086C471.9 145.039 471.052 144.19 470.005 144.19C468.958 144.191 468.11 145.039 468.11 146.086Z" fill="var(--fill-0, #00ADEF)"/>
<path id="Vector_17" d="M411.932 139.89C411.932 140.937 412.78 141.785 413.827 141.785C414.874 141.785 415.723 140.937 415.723 139.89C415.723 138.843 414.874 137.995 413.827 137.995C412.78 137.995 411.932 138.843 411.932 139.89Z" fill="var(--fill-0, #00ADEF)"/>
<path id="Vector_18" d="M385.219 100.996C385.219 102.042 386.067 102.891 387.114 102.891C388.161 102.891 389.01 102.043 389.01 100.996C389.01 99.9492 388.161 99.1009 387.114 99.1009C386.068 99.1006 385.219 99.9492 385.219 100.996Z" fill="var(--fill-0, #00ADEF)"/>
<path id="Vector_19" d="M386.026 218.24C386.026 219.287 386.874 220.135 387.92 220.135C388.967 220.135 389.816 219.287 389.816 218.24C389.816 217.193 388.967 216.345 387.92 216.345C386.874 216.345 386.026 217.193 386.026 218.24Z" fill="var(--fill-0, #00ADEF)"/>
<path id="Vector_20" d="M375.515 70.772C375.515 71.8186 376.363 72.6672 377.41 72.6672C378.457 72.6672 379.305 71.8189 379.305 70.772C379.305 69.7251 378.457 68.8767 377.41 68.8767C376.363 68.8767 375.515 69.7254 375.515 70.772Z" fill="var(--fill-0, #00ADEF)"/>
<path id="Vector_21" d="M365.148 154.722C365.148 155.769 365.996 156.617 367.043 156.617C368.09 156.617 368.938 155.769 368.938 154.722C368.938 153.675 368.09 152.827 367.043 152.827C365.996 152.827 365.148 153.675 365.148 154.722Z" fill="var(--fill-0, #00ADEF)"/>
<path id="Vector_22" d="M328.514 149.363C328.514 150.41 329.362 151.258 330.409 151.258C331.456 151.258 332.304 150.41 332.304 149.363C332.304 148.316 331.456 147.468 330.409 147.468C329.362 147.468 328.514 148.316 328.514 149.363Z" fill="var(--fill-0, #00ADEF)"/>
<path id="Vector_23" d="M307.636 205.892C307.636 206.938 308.485 207.787 309.531 207.787C310.578 207.787 311.427 206.938 311.427 205.892C311.427 204.845 310.578 203.997 309.531 203.997C308.485 203.997 307.636 204.845 307.636 205.892Z" fill="var(--fill-0, #00ADEF)"/>
<path id="Vector_24" d="M295.011 139.89C295.011 140.937 295.859 141.785 296.906 141.785C297.953 141.785 298.801 140.937 298.801 139.89C298.801 138.843 297.952 137.995 296.906 137.995C295.859 137.995 295.011 138.843 295.011 139.89Z" fill="var(--fill-0, #00ADEF)"/>
<path id="Vector_25" d="M266.154 157.866C266.154 158.912 267.003 159.761 268.049 159.761C269.096 159.761 269.944 158.912 269.944 157.866C269.944 156.819 269.096 155.97 268.049 155.97C267.003 155.97 266.154 156.819 266.154 157.866Z" fill="var(--fill-0, #00ADEF)"/>
<path id="Vector_26" d="M245.327 220.177C245.087 221.196 245.717 222.217 246.736 222.457C247.755 222.698 248.775 222.067 249.016 221.048C249.256 220.03 248.626 219.009 247.607 218.768C246.588 218.528 245.568 219.158 245.327 220.177Z" fill="var(--fill-0, #00ADEF)"/>
<path id="Vector_27" d="M205.865 146.131C205.625 147.15 206.256 148.171 207.275 148.411C208.293 148.651 209.314 148.021 209.554 147.002C209.795 145.983 209.164 144.962 208.145 144.722C207.127 144.482 206.106 145.112 205.865 146.131Z" fill="var(--fill-0, #00ADEF)"/>
<path id="Vector_28" d="M175.294 130.161C175.053 131.179 175.684 132.2 176.703 132.441C177.721 132.681 178.742 132.05 178.982 131.032C179.223 130.013 178.592 128.992 177.573 128.752C176.555 128.511 175.534 129.142 175.294 130.161Z" fill="var(--fill-0, #00ADEF)"/>
<path id="Vector_29" d="M246.133 102.995C245.893 104.014 246.524 105.035 247.543 105.275C248.561 105.516 249.582 104.885 249.822 103.866C250.063 102.848 249.432 101.827 248.413 101.587C247.395 101.346 246.374 101.977 246.133 102.995Z" fill="var(--fill-0, #00ADEF)"/>
<path id="Vector_30" d="M255.838 72.7714C255.597 73.79 256.228 74.8109 257.247 75.0511C258.265 75.2916 259.286 74.6609 259.527 73.6421C259.767 72.6235 259.137 71.6029 258.118 71.3624C257.099 71.1219 256.078 71.7529 255.838 72.7714Z" fill="var(--fill-0, #00ADEF)"/>
<path id="Vector_31" d="M233.908 48.752C233.667 49.7705 234.298 50.7915 235.317 51.0317C236.335 51.2722 237.356 50.6414 237.597 49.6226C237.837 48.6041 237.206 47.5831 236.187 47.3429C235.169 47.1027 234.148 47.7334 233.908 48.752Z" fill="var(--fill-0, #00ADEF)"/>
<path id="Vector_32" d="M159.384 179.492C159.144 180.511 159.775 181.532 160.793 181.772C161.812 182.012 162.833 181.382 163.073 180.363C163.314 179.344 162.683 178.323 161.664 178.083C160.646 177.843 159.625 178.474 159.384 179.492Z" fill="var(--fill-0, #00ADEF)"/>
<path id="Vector_33" d="M119.116 136.356C118.876 137.375 119.507 138.396 120.525 138.636C121.544 138.877 122.565 138.246 122.805 137.227C123.046 136.209 122.415 135.188 121.396 134.948C120.377 134.707 119.357 135.338 119.116 136.356Z" fill="var(--fill-0, #00ADEF)"/>
<path id="Vector_34" d="M131.342 82.1134C131.102 83.1319 131.732 84.1529 132.751 84.3931C133.77 84.6336 134.791 84.0028 135.031 82.984C135.272 81.9651 134.641 80.9445 133.622 80.7043C132.603 80.4638 131.582 81.0945 131.342 82.1134Z" fill="var(--fill-0, #00ADEF)"/>
<path id="Vector_35" d="M109.412 106.132C109.172 107.151 109.802 108.172 110.821 108.412C111.84 108.653 112.861 108.022 113.101 107.003C113.341 105.984 112.711 104.964 111.692 104.723C110.673 104.483 109.653 105.114 109.412 106.132Z" fill="var(--fill-0, #00ADEF)"/>
<path id="Vector_36" d="M86.4198 144.993C86.1793 146.011 86.8101 147.032 87.8289 147.273C88.8474 147.513 89.8681 146.883 90.1086 145.864C90.3491 144.845 89.7184 143.824 88.6995 143.584C87.681 143.343 86.6603 143.974 86.4198 144.993Z" fill="var(--fill-0, #00ADEF)"/>
<path id="Vector_37" d="M99.0449 190.791C98.8044 191.81 99.4355 192.831 100.454 193.071C101.473 193.311 102.494 192.681 102.734 191.662C102.974 190.643 102.343 189.622 101.325 189.382C100.306 189.142 99.2854 189.772 99.0449 190.791Z" fill="var(--fill-0, #00ADEF)"/>
<path id="Vector_38" d="M70.1883 172.855C69.9478 173.874 70.5785 174.894 71.5974 175.135C72.6159 175.375 73.6365 174.744 73.877 173.726C74.1175 172.707 73.4868 171.686 72.468 171.446C71.4495 171.205 70.4288 171.836 70.1883 172.855Z" fill="var(--fill-0, #00ADEF)"/>
<path id="Vector_39" d="M36.6854 182.289C36.4449 183.308 37.0756 184.329 38.0944 184.569C39.113 184.81 40.1339 184.179 40.3741 183.16C40.6146 182.141 39.9839 181.12 38.965 180.88C37.9465 180.639 36.9259 181.27 36.6854 182.289Z" fill="var(--fill-0, #00ADEF)"/>
<path id="Vector_40" d="M12.6762 142.558C12.4357 143.577 13.0668 144.598 14.0853 144.838C15.1038 145.079 16.1248 144.448 16.3653 143.429C16.6058 142.41 15.9748 141.39 14.9562 141.149C13.9377 140.908 12.9167 141.539 12.6762 142.558Z" fill="var(--fill-0, #00ADEF)"/>
<path id="Vector_41" d="M0.0511403 188.356C-0.189358 189.375 0.441376 190.396 1.46021 190.636C2.47873 190.877 3.4997 190.246 3.7399 189.227C3.98039 188.209 3.34935 187.188 2.33083 186.947C1.3123 186.707 0.291638 187.338 0.0511403 188.356Z" fill="var(--fill-0, #00ADEF)"/>
<path id="Vector_42" d="M12.6762 241.732C12.4357 242.75 13.0668 243.771 14.0853 244.011C15.1038 244.252 16.1248 243.621 16.3653 242.602C16.6058 241.584 15.9748 240.563 14.9562 240.323C13.9377 240.082 12.9167 240.713 12.6762 241.732Z" fill="var(--fill-0, #00ADEF)"/>
<path id="Vector_43" d="M57.5629 238.817C57.3224 239.836 57.9531 240.857 58.972 241.097C59.9905 241.338 61.0112 240.707 61.2517 239.688C61.4922 238.67 60.8614 237.649 59.8426 237.408C58.8241 237.168 57.8034 237.799 57.5629 238.817Z" fill="var(--fill-0, #00ADEF)"/>
<path id="Vector_44" d="M86.4198 237.033C86.1793 238.052 86.8101 239.073 87.8289 239.313C88.8474 239.554 89.8681 238.923 90.1086 237.904C90.3491 236.886 89.7184 235.865 88.6995 235.625C87.681 235.384 86.6603 236.015 86.4198 237.033Z" fill="var(--fill-0, #00ADEF)"/>
<path id="Vector_45" d="M119.923 241.732C119.682 242.75 120.313 243.771 121.332 244.012C122.35 244.252 123.371 243.621 123.612 242.603C123.852 241.584 123.221 240.563 122.202 240.323C121.184 240.082 120.163 240.713 119.923 241.732Z" fill="var(--fill-0, #00ADEF)"/>
<path id="Vector_46" d="M70.1883 73.6812C69.9478 74.6998 70.5785 75.7207 71.5974 75.9612C72.6159 76.2017 73.6365 75.571 73.877 74.5522C74.1175 73.5334 73.4868 72.513 72.468 72.2722C71.4495 72.0317 70.4288 72.6624 70.1883 73.6812Z" fill="var(--fill-0, #00ADEF)"/>
<path id="Vector_47" d="M47.1961 34.8209C46.9556 35.8394 47.5863 36.8603 48.6052 37.1008C49.6237 37.3413 50.6447 36.7106 50.8849 35.6918C51.1254 34.6733 50.4946 33.6526 49.4758 33.4118C48.4573 33.1716 47.4366 33.8023 47.1961 34.8209Z" fill="var(--fill-0, #00ADEF)"/>
<path id="Vector_48" d="M57.5629 119.48C57.3224 120.498 57.9531 121.519 58.972 121.759C59.9905 122 61.0115 121.369 61.2517 120.35C61.4922 119.332 60.8614 118.311 59.8426 118.071C58.8241 117.83 57.8034 118.461 57.5629 119.48Z" fill="var(--fill-0, #00ADEF)"/>
<path id="Vector_49" d="M189.956 96.7994C189.715 97.818 190.346 98.8389 191.365 99.0794C192.384 99.3199 193.404 98.6892 193.645 97.6704C193.885 96.6518 193.254 95.6311 192.236 95.3906C191.217 95.1501 190.196 95.7809 189.956 96.7994Z" fill="var(--fill-0, #00ADEF)"/>
<path id="Vector_50" d="M265.006 86.5538C265.006 87.6004 265.854 88.449 266.901 88.449C267.948 88.449 268.796 87.6004 268.796 86.5538C268.796 85.5071 267.948 84.6585 266.901 84.6585C265.854 84.6585 265.006 85.5071 265.006 86.5538Z" fill="var(--fill-0, #00ADEF)"/>
<path id="Vector_51" d="M278.779 112.067C278.779 113.114 279.627 113.962 280.674 113.962C281.721 113.962 282.569 113.114 282.569 112.067C282.569 111.02 281.721 110.172 280.674 110.172C279.628 110.172 278.779 111.02 278.779 112.067Z" fill="var(--fill-0, #00ADEF)"/>
<path id="Vector_52" d="M278.787 211.381C278.787 212.427 279.636 213.276 280.682 213.276C281.729 213.276 282.578 212.427 282.578 211.381C282.578 210.334 281.729 209.486 280.682 209.486C279.636 209.486 278.787 210.334 278.787 211.381Z" fill="var(--fill-0, #00ADEF)"/>
<path id="Vector_53" d="M352.523 208.806C352.523 209.852 353.371 210.701 354.418 210.701C355.465 210.701 356.313 209.852 356.313 208.806C356.313 207.759 355.465 206.911 354.418 206.911C353.371 206.911 352.523 207.759 352.523 208.806Z" fill="var(--fill-0, #00ADEF)"/>
<path id="Vector_54" d="M366.296 84.77C366.296 85.8166 367.145 86.6652 368.191 86.6652C369.238 86.6652 370.086 85.8166 370.086 84.77C370.086 83.7233 369.238 82.8751 368.191 82.8751C367.145 82.8751 366.296 83.7233 366.296 84.77Z" fill="var(--fill-0, #00ADEF)"/>
<path id="Vector_55" d="M352.523 109.632C352.523 110.679 353.371 111.527 354.418 111.527C355.465 111.527 356.313 110.679 356.313 109.632C356.313 108.585 355.465 107.737 354.418 107.737C353.371 107.737 352.523 108.585 352.523 109.632Z" fill="var(--fill-0, #00ADEF)"/>
<path id="Vector_56" d="M327.707 32.1192C327.707 33.1658 328.555 34.0144 329.602 34.0144C330.649 34.0144 331.497 33.1658 331.497 32.1192C331.497 31.0725 330.649 30.2242 329.602 30.2242C328.556 30.2239 327.707 31.0725 327.707 32.1192Z" fill="var(--fill-0, #00ADEF)"/>
<path id="Vector_57" d="M295.011 39.8377C295.011 40.8843 295.859 41.7329 296.906 41.7329C297.953 41.7329 298.801 40.8843 298.801 39.8377C298.801 38.791 297.952 37.9424 296.906 37.9424C295.859 37.9424 295.011 38.791 295.011 39.8377Z" fill="var(--fill-0, #00ADEF)"/>
<path id="Vector_58" d="M318.003 1.89523C318.003 2.94187 318.852 3.79049 319.898 3.79049C320.945 3.79049 321.793 2.94187 321.793 1.89523C321.793 0.848589 320.945 0 319.898 0C318.852 0 318.003 0.848589 318.003 1.89523Z" fill="var(--fill-0, #00ADEF)"/>
<path id="Vector_59" d="M308.784 15.8932C308.784 16.9399 309.633 17.7885 310.679 17.7885C311.726 17.7885 312.574 16.9402 312.574 15.8932C312.574 14.8466 311.726 13.9983 310.679 13.9983C309.632 13.9983 308.784 14.8466 308.784 15.8932Z" fill="var(--fill-0, #00ADEF)"/>
<path id="Vector_60" d="M307.636 86.5538C307.636 87.6004 308.485 88.449 309.531 88.449C310.578 88.449 311.427 87.6004 311.427 86.5538C311.427 85.5071 310.578 84.6585 309.531 84.6585C308.485 84.6585 307.636 85.5071 307.636 86.5538Z" fill="var(--fill-0, #00ADEF)"/>
<path id="Vector_61" d="M500.806 254.036C500.806 255.083 501.655 255.931 502.701 255.931C503.748 255.931 504.597 255.083 504.597 254.036C504.597 252.989 503.748 252.141 502.701 252.141C501.655 252.141 500.806 252.989 500.806 254.036Z" fill="var(--fill-0, #00ADEF)"/>
<path id="Vector_62" d="M467.303 250.704C467.303 251.751 468.152 252.599 469.198 252.599C470.245 252.599 471.094 251.751 471.094 250.704C471.094 249.657 470.245 248.809 469.198 248.809C468.152 248.809 467.303 249.657 467.303 250.704Z" fill="var(--fill-0, #00ADEF)"/>
<path id="Vector_63" d="M427.842 189.222C427.842 190.268 428.69 191.117 429.737 191.117C430.784 191.117 431.632 190.268 431.632 189.222C431.632 188.175 430.783 187.327 429.737 187.327C428.69 187.326 427.842 188.175 427.842 189.222Z" fill="var(--fill-0, #00ADEF)"/>
<path id="Vector_64" d="M517.038 83.4102C517.038 84.4568 517.886 85.3055 518.933 85.3055C519.98 85.3055 520.828 84.4571 520.828 83.4102C520.828 82.3636 519.98 81.5149 518.933 81.5149C517.886 81.5149 517.038 82.3636 517.038 83.4102Z" fill="var(--fill-0, #00ADEF)"/>
<path id="Vector_65" d="M608.052 250.704C608.052 251.751 608.9 252.599 609.947 252.599C610.994 252.599 611.842 251.751 611.842 250.704C611.842 249.657 610.994 248.809 609.947 248.809C608.901 248.809 608.052 249.657 608.052 250.704Z" fill="var(--fill-0, #00ADEF)"/>
<path id="Vector_66" d="M574.549 250.704C574.549 251.751 575.398 252.599 576.445 252.599C577.491 252.599 578.34 251.751 578.34 250.704C578.34 249.657 577.491 248.809 576.445 248.809C575.398 248.809 574.549 249.657 574.549 250.704Z" fill="var(--fill-0, #00ADEF)"/>
</g>
</svg>
