<svg preserveAspectRatio="none" width="100%" height="100%" overflow="visible" style="display: block;" viewBox="0 0 648.351 255.932" fill="none" xmlns="http://www.w3.org/2000/svg">
<g id="Group">
<path id="Vector" d="M3.79021 194.763C3.79021 195.81 2.94159 196.659 1.89495 196.659C0.848313 196.659 0 195.81 0 194.763C0 193.717 0.848313 192.868 1.89495 192.868C2.94159 192.868 3.79021 193.717 3.79021 194.763Z" fill="var(--fill-0, #00ADEF)"/>
<path id="Vector_2" d="M16.8016 168.516C16.8016 169.563 15.953 170.412 14.9063 170.412C13.8597 170.412 13.0111 169.563 13.0111 168.516C13.0111 167.47 13.8597 166.621 14.9063 166.621C15.953 166.621 16.8016 167.47 16.8016 168.516Z" fill="var(--fill-0, #00ADEF)"/>
<path id="Vector_3" d="M41.1048 143.651C41.1048 144.697 40.2564 145.546 39.2095 145.546C38.1629 145.546 37.3145 144.697 37.3145 143.651C37.3145 142.604 38.1632 141.756 39.2095 141.756C40.2561 141.756 41.1048 142.604 41.1048 143.651Z" fill="var(--fill-0, #00ADEF)"/>
<path id="Vector_4" d="M50.8089 113.427C50.8089 114.474 49.9603 115.322 48.9137 115.322C47.867 115.322 47.0184 114.474 47.0184 113.427C47.0184 112.38 47.867 111.532 48.9137 111.532C49.9603 111.532 50.8089 112.381 50.8089 113.427Z" fill="var(--fill-0, #00ADEF)"/>
<path id="Vector_5" d="M108.321 44.5501C108.321 45.5968 107.472 46.4454 106.425 46.4454C105.379 46.4454 104.53 45.5968 104.53 44.5501C104.53 43.5035 105.379 42.6549 106.425 42.6549C107.472 42.6552 108.321 43.5035 108.321 44.5501Z" fill="var(--fill-0, #00ADEF)"/>
<path id="Vector_6" d="M61.1757 198.086C61.1757 199.133 60.3271 199.981 59.2805 199.981C58.2338 199.981 57.3852 199.133 57.3852 198.086C57.3852 197.039 58.2338 196.191 59.2805 196.191C60.3274 196.191 61.1757 197.039 61.1757 198.086Z" fill="var(--fill-0, #00ADEF)"/>
<path id="Vector_7" d="M73.8013 151.37C73.8013 152.416 72.9529 153.265 71.906 153.265C70.8594 153.265 70.0107 152.416 70.0107 151.37C70.0107 150.323 70.8594 149.475 71.906 149.475C72.9529 149.475 73.8013 150.323 73.8013 151.37Z" fill="var(--fill-0, #00ADEF)"/>
<path id="Vector_8" d="M97.8104 192.018C97.8104 193.065 96.9618 193.913 95.9151 193.913C94.8685 193.913 94.0199 193.065 94.0199 192.018C94.0199 190.971 94.8685 190.123 95.9151 190.123C96.9618 190.123 97.8104 190.971 97.8104 192.018Z" fill="var(--fill-0, #00ADEF)"/>
<path id="Vector_9" d="M118.688 129.451C118.688 130.498 117.839 131.346 116.792 131.346C115.746 131.346 114.898 130.498 114.898 129.451C114.898 128.405 115.746 127.556 116.792 127.556C117.839 127.556 118.688 128.405 118.688 129.451Z" fill="var(--fill-0, #00ADEF)"/>
<path id="Vector_10" d="M131.313 182.584C131.313 183.631 130.465 184.48 129.418 184.48C128.371 184.48 127.523 183.631 127.523 182.584C127.523 181.538 128.372 180.689 129.418 180.689C130.465 180.689 131.313 181.538 131.313 182.584Z" fill="var(--fill-0, #00ADEF)"/>
<path id="Vector_11" d="M147.544 154.722C147.544 155.769 146.696 156.618 145.649 156.618C144.603 156.618 143.754 155.769 143.754 154.722C143.754 153.676 144.603 152.827 145.649 152.827C146.696 152.827 147.544 153.676 147.544 154.722Z" fill="var(--fill-0, #00ADEF)"/>
<path id="Vector_12" d="M118.688 240.798C118.688 241.845 117.839 242.694 116.792 242.694C115.746 242.694 114.898 241.845 114.898 240.798C114.898 239.752 115.746 238.903 116.792 238.903C117.839 238.903 118.688 239.752 118.688 240.798Z" fill="var(--fill-0, #00ADEF)"/>
<path id="Vector_13" d="M160.17 200.521C160.17 201.567 159.321 202.416 158.275 202.416C157.228 202.416 156.38 201.568 156.38 200.521C156.38 199.474 157.228 198.625 158.275 198.625C159.321 198.625 160.17 199.474 160.17 200.521Z" fill="var(--fill-0, #00ADEF)"/>
<path id="Vector_14" d="M170.537 115.862C170.537 116.909 169.688 117.757 168.642 117.757C167.595 117.757 166.746 116.909 166.746 115.862C166.746 114.815 167.595 113.967 168.642 113.967C169.688 113.967 170.537 114.815 170.537 115.862Z" fill="var(--fill-0, #00ADEF)"/>
<path id="Vector_15" d="M192.467 91.8426C192.467 92.8892 191.618 93.7379 190.572 93.7379C189.525 93.7379 188.677 92.8895 188.677 91.8426C188.677 90.796 189.525 89.9473 190.572 89.9473C191.618 89.9473 192.467 90.796 192.467 91.8426Z" fill="var(--fill-0, #00ADEF)"/>
<path id="Vector_16" d="M180.241 146.086C180.241 147.133 179.393 147.981 178.346 147.981C177.299 147.981 176.451 147.133 176.451 146.086C176.451 145.039 177.3 144.191 178.346 144.191C179.393 144.191 180.241 145.04 180.241 146.086Z" fill="var(--fill-0, #00ADEF)"/>
<path id="Vector_17" d="M236.418 139.89C236.418 140.937 235.57 141.785 234.523 141.785C233.476 141.785 232.628 140.937 232.628 139.89C232.628 138.844 233.476 137.995 234.523 137.995C235.57 137.995 236.418 138.844 236.418 139.89Z" fill="var(--fill-0, #00ADEF)"/>
<path id="Vector_18" d="M263.131 100.996C263.131 102.043 262.283 102.891 261.236 102.891C260.189 102.891 259.341 102.043 259.341 100.996C259.341 99.9493 260.189 99.1007 261.236 99.1007C262.283 99.101 263.131 99.9493 263.131 100.996Z" fill="var(--fill-0, #00ADEF)"/>
<path id="Vector_19" d="M262.325 218.24C262.325 219.287 261.477 220.136 260.43 220.136C259.383 220.136 258.535 219.287 258.535 218.24C258.535 217.193 259.383 216.345 260.43 216.345C261.477 216.345 262.325 217.194 262.325 218.24Z" fill="var(--fill-0, #00ADEF)"/>
<path id="Vector_20" d="M272.836 70.7722C272.836 71.8189 271.987 72.6675 270.941 72.6675C269.894 72.6675 269.046 71.8192 269.046 70.7722C269.046 69.7256 269.894 68.8773 270.941 68.8773C271.987 68.8773 272.836 69.7256 272.836 70.7722Z" fill="var(--fill-0, #00ADEF)"/>
<path id="Vector_21" d="M283.203 154.722C283.203 155.769 282.354 156.618 281.307 156.618C280.261 156.618 279.412 155.769 279.412 154.722C279.412 153.676 280.261 152.827 281.307 152.827C282.354 152.827 283.203 153.676 283.203 154.722Z" fill="var(--fill-0, #00ADEF)"/>
<path id="Vector_22" d="M319.837 149.364C319.837 150.41 318.988 151.259 317.942 151.259C316.895 151.259 316.046 150.41 316.046 149.364C316.046 148.317 316.895 147.468 317.942 147.468C318.989 147.468 319.837 148.317 319.837 149.364Z" fill="var(--fill-0, #00ADEF)"/>
<path id="Vector_23" d="M340.715 205.892C340.715 206.938 339.866 207.787 338.819 207.787C337.773 207.787 336.924 206.938 336.924 205.892C336.924 204.845 337.773 203.997 338.819 203.997C339.866 203.997 340.715 204.845 340.715 205.892Z" fill="var(--fill-0, #00ADEF)"/>
<path id="Vector_24" d="M353.34 139.89C353.34 140.937 352.491 141.785 351.444 141.785C350.398 141.785 349.549 140.937 349.549 139.89C349.549 138.844 350.398 137.995 351.444 137.995C352.491 137.995 353.34 138.844 353.34 139.89Z" fill="var(--fill-0, #00ADEF)"/>
<path id="Vector_25" d="M382.197 157.866C382.197 158.912 381.348 159.761 380.301 159.761C379.255 159.761 378.406 158.912 378.406 157.866C378.406 156.819 379.255 155.971 380.301 155.971C381.348 155.971 382.197 156.819 382.197 157.866Z" fill="var(--fill-0, #00ADEF)"/>
<path id="Vector_26" d="M403.023 220.177C403.264 221.196 402.633 222.217 401.614 222.457C400.596 222.698 399.575 222.067 399.335 221.048C399.094 220.03 399.725 219.009 400.744 218.769C401.762 218.528 402.783 219.159 403.023 220.177Z" fill="var(--fill-0, #00ADEF)"/>
<path id="Vector_27" d="M442.485 146.131C442.725 147.15 442.095 148.171 441.076 148.411C440.057 148.652 439.036 148.021 438.796 147.002C438.556 145.984 439.186 144.963 440.205 144.723C441.224 144.482 442.244 145.113 442.485 146.131Z" fill="var(--fill-0, #00ADEF)"/>
<path id="Vector_28" d="M473.057 130.161C473.297 131.179 472.667 132.2 471.648 132.441C470.629 132.681 469.608 132.05 469.368 131.032C469.127 130.013 469.758 128.992 470.777 128.752C471.796 128.511 472.816 129.142 473.057 130.161Z" fill="var(--fill-0, #00ADEF)"/>
<path id="Vector_29" d="M402.217 102.995C402.458 104.014 401.827 105.035 400.808 105.275C399.79 105.516 398.769 104.885 398.528 103.866C398.288 102.848 398.919 101.827 399.937 101.587C400.956 101.346 401.977 101.977 402.217 102.995Z" fill="var(--fill-0, #00ADEF)"/>
<path id="Vector_30" d="M392.513 72.7717C392.753 73.7902 392.123 74.8111 391.104 75.0516C390.085 75.2921 389.064 74.6611 388.824 73.6426C388.584 72.6241 389.214 71.6034 390.233 71.3629C391.252 71.1224 392.272 71.7531 392.513 72.7717Z" fill="var(--fill-0, #00ADEF)"/>
<path id="Vector_31" d="M414.443 48.7524C414.684 49.771 414.053 50.7919 413.034 51.0324C412.015 51.2729 410.995 50.6422 410.754 49.6234C410.514 48.6048 411.145 47.5838 412.163 47.3437C413.182 47.1029 414.203 47.7339 414.443 48.7524Z" fill="var(--fill-0, #00ADEF)"/>
<path id="Vector_32" d="M488.967 179.493C489.207 180.511 488.576 181.532 487.557 181.772C486.539 182.013 485.518 181.382 485.278 180.363C485.037 179.345 485.668 178.324 486.687 178.084C487.705 177.843 488.726 178.474 488.967 179.493Z" fill="var(--fill-0, #00ADEF)"/>
<path id="Vector_33" d="M529.234 136.357C529.475 137.375 528.844 138.396 527.825 138.637C526.807 138.877 525.786 138.246 525.545 137.228C525.305 136.209 525.936 135.188 526.954 134.948C527.973 134.707 528.994 135.338 529.234 136.357Z" fill="var(--fill-0, #00ADEF)"/>
<path id="Vector_34" d="M517.008 82.1135C517.249 83.132 516.618 84.153 515.599 84.3935C514.581 84.634 513.56 84.0033 513.32 82.9844C513.079 81.9659 513.71 80.945 514.729 80.7045C515.747 80.4643 516.768 81.095 517.008 82.1135Z" fill="var(--fill-0, #00ADEF)"/>
<path id="Vector_35" d="M538.939 106.133C539.179 107.152 538.548 108.173 537.53 108.413C536.511 108.653 535.49 108.022 535.25 107.004C535.009 105.985 535.64 104.964 536.659 104.724C537.677 104.483 538.698 105.114 538.939 106.133Z" fill="var(--fill-0, #00ADEF)"/>
<path id="Vector_36" d="M561.931 144.993C562.171 146.011 561.541 147.032 560.522 147.273C559.503 147.513 558.482 146.883 558.242 145.864C558.001 144.845 558.632 143.824 559.651 143.584C560.67 143.343 561.69 143.974 561.931 144.993Z" fill="var(--fill-0, #00ADEF)"/>
<path id="Vector_37" d="M549.305 190.791C549.546 191.81 548.915 192.831 547.896 193.071C546.878 193.312 545.857 192.681 545.616 191.662C545.376 190.643 546.007 189.623 547.025 189.382C548.044 189.142 549.065 189.773 549.305 190.791Z" fill="var(--fill-0, #00ADEF)"/>
<path id="Vector_38" d="M578.162 172.855C578.403 173.874 577.772 174.895 576.753 175.135C575.735 175.376 574.714 174.745 574.473 173.726C574.233 172.708 574.864 171.687 575.883 171.446C576.901 171.206 577.922 171.837 578.162 172.855Z" fill="var(--fill-0, #00ADEF)"/>
<path id="Vector_39" d="M611.665 182.289C611.906 183.307 611.275 184.328 610.256 184.569C609.237 184.809 608.216 184.178 607.976 183.159C607.736 182.141 608.367 181.12 609.385 180.88C610.404 180.64 611.425 181.27 611.665 182.289Z" fill="var(--fill-0, #00ADEF)"/>
<path id="Vector_40" d="M635.674 142.558C635.915 143.577 635.284 144.598 634.265 144.838C633.247 145.079 632.226 144.448 631.986 143.429C631.745 142.41 632.376 141.39 633.395 141.149C634.413 140.908 635.434 141.54 635.674 142.558Z" fill="var(--fill-0, #00ADEF)"/>
<path id="Vector_41" d="M648.3 188.357C648.54 189.375 647.909 190.396 646.891 190.637C645.872 190.877 644.851 190.246 644.611 189.228C644.37 188.209 645.001 187.188 646.02 186.948C647.039 186.708 648.059 187.338 648.3 188.357Z" fill="var(--fill-0, #00ADEF)"/>
<path id="Vector_42" d="M635.674 241.732C635.915 242.75 635.284 243.771 634.265 244.012C633.247 244.252 632.226 243.621 631.986 242.603C631.745 241.584 632.376 240.563 633.395 240.323C634.413 240.082 635.434 240.713 635.674 241.732Z" fill="var(--fill-0, #00ADEF)"/>
<path id="Vector_43" d="M590.788 238.818C591.028 239.836 590.397 240.857 589.378 241.098C588.36 241.338 587.339 240.707 587.098 239.689C586.858 238.67 587.489 237.649 588.508 237.409C589.526 237.168 590.547 237.799 590.788 238.818Z" fill="var(--fill-0, #00ADEF)"/>
<path id="Vector_44" d="M561.931 237.034C562.171 238.052 561.541 239.073 560.522 239.314C559.503 239.554 558.482 238.924 558.242 237.905C558.001 236.886 558.632 235.866 559.651 235.625C560.67 235.384 561.69 236.015 561.931 237.034Z" fill="var(--fill-0, #00ADEF)"/>
<path id="Vector_45" d="M528.428 241.732C528.668 242.75 528.038 243.771 527.019 244.012C526 244.252 524.979 243.621 524.739 242.603C524.499 241.584 525.129 240.563 526.148 240.323C527.167 240.082 528.187 240.713 528.428 241.732Z" fill="var(--fill-0, #00ADEF)"/>
<path id="Vector_46" d="M578.162 73.6813C578.403 74.6998 577.772 75.7208 576.753 75.9613C575.735 76.2018 574.714 75.5711 574.473 74.5523C574.233 73.5337 574.864 72.513 575.883 72.2726C576.901 72.0317 577.922 72.6628 578.162 73.6813Z" fill="var(--fill-0, #00ADEF)"/>
<path id="Vector_47" d="M601.155 34.8213C601.395 35.8398 600.764 36.8608 599.746 37.1013C598.727 37.3418 597.706 36.711 597.466 35.6922C597.225 34.6737 597.856 33.653 598.875 33.4125C599.893 33.1717 600.914 33.8025 601.155 34.8213Z" fill="var(--fill-0, #00ADEF)"/>
<path id="Vector_48" d="M590.788 119.48C591.028 120.498 590.397 121.519 589.378 121.759C588.36 122 587.339 121.369 587.099 120.35C586.858 119.332 587.489 118.311 588.508 118.071C589.526 117.83 590.547 118.461 590.788 119.48Z" fill="var(--fill-0, #00ADEF)"/>
<path id="Vector_49" d="M458.395 96.8001C458.635 97.8186 458.004 98.8395 456.985 99.08C455.967 99.3205 454.946 98.6898 454.706 97.671C454.465 96.6524 455.096 95.6318 456.115 95.3913C457.133 95.1505 458.154 95.7812 458.395 96.8001Z" fill="var(--fill-0, #00ADEF)"/>
<path id="Vector_50" d="M383.345 86.5543C383.345 87.6009 382.496 88.4495 381.45 88.4495C380.403 88.4495 379.554 87.6009 379.554 86.5543C379.554 85.5076 380.403 84.659 381.45 84.659C382.496 84.659 383.345 85.5076 383.345 86.5543Z" fill="var(--fill-0, #00ADEF)"/>
<path id="Vector_51" d="M369.571 112.067C369.571 113.114 368.723 113.963 367.676 113.963C366.629 113.963 365.781 113.114 365.781 112.067C365.781 111.021 366.629 110.172 367.676 110.172C368.723 110.172 369.571 111.021 369.571 112.067Z" fill="var(--fill-0, #00ADEF)"/>
<path id="Vector_52" d="M369.564 211.381C369.564 212.428 368.715 213.277 367.668 213.277C366.622 213.277 365.773 212.428 365.773 211.381C365.773 210.335 366.621 209.486 367.668 209.486C368.715 209.486 369.564 210.335 369.564 211.381Z" fill="var(--fill-0, #00ADEF)"/>
<path id="Vector_53" d="M295.828 208.806C295.828 209.853 294.979 210.701 293.933 210.701C292.886 210.701 292.038 209.853 292.038 208.806C292.038 207.759 292.886 206.911 293.933 206.911C294.979 206.911 295.828 207.759 295.828 208.806Z" fill="var(--fill-0, #00ADEF)"/>
<path id="Vector_54" d="M282.055 84.7703C282.055 85.817 281.206 86.6652 280.159 86.6652C279.113 86.6652 278.264 85.817 278.264 84.7703C278.264 83.7237 279.113 82.8751 280.159 82.8751C281.206 82.8751 282.055 83.7237 282.055 84.7703Z" fill="var(--fill-0, #00ADEF)"/>
<path id="Vector_55" d="M295.828 109.632C295.828 110.679 294.979 111.527 293.933 111.527C292.886 111.527 292.038 110.679 292.038 109.632C292.038 108.586 292.886 107.737 293.933 107.737C294.979 107.737 295.828 108.586 295.828 109.632Z" fill="var(--fill-0, #00ADEF)"/>
<path id="Vector_56" d="M320.643 32.1192C320.643 33.1658 319.795 34.0145 318.748 34.0145C317.701 34.0145 316.853 33.1661 316.853 32.1192C316.853 31.0726 317.701 30.2239 318.748 30.2239C319.795 30.2242 320.643 31.0726 320.643 32.1192Z" fill="var(--fill-0, #00ADEF)"/>
<path id="Vector_57" d="M353.34 39.8377C353.34 40.8843 352.491 41.7329 351.444 41.7329C350.398 41.7329 349.549 40.8843 349.549 39.8377C349.549 38.791 350.398 37.9424 351.444 37.9424C352.491 37.9427 353.34 38.791 353.34 39.8377Z" fill="var(--fill-0, #00ADEF)"/>
<path id="Vector_58" d="M330.348 1.89523C330.348 2.94187 329.499 3.79049 328.452 3.79049C327.405 3.79049 326.557 2.94217 326.557 1.89523C326.557 0.848589 327.406 0 328.452 0C329.499 0 330.348 0.848589 330.348 1.89523Z" fill="var(--fill-0, #00ADEF)"/>
<path id="Vector_59" d="M339.566 15.8939C339.566 16.9405 338.718 17.7891 337.671 17.7891C336.624 17.7891 335.776 16.9405 335.776 15.8939C335.776 14.8472 336.624 13.9986 337.671 13.9986C338.718 13.9986 339.566 14.8472 339.566 15.8939Z" fill="var(--fill-0, #00ADEF)"/>
<path id="Vector_60" d="M340.715 86.5543C340.715 87.6009 339.866 88.4495 338.819 88.4495C337.773 88.4495 336.924 87.6009 336.924 86.5543C336.924 85.5076 337.773 84.659 338.819 84.659C339.866 84.659 340.715 85.5076 340.715 86.5543Z" fill="var(--fill-0, #00ADEF)"/>
<path id="Vector_61" d="M147.544 254.036C147.544 255.083 146.696 255.932 145.649 255.932C144.603 255.932 143.754 255.083 143.754 254.036C143.754 252.99 144.603 252.141 145.649 252.141C146.696 252.141 147.544 252.99 147.544 254.036Z" fill="var(--fill-0, #00ADEF)"/>
<path id="Vector_62" d="M181.047 250.704C181.047 251.751 180.199 252.6 179.152 252.6C178.105 252.6 177.257 251.751 177.257 250.704C177.257 249.658 178.105 248.809 179.152 248.809C180.199 248.809 181.047 249.658 181.047 250.704Z" fill="var(--fill-0, #00ADEF)"/>
<path id="Vector_63" d="M220.509 189.222C220.509 190.268 219.66 191.117 218.614 191.117C217.567 191.117 216.719 190.268 216.719 189.222C216.719 188.175 217.567 187.326 218.614 187.326C219.66 187.326 220.509 188.175 220.509 189.222Z" fill="var(--fill-0, #00ADEF)"/>
<path id="Vector_64" d="M131.313 83.4104C131.313 84.4571 130.465 85.3057 129.418 85.3057C128.371 85.3057 127.523 84.4571 127.523 83.4104C127.523 82.3638 128.372 81.5152 129.418 81.5152C130.465 81.5152 131.313 82.3638 131.313 83.4104Z" fill="var(--fill-0, #00ADEF)"/>
<path id="Vector_65" d="M40.2982 250.704C40.2982 251.751 39.4496 252.6 38.4029 252.6C37.3563 252.6 36.5077 251.751 36.5077 250.704C36.5077 249.658 37.3563 248.809 38.4029 248.809C39.4496 248.809 40.2982 249.658 40.2982 250.704Z" fill="var(--fill-0, #00ADEF)"/>
<path id="Vector_66" d="M73.8013 250.704C73.8013 251.751 72.9529 252.6 71.906 252.6C70.8594 252.6 70.0107 251.751 70.0107 250.704C70.0107 249.658 70.8594 248.809 71.906 248.809C72.9529 248.809 73.8013 249.658 73.8013 250.704Z" fill="var(--fill-0, #00ADEF)"/>
</g>
</svg>
