<svg width="20" height="20" viewBox="0 0 20 20" fill="none" xmlns="http://www.w3.org/2000/svg">
<path d="M15.5917 6.84167C15.5142 6.76356 15.422 6.70157 15.3205 6.65926C15.2189 6.61695 15.11 6.59517 15 6.59517C14.89 6.59517 14.7811 6.61695 14.6795 6.65926C14.578 6.70157 14.4858 6.76356 14.4083 6.84167L10.5917 10.6583C10.5142 10.7364 10.422 10.7984 10.3205 10.8407C10.2189 10.8831 10.11 10.9048 10 10.9048C9.89 10.9048 9.78108 10.8831 9.67953 10.8407C9.57798 10.7984 9.48581 10.7364 9.40834 10.6583L5.59168 6.84167C5.51421 6.76356 5.42204 6.70157 5.32049 6.65926C5.21894 6.61695 5.11002 6.59517 5.00001 6.59517C4.89 6.59517 4.78108 6.61695 4.67953 6.65926C4.57798 6.70157 4.48581 6.76356 4.40834 6.84167C4.25313 6.9978 4.16602 7.20901 4.16602 7.42917C4.16602 7.64932 4.25313 7.86053 4.40834 8.01667L8.23334 11.8417C8.70209 12.3098 9.33751 12.5728 10 12.5728C10.6625 12.5728 11.2979 12.3098 11.7667 11.8417L15.5917 8.01667C15.7469 7.86053 15.834 7.64932 15.834 7.42917C15.834 7.20901 15.7469 6.9978 15.5917 6.84167Z" fill="black"/>
</svg>
