<svg width="48" height="48" viewBox="0 0 48 48" fill="none" xmlns="http://www.w3.org/2000/svg">
<g clip-path="url(#clip0_2548_436)">
<path d="M30.578 30.098L33.398 31.724L35.396 28.26L32.562 26.628C32.82 25.792 32.998 24.922 32.998 24.004C32.998 23.086 32.82 22.214 32.562 21.378L35.394 19.746L33.398 16.28L30.576 17.906C29.366 16.602 27.79 15.656 25.998 15.246V12.004H21.998V15.246C20.206 15.656 18.628 16.602 17.42 17.906L14.598 16.28L12.602 19.746L15.434 21.378C15.176 22.214 14.998 23.084 14.998 24.004C14.998 24.924 15.176 25.794 15.434 26.628L12.6 28.26L14.598 31.724L17.418 30.098C18.628 31.402 20.204 32.35 21.996 32.76V40.556C20.806 41.248 19.996 42.524 19.996 44.002C19.996 46.212 21.786 48.002 23.996 48.002C26.206 48.002 27.996 46.212 27.996 44.002C27.996 42.526 27.186 41.25 25.996 40.556V32.76C27.788 32.35 29.366 31.404 30.574 30.098H30.578ZM19 24C19 21.244 21.244 19 24 19C26.756 19 29 21.244 29 24C29 26.756 26.756 29 24 29C21.244 29 19 26.758 19 24ZM48 44C48 46.21 46.21 48 44 48C42.524 48 41.248 47.19 40.554 46H32V36H36V42H40.554C41.246 40.81 42.522 40 44 40C46.21 40 48 41.79 48 44ZM12 36H16V46H7.446C6.754 47.19 5.478 48 4 48C1.79 48 0 46.21 0 44C0 41.79 1.79 40 4 40C5.476 40 6.752 40.81 7.446 42H12V36ZM0 27C0 23.652 1.506 20.55 4.088 18.47C4.028 17.908 4 17.374 4 16.858C4 7.484 11.626 0 21 0C27.884 0 34.034 3.988 36.67 10.254C43.212 11.506 48 17.208 48 24C48 29.57 44.722 34.376 40 36.63V31.95C42.414 30.122 44 27.254 44 24.002C44 18.844 40.136 14.568 35.012 14.054L33.692 13.868L33.212 12.392C31.342 7.276 26.474 4.002 21 4.002C13.832 4.002 8 9.692 8 16.86C7.974 17.832 8.248 19.308 8.434 20.376L7.3 21.088C5.234 22.384 4 24.596 4 27.004C4 29.786 5.644 32.174 8 33.302V37.578C3.39 36.268 0 32.028 0 27.004L0 27Z" fill="#00ADEF"/>
</g>
<defs>
<clipPath id="clip0_2548_436">
<rect width="48" height="48" fill="white"/>
</clipPath>
</defs>
</svg>
