<svg width="48" height="48" viewBox="0 0 48 48" fill="none" xmlns="http://www.w3.org/2000/svg">
<g clip-path="url(#clip0_2548_464)">
<path d="M38.052 24V36C38.052 37.104 37.156 38 36.052 38C34.948 38 34.052 37.104 34.052 36V24C34.052 22.896 34.948 22 36.052 22C37.156 22 38.052 22.896 38.052 24ZM23.212 13.434L29.354 35.492C29.704 36.752 28.758 38 27.448 38C26.562 38 25.786 37.412 25.544 36.56L24.258 32H13.846L12.56 36.56C12.32 37.412 11.542 38 10.656 38C9.348 38 8.4 36.752 8.75 35.492L14.932 13.276C15.214 12.06 16.014 11.036 17.128 10.466C18.264 9.882 19.568 9.846 20.806 10.366C21.98 10.858 22.88 12 23.214 13.436L23.212 13.434ZM23.13 28L19.272 14.33C19.214 14.102 18.89 14.102 18.834 14.33L14.976 28H23.13ZM46.054 20C44.95 20 44.054 20.896 44.054 22V38C44.054 41.308 41.362 44 38.054 44H10.052C6.744 44 4.052 41.308 4.052 38V10C4.052 6.692 6.744 4 10.052 4H26.052C27.156 4 28.052 3.104 28.052 2C28.052 0.896 27.156 0 26.052 0H10.052C4.538 0 0.052002 4.486 0.052002 10V38C0.052002 43.514 4.538 48 10.052 48H38.052C43.566 48 48.052 43.514 48.052 38V22C48.052 20.896 47.156 20 46.052 20H46.054ZM32.354 10.36L36.09 11.934L37.58 15.664C37.902 16.472 38.684 17 39.554 17C40.424 17 41.204 16.47 41.528 15.664L43.01 11.956L46.718 10.474C47.526 10.152 48.054 9.37 48.054 8.5C48.054 7.63 47.524 6.85 46.718 6.526L43.01 5.044L41.528 1.336C41.202 0.53 40.42 0 39.552 0C38.684 0 37.902 0.53 37.578 1.336L36.104 5.022L32.424 6.416C31.612 6.724 31.068 7.496 31.052 8.364C31.036 9.234 31.552 10.024 32.352 10.362L32.354 10.36Z" fill="#00ADEF"/>
</g>
<defs>
<clipPath id="clip0_2548_464">
<rect width="48" height="48" fill="white"/>
</clipPath>
</defs>
</svg>
