<svg width="40" height="40" viewBox="0 0 40 40" fill="none" xmlns="http://www.w3.org/2000/svg">
<g clip-path="url(#clip0_2548_211)">
<path d="M40 38.3334C40 38.7755 39.8244 39.1994 39.5118 39.5119C39.1993 39.8245 38.7754 40.0001 38.3333 40.0001H1.66667C1.22464 40.0001 0.800716 39.8245 0.488156 39.5119C0.175595 39.1994 3.49479e-07 38.7755 3.49479e-07 38.3334C3.49479e-07 37.8914 0.175595 37.4675 0.488156 37.1549C0.800716 36.8424 1.22464 36.6668 1.66667 36.6668H38.3333C38.7754 36.6668 39.1993 36.8424 39.5118 37.1549C39.8244 37.4675 40 37.8914 40 38.3334ZM0.485 14.2534C0.125871 13.5873 -0.0405086 12.8343 0.00453439 12.0788C0.0495774 11.3234 0.30426 10.5955 0.74 9.97676C1.4521 8.93195 2.40574 8.07436 3.52 7.47676L16.0217 0.970092C17.2504 0.331144 18.615 -0.00244141 20 -0.00244141C21.385 -0.00244141 22.7496 0.331144 23.9783 0.970092L36.4783 7.48176C37.5926 8.07936 38.5462 8.93695 39.2583 9.98176C39.6941 10.6005 39.9488 11.3284 39.9938 12.0838C40.0388 12.8393 39.8725 13.5923 39.5133 14.2584C39.1267 14.9898 38.5468 15.6011 37.8368 16.0257C37.1268 16.4504 36.3139 16.6721 35.4867 16.6668H35V30.0001H36.6667C37.1087 30.0001 37.5326 30.1757 37.8452 30.4882C38.1577 30.8008 38.3333 31.2247 38.3333 31.6668C38.3333 32.1088 38.1577 32.5327 37.8452 32.8453C37.5326 33.1578 37.1087 33.3334 36.6667 33.3334H3.33333C2.89131 33.3334 2.46738 33.1578 2.15482 32.8453C1.84226 32.5327 1.66667 32.1088 1.66667 31.6668C1.66667 31.2247 1.84226 30.8008 2.15482 30.4882C2.46738 30.1757 2.89131 30.0001 3.33333 30.0001H5V16.6668H4.51333C3.68527 16.6719 2.87168 16.4496 2.16132 16.024C1.45095 15.5985 0.871098 14.986 0.485 14.2534ZM8.33333 30.0001H13.3333V16.6668H8.33333V30.0001ZM16.6667 16.6668V30.0001H23.3333V16.6668H16.6667ZM31.6667 16.6668H26.6667V30.0001H31.6667V16.6668ZM3.43833 12.7084C3.54291 12.9012 3.69852 13.0615 3.88814 13.1718C4.07775 13.282 4.29405 13.3379 4.51333 13.3334H35.4867C35.706 13.3379 35.9223 13.282 36.1119 13.1718C36.3015 13.0615 36.4571 12.9012 36.5617 12.7084C36.6378 12.581 36.6747 12.434 36.6676 12.2857C36.6604 12.1375 36.6097 11.9946 36.5217 11.8751C36.1178 11.2749 35.5753 10.781 34.94 10.4351L22.44 3.92343C21.6867 3.53247 20.8504 3.32838 20.0017 3.32838C19.1529 3.32838 18.3167 3.53247 17.5633 3.92343L5.06333 10.4351C4.42831 10.7821 3.88588 11.2765 3.48167 11.8768C3.39348 11.9958 3.34234 12.1381 3.33463 12.2861C3.32692 12.434 3.36299 12.5809 3.43833 12.7084Z" fill="#1D223F"/>
</g>
<defs>
<clipPath id="clip0_2548_211">
<rect width="40" height="40" fill="white"/>
</clipPath>
</defs>
</svg>
