<svg width="40" height="40" viewBox="0 0 40 40" fill="none" xmlns="http://www.w3.org/2000/svg">
<g clip-path="url(#clip0_2548_254)">
<path d="M35.1717 2.23833C30.485 0.93 25.3117 0.0116667 20 0C14.6933 0.0116667 9.51 0.931667 4.82833 2.23833C1.985 3.03833 0 5.67333 0 8.64667V25.8333C0 28.1317 1.87 30 4.16667 30H7.85667C9.79667 30 11.4333 28.6233 11.835 26.6517C12.6233 22.7983 16.0567 20 19.9983 20C23.94 20 27.3733 22.7983 28.1617 26.6517C28.565 28.6233 30.2017 30 32.14 30H35.83C38.1267 30 39.9967 28.1317 39.9967 25.8333V8.64667C39.9967 5.67333 38.0117 3.03833 35.1683 2.23667L35.1717 2.23833ZM36.6667 8.64833V11.6583C35.23 11.1033 33.22 10.4117 30.8333 9.79833V4.59333C32.105 4.87333 33.2717 5.16667 34.2683 5.44833C35.68 5.845 36.6667 7.16 36.6667 8.64833ZM12.5 9.06V3.96167C14.33 3.67167 16.295 3.455 18.3333 3.375V8.37667C16.2967 8.46833 14.3333 8.72 12.5 9.06ZM21.6667 3.375C23.705 3.455 25.67 3.67167 27.5 3.96167V9.06C25.6667 8.72 23.7033 8.46833 21.6667 8.375V3.375ZM5.73167 5.44833C6.72833 5.16667 7.895 4.87333 9.16667 4.59333V9.79833C6.78 10.4117 4.77 11.1033 3.33333 11.6583V8.64833C3.33333 7.16 4.32 5.845 5.73167 5.44833ZM35.8333 26.6667H32.1433C31.7467 26.6667 31.5 26.3233 31.43 25.985C30.3267 20.5867 25.52 16.6667 20.0017 16.6667C14.4833 16.6667 9.67667 20.5867 8.57333 25.985C8.50333 26.3233 8.25667 26.6667 7.86 26.6667H4.16667C3.70667 26.6667 3.33333 26.2917 3.33333 25.8333V15.255C5.77333 14.2333 12.6333 11.6667 20 11.6667C27.3667 11.6667 34.2267 14.2333 36.6667 15.255V25.8333C36.6667 26.2917 36.2933 26.6667 35.8333 26.6667ZM39.5733 35.9417C40.1883 36.625 40.1317 37.68 39.4483 38.295C38.225 39.3933 36.645 39.9983 35.0017 39.9983C33.1167 39.9983 31.3 39.2 30.0017 37.94C28.7033 39.2017 26.8867 39.9983 25.0017 39.9983C23.1167 39.9983 21.3 39.2 20.0017 37.94C18.7033 39.2017 16.8867 39.9983 15.0017 39.9983C13.1167 39.9983 11.3 39.2 10.0017 37.94C8.70333 39.2017 6.88667 39.9983 5.00167 39.9983C3.35667 39.9983 1.77667 39.3933 0.555 38.295C-0.13 37.68 -0.185 36.625 0.43 35.9417C1.045 35.2583 2.1 35.2033 2.78333 35.815C3.39333 36.3633 4.18167 36.6667 5.00333 36.6667C6.48667 36.6667 7.99167 35.69 8.43167 34.445C8.97 33.0183 11.0367 33.0183 11.575 34.445C12.015 35.69 13.52 36.6667 15.0033 36.6667C16.4867 36.6667 17.9917 35.69 18.4317 34.445C18.97 33.0183 21.0367 33.0183 21.575 34.445C22.015 35.69 23.52 36.6667 25.0033 36.6667C26.4867 36.6667 27.9917 35.69 28.4317 34.445C28.97 33.0183 31.0367 33.0183 31.575 34.445C32.015 35.69 33.52 36.6667 35.0033 36.6667C35.825 36.6667 36.6117 36.3633 37.2233 35.815C37.9083 35.2033 38.9617 35.255 39.5767 35.9417H39.5733Z" fill="black"/>
</g>
<defs>
<clipPath id="clip0_2548_254">
<rect width="40" height="40" fill="white"/>
</clipPath>
</defs>
</svg>
