<svg width="240" height="241" viewBox="0 0 240 241" fill="none" xmlns="http://www.w3.org/2000/svg">
<path d="M239.057 17.4061C239.095 17.5472 239.127 17.6508 239.152 17.731C239.205 17.9021 239.251 18.0499 239.247 18.2343L239.18 26.2864C239.115 34.1308 239.05 41.9743 239.01 49.8221C239.002 51.1529 238.227 51.7199 237.501 52.1469C233.041 54.783 228.584 57.4253 224.127 60.0679C219.799 62.6341 215.47 65.2003 211.137 67.7618C210.848 67.9331 210.539 68.0314 210.212 68.1353C210.054 68.1857 209.88 68.2406 209.688 68.3107L209.551 68.3609L209.55 68.4724L209.839 68.6086C210.038 68.7028 210.204 68.7771 210.347 68.841C210.622 68.9637 210.822 69.0553 211.009 69.1658L218.87 73.7972C225.097 77.4675 231.322 81.1372 237.561 84.7806C238.921 85.5771 239.116 86.65 239.123 87.6908C239.176 93.9738 239.249 100.26 239.321 106.548C239.365 110.334 239.409 114.12 239.448 117.907C239.454 118.281 239.403 118.637 239.349 119.014C239.325 119.179 239.3 119.351 239.279 119.535L239.266 119.653L239.759 119.938L239.557 120.071L239.549 120.897L239.361 141.077L239.239 154.194L239.235 154.572L238.91 154.765C230.503 159.752 222.17 164.69 213.695 169.712L210.147 171.815L210.05 171.872C210.19 171.914 210.294 171.942 210.375 171.963C210.539 172.006 210.669 172.041 210.809 172.121L216.909 175.712C223.948 179.857 230.985 184 238.032 188.13C238.96 188.675 239.38 189.427 239.392 190.568C239.443 195.857 239.502 201.146 239.56 206.434C239.616 211.473 239.672 216.513 239.721 221.553C239.725 221.881 239.635 222.17 239.548 222.45C239.514 222.559 239.478 222.672 239.449 222.793L239.361 223.15L239.749 223.398L238.886 223.966C238.662 224.114 238.462 224.253 238.275 224.383C237.949 224.61 237.642 224.823 237.314 225.008L230.275 228.984C224.066 232.489 217.645 236.113 211.354 239.713C210.688 240.093 210.108 240.27 209.527 240.27C208.953 240.27 208.379 240.097 207.721 239.725C201.108 235.97 194.365 232.189 187.844 228.533L181.871 225.183C181.541 224.999 181.212 224.808 180.83 224.587L180.046 224.135L179.48 223.81L179.194 223.989C178.985 224.12 178.794 224.242 178.615 224.357C178.235 224.6 177.906 224.811 177.566 225.003C175.177 226.355 172.786 227.704 170.395 229.054C164.331 232.476 158.061 236.015 151.921 239.537C151.152 239.981 150.483 240.189 149.818 240.189C149.165 240.189 148.512 239.991 147.765 239.565C141.437 235.946 134.973 232.317 128.721 228.806C126.507 227.563 124.292 226.32 122.079 225.074C121.598 224.802 121.122 224.527 120.393 224.105L119.974 223.862L119.566 224.104L119.568 223.943C119.318 224.108 119.107 224.251 118.921 224.379C118.575 224.614 118.306 224.797 118.024 224.957C115.585 226.337 113.146 227.714 110.708 229.091C104.528 232.58 98.1375 236.189 91.874 239.771C91.2381 240.137 90.6713 240.309 90.0927 240.309C89.5065 240.309 88.9146 240.127 88.2301 239.737C82.3464 236.399 76.449 233.087 70.5518 229.774C67.6564 228.148 64.7609 226.521 61.8673 224.892C61.5735 224.728 61.3369 224.523 61.0627 224.286C60.9326 224.174 60.7898 224.05 60.6234 223.917L60.3575 223.705L60.3499 223.796L60.2507 223.749L59.9809 223.89L59.9787 223.836L59.8133 223.95C59.65 224.063 59.5097 224.164 59.3827 224.255C59.1314 224.436 58.9142 224.592 58.6729 224.73C55.9488 226.271 53.2245 227.81 50.4999 229.349C44.4443 232.769 38.1827 236.305 32.0432 239.81C31.5139 240.113 31.0119 240.26 30.5086 240.26C29.8096 240.26 29.2 239.967 28.7467 239.711C22.6776 236.283 16.5968 232.871 10.5164 229.459L2.5588 224.992C2.2119 224.8 1.8661 224.599 1.3826 224.317L0.954225 224.068L0.598217 223.861L0.336795 224.016L0.323441 223.701L0.0398009 223.536L0.308263 223.351L0.288713 222.896C0.273171 222.538 0.256296 222.23 0.241483 221.954C0.213677 221.442 0.191818 221.035 0.193882 220.628L0.264916 212.971C0.333277 205.816 0.403945 198.416 0.42835 191.138C0.431265 189.603 0.989679 188.655 2.35567 187.867C7.6857 184.757 13.089 181.549 18.3141 178.446L22.7918 175.789L26.5877 173.538L29.6264 171.735L29.5346 171.682L27.6803 170.619C26.0355 169.677 24.4987 168.796 22.9725 167.9C20.0169 166.168 17.0617 164.433 14.1067 162.697C10.1251 160.359 6.14292 158.021 2.15714 155.69C1.23325 155.151 0.329635 154.494 0.321136 152.94C0.273175 146.536 0.200561 140.131 0.128073 133.726C0.0835113 129.793 0.0388309 125.86 0.000218921 121.926C-0.00512361 121.594 0.0882458 121.298 0.178705 121.012C0.214524 120.898 0.252653 120.779 0.28483 120.651L0.488572 119.839L1.23665 120.214C1.40494 120.299 1.56084 120.374 1.70728 120.445C2.03341 120.602 2.31511 120.738 2.59572 120.907L9.881 125.21C16.0287 128.844 22.3857 132.601 28.6552 136.267C29.5179 136.772 30.0075 137.381 30.2106 138.252L30.2152 137.745L30.2185 137.367L30.5437 137.174C40.1295 131.491 49.5907 125.886 59.3937 120.079L60.4171 119.473L60.4158 119.603L60.5432 119.519C60.7189 119.403 60.8697 119.299 61.0055 119.206C61.2653 119.027 61.4765 118.883 61.6968 118.759L68.9711 114.65C75.268 111.095 81.7791 107.419 88.162 103.775C88.7473 103.441 89.2939 103.279 89.834 103.279C90.0734 103.279 90.3141 103.311 90.5623 103.376C90.0708 102.878 89.7246 102.206 89.7168 101.191C89.6684 94.4393 89.5905 87.6883 89.5127 80.937C89.473 77.4793 89.433 74.0216 89.3973 70.5638C89.3929 70.2236 89.4664 69.9016 89.5376 69.5903C89.5712 69.442 89.6073 69.2859 89.6362 69.1178L89.718 68.6396L89.4207 68.4213L89.5959 68.3093L89.374 68.3524L89.3817 67.531L89.4679 58.1672L89.688 34.4565L89.6916 34.0783L90.0167 33.8858C96.335 30.1429 102.602 26.4261 108.977 22.6453L118.862 16.7832L119.886 16.1765L119.884 16.3211L119.982 16.2587C120.206 16.1163 120.406 15.9855 120.592 15.8643C120.968 15.6183 121.288 15.4099 121.619 15.2213C124.081 13.8287 126.542 12.4399 129.003 11.0512C135.046 7.64093 141.295 4.11484 147.416 0.605881C148.108 0.209564 148.713 0.0250092 149.321 0.0250092C149.924 0.0250092 150.527 0.207397 151.218 0.59874C157.623 4.23969 164.158 7.90536 170.477 11.4503L177.063 15.1469C177.376 15.3188 177.689 15.4998 178.074 15.7224L178.829 16.1568L179.278 16.4135L179.359 16.3688L179.369 16.4653L179.399 16.4826L179.651 16.3139C179.831 16.1941 179.983 16.0868 180.121 15.99C180.374 15.8123 180.583 15.6673 180.803 15.5423C183.245 14.1606 185.688 12.7811 188.131 11.4014C194.47 7.82088 201.025 4.11874 207.452 0.441742C207.973 0.144516 208.471 0.000137329 208.975 0.000137329C209.7 0.000137329 210.338 0.307327 210.92 0.639175C216.868 4.00194 222.828 7.3483 228.789 10.695L236.622 15.0946C236.965 15.2837 237.309 15.484 237.73 15.7286L238.534 16.1943L239.473 16.7339L238.966 17.0714L239.057 17.4061ZM238.453 87.696C238.445 86.6399 238.212 85.9392 237.223 85.36C228.358 80.1828 219.52 74.9531 210.667 69.7431C210.4 69.5846 210.098 69.4732 209.552 69.2152C209.521 69.9882 209.472 70.4846 209.48 70.9785C209.592 80.9873 209.72 90.9986 209.806 101.011C209.817 102.062 210.06 102.751 211.047 103.33C219.855 108.477 228.634 113.684 237.422 118.869C237.751 119.061 238.102 119.202 238.613 119.459C238.681 118.867 238.786 118.393 238.778 117.914C238.673 107.838 238.537 97.7635 238.453 87.696ZM90.9172 136.809C90.5961 136.929 90.2824 136.988 89.9688 136.988C89.6067 136.988 89.2417 136.91 88.8472 136.745C89.4379 137.227 89.7815 137.806 89.92 138.556C90.0672 137.859 90.3874 137.298 90.9172 136.809ZM88.961 206.855C89.3359 206.732 89.6985 206.673 90.0643 206.673C90.3993 206.673 90.7318 206.722 91.0798 206.826C90.5142 206.345 90.1861 205.771 90.0564 205.036C89.8971 205.771 89.5463 206.353 88.961 206.855ZM90.4932 139.559C90.4708 149.384 90.3505 159.208 90.2679 169.034C90.2627 169.651 90.3084 170.269 90.3385 171.106C90.9715 170.813 91.4272 170.638 91.8387 170.395C100.514 165.261 109.181 160.118 117.86 154.987C118.671 154.507 119.201 154.042 119.209 152.941C119.255 142.67 119.37 132.401 119.458 122.126C119.463 121.765 119.396 121.398 119.331 120.73C118.487 121.201 117.928 121.498 117.385 121.822C108.984 126.795 100.604 131.796 92.1764 136.722C90.9938 137.413 90.4984 138.147 90.4932 139.559ZM210.209 136.808C209.905 136.904 209.609 136.95 209.309 136.95C209.031 136.95 208.751 136.909 208.46 136.824C208.964 137.277 209.195 137.794 209.301 138.314C209.425 137.602 209.787 137.144 210.209 136.808ZM208.49 206.806C208.823 206.704 209.144 206.655 209.465 206.655C209.83 206.655 210.192 206.718 210.57 206.849C209.99 206.421 209.644 205.903 209.494 205.221C209.362 205.993 208.953 206.466 208.49 206.806ZM210.752 135.832C219.446 130.854 228.184 125.949 236.904 121.013C237.337 120.772 237.737 120.472 238.486 119.976C237.629 119.481 237.088 119.168 236.544 118.856C228.026 114.08 219.495 109.323 211.004 104.5C210.384 104.149 209.841 103.958 209.288 103.958C208.786 103.958 208.276 104.114 207.692 104.45C199.112 109.37 190.482 114.207 181.874 119.076C181.388 119.353 180.928 119.678 180.278 120.096C180.804 120.476 181.166 120.799 181.58 121.034C190.314 125.954 199.059 130.846 207.776 135.797C208.331 136.11 208.816 136.279 209.309 136.279C209.763 136.279 210.223 136.136 210.752 135.832ZM208.716 139.327C208.709 138.304 208.542 137.564 207.528 136.976C198.653 131.796 189.81 126.557 180.957 121.339C180.691 121.181 180.395 121.071 179.928 120.849C179.852 121.443 179.736 121.912 179.742 122.382C179.848 132.464 179.997 142.549 180.057 152.631C180.067 153.903 180.528 154.571 181.587 155.189C190.296 160.275 198.972 165.421 207.662 170.535C207.983 170.726 208.336 170.857 208.956 171.143C208.998 170.375 209.05 169.879 209.046 169.385C208.936 159.365 208.809 149.345 208.716 139.327ZM179.482 153.564C179.375 154.154 179.106 154.618 178.636 155.021C178.919 154.929 179.199 154.883 179.479 154.883C179.745 154.883 179.998 154.926 180.234 154.993C179.847 154.585 179.604 154.122 179.482 153.564ZM179.685 85.5113L179.939 85.3605C179.754 85.4047 179.568 85.4266 179.381 85.4266C179.162 85.4266 178.953 85.3955 178.756 85.3452C179.047 85.6658 179.242 86.0377 179.352 86.4811L179.356 86.0823L179.359 85.7041L179.685 85.5113ZM207.101 170.75C198.376 165.839 189.637 160.946 180.917 156.02C180.41 155.733 179.956 155.554 179.479 155.554C179.109 155.554 178.725 155.662 178.289 155.91C169.426 160.97 160.534 165.973 151.655 170.992C151.334 171.173 151.043 171.407 150.429 171.833C151.139 172.242 151.575 172.503 152.018 172.746C160.749 177.647 169.483 182.543 178.207 187.463C178.714 187.75 179.169 187.932 179.65 187.932C180.02 187.932 180.404 187.825 180.84 187.577C189.7 182.514 198.59 177.515 207.472 172.497C207.791 172.314 208.083 172.083 208.569 171.748C207.992 171.35 207.569 171.009 207.101 170.75ZM151.482 170.378C160.216 165.212 168.942 160.023 177.687 154.871C178.495 154.395 178.861 153.894 178.866 152.923C178.927 142.584 179.037 132.24 179.129 121.898C179.13 121.651 179.083 121.398 179.03 120.827C174.04 123.515 169.386 126.46 164.641 129.236C159.856 132.042 155.095 134.892 150.291 137.749C150.189 148.803 150.091 159.778 149.987 171.014C150.621 170.747 151.084 170.613 151.482 170.378ZM178.71 120.071C177.096 119.14 175.783 118.372 174.456 117.629C166.778 113.307 159.076 109.027 151.426 104.664C150.74 104.273 150.144 104.059 149.534 104.059C148.984 104.059 148.422 104.232 147.773 104.606C139.316 109.483 130.798 114.252 122.301 119.064C121.76 119.37 121.237 119.708 120.54 120.135C121.008 120.501 121.307 120.819 121.67 121.021C130.456 125.97 139.262 130.893 148.031 135.871C148.585 136.184 149.07 136.352 149.563 136.352C150.019 136.352 150.481 136.209 151.012 135.905C159.706 130.927 168.443 126.02 177.163 121.089C177.595 120.845 177.992 120.545 178.71 120.071ZM149.617 138.147L149.62 137.742L149.624 137.365L149.948 137.172L150.407 136.899C150.122 136.982 149.844 137.023 149.563 137.023C149.363 137.023 149.163 137.002 148.958 136.958C149.323 137.324 149.516 137.733 149.617 138.147ZM149.441 206.394L149.188 206.544C149.392 206.491 149.595 206.466 149.8 206.466C149.984 206.466 150.168 206.487 150.358 206.53C150.042 206.187 149.868 205.811 149.773 205.43L149.77 205.823L149.766 206.201L149.441 206.394ZM149.049 139.103C149.04 138.203 148.846 137.564 147.999 137.062C138.97 131.78 129.965 126.457 120.953 121.146C120.792 121.047 120.599 121.01 120.166 120.849C120.127 121.553 120.075 122.049 120.082 122.539C120.192 132.55 120.323 142.556 120.409 152.568C120.42 153.614 120.641 154.322 121.63 154.901C130.497 160.083 139.333 165.316 148.176 170.535C148.447 170.696 148.743 170.813 149.173 171.017C149.256 170.524 149.39 170.113 149.383 169.71C149.278 159.506 149.149 149.303 149.049 139.103ZM119.827 153.53C119.682 154.326 119.256 154.822 118.768 155.192C119.111 155.085 119.442 155.034 119.775 155.034C120.153 155.034 120.526 155.099 120.923 155.237C120.252 154.735 119.955 154.144 119.827 153.53ZM147.069 170.654C138.564 165.865 130.043 161.107 121.566 156.274C120.917 155.905 120.353 155.705 119.775 155.705C119.246 155.705 118.705 155.873 118.079 156.232C109.518 161.163 100.895 165.989 92.2917 170.857C91.8544 171.101 91.4443 171.394 90.8625 171.77C91.2125 172.07 91.4443 172.343 91.7363 172.508C100.739 177.575 109.754 182.623 118.756 187.702C119.154 187.928 119.517 188.056 119.889 188.056C120.205 188.056 120.527 187.964 120.881 187.761C129.971 182.593 139.073 177.449 148.171 172.294C148.327 172.203 148.45 172.055 148.869 171.688C148.148 171.272 147.608 170.959 147.069 170.654ZM119.623 86.7151C119.743 85.983 120.113 85.517 120.545 85.1779C120.237 85.2745 119.938 85.321 119.636 85.321C119.341 85.321 119.043 85.2749 118.733 85.1792C119.193 85.5987 119.481 86.0958 119.623 86.7151ZM119.636 84.6504C120.09 84.6504 120.552 84.5081 121.081 84.206C129.777 79.228 138.512 74.3206 147.232 69.3844C147.662 69.1405 148.06 68.8459 148.817 68.3467C147.959 67.8529 147.421 67.5371 146.877 67.2305C138.358 62.4514 129.828 57.6961 121.337 52.8712C120.716 52.5183 120.175 52.3269 119.621 52.3269C119.121 52.3269 118.612 52.4835 118.026 52.8188C109.446 57.7392 100.816 62.5799 92.2069 67.4479C91.7194 67.7244 91.2556 68.044 90.6059 68.4593C91.1326 68.8457 91.4941 69.1692 91.9068 69.4025C100.643 74.3205 109.387 79.2148 118.1 84.1653C118.655 84.481 119.141 84.6504 119.636 84.6504ZM147.91 69.7117C139.063 74.9455 130.223 80.1933 121.375 85.4282C120.659 85.8463 120.261 86.2995 120.253 87.2125C120.196 97.6824 120.09 108.155 120.002 118.625C120 118.809 120.049 118.997 120.133 119.611C129.836 113.864 139.311 108.248 148.903 102.564C149.004 91.5187 149.106 80.4893 149.21 69.2413C148.664 69.434 148.25 69.5126 147.91 69.7117ZM149.573 102.57L149.57 102.948L149.244 103.141L148.611 103.516C148.923 103.43 149.227 103.388 149.534 103.388C149.879 103.388 150.222 103.44 150.581 103.551C150.003 103.042 149.717 102.472 149.579 101.885L149.573 102.57ZM150.389 33.5166C150.073 33.6305 149.764 33.6862 149.454 33.6862C149.049 33.6862 148.679 33.5907 148.343 33.4568C148.949 33.9131 149.293 34.4651 149.411 35.1753C149.567 34.5179 149.882 33.9836 150.389 33.5166ZM150.131 100.724C150.142 101.992 150.458 102.801 151.642 103.485C160.306 108.52 168.925 113.635 177.558 118.723C177.934 118.944 178.342 119.121 178.896 119.408C178.989 118.885 179.125 118.48 179.122 118.078C179.015 107.872 178.884 97.6602 178.791 87.447C178.783 86.4553 178.511 85.8122 177.604 85.2856C168.737 80.0846 159.895 74.847 151.043 69.6241C150.775 69.4655 150.48 69.358 149.896 69.0908C149.859 69.9357 149.81 70.4925 149.813 71.0494C149.925 80.9414 150.061 90.8297 150.131 100.724ZM151.406 69.341C160.303 74.3387 169.202 79.3261 178.095 84.341C178.545 84.5938 178.953 84.7559 179.381 84.7559C179.699 84.7559 180.026 84.6671 180.389 84.4602C189.423 79.3183 198.473 74.209 207.515 69.0883C207.725 68.9664 207.904 68.7923 208.374 68.4254C207.594 67.9721 207.052 67.6538 206.5 67.3434C197.996 62.5605 189.472 57.8062 180.997 52.9642C180.363 52.6004 179.812 52.4167 179.26 52.4167C178.708 52.4167 178.155 52.5998 177.515 52.9695C169.002 57.8665 160.435 62.6638 151.891 67.5006C151.402 67.7757 150.94 68.0993 150.276 68.5211C150.747 68.8668 151.055 69.1406 151.406 69.341ZM180.026 86.0885C179.926 97.1099 179.825 108.13 179.723 119.179C181.202 118.862 205.46 104.695 208.575 102.363C208.672 91.4336 208.771 80.4292 208.875 69.0017C199.059 74.8143 189.598 80.42 180.026 86.0885ZM209.248 102.062L209.246 102.369L209.243 102.701L208.977 102.9C208.778 103.049 208.467 103.262 208.061 103.528C208.481 103.365 208.881 103.288 209.287 103.288C209.518 103.288 209.75 103.314 209.988 103.367C209.577 102.963 209.36 102.519 209.248 102.062ZM209.417 33.8828C209.567 33.7938 209.717 33.7047 209.868 33.6157C209.59 33.695 209.318 33.7341 209.048 33.7341C208.83 33.7341 208.613 33.7099 208.391 33.6598C208.767 34.0441 208.975 34.4773 209.084 34.9623L209.088 34.4538L209.092 34.0757L209.417 33.8828ZM238.568 154.188C238.672 143.137 238.772 132.106 238.879 120.891C238.39 121.042 238.024 121.08 237.732 121.255C228.832 126.516 219.938 131.8 211.034 137.057C210.312 137.488 209.929 137.954 209.925 138.858C209.864 149.328 209.76 159.796 209.675 170.266C209.674 170.451 209.721 170.638 209.805 171.238C219.51 165.487 228.99 159.87 238.568 154.188ZM239.05 221.56C238.949 211.233 238.821 200.904 238.721 190.576C238.712 189.726 238.454 189.156 237.693 188.709C228.613 183.388 219.55 178.044 210.478 172.704C210.37 172.643 210.239 172.63 209.834 172.508C209.798 173.155 209.746 173.646 209.753 174.135C209.861 184.209 209.99 194.282 210.076 204.36C210.085 205.364 210.38 205.986 211.276 206.51C220.136 211.701 228.971 216.927 237.816 222.149C238.087 222.31 238.382 222.429 238.797 222.634C238.897 222.228 239.054 221.895 239.05 221.56ZM182.2 224.599C190.821 229.438 199.453 234.259 208.051 239.142C208.591 239.447 209.059 239.6 209.527 239.6C210 239.6 210.473 239.444 211.021 239.131C219.653 234.192 228.328 229.32 236.984 224.425C237.462 224.155 237.901 223.813 238.517 223.407C237.867 222.991 237.415 222.668 236.933 222.397C228.319 217.544 219.688 212.723 211.099 207.83C210.506 207.492 209.985 207.325 209.465 207.325C208.93 207.325 208.397 207.502 207.788 207.851C199.213 212.765 190.593 217.607 181.994 222.47C181.516 222.74 181.079 223.083 180.38 223.553C181.136 223.987 181.665 224.3 182.2 224.599ZM179.994 222.608C180.422 222.482 180.79 222.447 181.078 222.278C189.979 217.015 198.861 211.74 207.76 206.482C208.486 206.055 208.863 205.581 208.868 204.685C208.933 194.221 209.033 183.763 209.118 173.298C209.121 173.109 209.062 172.921 208.984 172.436C208.3 172.786 207.793 173.015 207.317 173.293C198.751 178.369 190.203 183.46 181.618 188.504C180.638 189.079 180.182 189.682 180.18 190.885C180.139 200.965 180.025 211.047 179.934 221.124C179.934 221.565 179.97 222.008 179.994 222.608ZM179.579 190.094C179.706 189.434 180.01 188.909 180.534 188.451C180.237 188.553 179.944 188.603 179.651 188.603C179.257 188.603 178.891 188.509 178.565 188.382C179.195 188.888 179.467 189.481 179.579 190.094ZM179.222 222.726C179.261 222.016 179.314 221.518 179.312 221.024C179.198 211.018 179.07 201.008 178.981 190.994C178.974 189.952 178.766 189.234 177.772 188.649C168.901 183.481 160.064 178.248 151.212 173.035C150.945 172.876 150.646 172.762 150.214 172.555C150.131 173.049 150.003 173.459 150.006 173.865C150.109 184.066 150.241 194.268 150.338 204.466C150.347 205.366 150.555 206.011 151.4 206.507C160.427 211.793 169.431 217.116 178.443 222.427C178.604 222.522 178.796 222.564 179.222 222.726ZM122.408 224.49C130.977 229.312 139.565 234.103 148.097 238.983C148.728 239.342 149.275 239.519 149.818 239.519C150.382 239.519 150.942 239.329 151.587 238.956C160.111 234.067 168.683 229.259 177.236 224.42C177.727 224.142 178.196 223.823 178.838 223.421C178.408 223.063 178.125 222.743 177.774 222.551C168.87 217.542 159.961 212.552 151.06 207.538C150.618 207.286 150.216 207.136 149.8 207.136C149.471 207.136 149.134 207.23 148.762 207.44C139.72 212.586 130.659 217.699 121.608 222.826C121.395 222.948 121.208 223.125 120.704 223.51C121.444 223.939 121.924 224.216 122.408 224.49ZM149.099 205.817C149.2 194.727 149.303 183.728 149.406 172.284C139.597 178.096 130.139 183.702 120.557 189.375C120.455 200.392 120.353 211.413 120.248 222.921C130.115 217.07 139.587 211.455 149.099 205.817ZM119.887 189.368L119.89 188.99L120.216 188.797C120.295 188.751 120.373 188.704 120.452 188.657C120.265 188.704 120.077 188.727 119.889 188.727C119.689 188.727 119.49 188.701 119.286 188.649C119.607 189.016 119.786 189.414 119.882 189.822L119.887 189.368ZM119.648 221.108C119.538 211.026 119.411 200.944 119.321 190.858C119.309 189.812 119.07 189.11 118.081 188.53C109.314 183.407 100.59 178.226 91.8478 173.069C91.4797 172.851 91.0801 172.691 90.4316 172.387C90.3871 173.139 90.3348 173.581 90.3386 174.021C90.45 184.103 90.5901 194.185 90.6622 204.271C90.6714 205.436 91.0606 206.113 92.0681 206.701C100.778 211.784 109.459 216.922 118.15 222.043C118.518 222.261 118.919 222.424 119.492 222.706C119.559 222.059 119.653 221.583 119.648 221.108ZM62.1964 224.308C70.9842 229.256 79.7876 234.176 88.5623 239.155C89.1147 239.469 89.5995 239.638 90.0928 239.638C90.5484 239.638 91.0112 239.494 91.5414 239.189C100.237 234.216 108.974 229.307 117.692 224.375C118.122 224.13 118.522 223.829 119.239 223.357C117.624 222.429 116.314 221.656 114.987 220.91C107.307 216.595 99.6097 212.315 91.9591 207.95C91.2726 207.558 90.6751 207.343 90.0643 207.343C89.5151 207.343 88.955 207.516 88.3094 207.889C79.9056 212.74 71.4439 217.475 63.0007 222.254C62.4021 222.593 61.8125 222.943 61.0422 223.394C61.5387 223.791 61.8336 224.105 62.1964 224.308ZM60.6087 222.805C61.3538 222.416 61.9107 222.161 62.4376 221.846C70.8991 216.841 79.3369 211.797 87.8273 206.833C89.0194 206.138 89.4859 205.39 89.4883 203.988C89.5145 194.157 89.6352 184.324 89.7203 174.495C89.7256 173.878 89.6702 173.258 89.639 172.408C88.8936 172.798 88.3343 173.058 87.8103 173.366C79.3516 178.374 70.9082 183.416 62.4178 188.378C61.227 189.076 60.7685 189.829 60.7646 191.228C60.7357 201.057 60.6178 210.887 60.5327 220.725C60.525 221.336 60.5745 221.95 60.6087 222.805ZM89.1269 171.824C88.7952 171.508 88.5898 171.195 88.3003 171.034C79.2899 165.962 70.2638 160.91 61.2586 155.828C60.8652 155.61 60.5086 155.494 60.1496 155.494C59.8208 155.494 59.4904 155.592 59.1285 155.798C50.0275 160.97 40.9177 166.12 31.814 171.282C31.6505 171.372 31.5194 171.519 31.1369 171.829C31.7736 172.244 32.2228 172.569 32.7077 172.841C41.2739 177.662 49.8572 182.454 58.3947 187.328C59.0401 187.695 59.5989 187.886 60.1634 187.886C60.7048 187.886 61.2517 187.711 61.886 187.348C70.4027 182.451 78.9794 177.647 87.5326 172.807C88.0276 172.527 88.4993 172.214 89.1269 171.824ZM60.1958 190.183C60.3535 189.449 60.6998 188.867 61.277 188.365C60.8952 188.495 60.5296 188.557 60.1632 188.557C59.8659 188.557 59.5669 188.515 59.2572 188.429C59.8414 188.926 60.0977 189.508 60.1958 190.183ZM59.9024 221.024C59.7991 211.006 59.6707 200.985 59.5775 190.969C59.5708 189.935 59.3784 189.213 58.3737 188.625C49.5532 183.478 40.7668 178.268 31.9686 173.082C31.6488 172.894 31.3016 172.752 30.6547 172.436C30.6324 173.386 30.5997 174.009 30.6049 174.63C30.7163 184.396 30.8589 194.158 30.9087 203.924C30.9181 205.366 31.324 206.213 32.6197 206.969C41.2345 211.96 49.7917 217.05 58.3724 222.106C58.7486 222.327 59.1545 222.488 59.7636 222.777C59.8224 222.086 59.9076 221.554 59.9024 221.024ZM2.88713 224.408C11.6172 229.312 20.3592 234.203 29.076 239.127C29.5829 239.413 30.0344 239.589 30.5085 239.589C30.8821 239.589 31.27 239.48 31.7105 239.228C40.5677 234.171 49.4642 229.171 58.3411 224.147C58.6632 223.963 58.9502 223.732 59.4322 223.399C58.9029 223.029 58.5282 222.726 58.1171 222.491C49.3359 217.553 40.5429 212.622 31.7683 207.669C31.2634 207.386 30.8135 207.213 30.3424 207.213C29.966 207.213 29.5761 207.323 29.1335 207.576C20.2738 212.634 11.3826 217.633 2.50441 222.653C2.17948 222.839 1.89148 223.074 1.29129 223.488C2.01059 223.906 2.44564 224.163 2.88713 224.408ZM29.651 139.31C29.6434 138.18 29.3562 137.455 28.3161 136.846C19.6083 131.754 10.9346 126.607 2.24906 121.482C1.8729 121.255 1.46419 121.08 0.935038 120.814C0.82758 121.242 0.66512 121.579 0.670341 121.919C0.772577 132.261 0.914157 142.597 0.991502 152.936C0.998059 154.123 1.63066 154.606 2.49542 155.111C9.43975 159.173 16.3724 163.255 23.3119 167.321C25.3947 168.545 27.4975 169.739 29.8684 171.101C29.917 170.355 29.9811 169.858 29.9757 169.369C29.8658 159.35 29.7324 149.331 29.651 139.31ZM23.1336 176.366C16.3242 180.403 9.52365 184.461 2.69067 188.448C1.57043 189.094 1.10138 189.809 1.09895 191.141C1.06605 200.972 0.950702 210.802 0.864493 220.631C0.8617 221.248 0.915366 221.862 0.958835 222.867C10.6935 217.091 20.1572 211.48 29.6956 205.831C29.7953 194.764 29.8949 183.752 29.9982 172.294C27.4044 173.832 25.2703 175.1 23.1336 176.366ZM30.3724 205.162L30.3663 205.837L30.3629 206.216L30.0374 206.408C29.9112 206.483 29.7856 206.557 29.6594 206.632C29.8886 206.572 30.1154 206.542 30.3425 206.542C30.631 206.542 30.904 206.592 31.1565 206.667C30.7678 206.24 30.5129 205.75 30.3724 205.162ZM30.8853 137.751C30.7829 148.868 30.6836 159.833 30.5827 170.726C30.7608 170.828 30.8144 170.868 30.8683 170.883C30.9093 170.901 30.9626 170.919 31.0047 170.919C31.0189 170.919 31.0317 170.917 31.0424 170.912C31.3871 170.747 31.7395 170.594 32.0682 170.407C41.1716 165.011 50.2764 159.612 59.4311 154.183C59.532 143.108 59.6301 132.104 59.7349 120.657C49.9318 126.463 40.4708 132.068 30.8853 137.751ZM60.1018 154.189L60.0982 154.567L59.773 154.76L59.5243 154.907C59.7333 154.851 59.9409 154.823 60.1495 154.823H60.1498C60.3231 154.823 60.4953 154.842 60.6702 154.88C60.3671 154.542 60.1981 154.174 60.1051 153.802L60.1018 154.189ZM60.3335 122.234C60.4424 132.439 60.5679 142.635 60.6688 152.839C60.6793 153.74 60.8823 154.377 61.7261 154.879C70.7551 160.159 79.7589 165.487 88.7718 170.796C88.9317 170.889 89.1242 170.932 89.5514 171.093C89.592 170.386 89.647 169.892 89.6418 169.398C89.5306 159.389 89.3955 149.376 89.3207 139.368C89.3117 138.203 88.9448 137.522 87.9375 136.932C79.1798 131.815 70.4524 126.65 61.7129 121.508C61.3855 121.315 61.037 121.165 60.5496 120.928C60.4646 121.42 60.331 121.828 60.3335 122.234ZM89.8334 103.95C89.4129 103.95 88.9832 104.078 88.494 104.357C79.692 109.382 70.8506 114.353 62.0261 119.343C61.7038 119.525 61.4039 119.754 60.9123 120.079C61.3959 120.442 61.7393 120.766 62.1416 120.993C70.9815 125.965 79.8295 130.917 88.658 135.905C89.1262 136.169 89.5426 136.317 89.9688 136.317C90.3342 136.317 90.7069 136.208 91.126 135.969C100.046 130.891 108.991 125.851 117.925 120.795C118.194 120.643 118.433 120.442 118.937 120.084C118.312 119.678 117.907 119.381 117.473 119.14C108.745 114.233 100.007 109.338 91.2952 104.411C90.7717 104.114 90.3084 103.95 89.8334 103.95ZM90.387 101.185C90.3964 102.413 90.9582 102.991 91.9145 103.55C99.6883 108.083 107.442 112.651 115.207 117.209C116.462 117.946 117.729 118.664 119.318 119.58C119.344 118.625 119.378 118 119.37 117.379C119.26 107.489 119.128 97.5999 119.059 87.7065C119.048 86.564 118.725 85.8567 117.7 85.254C108.99 80.1712 100.313 75.0279 91.6252 69.907C91.249 69.6816 90.8469 69.5061 90.2966 69.231C90.2088 69.7432 90.0621 70.1519 90.0674 70.5568C90.1734 80.7671 90.3137 90.9763 90.387 101.185ZM90.3583 34.4625C90.2548 45.4708 90.1539 56.4896 90.0517 67.5372C91.4993 67.2556 115.52 53.2459 118.905 50.7411C119.001 39.8168 119.102 28.8085 119.204 17.3601C109.338 23.2093 99.9071 28.8058 90.3583 34.4625ZM119.576 50.7469L119.573 51.0813L119.304 51.2802C119.101 51.4306 118.8 51.6362 118.417 51.8884C118.83 51.7313 119.223 51.656 119.621 51.656C119.846 51.656 120.069 51.6796 120.296 51.7286C119.891 51.3248 119.684 50.8756 119.579 50.4206L119.576 50.7469ZM119.901 17.6338C119.863 18.3674 119.805 18.9189 119.813 19.4717C119.921 29.4241 120.048 39.3699 120.142 49.3144C120.152 50.3336 120.306 51.0765 121.322 51.6698C130.242 56.8747 139.13 62.1489 148.034 67.3982C148.25 67.5253 148.487 67.6144 148.876 67.7951C148.968 67.3313 149.121 66.9331 149.115 66.5399C149.011 56.2785 148.878 46.013 148.787 35.7502C148.779 34.7951 148.409 34.2437 147.605 33.7707C138.748 28.5816 129.907 23.3547 121.056 18.1497C120.743 17.9666 120.4 17.8526 119.901 17.6338ZM176.734 15.7315C168.114 10.8883 159.481 6.06731 150.887 1.18216C150.318 0.859665 149.821 0.695618 149.321 0.695618C148.824 0.695618 148.325 0.857712 147.75 1.18762C139.176 6.10275 130.554 10.9368 121.951 15.8037C121.466 16.0801 121.007 16.4011 120.342 16.8241C120.931 17.2251 121.358 17.563 121.82 17.829C130.55 22.7364 139.289 27.6295 148.01 32.5487C148.521 32.8353 148.975 33.0155 149.454 33.0155C149.822 33.0155 150.205 32.9091 150.641 32.6626C159.501 27.5993 168.393 22.6003 177.273 17.5736C177.595 17.3941 177.885 17.1635 178.496 16.739C177.719 16.295 177.232 16.0055 176.734 15.7315ZM178.794 17.4491C177.95 17.9168 177.389 18.2142 176.843 18.5403C168.447 23.508 160.064 28.5137 151.637 33.4393C150.45 34.1324 149.968 34.8779 149.964 36.2796C149.94 46.1089 149.818 55.9276 149.736 65.7581C149.731 66.3685 149.78 66.983 149.814 67.8228C150.448 67.5254 150.902 67.3485 151.316 67.1023C159.988 61.9681 168.657 56.8198 177.335 51.6975C178.153 51.2155 178.672 50.7439 178.676 49.6499C178.724 39.3725 178.84 29.1046 178.929 18.8351C178.931 18.4735 178.861 18.112 178.794 17.4491ZM179.284 50.3034C179.131 51.0705 178.711 51.5512 178.234 51.91C178.585 51.7993 178.922 51.7459 179.26 51.7459C179.62 51.7459 179.981 51.8068 180.358 51.9337C179.684 51.4666 179.4 50.8977 179.284 50.3034ZM179.549 19.0395C179.657 29.1765 179.783 39.3149 179.882 49.452C179.889 50.3493 180.067 50.9965 180.923 51.4983C189.946 56.7868 198.951 62.1133 207.963 67.4243C208.124 67.5199 208.314 67.563 208.762 67.7347C208.801 67.0429 208.858 66.5505 208.85 66.0592C208.737 56.0491 208.609 46.0366 208.519 36.0292C208.508 34.9955 208.326 34.2698 207.323 33.6817C198.453 28.5069 189.62 23.2695 180.774 18.0542C180.503 17.8956 180.207 17.7739 179.728 17.5354C179.656 18.1145 179.546 18.5783 179.549 19.0395ZM236.293 15.6793C227.722 10.861 219.145 6.05965 210.587 1.22162C210.023 0.899857 209.52 0.670746 208.975 0.670746C208.608 0.670746 208.222 0.774551 207.785 1.02383C198.921 6.095 190.019 11.0979 181.133 16.126C180.807 16.3108 180.51 16.5466 180.024 16.8714C180.506 17.2382 180.86 17.5788 181.271 17.808C190.002 22.7246 198.751 27.6163 207.469 32.5616C208.035 32.8813 208.534 33.0634 209.048 33.0634C209.486 33.0634 209.936 32.9307 210.449 32.6377C219.202 27.632 227.995 22.6944 236.767 17.7269C237.146 17.5147 237.494 17.2461 238.2 16.7758C237.368 16.2975 236.835 15.978 236.293 15.6793ZM238.41 17.5815C233.508 20.2356 228.845 23.1701 224.1 25.9551C219.318 28.7612 214.556 31.6158 209.759 34.46C209.658 45.5297 209.557 56.4922 209.458 67.6812C210.034 67.4703 210.451 67.3892 210.795 67.1847C219.592 61.9851 228.367 56.7659 237.161 51.5691C237.865 51.1552 238.334 50.7515 238.339 49.8189C238.393 39.2823 238.492 28.7535 238.576 18.2195C238.579 18.0975 238.517 17.9784 238.41 17.5815Z" fill="url(#paint0_linear_2152_2450)"/>
<defs>
<linearGradient id="paint0_linear_2152_2450" x1="163.702" y1="153.886" x2="44.7148" y2="62.8426" gradientUnits="userSpaceOnUse">
<stop stop-color="#00ADEF"/>
<stop offset="1" stop-color="white"/>
</linearGradient>
</defs>
</svg>
