<svg width="48" height="48" viewBox="0 0 48 48" fill="none" xmlns="http://www.w3.org/2000/svg">
<g clip-path="url(#clip0_2548_413)">
<path d="M5.754 9.936C6.83 10.216 7.916 9.568 8.188 8.498C8.87 5.85 11.26 4 14 4H23.03C23.356 4 23.68 4.016 24 4.046V14C24 17.308 26.692 20 30 20H42C43.106 20 44 19.104 44 18C44 16.228 41.96 12.76 40.236 11.036L32.93 4.1C30.284 1.456 26.768 0 23.03 0H14C9.434 0 5.452 3.084 4.316 7.502C4.04 8.572 4.684 9.662 5.754 9.936ZM28 5.322C28.77 5.764 29.486 6.314 30.138 6.964L37.444 13.898C38.024 14.478 38.578 15.264 39.022 15.998H29.998C28.894 15.998 27.998 15.1 27.998 13.998V5.322H28ZM32 22C33.106 22 34 22.896 34 24C34 25.104 33.106 26 32 26H24C22.896 26 22 25.104 22 24C22 22.896 22.896 22 24 22H32ZM9.002 34C15.726 32.16 18.14 26.586 18 23.478V17.44C18 15.906 17.022 14.552 15.564 14.068L9.628 12.1C9.22 11.966 8.78 11.966 8.37 12.1L2.438 14.068C0.98 14.55 0 15.904 0 17.44V23.522C0.09 27.636 2.814 31.088 8.092 33.782C8.378 33.928 8.688 34 9.002 34ZM4 23.478V17.766L9 16.108L14 17.766V23.438C13.946 26.158 12.336 28.238 9.084 29.778C5.716 27.894 4.05 25.816 4 23.478ZM46.242 25.758C43.902 23.418 40.098 23.418 37.758 25.758L26.344 37.172C24.832 38.682 24 40.692 24 42.828V46C24 47.104 24.896 48 26 48H29.172C31.308 48 33.318 47.166 34.828 45.656L46.242 34.242C47.374 33.108 48 31.602 48 29.998C48 28.394 47.374 26.89 46.242 25.758ZM43.414 31.414L32 42.828C31.244 43.584 30.24 44 29.172 44H28V42.828C28 41.776 28.428 40.744 29.172 40L40.586 28.586C41.368 27.806 42.632 27.806 43.414 28.586C43.792 28.962 44 29.464 44 30C44 30.536 43.792 31.036 43.414 31.414ZM20 46C20 47.104 19.104 48 18 48H14C8.486 48 4 43.514 4 38C4 36.896 4.896 36 6 36C7.104 36 8 36.896 8 38C8 41.308 10.692 44 14 44H18C19.104 44 20 44.896 20 46ZM24 34H21C19.896 34 19 33.104 19 32C19 30.896 19.896 30 21 30H24C25.104 30 26 30.896 26 32C26 33.104 25.104 34 24 34Z" fill="#00ADEF"/>
</g>
<defs>
<clipPath id="clip0_2548_413">
<rect width="48" height="48" fill="white"/>
</clipPath>
</defs>
</svg>
