<svg width="40" height="40" viewBox="0 0 40 40" fill="none" xmlns="http://www.w3.org/2000/svg">
<g clip-path="url(#clip0_2548_231)">
<path d="M38.3333 30H13.3333C10.5767 30 8.33333 27.7567 8.33333 25V6.66667C8.33333 2.99 5.34333 0 1.66667 0C0.745 0 0 0.746667 0 1.66667C0 2.58667 0.745 3.33333 1.66667 3.33333C3.505 3.33333 5 4.82833 5 6.66667V25C5 28.41 7.06 31.3483 10 32.6367V34.1667C10 37.3833 12.6167 40 15.8333 40C19.05 40 21.6667 37.3833 21.6667 34.1667V33.3333H26.6667V34.1667C26.6667 37.3833 29.2833 40 32.5 40C35.7167 40 38.3333 37.3833 38.3333 34.1667V33.3333C39.255 33.3333 40 32.5883 40 31.6667C40 30.745 39.255 30 38.3333 30ZM18.3333 34.1667C18.3333 35.545 17.2117 36.6667 15.8333 36.6667C14.455 36.6667 13.3333 35.545 13.3333 34.1667V33.3333H18.3333V34.1667ZM35 34.1667C35 35.545 33.8783 36.6667 32.5 36.6667C31.1217 36.6667 30 35.545 30 34.1667V33.3333H35V34.1667ZM18.3333 26.6667H31.6667C35.3433 26.6667 38.3333 23.6767 38.3333 20V11.6667C38.3333 7.99 35.3433 5 31.6667 5H18.3333C14.6567 5 11.6667 7.99 11.6667 11.6667V20C11.6667 23.6767 14.6567 26.6667 18.3333 26.6667ZM23.3333 8.33333H26.6667V13.3333H23.3333V8.33333ZM15 11.6667C15 9.82833 16.495 8.33333 18.3333 8.33333H20V13.3333C20 15.1717 21.495 16.6667 23.3333 16.6667H26.6667C28.505 16.6667 30 15.1717 30 13.3333V8.33333H31.6667C33.505 8.33333 35 9.82833 35 11.6667V20C35 21.8383 33.505 23.3333 31.6667 23.3333H18.3333C16.495 23.3333 15 21.8383 15 20V11.6667Z" fill="#1D223F"/>
</g>
<defs>
<clipPath id="clip0_2548_231">
<rect width="40" height="40" fill="white"/>
</clipPath>
</defs>
</svg>
