<svg width="40" height="40" viewBox="0 0 40 40" fill="none" xmlns="http://www.w3.org/2000/svg">
<g clip-path="url(#clip0_2548_195)">
<path d="M0 3.33333C0 1.49167 1.49167 0 3.33333 0C4.56333 0 5.62667 0.675 6.205 1.66667H8.33333C11.09 1.66667 13.3333 3.91 13.3333 6.66667V10C13.3333 10.92 12.5867 11.6667 11.6667 11.6667C10.7467 11.6667 10 10.92 10 10V6.66667C10 5.74833 9.25167 5 8.33333 5H6.205C5.62833 5.99167 4.565 6.66667 3.33333 6.66667C1.49167 6.66667 0 5.175 0 3.33333ZM18.3333 6.205V6.66667C18.3333 7.58667 19.08 8.33333 20 8.33333C20.92 8.33333 21.6667 7.58667 21.6667 6.66667V6.205C22.6583 5.62833 23.3333 4.565 23.3333 3.33333C23.3333 1.49167 21.8417 0 20 0C18.1583 0 16.6667 1.49167 16.6667 3.33333C16.6667 4.56333 17.3417 5.62667 18.3333 6.205ZM28.3333 11.6667C29.2533 11.6667 30 10.92 30 10V6.66667C30 5.74833 30.7483 5 31.6667 5H33.795C34.3717 5.99167 35.435 6.66667 36.6667 6.66667C38.5083 6.66667 40 5.175 40 3.33333C40 1.49167 38.5083 0 36.6667 0C35.4367 0 34.3733 0.675 33.795 1.66667H31.6667C28.91 1.66667 26.6667 3.91 26.6667 6.66667V10C26.6667 10.92 27.4133 11.6667 28.3333 11.6667ZM26.3883 25.6033L24.7517 24.6617C23.9183 25.5117 22.8517 26.1217 21.665 26.43V28.3333C21.665 29.2533 20.9183 30 19.9983 30C19.0783 30 18.3317 29.2533 18.3317 28.3333V26.43C17.145 26.1217 16.08 25.5117 15.245 24.6617L13.6083 25.6033C12.825 26.0583 11.7933 25.795 11.3317 24.99C10.8733 24.1917 11.1467 23.1733 11.945 22.7133L13.5983 21.7617C13.4417 21.1967 13.3317 20.6133 13.3317 19.9983C13.3317 19.3833 13.4417 18.8 13.5983 18.235L11.945 17.2833C11.1467 16.8233 10.8733 15.805 11.3317 15.0067C11.7917 14.2083 12.8117 13.9367 13.6083 14.3933L15.245 15.335C16.0783 14.485 17.145 13.875 18.3317 13.5667V11.6633C18.3317 10.7433 19.0783 9.99667 19.9983 9.99667C20.9183 9.99667 21.665 10.7433 21.665 11.6633V13.5667C22.8517 13.875 23.9167 14.485 24.7517 15.335L26.3883 14.3933C27.1867 13.935 28.205 14.2083 28.665 15.0067C29.125 15.805 28.85 16.8233 28.0517 17.2833L26.3983 18.235C26.555 18.8 26.665 19.3833 26.665 19.9983C26.665 20.6133 26.555 21.1967 26.3983 21.7617L28.0517 22.7133C28.85 23.1733 29.1233 24.1917 28.665 24.99C28.2033 25.795 27.1717 26.0567 26.3883 25.6033ZM23.3333 20C23.3333 18.1617 21.8383 16.6667 20 16.6667C18.1617 16.6667 16.6667 18.1617 16.6667 20C16.6667 21.8383 18.1617 23.3333 20 23.3333C21.8383 23.3333 23.3333 21.8383 23.3333 20ZM36.6667 33.3333C35.4367 33.3333 34.3733 34.0083 33.795 35H31.6667C30.7483 35 30 34.2517 30 33.3333V30C30 29.08 29.2533 28.3333 28.3333 28.3333C27.4133 28.3333 26.6667 29.08 26.6667 30V33.3333C26.6667 36.09 28.91 38.3333 31.6667 38.3333H33.795C34.3717 39.325 35.435 40 36.6667 40C38.5083 40 40 38.5083 40 36.6667C40 34.825 38.5083 33.3333 36.6667 33.3333ZM21.6667 33.795V33.3333C21.6667 32.4133 20.92 31.6667 20 31.6667C19.08 31.6667 18.3333 32.4133 18.3333 33.3333V33.795C17.3417 34.3717 16.6667 35.435 16.6667 36.6667C16.6667 38.5083 18.1583 40 20 40C21.8417 40 23.3333 38.5083 23.3333 36.6667C23.3333 35.4367 22.6583 34.3733 21.6667 33.795ZM11.6667 28.3333C10.7467 28.3333 10 29.08 10 30V33.3333C10 34.2517 9.25167 35 8.33333 35H6.205C5.62833 34.0083 4.565 33.3333 3.33333 33.3333C1.49167 33.3333 0 34.825 0 36.6667C0 38.5083 1.49167 40 3.33333 40C4.56333 40 5.62667 39.325 6.205 38.3333H8.33333C11.09 38.3333 13.3333 36.09 13.3333 33.3333V30C13.3333 29.08 12.5867 28.3333 11.6667 28.3333Z" fill="#1D223F"/>
</g>
<defs>
<clipPath id="clip0_2548_195">
<rect width="40" height="40" fill="white"/>
</clipPath>
</defs>
</svg>
