<svg width="60" height="60" viewBox="0 0 60 60" fill="none" xmlns="http://www.w3.org/2000/svg">
<path d="M28.25 1.58789C29.3329 0.962676 30.6671 0.962676 31.75 1.58789L53.7305 14.2783C54.8134 14.9035 55.4805 16.0591 55.4805 17.3096V42.6904C55.4805 43.9409 54.8134 45.0965 53.7305 45.7217L31.75 58.4121C30.6671 59.0373 29.3329 59.0373 28.25 58.4121L6.26953 45.7217C5.18663 45.0965 4.51953 43.9409 4.51953 42.6904V17.3096C4.51953 16.0591 5.18663 14.9035 6.26953 14.2783L28.25 1.58789Z" fill="#1D223F" stroke="#00ADEF"/>
<path d="M35.5 20H32.5C31.1739 20 29.9021 20.5268 28.9645 21.4645C28.0268 22.4021 27.5 23.6739 27.5 25V28H24.5V32H27.5V40H31.5V32H34.5L35.5 28H31.5V25C31.5 24.7348 31.6054 24.4804 31.7929 24.2929C31.9804 24.1054 32.2348 24 32.5 24H35.5V20Z" fill="white" stroke="white" stroke-width="2" stroke-linecap="round" stroke-linejoin="round"/>
</svg>
