<svg width="115" height="24" viewBox="0 0 115 24" fill="none" xmlns="http://www.w3.org/2000/svg">
<path d="M10.9372 2.27876C11.1703 1.56151 12.185 1.56151 12.418 2.27876L14.1246 7.53115C14.2289 7.85192 14.5278 8.06909 14.8651 8.06909H20.3877C21.1419 8.06909 21.4555 9.03415 20.8453 9.47743L16.3774 12.7236C16.1045 12.9218 15.9904 13.2732 16.0946 13.594L17.8012 18.8464C18.0342 19.5637 17.2133 20.1601 16.6032 19.7168L12.1352 16.4707C11.8624 16.2724 11.4929 16.2724 11.22 16.4707L6.75211 19.7168C6.14198 20.1601 5.32105 19.5637 5.5541 18.8464L7.2607 13.594C7.36493 13.2732 7.25075 12.9218 6.97789 12.7236L2.50995 9.47744C1.89982 9.03415 2.21339 8.06909 2.96755 8.06909H8.49022C8.8275 8.06909 9.12641 7.85192 9.23063 7.53115L10.9372 2.27876Z" fill="#FFE146"/>
<path d="M33.7849 2.27876C34.0179 1.56151 35.0327 1.56151 35.2657 2.27876L36.9723 7.53115C37.0765 7.85192 37.3754 8.06909 37.7127 8.06909H43.2354C43.9895 8.06909 44.3031 9.03415 43.693 9.47743L39.225 12.7236C38.9522 12.9218 38.838 13.2732 38.9422 13.594L40.6488 18.8464C40.8819 19.5637 40.061 20.1601 39.4508 19.7168L34.9829 16.4707C34.71 16.2724 34.3406 16.2724 34.0677 16.4707L29.5998 19.7168C28.9896 20.1601 28.1687 19.5637 28.4018 18.8464L30.1084 13.594C30.2126 13.2732 30.0984 12.9218 29.8255 12.7236L25.3576 9.47744C24.7475 9.03415 25.061 8.06909 25.8152 8.06909H31.3379C31.6752 8.06909 31.9741 7.85192 32.0783 7.53115L33.7849 2.27876Z" fill="#FFE146"/>
<path d="M56.6306 2.27876C56.8636 1.56151 57.8784 1.56151 58.1114 2.27876L59.818 7.53115C59.9222 7.85192 60.2211 8.06909 60.5584 8.06909H66.0811C66.8353 8.06909 67.1488 9.03415 66.5387 9.47743L62.0707 12.7236C61.7979 12.9218 61.6837 13.2732 61.7879 13.594L63.4945 18.8464C63.7276 19.5637 62.9067 20.1601 62.2965 19.7168L57.8286 16.4707C57.5557 16.2724 57.1863 16.2724 56.9134 16.4707L52.4455 19.7168C51.8353 20.1601 51.0144 19.5637 51.2475 18.8464L52.9541 13.594C53.0583 13.2732 52.9441 12.9218 52.6713 12.7236L48.2033 9.47744C47.5932 9.03415 47.9067 8.06909 48.6609 8.06909H54.1836C54.5209 8.06909 54.8198 7.85192 54.924 7.53115L56.6306 2.27876Z" fill="#FFE146"/>
<path d="M79.4782 2.27876C79.7113 1.56151 80.726 1.56151 80.9591 2.27876L82.6657 7.53115C82.7699 7.85192 83.0688 8.06909 83.4061 8.06909H88.9287C89.6829 8.06909 89.9965 9.03415 89.3863 9.47743L84.9184 12.7236C84.6455 12.9218 84.5314 13.2732 84.6356 13.594L86.3422 18.8464C86.5752 19.5637 85.7543 20.1601 85.1442 19.7168L80.6763 16.4707C80.4034 16.2724 80.0339 16.2724 79.7611 16.4707L75.2931 19.7168C74.683 20.1601 73.8621 19.5637 74.0951 18.8464L75.8017 13.594C75.9059 13.2732 75.7918 12.9218 75.5189 12.7236L71.051 9.47744C70.4408 9.03415 70.7544 8.06909 71.5086 8.06909H77.0312C77.3685 8.06909 77.6674 7.85192 77.7716 7.53115L79.4782 2.27876Z" fill="#FFE146"/>
<path d="M102.328 2.27876C102.561 1.56151 103.576 1.56151 103.809 2.27876L105.515 7.53115C105.62 7.85192 105.919 8.06909 106.256 8.06909H111.778C112.533 8.06909 112.846 9.03415 112.236 9.47743L107.768 12.7236C107.495 12.9218 107.381 13.2732 107.485 13.594L109.192 18.8464C109.425 19.5637 108.604 20.1601 107.994 19.7168L103.526 16.4707C103.253 16.2724 102.884 16.2724 102.611 16.4707L98.1429 19.7168C97.5327 20.1601 96.7118 19.5637 96.9449 18.8464L98.6515 13.594C98.7557 13.2732 98.6415 12.9218 98.3686 12.7236L93.9007 9.47744C93.2906 9.03415 93.6041 8.06909 94.3583 8.06909H99.881C100.218 8.06909 100.517 7.85192 100.621 7.53115L102.328 2.27876Z" fill="#FFE146"/>
</svg>
