<svg width="26" height="24" viewBox="0 0 26 24" fill="none" xmlns="http://www.w3.org/2000/svg">
<path d="M13.3008 19.5C13.3008 19.7762 13.077 20 12.8008 20C12.5246 20 12.3008 19.7762 12.3008 19.5C12.3008 19.2238 12.5246 19 12.8008 19C13.077 19 13.3008 19.2238 13.3008 19.5Z" fill="#00ADEF"/>
<path d="M23.9512 15C23.9512 13.3457 22.6055 12 20.9512 12C19.2969 12 17.9512 13.3457 17.9512 15C17.9512 16.6543 19.2969 18 20.9512 18C22.6055 18 23.9512 16.6543 23.9512 15ZM20.9512 17C19.8484 17 18.9512 16.1027 18.9512 15C18.9512 13.8973 19.8484 13 20.9512 13C22.0539 13 22.9512 13.8973 22.9512 15C22.9512 16.1027 22.0539 17 20.9512 17Z" fill="#00ADEF"/>
<path d="M20.95 18C19.69 18 18.4336 18.523 17.5777 19.3711C16.4512 17.8906 14.7141 17 12.8 17C10.967 17 9.19082 17.8363 8.02246 19.3711C7.1664 18.5232 5.91015 18 4.65 18C2.12949 18 0 20.0607 0 22.5V23.5C0 23.7762 0.223828 24 0.5 24H25.1C25.3762 24 25.6 23.7762 25.6 23.5V22.5C25.6 20.0607 23.4705 18 20.95 18ZM1 22.5C1 20.6027 2.67148 19 4.65 19C5.73262 19 6.80625 19.4797 7.4709 20.2422C7.03144 21.091 6.8 22.0371 6.8 23H1V22.5ZM12.8 18C15.5822 18 17.8 20.2574 17.8 23H7.8C7.8 20.2209 10.0631 18 12.8 18ZM24.6 23H18.8C18.8 22.0371 18.5686 21.091 18.1291 20.2422C18.7937 19.4797 19.8674 19 20.95 19C22.9285 19 24.6 20.6027 24.6 22.5V23Z" fill="#00ADEF"/>
<path d="M7.65039 15C7.65039 13.3457 6.30469 12 4.65039 12C2.99609 12 1.65039 13.3457 1.65039 15C1.65039 16.6543 2.99609 18 4.65039 18C6.30469 18 7.65039 16.6543 7.65039 15ZM4.65039 17C3.54766 17 2.65039 16.1027 2.65039 15C2.65039 13.8973 3.54766 13 4.65039 13C5.75312 13 6.65039 13.8973 6.65039 15C6.65039 16.1027 5.75312 17 4.65039 17Z" fill="#00ADEF"/>
<path d="M16.8008 13C16.8008 10.7943 15.0064 9 12.8008 9C10.5951 9 8.80078 10.7943 8.80078 13C8.80078 15.2057 10.5951 17 12.8008 17C15.0064 17 16.8008 15.2057 16.8008 13ZM12.8008 16C11.1465 16 9.80078 14.6543 9.80078 13C9.80078 11.3457 11.1465 10 12.8008 10C14.4551 10 15.8008 11.3457 15.8008 13C15.8008 14.6543 14.4551 16 12.8008 16Z" fill="#00ADEF"/>
<path d="M16.7577 2.90801C16.6989 2.72695 16.5424 2.59512 16.354 2.56777L14.1973 2.25469L13.2317 0.280469C13.1479 0.108789 12.9737 0 12.7827 0C12.5917 0 12.4174 0.108789 12.3335 0.280273L11.368 2.25469L9.21139 2.56758C9.02291 2.59492 8.86647 2.72695 8.80768 2.90801C8.74889 3.08906 8.79791 3.28769 8.93424 3.42051L10.496 4.94258L10.1274 7.09199C10.0952 7.27949 10.1723 7.46914 10.3264 7.58086C10.4796 7.69219 10.6835 7.70801 10.853 7.61894L12.7827 6.60429L14.7131 7.61894C14.8815 7.70761 15.0856 7.69277 15.2397 7.58086C15.3936 7.46894 15.4708 7.27949 15.4385 7.09179L15.0696 4.94258L16.6311 3.42051C16.7674 3.28769 16.8165 3.08906 16.7577 2.90801ZM14.1831 4.40996C14.0653 4.5248 14.0114 4.69043 14.0393 4.85254L14.2813 6.2625L13.0153 5.59687C12.8696 5.52031 12.6956 5.52031 12.5499 5.59687L11.2842 6.2625L11.526 4.85254C11.5538 4.69023 11.4999 4.5248 11.3821 4.40996L10.3579 3.41172L11.7729 3.20625C11.9366 3.18262 12.0778 3.07949 12.1503 2.93105L12.7827 1.63809L13.4149 2.93105C13.4876 3.07969 13.6288 3.18262 13.7922 3.20625L15.2075 3.41172L14.1831 4.40996Z" fill="#00ADEF"/>
<path d="M24.2314 6.65547C24.1726 6.47441 24.0162 6.34258 23.8277 6.31523L22.3666 6.10293L21.7133 4.77871C21.6291 4.60801 21.4555 4.5 21.265 4.5C21.265 4.5 21.265 4.5 21.2648 4.5C21.0746 4.5 20.9008 4.60801 20.8166 4.77871L20.1629 6.10293L18.7016 6.31523C18.5133 6.34258 18.3568 6.47441 18.298 6.65547C18.2391 6.83652 18.2881 7.03516 18.4244 7.16797L19.4816 8.19902L19.232 9.6541C19.2 9.8416 19.2769 10.0311 19.431 10.143C19.5849 10.2549 19.7891 10.2697 19.9574 10.1812L21.2648 9.49433L22.5719 10.1812C22.7402 10.2697 22.9445 10.2549 23.0984 10.143C23.2523 10.0312 23.3293 9.8416 23.2973 9.6541L23.0476 8.19902L24.1051 7.16797C24.2414 7.03516 24.2902 6.83652 24.2314 6.65547ZM22.1615 7.6666C22.0435 7.78144 21.9898 7.94687 22.0178 8.10898L22.1404 8.82461L21.4976 8.48691C21.3519 8.41035 21.1779 8.41035 21.0324 8.48691L20.3891 8.8248L20.5119 8.10898C20.5396 7.94687 20.4859 7.78144 20.3682 7.6666L19.8478 7.15918L20.5668 7.05488C20.7297 7.03125 20.8705 6.92891 20.9433 6.78144L21.2648 6.13008L21.5861 6.78125C21.659 6.92891 21.7998 7.03125 21.9627 7.05488L22.6816 7.15918L22.1615 7.6666Z" fill="#00ADEF"/>
<path d="M7.23143 6.65547C7.17264 6.47441 7.0162 6.34258 6.82772 6.31523L5.36659 6.10293L4.71327 4.77871C4.62909 4.60801 4.45546 4.5 4.26503 4.5C4.0746 4.5 3.90077 4.60801 3.81659 4.77871L3.16288 6.10293L1.70155 6.31523C1.51327 6.34258 1.35682 6.47441 1.29804 6.65547C1.23905 6.83652 1.28807 7.03516 1.4244 7.16797L2.48163 8.19902L2.23221 9.6541C2.19999 9.8416 2.27714 10.0311 2.43104 10.143C2.58495 10.2549 2.78905 10.2697 2.95761 10.1812L4.26483 9.49433L5.57186 10.1812C5.74139 10.2703 5.9453 10.2543 6.09842 10.143C6.25233 10.0312 6.32948 9.8416 6.29725 9.6541L6.04764 8.19902L7.10506 7.16797C7.24139 7.03516 7.29022 6.83652 7.23143 6.65547ZM5.16132 7.6666C5.04354 7.78144 4.98983 7.94687 5.01757 8.10898L5.14042 8.82461L4.49745 8.48691C4.35194 8.41035 4.17792 8.41035 4.03241 8.48691L3.38886 8.8248L3.51171 8.10898C3.53964 7.94687 3.48573 7.78144 3.36796 7.6666L2.84764 7.15918L3.56678 7.05488C3.72948 7.03125 3.8703 6.92891 3.94315 6.78144L4.26464 6.13008L4.58593 6.78125C4.65878 6.92891 4.7996 7.03125 4.96249 7.05488L5.68143 7.15918L5.16132 7.6666Z" fill="#00ADEF"/>
<path d="M14.9914 19.6545C14.7606 19.5028 14.4506 19.567 14.299 19.7979C14.1473 20.0285 14.2115 20.3385 14.4424 20.4903C14.9047 20.794 15.2742 21.2174 15.511 21.7147C15.6293 21.9637 15.9274 22.0701 16.1772 21.9512C16.4266 21.8326 16.5324 21.5342 16.4139 21.285C16.0986 20.6225 15.6067 20.0586 14.9914 19.6545Z" fill="#00ADEF"/>
</svg>
