<svg width="22" height="26" viewBox="0 0 22 26" fill="none" xmlns="http://www.w3.org/2000/svg">
<path d="M20.4364 10.618C20.4364 18.2544 10.6182 24.7998 10.6182 24.7998C10.6182 24.7998 0.799988 18.2544 0.799988 10.618C0.799988 8.01404 1.8344 5.51675 3.67567 3.67548C5.51693 1.83422 8.01423 0.799805 10.6182 0.799805C13.2221 0.799805 15.7194 1.83422 17.5607 3.67548C19.4019 5.51675 20.4364 8.01404 20.4364 10.618Z" stroke="white" stroke-width="1.6" stroke-linecap="round" stroke-linejoin="round"/>
<path d="M10.6176 13.8902C12.4251 13.8902 13.8904 12.4249 13.8904 10.6175C13.8904 8.80998 12.4251 7.34473 10.6176 7.34473C8.81016 7.34473 7.34491 8.80998 7.34491 10.6175C7.34491 12.4249 8.81016 13.8902 10.6176 13.8902Z" stroke="white" stroke-width="1.6" stroke-linecap="round" stroke-linejoin="round"/>
</svg>
