<svg width="22" height="26" viewBox="0 0 22 26" fill="none" xmlns="http://www.w3.org/2000/svg">
<path d="M20.4364 10.6182C20.4364 18.2546 10.6182 24.8 10.6182 24.8C10.6182 24.8 0.799988 18.2546 0.799988 10.6182C0.799988 8.01429 1.8344 5.51699 3.67567 3.67573C5.51693 1.83446 8.01423 0.800049 10.6182 0.800049C13.2221 0.800049 15.7194 1.83446 17.5607 3.67573C19.4019 5.51699 20.4364 8.01429 20.4364 10.6182Z" stroke="#00ADEF" stroke-width="1.6" stroke-linecap="round" stroke-linejoin="round"/>
<path d="M10.6176 13.8909C12.4251 13.8909 13.8904 12.4257 13.8904 10.6182C13.8904 8.81071 12.4251 7.34546 10.6176 7.34546C8.81016 7.34546 7.34491 8.81071 7.34491 10.6182C7.34491 12.4257 8.81016 13.8909 10.6176 13.8909Z" stroke="#00ADEF" stroke-width="1.6" stroke-linecap="round" stroke-linejoin="round"/>
</svg>
