<svg width="40" height="40" viewBox="0 0 40 40" fill="none" xmlns="http://www.w3.org/2000/svg">
<g clip-path="url(#clip0_2548_226)">
<path d="M33.3133 25.8134C31.1133 29.7618 27.0467 34.4268 22.44 38.2918C21.08 39.4334 19.4133 40.0051 17.7467 40.0051C16.08 40.0051 14.4117 39.4334 13.0517 38.2901C11.3767 36.8851 8.98667 34.7934 7.12167 32.8118C6.49 32.1418 6.52333 31.0868 7.19167 30.4568C7.86333 29.8268 8.91667 29.8584 9.54833 30.5268C11.3033 32.3918 13.5867 34.3901 15.195 35.7384C16.6733 36.9801 18.8183 36.9801 20.2983 35.7384C25.3783 31.4768 28.85 26.9801 30.405 24.1901C30.8533 23.3851 31.8667 23.0984 32.6717 23.5451C33.475 23.9934 33.7633 25.0084 33.315 25.8118L33.3133 25.8134ZM30 0.00341797C24.485 0.00341797 20 4.48842 20 10.0018C20 12.1851 20.6917 14.2601 22 16.0034C22.3267 16.4401 22.8283 16.6684 23.335 16.6684C23.6833 16.6684 24.035 16.5601 24.335 16.3334C25.07 15.7801 25.2183 14.7368 24.6667 14.0001C23.795 12.8401 23.3333 11.4568 23.3333 10.0001C23.3333 6.32509 26.3233 3.33342 30 3.33342C33.6767 3.33342 36.6667 6.32342 36.6667 10.0001C36.6667 11.4551 36.2067 12.8384 35.3333 13.9984C34.7817 14.7334 34.93 15.7784 35.665 16.3318C36.4 16.8851 37.4433 16.7368 37.9983 16.0001C39.3067 14.2584 39.9983 12.1834 39.9983 10.0001C40 4.48842 35.515 0.00341797 30 0.00341797ZM1.67667 20.1351C2.59667 20.0984 3.38 19.3218 3.34333 18.4018C3.33667 18.2401 3.33333 18.0801 3.33333 17.9184C3.33333 14.4718 6.13667 11.6684 9.58333 11.6684C13.03 11.6684 15.8333 14.4718 15.8333 17.9184V18.3351C15.8333 19.2551 16.58 20.0018 17.5 20.0018C18.42 20.0018 19.1667 19.2551 19.1667 18.3351V17.9184C19.1667 12.6351 14.8667 8.33508 9.58333 8.33508C4.3 8.33508 0 12.6351 0 17.9184C0 18.1251 0.005 18.3301 0.0133333 18.5351C0.0483333 19.4318 0.785 20.1351 1.67667 20.1351ZM10.735 25.8934L12.1933 23.5968L14.1483 28.2884C14.58 29.3234 15.5433 30.0034 16.6633 30.0601C17.7233 30.0601 18.8367 29.4951 19.3467 28.5534L20.3683 26.6668H23.3333C24.255 26.6668 25 25.9201 25 25.0001C25 24.0801 24.255 23.3334 23.3333 23.3334H19.375C18.7633 23.3334 18.2 23.6684 17.91 24.2051L16.8633 26.1368L15.0917 21.8818C14.6467 20.8134 13.655 20.0901 12.5017 19.9918C11.35 19.8901 10.2483 20.4401 9.63 21.4151L8.41333 23.3318H1.66667C0.746667 23.3318 0 24.0784 0 24.9984C0 25.9184 0.746667 26.6651 1.66667 26.6651H9.32833C9.89833 26.6651 10.43 26.3734 10.735 25.8918V25.8934ZM32.5 10.0018C32.5 8.62175 31.38 7.50175 30 7.50175C28.62 7.50175 27.5 8.62175 27.5 10.0018C27.5 11.3818 28.62 12.5018 30 12.5018C31.38 12.5018 32.5 11.3818 32.5 10.0018ZM28.3333 16.6684V20.0018C28.3333 20.9218 29.0783 21.6684 30 21.6684C30.9217 21.6684 31.6667 20.9218 31.6667 20.0018V16.6684C31.6667 15.7484 30.9217 15.0018 30 15.0018C29.0783 15.0018 28.3333 15.7484 28.3333 16.6684Z" fill="#1D223F"/>
</g>
<defs>
<clipPath id="clip0_2548_226">
<rect width="40" height="40" fill="white"/>
</clipPath>
</defs>
</svg>
