<svg width="48" height="48" viewBox="0 0 48 48" fill="none" xmlns="http://www.w3.org/2000/svg">
<g clip-path="url(#clip0_2548_484)">
<path d="M28 12C28 5.382 22.618 0 16 0C9.382 0 4 5.382 4 12C4 18.618 9.382 24 16 24C22.618 24 28 18.618 28 12ZM16 20C11.588 20 8 16.412 8 12C8 7.588 11.588 4 16 4C20.412 4 24 7.588 24 12C24 16.412 20.412 20 16 20ZM13.916 30.01C14.232 31.068 13.628 32.182 12.57 32.498C7.524 33.998 4 38.73 4 44V46C4 47.104 3.104 48 2 48C0.896 48 0 47.104 0 46V44C0 36.972 4.7 30.666 11.43 28.664C12.486 28.35 13.6 28.952 13.916 30.01Z" fill="#00ADEF"/>
<path d="M39 34.8H37.2V31.2H39C39.992 31.2 40.8 32.008 40.8 33C40.8 33.992 39.992 34.8 39 34.8ZM48 30V42C48 45.314 45.314 48 42 48H24C20.686 48 18 45.314 18 42V30C18 26.686 20.686 24 24 24H42C45.314 24 48 26.686 48 30ZM30.4 28C29.516 28 28.8 28.716 28.8 29.6V34.39H25.2V29.6C25.2 28.716 24.484 28 23.6 28C22.716 28 22 28.716 22 29.6V42.4C22 43.284 22.716 44 23.6 44C24.484 44 25.2 43.284 25.2 42.4V37.59H28.8V42.4C28.8 43.284 29.516 44 30.4 44C31.284 44 32 43.284 32 42.4V29.6C32 28.716 31.284 28 30.4 28ZM41.866 37.088C43.312 36.072 44.202 34.316 43.96 32.364C43.644 29.816 41.3 28 38.734 28H35.6C34.716 28 34 28.716 34 29.6V42.4C34 43.284 34.716 44 35.6 44C36.484 44 37.2 43.284 37.2 42.4V38H38.768L40.178 42.846C40.376 43.53 41.002 44 41.714 44H41.84C42.914 44 43.684 42.962 43.37 41.934L41.892 37.074C41.938 37.04 41.94 37.042 41.976 37.016C41.938 37.04 41.914 37.058 41.866 37.086V37.088Z" fill="#00ADEF"/>
</g>
<defs>
<clipPath id="clip0_2548_484">
<rect width="48" height="48" fill="white"/>
</clipPath>
</defs>
</svg>
