<svg width="40" height="40" viewBox="0 0 40 40" fill="none" xmlns="http://www.w3.org/2000/svg">
<g clip-path="url(#clip0_2548_216)">
<path d="M26.6667 13.6583L13.3333 21.9933V11.6667H15V8.33333H0V11.6667H1.66667V35C1.66667 37.7567 3.91 40 6.66667 40H35C37.7567 40 40 37.7567 40 35V13.6583L26.6667 21.9917V13.6583ZM36.6667 19.675V35C36.6667 35.92 35.9183 36.6667 35 36.6667H6.66667C5.74833 36.6667 5 35.92 5 35V11.6667H10V31.6667H13.3333V25.9233L23.3333 19.675V28.0083L36.6667 19.675ZM16.2633 5.93667C16.9 6.52 17.065 7.00667 17.3433 7.51167C18.3817 9.295 20.4983 10.285 22.5217 9.92333C24.055 11.4933 26.5033 12.0733 28.595 11.3383C29.8317 12.6083 31.5183 13.3333 33.335 13.3333C37.0117 13.3333 40.0017 10.3433 40.0017 6.66667C40.0017 2.99 37.0117 0 33.335 0C32.0933 0 30.9017 0.338333 29.8667 0.971667C28.1717 -0.156667 25.8883 -0.301667 24.0783 0.618333C23.385 0.235 22.6033 0.0366667 21.795 0.0166667V0H19.4233C16.6667 0 11.6667 1.66667 10 5C10 5 14.14 4.56333 16.2633 5.93667ZM21.6667 3.33333C22.11 3.33333 22.5283 3.50667 22.845 3.82167L23.92 4.89167L25.0867 3.92333C25.41 3.655 25.9467 3.33333 26.6683 3.33333C27.39 3.33333 28.0583 3.64667 28.5483 4.21167L29.7167 5.565L30.985 4.30333C31.6133 3.67667 32.4483 3.33167 33.335 3.33167C35.1733 3.33167 36.6683 4.82667 36.6683 6.665C36.6683 8.50333 35.1733 9.99833 33.335 9.99833C32.1683 9.99833 31.1067 9.39 30.4917 8.37L29.5667 6.835L28.1017 7.87C26.9533 8.68 25.275 8.32333 24.5417 7.12L23.7517 5.82167L22.3867 6.48833C21.5483 6.89667 20.6617 6.59 20.1783 5.74C19.9467 5.27333 19.4217 4.24167 18.3517 3.33167H21.6667V3.33333ZM33.3333 31.6667H30V26.6667H33.3333V31.6667ZM20 31.6667H16.6667V26.6667H20V31.6667Z" fill="#1D223F"/>
</g>
<defs>
<clipPath id="clip0_2548_216">
<rect width="40" height="40" fill="white"/>
</clipPath>
</defs>
</svg>
