<svg width="60" height="60" viewBox="0 0 60 60" fill="none" xmlns="http://www.w3.org/2000/svg">
<path d="M28.25 1.58789C29.3329 0.962676 30.6671 0.962676 31.75 1.58789L53.7305 14.2783C54.8134 14.9035 55.4805 16.0591 55.4805 17.3096V42.6904C55.4805 43.9409 54.8134 45.0965 53.7305 45.7217L31.75 58.4121C30.6671 59.0373 29.3329 59.0373 28.25 58.4121L6.26953 45.7217C5.18663 45.0965 4.51953 43.9409 4.51953 42.6904V17.3096C4.51953 16.0591 5.18663 14.9035 6.26953 14.2783L28.25 1.58789Z" fill="#1D223F" stroke="#00ADEF"/>
<path d="M35 20H25C22.2386 20 20 22.2386 20 25V35C20 37.7614 22.2386 40 25 40H35C37.7614 40 40 37.7614 40 35V25C40 22.2386 37.7614 20 35 20Z" fill="white" stroke="white" stroke-width="2" stroke-linecap="round" stroke-linejoin="round"/>
<path d="M33.9998 29.3693C34.1232 30.2016 33.9811 31.0515 33.5936 31.7983C33.2061 32.5451 32.593 33.1507 31.8415 33.529C31.0899 33.9073 30.2383 34.0389 29.4076 33.9053C28.577 33.7716 27.8096 33.3794 27.2147 32.7845C26.6197 32.1896 26.2276 31.4222 26.0939 30.5915C25.9602 29.7609 26.0919 28.9092 26.4702 28.1577C26.8484 27.4062 27.454 26.7931 28.2008 26.4056C28.9476 26.0181 29.7976 25.8759 30.6298 25.9993C31.4788 26.1252 32.2647 26.5208 32.8715 27.1276C33.4784 27.7345 33.8739 28.5204 33.9998 29.3693Z" stroke="black" stroke-width="2" stroke-linecap="round" stroke-linejoin="round"/>
<path d="M35.4999 24.5H35.5099" stroke="black" stroke-width="2" stroke-linecap="round" stroke-linejoin="round"/>
</svg>
