<svg width="40" height="40" viewBox="0 0 40 40" fill="none" xmlns="http://www.w3.org/2000/svg">
<g clip-path="url(#clip0_2548_205)">
<path d="M40 16.6668V26.6668C40 31.2618 36.2617 35.0001 31.6667 35.0001H21.6667V36.6668H26.6667C27.5883 36.6668 28.3333 37.4118 28.3333 38.3334C28.3333 39.2551 27.5883 40.0001 26.6667 40.0001H13.3333C12.4117 40.0001 11.6667 39.2551 11.6667 38.3334C11.6667 37.4118 12.4117 36.6668 13.3333 36.6668H18.3333V35.0001H8.33333C3.73833 35.0001 0 31.2618 0 26.6668V16.6668C0 12.8618 2.57 9.54342 6.25167 8.59675C7.13667 8.37342 8.05167 8.90342 8.28167 9.79508C8.51167 10.6868 7.97333 11.5951 7.08167 11.8234C4.875 12.3918 3.33333 14.3834 3.33333 16.6668V26.6668C3.33333 29.4234 5.57667 31.6668 8.33333 31.6668H31.6667C34.4233 31.6668 36.6667 29.4234 36.6667 26.6668V16.6668C36.6667 14.3834 35.125 12.3918 32.9183 11.8234C32.0267 11.5951 31.49 10.6851 31.7183 9.79508C31.9483 8.90342 32.8667 8.37175 33.7483 8.59675C37.43 9.54342 40 12.8618 40 16.6668ZM10.5067 15.2234L12.095 14.3068C11.8167 13.4768 11.6667 12.5901 11.6667 11.6684C11.6667 10.7468 11.8183 9.85842 12.095 9.03009L10.5067 8.11342C9.70833 7.65342 9.435 6.63342 9.89667 5.83675C10.3567 5.03842 11.3767 4.76508 12.1733 5.22675L13.7667 6.14675C14.9433 4.82175 16.5333 3.87175 18.3333 3.50508V1.67008C18.3333 0.750085 19.0783 0.00341797 20 0.00341797C20.9217 0.00341797 21.6667 0.750085 21.6667 1.67008V3.50508C23.4667 3.87175 25.0583 4.82175 26.2333 6.14675L27.8267 5.22675C28.62 4.76508 29.6417 5.03842 30.1033 5.83675C30.5633 6.63509 30.29 7.65342 29.4933 8.11342L27.905 9.03009C28.1833 9.86009 28.3333 10.7468 28.3333 11.6684C28.3333 12.5901 28.1817 13.4784 27.905 14.3068L29.4933 15.2234C30.2917 15.6834 30.565 16.7034 30.1033 17.5001C29.7933 18.0351 29.235 18.3334 28.6583 18.3334C28.375 18.3334 28.0883 18.2618 27.8267 18.1101L26.2333 17.1901C25.0567 18.5151 23.4667 19.4651 21.6667 19.8318V21.6668C21.6667 22.5884 20.9217 23.3334 20 23.3334C19.0783 23.3334 18.3333 22.5884 18.3333 21.6668V19.8318C16.5333 19.4651 14.9417 18.5151 13.7667 17.1901L12.1733 18.1101C11.9117 18.2618 11.625 18.3334 11.3417 18.3334C10.765 18.3334 10.205 18.0351 9.89667 17.5001C9.43667 16.7018 9.71 15.6834 10.5067 15.2234ZM15 11.6668C15 14.4234 17.2433 16.6668 20 16.6668C22.7567 16.6668 25 14.4234 25 11.6668C25 8.91009 22.7567 6.66675 20 6.66675C17.2433 6.66675 15 8.91009 15 11.6668Z" fill="#1D223F"/>
<path d="M20 14.1665C21.38 14.1665 22.5 13.0465 22.5 11.6665C22.5 10.2865 21.38 9.1665 20 9.1665C18.62 9.1665 17.5 10.2865 17.5 11.6665C17.5 13.0465 18.62 14.1665 20 14.1665Z" fill="#1D223F"/>
</g>
<defs>
<clipPath id="clip0_2548_205">
<rect width="40" height="40" fill="white"/>
</clipPath>
</defs>
</svg>
