<svg width="48" height="48" viewBox="0 0 48 48" fill="none" xmlns="http://www.w3.org/2000/svg">
<path d="M44 30.368V16C43.9968 13.3488 42.9422 10.8071 41.0676 8.93244C39.1929 7.05776 36.6512 6.00318 34 6H14C11.3488 6.00318 8.80713 7.05776 6.93245 8.93244C5.05777 10.8071 4.00319 13.3488 4.00001 16V30.368C2.66665 30.8376 1.54252 31.764 0.826732 32.9831C0.110944 34.2021 -0.150313 35.6351 0.0892353 37.0284C0.328783 38.4216 1.05368 39.685 2.13552 40.595C3.21737 41.505 4.58636 42.0027 6.00001 42H42C43.4137 42.0027 44.7826 41.505 45.8645 40.595C46.9463 39.685 47.6712 38.4216 47.9108 37.0284C48.1503 35.6351 47.8891 34.2021 47.1733 32.9831C46.4575 31.764 45.3334 30.8376 44 30.368ZM14 10H34C35.5913 10 37.1174 10.6321 38.2427 11.7574C39.3679 12.8826 40 14.4087 40 16V30H31.698C31.1163 29.9996 30.5415 30.1261 30.0137 30.3707C29.4859 30.6152 29.0178 30.972 28.642 31.416L28.148 32H19.85L19.358 31.416C18.9822 30.972 18.5141 30.6152 17.9863 30.3707C17.4585 30.1261 16.8837 29.9996 16.302 30H8.00001V16C8.00001 14.4087 8.63215 12.8826 9.75737 11.7574C10.8826 10.6321 12.4087 10 14 10ZM42 38H6.00001C5.46958 38 4.96087 37.7893 4.5858 37.4142C4.21072 37.0391 4.00001 36.5304 4.00001 36C4.00001 35.4696 4.21072 34.9609 4.5858 34.5858C4.96087 34.2107 5.46958 34 6.00001 34H16.304L16.796 34.584C17.1716 35.0278 17.6394 35.3844 18.1668 35.6289C18.6942 35.8735 19.2686 36.0001 19.85 36H28.148C28.7297 36.0004 29.3045 35.8739 29.8323 35.6293C30.3601 35.3848 30.8282 35.028 31.204 34.584L31.698 34H42C42.5304 34 43.0392 34.2107 43.4142 34.5858C43.7893 34.9609 44 35.4696 44 36C44 36.5304 43.7893 37.0391 43.4142 37.4142C43.0392 37.7893 42.5304 38 42 38Z" fill="#00ADEF"/>
</svg>
