<svg width="60" height="60" viewBox="0 0 60 60" fill="none" xmlns="http://www.w3.org/2000/svg">
<path d="M28.25 1.58789C29.3329 0.962676 30.6671 0.962676 31.75 1.58789L53.7305 14.2783C54.8134 14.9035 55.4805 16.0591 55.4805 17.3096V42.6904C55.4805 43.9409 54.8134 45.0965 53.7305 45.7217L31.75 58.4121C30.6671 59.0373 29.3329 59.0373 28.25 58.4121L6.26953 45.7217C5.18663 45.0965 4.51953 43.9409 4.51953 42.6904V17.3096C4.51953 16.0591 5.18663 14.9035 6.26953 14.2783L28.25 1.58789Z" fill="#1D223F" stroke="#00ADEF"/>
<path d="M34.2103 26.2734C35.8854 26.2734 37.4918 26.9388 38.6763 28.1233C39.8607 29.3077 40.5261 30.9141 40.5261 32.5891V39.9574H36.3156V32.5891C36.3156 32.0308 36.0938 31.4953 35.699 31.1005C35.3042 30.7057 34.7687 30.4839 34.2103 30.4839C33.652 30.4839 33.1165 30.7057 32.7217 31.1005C32.3269 31.4953 32.1051 32.0308 32.1051 32.5891V39.9574H27.8945V32.5891C27.8945 30.9141 28.5599 29.3077 29.7444 28.1233C30.9288 26.9388 32.5353 26.2734 34.2103 26.2734Z" fill="white" stroke="white" stroke-width="2" stroke-linecap="round" stroke-linejoin="round"/>
<path d="M23.6832 27.3252H19.4727V39.9566H23.6832V27.3252Z" fill="white" stroke="white" stroke-width="2" stroke-linecap="round" stroke-linejoin="round"/>
<path d="M21.5779 24.1675C22.7406 24.1675 23.6832 23.2249 23.6832 22.0623C23.6832 20.8996 22.7406 19.957 21.5779 19.957C20.4152 19.957 19.4727 20.8996 19.4727 22.0623C19.4727 23.2249 20.4152 24.1675 21.5779 24.1675Z" fill="white" stroke="white" stroke-width="2" stroke-linecap="round" stroke-linejoin="round"/>
</svg>
