<svg width="48" height="48" viewBox="0 0 48 48" fill="none" xmlns="http://www.w3.org/2000/svg">
<g clip-path="url(#clip0_2548_404)">
<path d="M26.5 22.5C26.5 23.88 25.38 25 24 25C22.62 25 21.5 23.88 21.5 22.5C21.5 21.12 22.62 20 24 20C25.38 20 26.5 21.12 26.5 22.5ZM20 14.054C21.104 14.054 22 13.158 22 12.054C22 11.42 22.302 10.808 22.81 10.416C23.1 10.192 23.716 9.846 24.572 10.074C25.24 10.248 25.806 10.854 25.95 11.544C26.168 12.594 25.594 13.42 24.926 13.772C23.384 14.586 22.522 15.64 22.43 15.758C21.75 16.616 21.894 17.85 22.744 18.542C23.112 18.84 23.556 18.986 23.998 18.986C24.576 18.986 25.152 18.738 25.548 18.262C25.552 18.256 26 17.728 26.792 17.31C29.188 16.046 30.422 13.402 29.866 10.726C29.408 8.542 27.73 6.768 25.586 6.204C23.756 5.72 21.85 6.104 20.366 7.248C18.884 8.392 17.998 10.188 17.998 12.052C17.998 13.156 18.894 14.052 19.998 14.052L20 14.054ZM46 22V32C46 35.308 43.308 38 40 38H26V44H34C35.104 44 36 44.896 36 46C36 47.104 35.104 48 34 48H14C12.896 48 12 47.104 12 46C12 44.896 12.896 44 14 44H22V38H8C4.692 38 2 35.308 2 32V22C2 17.588 5.588 14 10 14V10C10 4.486 14.486 0 20 0H28C33.514 0 38 4.486 38 10V14C42.412 14 46 17.588 46 22ZM38 18V26H40C40.704 26 41.372 26.144 42 26.368V22C42 19.794 40.206 18 38 18ZM14 26H34V10C34 6.692 31.308 4 28 4H20C16.692 4 14 6.692 14 10V26ZM6 22V26.368C6.628 26.144 7.296 26 8 26H10V18C7.794 18 6 19.794 6 22ZM42 32C42 30.898 41.102 30 40 30H8C6.898 30 6 30.898 6 32C6 33.102 6.898 34 8 34H40C41.102 34 42 33.102 42 32Z" fill="#00ADEF"/>
</g>
<defs>
<clipPath id="clip0_2548_404">
<rect width="48" height="48" fill="white"/>
</clipPath>
</defs>
</svg>
