<svg width="40" height="40" viewBox="0 0 40 40" fill="none" xmlns="http://www.w3.org/2000/svg">
<g clip-path="url(#clip0_2548_265)">
<path d="M22.0834 18.75C22.0834 19.9 21.15 20.8333 20 20.8333C18.85 20.8333 17.9167 19.9 17.9167 18.75C17.9167 17.6 18.85 16.6667 20 16.6667C21.15 16.6667 22.0834 17.6 22.0834 18.75ZM16.6667 11.7117C17.5867 11.7117 18.3334 10.965 18.3334 10.045C18.3334 9.51667 18.585 9.00667 19.0084 8.68C19.25 8.49333 19.7634 8.205 20.4767 8.395C21.0334 8.54 21.505 9.045 21.625 9.62C21.8067 10.495 21.3284 11.1833 20.7717 11.4767C19.4867 12.155 18.7684 13.0333 18.6917 13.1317C18.125 13.8467 18.245 14.875 18.9534 15.4517C19.26 15.7 19.63 15.8217 19.9984 15.8217C20.48 15.8217 20.96 15.615 21.29 15.2183C21.2934 15.2133 21.6667 14.7733 22.3267 14.425C24.3234 13.3717 25.3517 11.1683 24.8884 8.93833C24.5067 7.11833 23.1084 5.64 21.3217 5.17C19.7967 4.76667 18.2084 5.08667 16.9717 6.04C15.7367 6.99333 14.9984 8.49 14.9984 10.0433C14.9984 10.9633 15.745 11.71 16.665 11.71L16.6667 11.7117ZM38.3334 18.3333V26.6667C38.3334 29.4233 36.09 31.6667 33.3334 31.6667H21.6667V36.6667H28.3334C29.2534 36.6667 30 37.4133 30 38.3333C30 39.2533 29.2534 40 28.3334 40H11.6667C10.7467 40 10 39.2533 10 38.3333C10 37.4133 10.7467 36.6667 11.6667 36.6667H18.3334V31.6667H6.66669C3.91002 31.6667 1.66669 29.4233 1.66669 26.6667V18.3333C1.66669 14.6567 4.65669 11.6667 8.33335 11.6667V8.33333C8.33335 3.73833 12.0717 0 16.6667 0H23.3334C27.9284 0 31.6667 3.73833 31.6667 8.33333V11.6667C35.3434 11.6667 38.3334 14.6567 38.3334 18.3333ZM31.6667 15V21.6667H33.3334C33.92 21.6667 34.4767 21.7867 35 21.9733V18.3333C35 16.495 33.505 15 31.6667 15ZM11.6667 21.6667H28.3334V8.33333C28.3334 5.57667 26.09 3.33333 23.3334 3.33333H16.6667C13.91 3.33333 11.6667 5.57667 11.6667 8.33333V21.6667ZM5.00002 18.3333V21.9733C5.52335 21.7867 6.08002 21.6667 6.66669 21.6667H8.33335V15C6.49502 15 5.00002 16.495 5.00002 18.3333ZM35 26.6667C35 25.7483 34.2517 25 33.3334 25H6.66669C5.74835 25 5.00002 25.7483 5.00002 26.6667C5.00002 27.585 5.74835 28.3333 6.66669 28.3333H33.3334C34.2517 28.3333 35 27.585 35 26.6667Z" fill="black"/>
</g>
<defs>
<clipPath id="clip0_2548_265">
<rect width="40" height="40" fill="white"/>
</clipPath>
</defs>
</svg>
