<svg width="60" height="60" viewBox="0 0 60 60" fill="none" xmlns="http://www.w3.org/2000/svg">
<path d="M0 0H48C54.6274 0 60 5.37258 60 12V60H12C5.37258 60 0 54.6274 0 48V0Z" fill="#1D223F"/>
<path d="M48 0.5C54.3513 0.5 59.5 5.64873 59.5 12V59.5H12C5.64873 59.5 0.5 54.3513 0.5 48V0.5H48Z" stroke="white" stroke-opacity="0.16"/>
<path d="M36.2045 25.1699C36.1596 25.1102 36.1033 25.06 36.0387 25.0222C35.9742 24.9845 35.9028 24.96 35.8287 24.9502C35.7546 24.9404 35.6793 24.9455 35.6072 24.9652C35.535 24.9848 35.4676 25.0187 35.4087 25.0647C35.3498 25.1108 35.3007 25.1681 35.2643 25.2334C35.2278 25.2986 35.2048 25.3705 35.1964 25.4448C35.1881 25.5191 35.1947 25.5943 35.2157 25.666C35.2368 25.7377 35.272 25.8045 35.3192 25.8624C36.2492 27.0455 36.7523 28.5081 36.7469 30.013C36.7467 31.5107 36.2479 32.9658 35.3293 34.1488C34.4107 35.3318 33.1245 36.1754 31.6734 36.5466C30.2224 36.9178 28.6891 36.7955 27.3152 36.199C25.9414 35.6024 24.8051 34.5656 24.0857 33.2519C23.3663 31.9382 23.1045 30.4225 23.3417 28.9436C23.579 27.4647 24.3017 26.1069 25.3959 25.0841C26.4901 24.0614 27.8936 23.4319 29.3852 23.295C30.8767 23.1581 32.3713 23.5215 33.6335 24.3279C33.7591 24.4083 33.9116 24.4354 34.0573 24.4034C34.2029 24.3713 34.3299 24.2827 34.4103 24.157C34.4906 24.0314 34.5178 23.8789 34.4857 23.7332C34.4537 23.5876 34.3651 23.4606 34.2394 23.3802C32.5766 22.3183 30.5758 21.9193 28.6329 22.2621C26.69 22.605 24.9466 23.6646 23.7476 25.2315C22.5486 26.7983 21.9815 28.7581 22.1585 30.7231C22.3355 32.688 23.2436 34.515 24.7032 35.8424C26.1628 37.1698 28.0675 37.9009 30.0404 37.8911C32.0133 37.8813 33.9106 37.1312 35.3569 35.7893C36.8032 34.4474 37.6931 32.6115 37.8505 30.6449C38.0079 28.6782 37.4212 26.7242 36.2067 25.1694L36.2045 25.1699Z" fill="white"/>
<path d="M38.5704 36.196C38.479 36.1025 38.4227 35.9804 38.411 35.8502C38.3994 35.72 38.433 35.5898 38.5063 35.4815C39.1067 34.5524 39.5496 33.5304 39.8171 32.4569L41.2645 33.1809C41.2583 33.2489 41.2437 33.3152 41.2437 33.3849C41.2421 33.9246 41.4341 34.447 41.7848 34.8571C42.1355 35.2673 42.6217 35.5381 43.155 35.6204C43.6884 35.7027 44.2336 35.5909 44.6916 35.3055C45.1496 35.02 45.4901 34.5798 45.6511 34.0647C45.8122 33.5496 45.7832 32.9939 45.5695 32.4983C45.3557 32.0028 44.9713 31.6004 44.4861 31.3641C44.0009 31.1278 43.447 31.0734 42.9251 31.2107C42.4032 31.348 41.9478 31.6679 41.6416 32.1123L40.0341 31.3085C40.1406 30.48 40.1457 29.6415 40.0492 28.8117C39.8679 27.2928 39.3383 25.8362 38.5018 24.5555L39.7761 23.2812C40.7887 24.0907 42.0728 24.4817 43.3648 24.3738C44.6567 24.266 45.8582 23.6675 46.7226 22.7014C47.5871 21.7352 48.0487 20.4748 48.0127 19.1788C47.9767 17.8829 47.4459 16.65 46.5292 15.7333C45.6125 14.8166 44.3795 14.2858 43.0836 14.2498C41.7877 14.2138 40.5272 14.6754 39.5611 15.5398C38.5949 16.4043 37.9965 17.6058 37.8886 18.8977C37.7808 20.1896 38.1718 21.4738 38.9812 22.4864L37.834 23.6337C36.2066 21.6226 33.8691 20.3133 31.3041 19.9761C31.0568 19.9452 30.81 19.9266 30.5639 19.9132V18.6912C31.0937 18.5544 31.5555 18.229 31.8626 17.7761C32.1698 17.3231 32.3012 16.7737 32.2322 16.2309C32.1633 15.688 31.8987 15.1889 31.4881 14.8271C31.0775 14.4654 30.549 14.2658 30.0018 14.2658C29.4545 14.2658 28.9261 14.4654 28.5154 14.8271C28.1048 15.1889 27.8402 15.688 27.7713 16.2309C27.7023 16.7737 27.8337 17.3231 28.1409 17.7761C28.448 18.229 28.9098 18.5544 29.4397 18.6912V19.9137C27.147 20.0357 24.965 20.9386 23.2566 22.4724L21.0228 20.2386C21.8323 19.226 22.2233 17.9418 22.1154 16.6499C22.0076 15.358 21.4091 14.1564 20.443 13.292C19.4768 12.4276 18.2163 11.966 16.9204 12.002C15.6245 12.0379 14.3916 12.5688 13.4749 13.4855C12.5582 14.4022 12.0273 15.6351 11.9914 16.931C11.9554 18.2269 12.417 19.4874 13.2814 20.4536C14.1458 21.4197 15.3474 22.0182 16.6393 22.126C17.9312 22.2339 19.2154 21.8429 20.228 21.0334L22.4612 23.2678C20.9277 24.9764 20.0246 27.1582 19.902 29.4508H18.68C18.5432 28.9209 18.2178 28.4592 17.7649 28.152C17.312 27.8449 16.7626 27.7135 16.2197 27.7824C15.6768 27.8514 15.1777 28.116 14.816 28.5266C14.4542 28.9372 14.2546 29.4657 14.2546 30.0129C14.2546 30.5602 14.4542 31.0886 14.816 31.4992C15.1777 31.9098 15.6768 32.1744 16.2197 32.2434C16.7626 32.3123 17.312 32.1809 17.7649 31.8738C18.2178 31.5667 18.5432 31.1049 18.68 30.575H19.9026C19.9155 30.8212 19.9346 31.068 19.9655 31.3153C20.1916 33.0697 20.8814 34.7322 21.9638 36.1313L20.2269 37.8682C19.2143 37.0587 17.9301 36.6678 16.6382 36.7756C15.3463 36.8834 14.1447 37.4819 13.2803 38.4481C12.4159 39.4142 11.9543 40.6747 11.9902 41.9706C12.0262 43.2665 12.5571 44.4994 13.4738 45.4161C14.3905 46.3328 15.6234 46.8637 16.9193 46.8997C18.2152 46.9357 19.4757 46.474 20.4418 45.6096C21.408 44.7452 22.0065 43.5436 22.1143 42.2517C22.2221 40.9598 21.8312 39.6756 21.0217 38.663L22.6979 36.9868C24.3124 38.6904 26.4706 39.7774 28.8006 40.0604C29.4244 40.1327 30.0536 40.1479 30.6802 40.1059L31.0551 41.6056C30.6002 41.8955 30.2651 42.3398 30.1116 42.8569C29.9581 43.3741 29.9964 43.9292 30.2195 44.4204C30.4426 44.9115 30.8355 45.3056 31.326 45.5303C31.8165 45.7549 32.3715 45.7949 32.8891 45.643C33.4067 45.491 33.8521 45.1574 34.1434 44.7033C34.4346 44.2493 34.5522 43.7053 34.4745 43.1715C34.3967 42.6377 34.1289 42.1499 33.7203 41.7978C33.3116 41.4456 32.7896 41.2528 32.2501 41.2548C32.2091 41.2548 32.1709 41.265 32.1299 41.2672L31.8038 39.9637C33.11 39.7296 34.3566 39.2379 35.471 38.5174C35.5791 38.4441 35.7092 38.4104 35.8393 38.4221C35.9694 38.4338 36.0915 38.4901 36.1848 38.5815L45.1103 47.5059C45.2668 47.6627 45.4526 47.787 45.6572 47.8718C45.8618 47.9566 46.0811 48.0001 46.3026 48C46.3481 48 46.3936 48 46.4391 47.9944C46.6839 47.9742 46.9213 47.9009 47.1348 47.7797C47.3484 47.6584 47.533 47.4921 47.6758 47.2923C47.904 46.9556 48.0066 46.5494 47.9655 46.1447C47.9244 45.74 47.7422 45.3627 47.4509 45.0788L38.5704 36.196ZM43.4921 32.2613C43.7144 32.2613 43.9318 32.3272 44.1166 32.4508C44.3015 32.5743 44.4456 32.7499 44.5307 32.9553C44.6158 33.1607 44.638 33.3867 44.5947 33.6048C44.5513 33.8229 44.4442 34.0232 44.287 34.1804C44.1298 34.3376 43.9295 34.4447 43.7114 34.4881C43.4933 34.5315 43.2673 34.5092 43.0619 34.4241C42.8564 34.339 42.6809 34.1949 42.5573 34.0101C42.4338 33.8252 42.3679 33.6078 42.3679 33.3855C42.3679 33.0873 42.4863 32.8014 42.6971 32.5906C42.908 32.3797 43.1939 32.2613 43.4921 32.2613ZM42.93 15.3984C43.7082 15.3984 44.4689 15.6292 45.116 16.0615C45.763 16.4939 46.2673 17.1084 46.5651 17.8273C46.8629 18.5463 46.9409 19.3374 46.789 20.1007C46.6372 20.8639 46.2625 21.565 45.7122 22.1153C45.1619 22.6656 44.4608 23.0403 43.6976 23.1921C42.9343 23.344 42.1432 23.266 41.4242 22.9682C40.7053 22.6704 40.0908 22.1661 39.6584 21.5191C39.2261 20.872 38.9953 20.1113 38.9953 19.3331C38.9965 18.2899 39.4114 17.2898 40.1491 16.5522C40.8867 15.8145 41.8868 15.3996 42.93 15.3984ZM17.0735 45.7516C16.2953 45.7516 15.5346 45.5208 14.8875 45.0885C14.2405 44.6562 13.7362 44.0416 13.4384 43.3227C13.1406 42.6037 13.0626 41.8126 13.2145 41.0493C13.3663 40.2861 13.741 39.585 14.2913 39.0347C14.8416 38.4844 15.5427 38.1097 16.3059 37.9579C17.0692 37.806 17.8603 37.884 18.5793 38.1818C19.2982 38.4796 19.9127 38.9839 20.3451 39.6309C20.7774 40.278 21.0082 41.0387 21.0082 41.8169C21.007 42.8601 20.5921 43.8602 19.8545 44.5979C19.1168 45.3355 18.1167 45.7504 17.0735 45.7516ZM33.3743 43.5032C33.3743 43.7256 33.3084 43.9429 33.1849 44.1278C33.0613 44.3127 32.8858 44.4568 32.6803 44.5418C32.4749 44.6269 32.2489 44.6492 32.0308 44.6058C31.8127 44.5624 31.6124 44.4554 31.4552 44.2982C31.298 44.1409 31.1909 43.9406 31.1475 43.7225C31.1042 43.5045 31.1264 43.2784 31.2115 43.073C31.2966 42.8676 31.4407 42.692 31.6256 42.5685C31.8104 42.445 32.0278 42.379 32.2501 42.379C32.5483 42.379 32.8342 42.4975 33.0451 42.7083C33.2559 42.9191 33.3743 43.2051 33.3743 43.5032ZM28.8776 16.5226C28.8776 16.3002 28.9435 16.0829 29.067 15.898C29.1905 15.7132 29.3661 15.5691 29.5715 15.484C29.777 15.3989 30.003 15.3766 30.2211 15.42C30.4391 15.4634 30.6395 15.5704 30.7967 15.7277C30.9539 15.8849 31.061 16.0852 31.1043 16.3033C31.1477 16.5213 31.1255 16.7474 31.0404 16.9528C30.9553 17.1582 30.8112 17.3338 30.6263 17.4573C30.4414 17.5809 30.2241 17.6468 30.0018 17.6468C29.7036 17.6468 29.4177 17.5283 29.2068 17.3175C28.996 17.1067 28.8776 16.8207 28.8776 16.5226ZM17.0735 21.0194C16.2953 21.0194 15.5346 20.7886 14.8875 20.3563C14.2405 19.9239 13.7362 19.3094 13.4384 18.5904C13.1406 17.8715 13.0626 17.0803 13.2145 16.3171C13.3663 15.5538 13.741 14.8527 14.2913 14.3025C14.8416 13.7522 15.5427 13.3774 16.3059 13.2256C17.0692 13.0738 17.8603 13.1517 18.5793 13.4495C19.2982 13.7473 19.9127 14.2516 20.3451 14.8987C20.7774 15.5458 21.0082 16.3065 21.0082 17.0847C21.007 18.1279 20.5921 19.128 19.8545 19.8656C19.1168 20.6032 18.1167 21.0182 17.0735 21.0194ZM16.5114 31.1371C16.2891 31.1371 16.0717 31.0712 15.8869 30.9476C15.702 30.8241 15.5579 30.6485 15.4728 30.4431C15.3877 30.2377 15.3655 30.0117 15.4088 29.7936C15.4522 29.5755 15.5593 29.3752 15.7165 29.218C15.8737 29.0608 16.074 28.9537 16.2921 28.9103C16.5102 28.8669 16.7362 28.8892 16.9416 28.9743C17.1471 29.0594 17.3226 29.2035 17.4462 29.3883C17.5697 29.5732 17.6356 29.7906 17.6356 30.0129C17.6356 30.3111 17.5172 30.597 17.3064 30.8078C17.0955 31.0187 16.8096 31.1371 16.5114 31.1371ZM46.764 46.6358C46.7166 46.7037 46.6548 46.7602 46.583 46.8014C46.5112 46.8426 46.4312 46.8674 46.3486 46.8741C46.2673 46.8815 46.1853 46.8707 46.1086 46.8425C46.0319 46.8143 45.9624 46.7694 45.9052 46.7111L36.9807 37.7867C36.8256 37.6305 36.6411 37.5066 36.4378 37.4221C36.2345 37.3375 36.0165 37.2941 35.7964 37.2943C35.4642 37.2958 35.1396 37.3934 34.8616 37.5754C33.1073 38.7125 31.0091 39.1969 28.9338 38.9441C27.2582 38.7434 25.6729 38.0753 24.359 37.0163C23.0451 35.9572 22.0558 34.5498 21.504 32.955C20.9522 31.3602 20.8602 29.6423 21.2386 27.9978C21.617 26.3532 22.4505 24.8482 23.6438 23.6549C24.8371 22.4616 26.342 21.6282 27.9866 21.2498C29.6312 20.8714 31.3491 20.9633 32.9439 21.5151C34.5387 22.0669 35.946 23.0563 37.0051 24.3702C38.0642 25.684 38.7322 27.2693 38.9329 28.9449C39.1854 31.0205 38.7001 33.1188 37.562 34.8728C37.3477 35.1965 37.252 35.5842 37.2909 35.9704C37.3298 36.3566 37.501 36.7175 37.7755 36.9919L46.6567 45.873C46.7597 45.9684 46.8266 46.0963 46.8462 46.2353C46.8657 46.3743 46.8367 46.5157 46.764 46.6358Z" fill="white"/>
<path d="M25.5059 32.2614V33.2653C25.5076 33.586 25.5996 33.8996 25.7713 34.1704C25.9429 34.4412 26.1874 34.6581 26.4766 34.7965C27.5705 35.3464 28.778 35.6329 30.0024 35.6329C31.2267 35.6329 32.4342 35.3464 33.5281 34.7965C33.8175 34.6583 34.0621 34.4413 34.2339 34.1705C34.4056 33.8997 34.4977 33.586 34.4994 33.2653V32.2614C34.4978 31.3686 34.2307 30.4963 33.7321 29.7556C33.2334 29.015 32.5257 28.4393 31.699 28.1019C32.0534 27.6974 32.2495 27.1783 32.251 26.6405C32.251 26.0442 32.0141 25.4723 31.5925 25.0506C31.1708 24.629 30.5989 24.3921 30.0026 24.3921C29.4063 24.3921 28.8344 24.629 28.4128 25.0506C27.9911 25.4723 27.7542 26.0442 27.7542 26.6405C27.7558 27.1783 27.9518 27.6974 28.3062 28.1019C27.4795 28.4393 26.7719 29.015 26.2732 29.7556C25.7746 30.4963 25.5075 31.3686 25.5059 32.2614ZM28.8784 26.6405C28.8784 26.4181 28.9444 26.2008 29.0679 26.0159C29.1914 25.831 29.367 25.6869 29.5724 25.6019C29.7778 25.5168 30.0039 25.4945 30.222 25.5379C30.44 25.5813 30.6403 25.6883 30.7976 25.8456C30.9548 26.0028 31.0618 26.2031 31.1052 26.4212C31.1486 26.6392 31.1263 26.8653 31.0413 27.0707C30.9562 27.2761 30.8121 27.4517 30.6272 27.5752C30.4423 27.6987 30.225 27.7647 30.0026 27.7647C29.7045 27.7647 29.4185 27.6462 29.2077 27.4354C28.9969 27.2246 28.8784 26.9386 28.8784 26.6405ZM30.0026 28.8889C30.8968 28.8898 31.7541 29.2454 32.3864 29.8777C33.0187 30.5099 33.3743 31.3673 33.3752 32.2614V33.2653C33.3741 33.3737 33.3425 33.4796 33.2841 33.5708C33.2256 33.6621 33.1427 33.735 33.0447 33.7813C32.1029 34.2627 31.0603 34.5136 30.0026 34.5136C28.945 34.5136 27.9024 34.2627 26.9606 33.7813C26.8626 33.735 26.7796 33.6621 26.7212 33.5708C26.6627 33.4796 26.6312 33.3737 26.6301 33.2653V32.2614C26.6309 31.3673 26.9866 30.5099 27.6188 29.8777C28.2511 29.2454 29.1084 28.8898 30.0026 28.8889Z" fill="white"/>
<path d="M41.0387 22.3509C42.2552 22.8229 43.6041 22.8229 44.8205 22.3509C45.0904 22.248 45.3228 22.0656 45.487 21.8279C45.6512 21.5901 45.7394 21.3082 45.7401 21.0193C45.7384 20.5261 45.6066 20.0421 45.3579 19.6162C45.1091 19.1903 44.7524 18.8377 44.3236 18.5939C44.4961 18.3404 44.5963 18.0447 44.6133 17.7386C44.6303 17.4325 44.5636 17.1275 44.4202 16.8565C44.2768 16.5855 44.0623 16.3587 43.7997 16.2005C43.537 16.0423 43.2362 15.9587 42.9296 15.9587C42.623 15.9587 42.3222 16.0423 42.0596 16.2005C41.797 16.3587 41.5824 16.5855 41.439 16.8565C41.2957 17.1275 41.2289 17.4325 41.2459 17.7386C41.2629 18.0447 41.3631 18.3404 41.5356 18.5939C41.1069 18.8377 40.7501 19.1903 40.5014 19.6162C40.2527 20.0421 40.1208 20.5261 40.1191 21.0193C40.1198 21.3082 40.2081 21.5901 40.3723 21.8279C40.5364 22.0656 40.7688 22.248 41.0387 22.3509ZM42.3675 17.6468C42.3675 17.5356 42.4005 17.4269 42.4623 17.3345C42.524 17.242 42.6118 17.17 42.7145 17.1274C42.8172 17.0849 42.9302 17.0738 43.0393 17.0955C43.1483 17.1172 43.2485 17.1707 43.3271 17.2493C43.4057 17.3279 43.4592 17.4281 43.4809 17.5371C43.5026 17.6461 43.4915 17.7592 43.4489 17.8619C43.4064 17.9646 43.3343 18.0524 43.2419 18.1141C43.1495 18.1759 43.0408 18.2089 42.9296 18.2089C42.7805 18.2089 42.6376 18.1496 42.5322 18.0442C42.4267 17.9388 42.3675 17.7958 42.3675 17.6468ZM42.9296 19.333C43.3769 19.333 43.8058 19.5107 44.122 19.827C44.4383 20.1432 44.6159 20.5721 44.6159 21.0193C44.6164 21.08 44.5983 21.1394 44.5642 21.1897C44.53 21.2399 44.4814 21.2785 44.4248 21.3004C43.4642 21.6792 42.3956 21.6792 41.435 21.3004C41.3783 21.2786 41.3296 21.24 41.2953 21.1898C41.2611 21.1396 41.2429 21.0801 41.2433 21.0193C41.2433 20.5721 41.421 20.1432 41.7372 19.827C42.0535 19.5107 42.4824 19.333 42.9296 19.333Z" fill="white"/>
<path d="M18.4682 41.0778C18.6407 40.8243 18.7408 40.5286 18.7578 40.2225C18.7749 39.9164 18.7081 39.6114 18.5647 39.3404C18.4214 39.0694 18.2068 38.8426 17.9442 38.6844C17.6815 38.5262 17.3808 38.4426 17.0742 38.4426C16.7676 38.4426 16.4668 38.5262 16.2041 38.6844C15.9415 38.8426 15.7269 39.0694 15.5836 39.3404C15.4402 39.6114 15.3734 39.9164 15.3905 40.2225C15.4075 40.5286 15.5076 40.8243 15.6802 41.0778C15.2514 41.3216 14.8946 41.6742 14.6459 42.1001C14.3972 42.526 14.2653 43.01 14.2637 43.5032C14.2644 43.7921 14.3526 44.074 14.5168 44.3118C14.681 44.5495 14.9133 44.7319 15.1833 44.8348C16.3997 45.3068 17.7486 45.3068 18.965 44.8348C19.235 44.7319 19.4674 44.5495 19.6315 44.3118C19.7957 44.074 19.8839 43.7921 19.8846 43.5032C19.883 43.01 19.7511 42.526 19.5024 42.1001C19.2537 41.6742 18.8969 41.3216 18.4682 41.0778ZM16.5121 40.1306C16.5121 40.0195 16.545 39.9108 16.6068 39.8184C16.6686 39.7259 16.7563 39.6539 16.859 39.6113C16.9618 39.5688 17.0748 39.5577 17.1838 39.5793C17.2929 39.601 17.393 39.6546 17.4716 39.7332C17.5502 39.8118 17.6038 39.9119 17.6255 40.021C17.6471 40.13 17.636 40.243 17.5935 40.3457C17.5509 40.4485 17.4789 40.5362 17.3864 40.598C17.294 40.6598 17.1853 40.6927 17.0742 40.6927C16.9251 40.6927 16.7821 40.6335 16.6767 40.5281C16.5713 40.4227 16.5121 40.2797 16.5121 40.1306ZM18.5693 43.7843C17.6087 44.1631 16.5401 44.1631 15.5795 43.7843C15.5228 43.7625 15.4741 43.7239 15.4398 43.6737C15.4056 43.6235 15.3875 43.564 15.3879 43.5032C15.3879 43.056 15.5655 42.6271 15.8818 42.3108C16.198 41.9946 16.6269 41.8169 17.0742 41.8169C17.5214 41.8169 17.9503 41.9946 18.2665 42.3108C18.5828 42.6271 18.7604 43.056 18.7604 43.5032C18.7609 43.5639 18.7428 43.6233 18.7087 43.6735C18.6746 43.7237 18.6259 43.7624 18.5693 43.7843Z" fill="white"/>
<path d="M18.4682 16.3456C18.6407 16.0921 18.7408 15.7965 18.7578 15.4903C18.7749 15.1842 18.7081 14.8792 18.5647 14.6082C18.4214 14.3372 18.2068 14.1104 17.9442 13.9522C17.6815 13.794 17.3808 13.7104 17.0742 13.7104C16.7676 13.7104 16.4668 13.794 16.2041 13.9522C15.9415 14.1104 15.7269 14.3372 15.5836 14.6082C15.4402 14.8792 15.3734 15.1842 15.3905 15.4903C15.4075 15.7965 15.5076 16.0921 15.6802 16.3456C15.2514 16.5894 14.8946 16.942 14.6459 17.3679C14.3972 17.7938 14.2653 18.2778 14.2637 18.771C14.2644 19.0599 14.3526 19.3419 14.5168 19.5796C14.681 19.8173 14.9133 19.9997 15.1833 20.1027C16.3997 20.5746 17.7486 20.5746 18.965 20.1027C19.235 19.9997 19.4674 19.8173 19.6315 19.5796C19.7957 19.3419 19.8839 19.0599 19.8846 18.771C19.883 18.2778 19.7511 17.7938 19.5024 17.3679C19.2537 16.942 18.8969 16.5894 18.4682 16.3456ZM16.5121 15.3985C16.5121 15.2873 16.545 15.1786 16.6068 15.0862C16.6686 14.9937 16.7563 14.9217 16.859 14.8792C16.9618 14.8366 17.0748 14.8255 17.1838 14.8472C17.2929 14.8689 17.393 14.9224 17.4716 15.001C17.5502 15.0796 17.6038 15.1798 17.6255 15.2888C17.6471 15.3978 17.636 15.5109 17.5935 15.6136C17.5509 15.7163 17.4789 15.8041 17.3864 15.8658C17.294 15.9276 17.1853 15.9606 17.0742 15.9606C16.9251 15.9606 16.7821 15.9013 16.6767 15.7959C16.5713 15.6905 16.5121 15.5475 16.5121 15.3985ZM18.5693 19.0521C17.6087 19.4309 16.5401 19.4309 15.5795 19.0521C15.5228 19.0303 15.4741 18.9917 15.4398 18.9415C15.4056 18.8913 15.3875 18.8318 15.3879 18.771C15.3879 18.3238 15.5655 17.8949 15.8818 17.5787C16.198 17.2624 16.6269 17.0848 17.0742 17.0848C17.5214 17.0848 17.9503 17.2624 18.2665 17.5787C18.5828 17.8949 18.7604 18.3238 18.7604 18.771C18.7609 18.8318 18.7428 18.8912 18.7087 18.9414C18.6746 18.9916 18.6259 19.0302 18.5693 19.0521Z" fill="white"/>
</svg>
