<svg width="60" height="60" viewBox="0 0 60 60" fill="none" xmlns="http://www.w3.org/2000/svg">
<path d="M0 0H48C54.6274 0 60 5.37258 60 12V60H12C5.37258 60 0 54.6274 0 48V0Z" fill="#1D223F"/>
<path d="M48 0.5C54.3513 0.5 59.5 5.64873 59.5 12V59.5H12C5.64873 59.5 0.5 54.3513 0.5 48V0.5H48Z" stroke="white" stroke-opacity="0.16"/>
<path d="M28.9403 45.8783C33.0703 45.8774 37.0566 44.3618 40.144 41.6186L46.2123 47.6891C46.4114 47.8882 46.6814 48 46.9629 48C47.2445 48 47.5145 47.8882 47.7135 47.6891C47.9126 47.49 48.0244 47.22 48.0244 46.9385C48.0244 46.657 47.9126 46.387 47.7135 46.1879L41.6431 40.1196C44.1994 37.21 45.6814 33.5123 45.8423 29.6426C46.0031 25.7729 44.833 21.965 42.5269 18.8533C40.2209 15.7417 36.9181 13.5142 33.1691 12.5422C29.42 11.5701 25.451 11.9122 21.9236 13.5114C18.3961 15.1105 15.5232 17.8702 13.7835 21.3306C12.0438 24.7909 11.5425 28.7429 12.3631 32.528C13.1836 36.3131 15.2765 39.7027 18.293 42.132C21.3094 44.5613 25.0672 45.8835 28.9403 45.8783ZM28.9403 14.0737C31.8758 14.0737 34.7454 14.9441 37.1861 16.575C39.6269 18.2059 41.5293 20.5239 42.6527 23.236C43.776 25.948 44.07 28.9323 43.4973 31.8114C42.9246 34.6905 41.511 37.3351 39.4353 39.4109C37.3596 41.4866 34.7149 42.9002 31.8358 43.4729C28.9567 44.0455 25.9725 43.7516 23.2604 42.6282C20.5484 41.5049 18.2303 39.6025 16.5994 37.1617C14.9686 34.7209 14.0981 31.8514 14.0981 28.9158C14.1026 24.9808 15.6677 21.2083 18.4502 18.4258C21.2327 15.6433 25.0053 14.0782 28.9403 14.0737ZM20.459 36.867C20.459 37.1482 20.5707 37.4178 20.7695 37.6167C20.9683 37.8155 21.238 37.9272 21.5192 37.9272C21.8003 37.9272 22.07 37.8155 22.2688 37.6167C22.4676 37.4178 22.5793 37.1482 22.5793 36.867C22.5793 35.18 23.2495 33.5621 24.4424 32.3692C25.6353 31.1763 27.2532 30.5061 28.9403 30.5061C30.6273 30.5061 32.2452 31.1763 33.4381 32.3692C34.631 33.5621 35.3012 35.18 35.3012 36.867C35.3012 37.1482 35.4129 37.4178 35.6117 37.6167C35.8105 37.8155 36.0802 37.9272 36.3614 37.9272C36.6425 37.9272 36.9122 37.8155 37.111 37.6167C37.3098 37.4178 37.4215 37.1482 37.4215 36.867C37.4166 35.2839 36.9678 33.734 36.1259 32.3932C35.2841 31.0525 34.0831 29.9748 32.6593 29.2827C33.7508 28.4961 34.5647 27.3836 34.9842 26.1053C35.4036 24.827 35.4069 23.4486 34.9937 22.1682C34.5804 20.8879 33.7718 19.7715 32.6841 18.9797C31.5964 18.1878 30.2857 17.7613 28.9403 17.7613C27.5949 17.7613 26.2841 18.1878 25.1965 18.9797C24.1088 19.7715 23.3002 20.8879 22.8869 22.1682C22.4736 23.4486 22.4769 24.827 22.8964 26.1053C23.3158 27.3836 24.1298 28.4961 25.2212 29.2827C23.7975 29.9748 22.5964 31.0525 21.7546 32.3932C20.9128 33.734 20.4639 35.2839 20.459 36.867ZM24.6996 24.1451C24.6996 23.3064 24.9484 22.4865 25.4143 21.7892C25.8803 21.0918 26.5426 20.5483 27.3175 20.2273C28.0923 19.9064 28.945 19.8224 29.7676 19.986C30.5902 20.1496 31.3458 20.5535 31.9388 21.1466C32.5319 21.7396 32.9358 22.4952 33.0994 23.3178C33.263 24.1404 33.1791 24.9931 32.8581 25.768C32.5371 26.5428 31.9936 27.2051 31.2962 27.6711C30.5989 28.1371 29.779 28.3858 28.9403 28.3858C27.8156 28.3858 26.737 27.939 25.9417 27.1437C25.1464 26.3484 24.6996 25.2698 24.6996 24.1451Z" fill="white"/>
</svg>
