<svg width="60" height="60" viewBox="0 0 60 60" fill="none" xmlns="http://www.w3.org/2000/svg">
<path d="M0 0H48C54.6274 0 60 5.37258 60 12V60H12C5.37258 60 0 54.6274 0 48V0Z" fill="#1D223F"/>
<path d="M48 0.5C54.3513 0.5 59.5 5.64873 59.5 12V59.5H12C5.64873 59.5 0.5 54.3513 0.5 48V0.5H48Z" stroke="white" stroke-opacity="0.16"/>
<path d="M29.0931 25.1721C29.3368 24.7486 29.4771 24.2583 29.4771 23.7355V22.1272C29.4771 20.5364 28.1829 19.2422 26.592 19.2422C25.0012 19.2422 23.707 20.5364 23.707 22.1272V23.7444C23.707 24.2639 23.8459 24.7512 24.0876 25.1725C22.4316 25.3687 21.1428 26.7804 21.1428 28.4882V32.4257C21.1428 33.2592 21.8209 33.9374 22.6545 33.9374H30.5296C31.3632 33.9374 32.0413 33.2592 32.0413 32.4257V28.4882C32.0414 26.7793 30.7507 25.3667 29.0931 25.1721ZM27.4714 29.4953C27.4828 29.586 27.4474 29.6744 27.3766 29.732L26.5921 30.3703L25.8076 29.732C25.7368 29.6744 25.7014 29.586 25.7128 29.4954L26.0804 26.5794C26.2453 26.6088 26.4146 26.6251 26.5877 26.6251C26.7638 26.6251 26.9361 26.6083 27.1036 26.578L27.4714 29.4953ZM24.7617 22.8896H28.4225V23.7355C28.4225 24.7472 27.5994 25.5703 26.5877 25.5703C25.5809 25.5703 24.7617 24.7512 24.7617 23.7444V22.8896ZM26.5921 20.2969C27.5019 20.2969 28.2585 20.9642 28.3989 21.835H24.7854C24.9257 20.9642 25.6823 20.2969 26.5921 20.2969ZM30.9867 32.4258C30.9867 32.6778 30.7817 32.8828 30.5297 32.8828H22.6545C22.4025 32.8828 22.1974 32.6778 22.1974 32.4258V28.4883C22.1974 27.2283 23.2226 26.2031 24.4827 26.2031H25.0649L24.6664 29.3635C24.6092 29.8177 24.787 30.2613 25.142 30.5501L25.9878 31.2383C26.1629 31.3808 26.3775 31.452 26.5921 31.452C26.8067 31.452 27.0214 31.3808 27.1964 31.2383L28.0422 30.5501C28.3972 30.2613 28.5751 29.8177 28.5178 29.3634L28.1194 26.2031H28.7015C29.9615 26.2031 30.9867 27.2283 30.9867 28.4883V32.4258Z" fill="white"/>
<path d="M47.5115 43.1492L46.7724 42.4102C46.7899 42.3395 46.8 42.2666 46.8 42.1919C46.8 41.9509 46.7061 41.7243 46.5357 41.554L43.0697 38.088C42.8993 37.9176 42.6727 37.8238 42.4317 37.8238C42.3571 37.8238 42.2841 37.8338 42.2135 37.8513L41.5188 37.1566C40.907 36.5449 39.9365 36.5057 39.2784 37.0387L37.9673 35.7275C38.1359 35.5176 38.2993 35.3025 38.4572 35.0824C40.1224 32.7599 41.0562 30.0356 41.1699 27.1821H43.471C44.5516 27.1821 45.4307 26.3029 45.4307 25.2224V16.8369C45.4307 15.7564 44.5516 14.8773 43.471 14.8773H41.6276C41.3363 14.8773 41.1002 15.1134 41.1002 15.4046C41.1002 15.6958 41.3363 15.9319 41.6276 15.9319H43.471C43.97 15.9319 44.3759 16.3379 44.3759 16.8369V25.2223C44.3759 25.7213 43.97 26.1273 43.471 26.1273H35.0854C34.5864 26.1273 34.1804 25.7213 34.1804 25.2223V16.8369C34.1804 16.3379 34.5864 15.9319 35.0854 15.9319H39.0728C39.3641 15.9319 39.6002 15.6958 39.6002 15.4046C39.6002 15.1134 39.3641 14.8773 39.0728 14.8773H35.2927C32.7629 12.995 29.7551 12 26.5921 12C18.5471 12 12.002 18.545 12.002 26.5898C12.002 30.0632 13.2256 33.387 15.4601 36.0209C14.9305 36.3721 14.5804 36.9733 14.5804 37.6549V46.0403C14.5804 47.1209 15.4595 48 16.5401 48H24.9256C26.0061 48 26.8853 47.1209 26.8853 46.0403V41.1763C27.6805 41.1605 28.4746 41.0808 29.2501 40.938C29.5365 40.8853 29.7259 40.6103 29.6732 40.3239C29.6205 40.0375 29.3458 39.8482 29.0591 39.9008C28.3465 40.032 27.6159 40.1053 26.8853 40.1211V39.0667C30.0673 38.9933 33.0604 37.727 35.3419 35.4817C37.6006 33.2588 38.9113 30.3238 39.0583 27.1819H40.114C39.877 32.5557 36.3875 37.3828 31.3295 39.2729C31.0567 39.3749 30.9182 39.6787 31.0201 39.9515C31.0993 40.1635 31.3004 40.2943 31.5142 40.2943C31.5755 40.2943 31.6379 40.2836 31.6988 40.2608C33.1685 39.7116 34.5257 38.9363 35.7315 37.9662L37.041 39.2758C36.5081 39.9338 36.5473 40.9043 37.1591 41.5161L37.8538 42.2108C37.8363 42.2814 37.8262 42.3543 37.8262 42.429C37.8262 42.67 37.9201 42.8965 38.0904 43.067L41.5566 46.5329C41.7269 46.7034 41.9535 46.7972 42.1945 46.7972C42.2692 46.7972 42.3421 46.7871 42.4128 46.7696L43.1518 47.5087C43.4788 47.8355 43.9082 47.999 44.3377 47.999C44.7672 47.999 45.1966 47.8355 45.5236 47.5086L47.5116 45.5207C48.1654 44.867 48.1654 43.8031 47.5115 43.1492ZM26.5921 13.0547C29.2388 13.0547 31.768 13.8057 33.9603 15.2339C33.6661 15.441 33.4312 15.7266 33.2866 16.0603C31.2853 14.7817 28.9867 14.1094 26.5921 14.1094C19.7102 14.1094 14.1114 19.7081 14.1114 26.5898C14.1114 28.5702 14.5639 30.4654 15.4563 32.2227C16.1133 33.5165 17.0049 34.6982 18.0675 35.6953H16.5784C14.3069 33.199 13.0566 29.9709 13.0566 26.5898C13.0566 19.1265 19.1286 13.0547 26.5921 13.0547ZM25.8306 46.0403C25.8306 46.5393 25.4247 46.9452 24.9256 46.9452H16.5401C16.0411 46.9452 15.6351 46.5393 15.6351 46.0403V37.6549C15.6351 37.1559 16.0411 36.75 16.5401 36.75H24.9256C25.4247 36.75 25.8306 37.1559 25.8306 37.6549V46.0403ZM26.8854 38.0118V37.6549C26.8854 36.5744 26.0063 35.6953 24.9256 35.6953H19.6965C19.6935 35.6929 19.6908 35.6902 19.6878 35.6879C16.8141 33.5017 15.1661 30.1856 15.1661 26.5898C15.1661 20.2896 20.2918 15.1641 26.5921 15.1641C28.9477 15.1641 31.202 15.8747 33.1257 17.2213V25.2223C33.1257 26.3029 34.0048 27.182 35.0854 27.182H38.0021C37.6959 33.0939 32.8155 37.8592 26.8854 38.0118ZM37.2759 36.5276L38.526 37.7776L37.7802 38.5234L36.5307 37.2739C36.7874 37.0346 37.036 36.7858 37.2759 36.5276ZM37.9048 39.8902L39.8928 37.9024C40.1354 37.6597 40.5303 37.6597 40.7729 37.9024L41.3761 38.5056L38.508 41.3737L37.9048 40.7705C37.6622 40.5278 37.6622 40.1329 37.9048 39.8902ZM38.9441 42.4292L42.4317 38.9416L45.6821 42.1919L42.1945 45.6795L38.9441 42.4292ZM46.7657 44.7751L44.7778 46.7629C44.5352 47.0056 44.1403 47.0056 43.8976 46.7629L43.2501 46.1154L46.1182 43.2474L46.7657 43.8949C47.0083 44.1375 47.0083 44.5324 46.7657 44.7751Z" fill="white"/>
<path d="M37.1372 20.525C36.9078 20.3456 36.5763 20.3861 36.3969 20.6155C36.2175 20.8449 36.258 21.1764 36.4874 21.3558L38.503 22.9322C38.5992 23.0074 38.7138 23.0442 38.8277 23.0442C38.9718 23.0442 39.115 22.9854 39.2187 22.871L42.1348 19.6539C42.3304 19.4381 42.314 19.1046 42.0983 18.909C41.8825 18.7135 41.5489 18.7299 41.3534 18.9456L38.7666 21.7994L37.1372 20.525Z" fill="white"/>
<path d="M17.9902 40.2656H21.931C22.2222 40.2656 22.4583 40.0295 22.4583 39.7383C22.4583 39.447 22.2222 39.2109 21.931 39.2109H17.9902C17.699 39.2109 17.4629 39.447 17.4629 39.7383C17.4629 40.0295 17.699 40.2656 17.9902 40.2656Z" fill="white"/>
<path d="M24.1424 41.3203H17.9902C17.699 41.3203 17.4629 41.5564 17.4629 41.8477C17.4629 42.1389 17.699 42.375 17.9902 42.375H24.1424C24.4337 42.375 24.6698 42.1389 24.6698 41.8477C24.6698 41.5564 24.4336 41.3203 24.1424 41.3203Z" fill="white"/>
<path d="M22.8215 43.4297H17.9902C17.699 43.4297 17.4629 43.6658 17.4629 43.957C17.4629 44.2483 17.699 44.4844 17.9902 44.4844H22.8215C23.1128 44.4844 23.3489 44.2483 23.3489 43.957C23.3489 43.6658 23.1128 43.4297 22.8215 43.4297Z" fill="white"/>
</svg>
