<svg width="60" height="60" viewBox="0 0 60 60" fill="none" xmlns="http://www.w3.org/2000/svg">
<path d="M0 0H48C54.6274 0 60 5.37258 60 12V60H12C5.37258 60 0 54.6274 0 48V0Z" fill="#1D223F"/>
<path d="M48 0.5C54.3513 0.5 59.5 5.64873 59.5 12V59.5H12C5.64873 59.5 0.5 54.3513 0.5 48V0.5H48Z" stroke="white" stroke-opacity="0.16"/>
<path d="M18.6412 43.9656C18.7897 44.0864 18.9683 44.1452 19.1458 44.1452C19.3781 44.1452 19.6086 44.0445 19.7666 43.8504C20.0455 43.5077 19.9938 43.0039 19.6513 42.725C17.2882 40.8012 15.5443 38.3096 14.5504 35.5247C17.5591 36.1335 20.6521 36.5608 23.799 36.8028C23.9456 38.2472 24.1394 39.6357 24.3781 40.9422C24.4576 41.3767 24.8741 41.6643 25.3087 41.5853C25.7433 41.5058 26.0312 41.0892 25.9518 40.6547C25.7354 39.4705 25.557 38.2155 25.4185 36.9108C26.7203 36.9842 28.0309 37.0263 29.3475 37.0367C29.3497 37.0367 29.3519 37.0367 29.354 37.0367C29.7929 37.0367 30.1502 36.6827 30.1537 36.2431C30.1572 35.8013 29.8019 35.4404 29.3602 35.437C27.9887 35.4261 26.6242 35.3802 25.2696 35.2996C25.1342 33.5865 25.0647 31.8055 25.0647 29.9998C25.0647 28.5056 25.1116 27.0391 25.202 25.6224C26.778 25.728 28.3776 25.7809 29.9981 25.7809C31.6106 25.7809 33.2113 25.7272 34.7927 25.6206C34.8673 26.7776 34.9127 27.9665 34.9268 29.1742C34.932 29.6128 35.289 29.9648 35.7264 29.9648C35.7295 29.9648 35.7327 29.9648 35.7359 29.9648C36.1776 29.9596 36.5315 29.5974 36.5264 29.1556C36.5119 27.9129 36.4646 26.6884 36.3867 25.4945C38.1658 25.3329 39.9169 25.1032 41.6299 24.8063C42.0651 24.7308 42.3569 24.3169 42.2815 23.8816C42.206 23.4463 41.7918 23.1543 41.3567 23.23C39.6928 23.5184 37.9916 23.7418 36.2627 23.8994C35.9217 20.1265 35.2686 16.7414 34.377 14.1876C37.722 15.1071 40.7078 17.077 42.914 19.8921C43.1866 20.2398 43.6892 20.3007 44.037 20.0283C44.3847 19.7558 44.4457 19.2531 44.1732 18.9054C40.7337 14.5169 35.5672 12 29.9978 12C28.9104 12 27.8446 12.0971 26.8098 12.2827C26.7859 12.286 26.7621 12.2903 26.7386 12.2957C20.8237 13.3821 15.9103 17.3694 13.5349 22.7232C13.5102 22.7674 13.4893 22.8146 13.473 22.8643C12.5244 25.0531 11.998 27.4664 11.998 29.9998C11.998 35.4384 14.4194 40.5288 18.6412 43.9656ZM27.4783 13.793C28.2999 13.6658 29.1412 13.5997 29.9978 13.5997C30.8495 13.5997 31.6911 13.6644 32.5164 13.7908C33.5459 16.2798 34.2977 19.8997 34.6694 24.0254C33.1289 24.1291 31.5694 24.1811 29.9979 24.1811C28.4185 24.1811 26.859 24.1296 25.3238 24.0272C25.6926 19.9037 26.4409 16.2985 27.4783 13.793ZM25.6156 14.1942C24.7197 16.7559 24.0696 20.1302 23.7311 23.9019C20.849 23.6402 18.0573 23.1952 15.3795 22.5697C17.4475 18.5178 21.1522 15.4333 25.6156 14.1942ZM13.5978 29.9998C13.5978 27.9046 13.9929 25.8995 14.7123 24.0558C17.5612 24.7375 20.5357 25.219 23.6082 25.497C23.5137 26.957 23.4647 28.4654 23.4647 29.9998C23.4647 31.7631 23.5296 33.5049 23.6564 35.1869C20.3756 34.9233 17.1573 34.4541 14.0362 33.7832C13.7472 32.5575 13.5978 31.2894 13.5978 29.9998ZM41.5998 13.8259C42.9176 13.5286 44.6907 13.3767 45.6559 14.3418C46.7841 15.47 46.6147 18.0077 45.1912 21.3042C43.7325 24.6819 41.0879 28.5994 37.707 32.401C37.0999 31.9554 36.3511 31.692 35.5421 31.692C33.5204 31.692 31.8756 33.3368 31.8756 35.3585C31.8756 37.3802 33.5204 39.025 35.5421 39.025C37.5638 39.025 39.2086 37.3802 39.2086 35.3585C39.2086 34.7281 39.0486 34.1342 38.7672 33.6156C42.3234 29.6421 45.116 25.5134 46.6599 21.9384C48.4071 17.8925 48.451 14.8744 46.7872 13.2106C45.9703 12.3935 44.3459 11.5664 41.2479 12.2654C40.817 12.3626 40.5464 12.7908 40.6437 13.2217C40.7409 13.6525 41.169 13.9233 41.5998 13.8259ZM35.542 37.4253C34.4024 37.4253 33.4752 36.4981 33.4752 35.3585C33.4752 34.2188 34.4024 33.2917 35.542 33.2917C36.6816 33.2917 37.6088 34.2188 37.6088 35.3585C37.6088 36.4981 36.6816 37.4253 35.542 37.4253ZM31.7988 40.3317C28.0313 43.4507 24.1835 45.8386 20.964 47.0557C19.2979 47.6856 17.8232 48 16.5706 48C15.1503 48 14.0154 47.5959 13.2086 46.7891C12.3954 45.9759 11.57 44.3604 12.256 41.2827C12.3522 40.8515 12.7798 40.5799 13.2108 40.676C13.642 40.7721 13.9137 41.1996 13.8176 41.6307C13.5262 42.9381 13.3802 44.6981 14.3399 45.6579C15.3654 46.6835 17.5171 46.6485 20.3983 45.5592C23.4571 44.403 27.1435 42.1088 30.7786 39.0994C31.1188 38.8177 31.6231 38.8652 31.9048 39.2054C32.1865 39.5457 32.1391 40.05 31.7988 40.3317ZM47.6377 26.4019C47.8766 27.5798 47.9979 28.7904 47.9979 29.9998C47.9979 31.5985 47.7883 33.1495 47.3953 34.6261C47.3896 34.6531 47.3824 34.6796 47.3741 34.7056C45.5778 41.3302 40.0844 46.4507 33.256 47.7043C33.2332 47.7095 33.2103 47.7136 33.1872 47.7168C32.1519 47.9027 31.086 47.9997 29.998 47.9997C28.6875 47.9997 27.3791 47.858 26.1092 47.5784C25.6778 47.4834 25.4051 47.0566 25.5001 46.6252C25.595 46.1937 26.022 45.921 26.4532 46.0161C27.6105 46.2709 28.8031 46.4 29.9981 46.4C30.8548 46.4 31.6958 46.334 32.5172 46.2069C33.058 44.8957 33.5399 43.2144 33.9193 41.3104C34.0057 40.8772 34.4269 40.596 34.8601 40.6823C35.2933 40.7686 35.5745 41.1898 35.4881 41.6231C35.1747 43.1961 34.8038 44.5963 34.3807 45.8056C39.5204 44.3787 43.653 40.5063 45.4404 35.5257C44.2017 35.7762 42.943 35.997 41.6832 36.1849C41.246 36.2499 40.8394 35.9487 40.7741 35.5117C40.709 35.0748 41.0104 34.6677 41.4473 34.6026C42.9642 34.3764 44.4791 34.1013 45.9577 33.7838C46.2458 32.5686 46.3982 31.302 46.3982 30C46.3982 28.897 46.2878 27.7936 46.0701 26.72C45.9823 26.2871 46.2621 25.865 46.695 25.7772C47.1275 25.6893 47.5499 25.9689 47.6377 26.4019Z" fill="white"/>
</svg>
