<svg width="48" height="48" viewBox="0 0 48 48" fill="none" xmlns="http://www.w3.org/2000/svg">
<g clip-path="url(#clip0_2548_474)">
<path d="M37.162 4.28048L24.632 0.102482C24.2217 -0.0341605 23.7783 -0.0341605 23.368 0.102482L10.838 4.28048C8.84581 4.94224 7.11283 6.215 5.88529 7.9179C4.65775 9.62081 3.99808 11.6673 4 13.7665V24.0005C4 39.1265 22.4 47.4805 23.188 47.8285C23.4436 47.9421 23.7203 48.0007 24 48.0007C24.2797 48.0007 24.5564 47.9421 24.812 47.8285C25.6 47.4805 44 39.1265 44 24.0005V13.7665C44.0019 11.6673 43.3423 9.62081 42.1147 7.9179C40.8872 6.215 39.1542 4.94224 37.162 4.28048ZM40 24.0005C40 34.9105 27.362 42.0665 24 43.7785C20.634 42.0725 8 34.9385 8 24.0005V13.7665C8.00012 12.507 8.39655 11.2796 9.13313 10.258C9.86972 9.23637 10.9091 8.47247 12.104 8.07448L24 4.10848L35.896 8.07448C37.0909 8.47247 38.1303 9.23637 38.8669 10.258C39.6035 11.2796 39.9999 12.507 40 13.7665V24.0005Z" fill="#00ADEF"/>
<path d="M30.6 16.5999L22.224 24.9999L17.736 20.3199C17.5559 20.123 17.3382 19.9641 17.0957 19.8526C16.8533 19.7411 16.5909 19.6793 16.3242 19.6707C16.0575 19.6622 15.7917 19.7071 15.5426 19.8029C15.2935 19.8986 15.0661 20.0433 14.8738 20.2283C14.6814 20.4132 14.528 20.6349 14.4227 20.8801C14.3173 21.1253 14.2621 21.3891 14.2602 21.6559C14.2584 21.9228 14.31 22.1873 14.412 22.4339C14.5139 22.6806 14.6642 22.9043 14.854 23.0919L19.466 27.8919C19.81 28.2634 20.2257 28.5613 20.688 28.7676C21.1504 28.9738 21.6498 29.0842 22.156 29.0919H22.222C22.7181 29.0935 23.2096 28.9966 23.668 28.8068C24.1263 28.6169 24.5424 28.3379 24.892 27.9859L33.436 19.4419C33.6226 19.2557 33.7707 19.0345 33.8719 18.7911C33.973 18.5476 34.0252 18.2867 34.0255 18.023C34.0258 17.7594 33.9741 17.4983 33.8735 17.2546C33.7729 17.011 33.6252 16.7895 33.439 16.6029C33.2528 16.4163 33.0317 16.2682 32.7882 16.1671C32.5448 16.0659 32.2838 16.0137 32.0201 16.0134C31.7565 16.0132 31.4954 16.0648 31.2517 16.1654C31.0081 16.2661 30.7866 16.4137 30.6 16.5999Z" fill="#00ADEF"/>
</g>
<defs>
<clipPath id="clip0_2548_474">
<rect width="48" height="48" fill="white"/>
</clipPath>
</defs>
</svg>
