<svg width="48" height="48" viewBox="0 0 48 48" fill="none" xmlns="http://www.w3.org/2000/svg">
<g clip-path="url(#clip0_2548_454)">
<path d="M48 14V30C48 35.514 43.514 40 38 40H26V44H34C35.104 44 36 44.894 36 46C36 47.106 35.104 48 34 48H14C12.896 48 12 47.106 12 46C12 44.894 12.896 44 14 44H22V40H10C4.486 40 0 35.514 0 30V14C0 12.894 0.896 12 2 12C3.104 12 4 12.894 4 14V30C4 33.308 6.692 36 10 36H38C41.308 36 44 33.308 44 30V14C44 12.894 44.896 12 46 12C47.104 12 48 12.894 48 14ZM34 20C35.104 20 36 19.106 36 18V8C36 6.896 36.898 6 38 6H40.554C41.246 7.19 42.522 8 44 8C46.21 8 48 6.21 48 4C48 1.79 46.21 0 44 0C42.524 0 41.248 0.81 40.554 2H38C34.692 2 32 4.692 32 8V18C32 19.106 32.896 20 34 20ZM4 8C5.476 8 6.752 7.19 7.446 6H10C11.102 6 12 6.896 12 8V18C12 19.106 12.896 20 14 20C15.104 20 16 19.106 16 18V8C16 4.692 13.308 2 10 2H7.446C6.754 0.81 5.478 0 4 0C1.79 0 0 1.79 0 4C0 6.21 1.79 8 4 8ZM22 7.446V18C22 19.106 22.896 20 24 20C25.104 20 26 19.106 26 18V7.446C27.19 6.754 28 5.478 28 4C28 1.79 26.21 0 24 0C21.79 0 20 1.79 20 4C20 5.476 20.81 6.752 22 7.446Z" fill="#00ADEF"/>
</g>
<defs>
<clipPath id="clip0_2548_454">
<rect width="48" height="48" fill="white"/>
</clipPath>
</defs>
</svg>
