<svg width="40" height="40" viewBox="0 0 40 40" fill="none" xmlns="http://www.w3.org/2000/svg">
<g clip-path="url(#clip0_2548_268)">
<path d="M35.4966 23.1418L34.745 22.7101C34.915 21.8034 35 20.8968 35 20.0018C35 19.1068 34.915 18.1984 34.745 17.2934L35.4966 16.8601C37.8866 15.4851 38.7133 12.4218 37.3383 10.0334C36.6733 8.87508 35.5966 8.04675 34.3066 7.69842C33.0183 7.35175 31.67 7.52675 30.5116 8.19009L29.7616 8.62175C28.36 7.42175 26.745 6.48842 25 5.87342V5.00342C25 2.24675 22.7566 0.00341797 20 0.00341797C17.2433 0.00341797 15 2.24675 15 5.00342V5.87342C13.255 6.49008 11.64 7.42175 10.2383 8.62175L9.4883 8.19175C8.33164 7.52508 6.9833 7.35175 5.6933 7.69842C4.4033 8.04675 3.32664 8.87675 2.66164 10.0334C1.28664 12.4234 2.1133 15.4851 4.5033 16.8618L5.25497 17.2934C5.08497 18.2001 4.99997 19.1068 4.99997 20.0018C4.99997 20.8968 5.08497 21.8051 5.25497 22.7101L4.5033 23.1434C2.1133 24.5184 1.28664 27.5818 2.66164 29.9701C3.32664 31.1284 4.4033 31.9568 5.6933 32.3051C6.98164 32.6551 8.33164 32.4784 9.4883 31.8134L10.2383 31.3818C11.64 32.5818 13.255 33.5151 15 34.1301V35.0001C15 37.7568 17.2433 40.0001 20 40.0001C22.7566 40.0001 25 37.7568 25 35.0001V34.1301C26.745 33.5134 28.36 32.5818 29.7616 31.3818L30.5116 31.8118C31.67 32.4784 33.0183 32.6551 34.3066 32.3051C35.5966 31.9568 36.6733 31.1268 37.3383 29.9701C38.7133 27.5801 37.8866 24.5184 35.4966 23.1418ZM31.2366 16.9018C31.5216 17.9418 31.6666 18.9851 31.6666 20.0001C31.6666 21.0151 31.5216 22.0584 31.2366 23.0984C31.035 23.8301 31.355 24.6068 32.0133 24.9851L33.835 26.0318C34.6316 26.4901 34.9083 27.5118 34.4483 28.3084C34.2266 28.6934 33.8683 28.9701 33.4383 29.0868C33.01 29.2051 32.56 29.1451 32.1733 28.9218L30.355 27.8768C29.695 27.4984 28.8633 27.6134 28.3333 28.1567C26.8516 29.6701 24.98 30.7518 22.9166 31.2834C22.18 31.4734 21.6666 32.1368 21.6666 32.8968V35.0001C21.6666 35.9184 20.9183 36.6668 20 36.6668C19.0816 36.6668 18.3333 35.9184 18.3333 35.0001V32.8968C18.3333 32.1368 17.8183 31.4734 17.0833 31.2834C15.0216 30.7518 13.1483 29.6701 11.6666 28.1567C11.345 27.8267 10.9116 27.6551 10.475 27.6551C10.1916 27.6551 9.90497 27.7268 9.64497 27.8768L7.82664 28.9218C7.43997 29.1434 6.9883 29.2018 6.56164 29.0868C6.13164 28.9701 5.7733 28.6951 5.55164 28.3084C5.0933 27.5118 5.36997 26.4918 6.16664 26.0334L7.9883 24.9868C8.64664 24.6084 8.96497 23.8318 8.76497 23.1001C8.47997 22.0601 8.33497 21.0168 8.33497 20.0018C8.33497 18.9868 8.47997 17.9434 8.76497 16.9034C8.96664 16.1718 8.64664 15.3951 7.9883 15.0168L6.16664 13.9701C5.36997 13.5118 5.0933 12.4901 5.5533 11.6934C5.77497 11.3084 6.1333 11.0318 6.5633 10.9151C6.9933 10.8001 7.4433 10.8584 7.8283 11.0801L9.64664 12.1251C10.3066 12.5051 11.1383 12.3884 11.6683 11.8451C13.15 10.3318 15.0216 9.25008 17.085 8.71842C17.8216 8.52842 18.335 7.86509 18.335 7.10509V5.00175C18.335 4.08342 19.0833 3.33508 20.0016 3.33508C20.92 3.33508 21.6683 4.08342 21.6683 5.00175V7.10509C21.6683 7.86509 22.1833 8.52842 22.9183 8.71842C24.98 9.25008 26.8533 10.3318 28.335 11.8451C28.8666 12.3884 29.6966 12.5051 30.3566 12.1251L32.175 11.0801C32.56 10.8568 33.0083 10.7968 33.44 10.9151C33.87 11.0318 34.2283 11.3068 34.45 11.6934C34.9083 12.4901 34.6316 13.5101 33.835 13.9684L32.0133 15.0151C31.355 15.3934 31.0366 16.1701 31.2366 16.9018ZM26.2416 24.4568C26.855 25.1434 26.7966 26.1968 26.1116 26.8101C25.7933 27.0951 25.3966 27.2351 25 27.2351C24.5416 27.2351 24.0866 27.0484 23.7566 26.6801C22.8 25.6117 21.43 25.0001 19.9983 25.0001C18.5666 25.0001 17.1966 25.6134 16.24 26.6801C15.6266 27.3651 14.5733 27.4251 13.8866 26.8101C13.2 26.1968 13.1433 25.1434 13.7566 24.4568C15.3433 22.6834 17.6183 21.6668 19.9983 21.6668C22.3783 21.6668 24.655 22.6834 26.2416 24.4568ZM15.8333 15.8334C15.8333 13.5318 17.6983 11.6668 20 11.6668C22.3016 11.6668 24.1666 13.5318 24.1666 15.8334C24.1666 18.1351 22.3016 20.0001 20 20.0001C17.6983 20.0001 15.8333 18.1351 15.8333 15.8334Z" fill="black"/>
</g>
<defs>
<clipPath id="clip0_2548_268">
<rect width="40" height="40" fill="white"/>
</clipPath>
</defs>
</svg>
