<svg width="22" height="22" viewBox="0 0 22 22" fill="none" xmlns="http://www.w3.org/2000/svg">
<path d="M20.6881 15.7199V18.7199C20.6892 18.9984 20.6322 19.2741 20.5206 19.5292C20.409 19.7844 20.2454 20.0135 20.0402 20.2018C19.835 20.39 19.5927 20.5334 19.3289 20.6226C19.065 20.7118 18.7855 20.745 18.5081 20.7199C15.4309 20.3855 12.4751 19.334 9.8781 17.6499C7.46193 16.1146 5.41344 14.0661 3.8781 11.6499C2.18808 9.04111 1.13635 6.0709 0.808105 2.9799C0.783115 2.70337 0.815979 2.42466 0.904605 2.16153C0.99323 1.89839 1.13568 1.65659 1.32287 1.45152C1.51007 1.24645 1.73791 1.08261 1.9919 0.970424C2.24588 0.858236 2.52045 0.800163 2.7981 0.799902H5.7981C6.28341 0.795125 6.7539 0.96698 7.12187 1.28343C7.48984 1.59989 7.73018 2.03935 7.7981 2.5199C7.92473 3.47997 8.15955 4.42263 8.49811 5.3299C8.63265 5.68783 8.66177 6.07682 8.58201 6.45078C8.50226 6.82475 8.31697 7.16801 8.0481 7.4399L6.7781 8.7099C8.20166 11.2134 10.2746 13.2863 12.7781 14.7099L14.0481 13.4399C14.32 13.171 14.6633 12.9858 15.0372 12.906C15.4112 12.8262 15.8002 12.8554 16.1581 12.9899C17.0654 13.3285 18.008 13.5633 18.9681 13.6899C19.4539 13.7584 19.8975 14.0031 20.2146 14.3774C20.5318 14.7517 20.7003 15.2295 20.6881 15.7199Z" stroke="white" stroke-width="1.6" stroke-linecap="round" stroke-linejoin="round"/>
</svg>
