<svg width="40" height="40" viewBox="0 0 40 40" fill="none" xmlns="http://www.w3.org/2000/svg">
<path d="M31.6667 1.6665H8.33333C3.73333 1.6665 0 5.39984 0 9.99984V29.9998C0 34.5998 3.73333 38.3332 8.33333 38.3332H31.6667C36.2667 38.3332 40 34.5998 40 29.9998V9.99984C40 5.39984 36.2667 1.6665 31.6667 1.6665ZM8.33333 4.99984H31.6667C34.4167 4.99984 36.6667 7.24984 36.6667 9.99984V13.3332H3.33333V9.99984C3.33333 7.24984 5.58333 4.99984 8.33333 4.99984ZM31.6667 34.9998H8.33333C5.58333 34.9998 3.33333 32.7498 3.33333 29.9998V16.6665H36.6667V29.9998C36.6667 32.7498 34.4167 34.9998 31.6667 34.9998ZM30 9.1665C30 7.78317 31.1167 6.6665 32.5 6.6665C33.8833 6.6665 35 7.78317 35 9.1665C35 10.5498 33.8833 11.6665 32.5 11.6665C31.1167 11.6665 30 10.5498 30 9.1665ZM23.3333 9.1665C23.3333 7.78317 24.45 6.6665 25.8333 6.6665C27.2167 6.6665 28.3333 7.78317 28.3333 9.1665C28.3333 10.5498 27.2167 11.6665 25.8333 11.6665C24.45 11.6665 23.3333 10.5498 23.3333 9.1665ZM16.6667 9.1665C16.6667 7.78317 17.7833 6.6665 19.1667 6.6665C20.55 6.6665 21.6667 7.78317 21.6667 9.1665C21.6667 10.5498 20.55 11.6665 19.1667 11.6665C17.7833 11.6665 16.6667 10.5498 16.6667 9.1665Z" fill="black"/>
</svg>
