<svg preserveAspectRatio="none" width="100%" height="100%" overflow="visible" style="display: block;" viewBox="0 0 472.917 327.714" fill="none" xmlns="http://www.w3.org/2000/svg">
<g id="Group">
<path id="Vector" d="M472.917 309.687H4.52346e-05V309.924H472.917V309.687Z" fill="var(--fill-0, #EBEBEB)"/>
<path id="Vector_2" d="M425.532 324.911H394.204V325.147H425.532V324.911Z" fill="var(--fill-0, #EBEBEB)"/>
<path id="Vector_3" d="M313.279 327.478H305.057V327.714H313.279V327.478Z" fill="var(--fill-0, #EBEBEB)"/>
<path id="Vector_4" d="M393.257 316.129H375.105V316.365H393.257V316.129Z" fill="var(--fill-0, #EBEBEB)"/>
<path id="Vector_5" d="M90.4709 317.717H49.6175V317.954H90.4709V317.717Z" fill="var(--fill-0, #EBEBEB)"/>
<path id="Vector_6" d="M104.882 317.717H98.8927V317.954H104.882V317.717Z" fill="var(--fill-0, #EBEBEB)"/>
<path id="Vector_7" d="M212.952 321.712H124.35V321.948H212.952V321.712Z" fill="var(--fill-0, #EBEBEB)"/>
<path id="Vector_8" d="M224.176 267.508H41.5364C38.5599 267.508 36.1376 265.086 36.1376 262.11V5.39844C36.1376 2.42211 38.5599 0 41.5364 0H224.176C227.152 0 229.574 2.42211 229.574 5.39844V262.11C229.574 265.086 227.152 267.508 224.176 267.508ZM41.5364 0.237387C38.6894 0.237387 36.374 2.55263 36.374 5.39939V262.111C36.374 264.958 38.6894 267.273 41.5364 267.273H224.176C227.022 267.273 229.337 264.958 229.337 262.111V5.39844C229.337 2.55263 227.022 0.236442 224.176 0.236442L41.5364 0.237387Z" fill="var(--fill-0, #EBEBEB)"/>
<path id="Vector_9" d="M428.756 267.508H246.117C243.141 267.508 240.72 265.086 240.72 262.11V5.39844C240.72 2.42211 243.142 0 246.117 0H428.756C431.734 0 434.155 2.42211 434.155 5.39844V262.11C434.156 265.086 431.734 267.508 428.756 267.508ZM246.117 0.237387C243.271 0.237387 240.956 2.55263 240.956 5.39939V262.111C240.956 264.958 243.271 267.273 246.117 267.273H428.756C431.603 267.273 433.918 264.958 433.918 262.111V5.39844C433.918 2.55263 431.603 0.236442 428.756 0.236442L246.117 0.237387Z" fill="var(--fill-0, #EBEBEB)"/>
</g>
</svg>
