<svg preserveAspectRatio="none" width="100%" height="100%" overflow="visible" style="display: block;" viewBox="0 0 282.813 176.7" fill="none" xmlns="http://www.w3.org/2000/svg">
<g id="Group">
<path id="Vector" d="M282.813 27.2333L260.125 28.6312L266.004 31.9366L141.363 95.9008L107.966 83.6436L6.87529 134.138L1.62988e-05 137.571L7.963 142.054L16.2967 137.893L108.43 91.8718L141.865 104.148L273.916 36.3855L278.63 39.0356L282.813 27.2333Z" fill="var(--fill-0, #00ADEF)"/>
<path id="Vector_2" d="M279.043 88.9218L256.354 90.3197L261.66 93.3026L109.955 168.775L103.041 172.217L111.024 176.7L119.319 172.577L269.632 97.7837L274.859 100.723L279.043 88.9218Z" fill="var(--fill-0, #00ADEF)"/>
<path id="Vector_3" d="M185.837 0L163.149 1.39784L168.455 4.3808L16.75 79.854L9.83592 83.2966L17.8188 87.7795L26.1137 83.656L176.426 8.86279L181.653 11.8022L185.837 0Z" fill="var(--fill-0, #00ADEF)"/>
<path id="Vector_4" opacity="0.3" d="M282.813 27.2333L260.125 28.6312L266.004 31.9366L141.363 95.9008L107.966 83.6436L6.87529 134.138L1.62988e-05 137.571L7.963 142.054L16.2967 137.893L108.43 91.8718L141.865 104.148L273.916 36.3855L278.63 39.0356L282.813 27.2333Z" fill="var(--fill-0, white)"/>
<path id="Vector_5" opacity="0.7" d="M279.043 88.9218L256.354 90.3197L261.66 93.3026L109.955 168.775L103.041 172.217L111.024 176.7L119.319 172.577L269.632 97.7837L274.859 100.723L279.043 88.9218Z" fill="var(--fill-0, white)"/>
<path id="Vector_6" opacity="0.5" d="M185.837 0L163.149 1.39784L168.455 4.3808L16.75 79.854L9.83592 83.2966L17.8188 87.7795L26.1137 83.656L176.426 8.86279L181.653 11.8022L185.837 0Z" fill="var(--fill-0, white)"/>
</g>
</svg>
