<svg preserveAspectRatio="none" width="100%" height="100%" overflow="visible" style="display: block;" viewBox="0 0 276.367 43.5204" fill="none" xmlns="http://www.w3.org/2000/svg">
<g id="Group">
<path id="Vector" d="M0 43.5204H276.367L267.29 33.5823L248.204 28.9027L240.72 16.4734L227.25 0H210.787L193.359 21.3904L168.896 24.4642L132.854 33.5823L110.628 38.2487L102.066 34.6501L48.6433 39.0848L31.6807 36.2257L0 43.5204Z" fill="var(--fill-0, #263238)"/>
<path id="Vector_2" opacity="0.7" d="M0 43.5204H276.367L267.29 33.5823L248.204 28.9027L240.72 16.4734L227.25 0H210.787L193.359 21.3904L168.896 24.4642L132.854 33.5823L110.628 38.2487L102.066 34.6501L48.6433 39.0848L31.6807 36.2257L0 43.5204Z" fill="var(--fill-0, white)"/>
<path id="Vector_3" opacity="0.2" d="M31.6807 36.2257L27.014 40.9621L45.9723 42.8811L50.9615 40.9621H90.1257L100.598 35.1977L111.39 39.2739L109.497 41.9599L160.799 39.2739L157.228 31.2463L168.896 24.4642L182.373 28.8639L185.915 34.5356L192.899 37.7191L193.359 21.3904L210.787 0L214.279 9.53332L225.826 6.48039L214.279 19.0241L206.619 22.0307L204.374 36.4215L223.831 29.7973L241.542 33.7279L248.204 28.9027L244.785 36.4215L228.072 39.2739L222.501 43.5204H0L31.6807 36.2257Z" fill="var(--fill-0, black)"/>
</g>
</svg>
