<svg preserveAspectRatio="none" width="100%" height="100%" overflow="visible" style="display: block;" viewBox="0 0 195.492 231.89" fill="none" xmlns="http://www.w3.org/2000/svg">
<g id="Group">
<g id="Group_2">
<path id="Vector" d="M139.573 38.8026C139.573 38.8026 157.111 37.7585 160.939 36.686C164.766 35.6135 181.934 27.3011 181.934 27.3011L184.376 32.2664C184.376 32.2664 165.669 44.2673 161.179 45.8022C156.689 47.3372 137.106 51.1818 137.106 51.1818L139.573 38.8026Z" fill="var(--fill-0, #263238)"/>
<path id="Vector_2" opacity="0.4" d="M184.38 32.2647C184.38 32.2647 165.672 44.2665 161.179 45.7986C158.323 46.7822 149.366 48.6926 143.218 49.9505C139.699 50.6693 137.108 51.18 137.108 51.18L138.782 42.81L139.576 38.7999C139.576 38.7999 157.112 37.7596 160.943 36.6814C164.764 35.6127 181.931 27.2994 181.931 27.2994L184.38 32.2647Z" fill="var(--fill-0, white)"/>
</g>
<path id="Vector_3" opacity="0.2" d="M143.217 49.9505C139.699 50.6693 137.107 51.18 137.107 51.18L139.203 45.5886C139.203 45.5886 142.167 46.8105 143.217 49.9505Z" fill="var(--fill-0, black)"/>
<path id="Vector_4" d="M133.095 26.129C131.189 29.2037 126.738 31.0366 124.7 32.9073C122.661 34.778 123.601 41.2386 110.284 39.3177C96.9678 37.3969 91.9786 40.0762 91.9786 40.0762C91.9786 40.0762 91.2304 37.1793 97.0927 34.7941C97.0927 34.7941 92.564 35.6689 91.2739 38.0296C91.2739 38.0296 90.9817 30.75 96.9688 28.5237C102.956 26.2973 102.083 17.0685 106.323 12.2045C110.563 7.34038 121.528 4.74236 127.895 9.28393C134.26 13.8255 135.568 22.1378 133.095 26.129Z" fill="var(--fill-0, #263238)"/>
<g id="Group_3">
<path id="Vector_5" d="M91.273 97.6688C91.273 97.6688 124.174 97.8807 131.047 94.4854C137.921 91.0901 137.073 57.6042 137.073 57.6042L107.837 66.9266C107.837 66.9266 106.989 83.5447 91.273 97.6688Z" fill="var(--fill-0, #263238)"/>
<path id="Vector_6" opacity="0.1" d="M91.273 97.6688C91.273 97.6688 124.174 97.8807 131.047 94.4854C137.921 91.0901 137.073 57.6042 137.073 57.6042L107.837 66.9266C107.837 66.9266 106.989 83.5447 91.273 97.6688Z" fill="var(--fill-0, white)"/>
<path id="Vector_7" d="M113.129 41.2223C116.397 40.5981 122.038 39.3639 125.115 39.3175C128.192 39.2712 130.456 41.0663 131.047 42.5133C131.638 43.9603 114.651 49.686 112.036 48.2825C109.421 46.878 109.059 41.9997 113.129 41.2223Z" fill="var(--fill-0, #263238)"/>
<path id="Vector_8" opacity="0.1" d="M113.129 41.2223C116.397 40.5981 122.038 39.3639 125.115 39.3175C128.192 39.2712 130.456 41.0663 131.047 42.5133C131.638 43.9603 114.651 49.686 112.036 48.2825C109.421 46.878 109.059 41.9997 113.129 41.2223Z" fill="var(--fill-0, white)"/>
</g>
<g id="Group_4">
<path id="Vector_9" d="M66.7342 229.168L68.0886 229.167L68.465 227.494L72.9483 229.518H84.3078C84.3078 229.518 86.1143 227.703 80.7041 226.255C80.4582 226.189 80.2029 226.095 79.938 225.962C77.0532 224.61 72.9483 220.042 72.9483 220.042H66.7153C66.7153 220.042 66.4977 220.354 66.2045 220.94C65.5226 222.312 64.3469 225.19 66.7342 229.168Z" fill="var(--fill-0, #263238)"/>
<path id="Vector_10" d="M66.2039 220.94C66.2039 220.95 66.2039 220.959 66.2039 220.959C67.0267 220.042 70.7719 224.071 73.5146 225.442C75.9642 226.662 78.7164 227.201 79.9364 225.962C77.0518 224.61 72.5159 218.705 72.5159 218.705H67.5043C67.5043 218.705 66.497 220.354 66.2039 220.94Z" fill="var(--fill-0, #FFC2BC)"/>
</g>
<path id="Vector_11" d="M71.9856 221.491L82.4143 199.192L73.3996 196.725L67.124 218.728" fill="var(--fill-0, #FFC2BC)"/>
<path id="Vector_12" d="M75.7537 216.924C75.7537 216.924 73.1564 216.686 71.1115 216.028C68.6987 215.253 67.6431 214.316 67.6431 214.316C71.155 195.718 79.1662 166.792 91.0166 152.508C105.807 95.8732 123.666 86.9282 123.666 86.9282L139.128 90.9789C139.128 90.9789 139.128 99.3206 133.716 109.798C127.35 122.123 114.973 140.734 106.159 156.23C95.9662 174.153 84.5859 195.302 75.7537 216.924Z" fill="var(--fill-0, #263238)"/>
<path id="Vector_13" opacity="0.2" d="M120.181 132.927C115.386 140.72 110.364 148.826 106.155 156.231C95.9681 174.153 84.5898 195.301 75.7557 216.921C75.7557 216.921 73.1546 216.684 71.1116 216.032C68.6997 215.256 67.6404 214.32 67.6404 214.32C71.1589 195.717 79.1607 166.795 91.012 152.505C95.5236 135.254 100.31 122.42 104.802 112.924C108.122 118.581 113.031 125.23 120.181 132.927Z" fill="var(--fill-0, white)"/>
<g id="Group_5">
<path id="Vector_14" d="M137.716 218.758L139.071 218.756L139.447 217.084L143.93 219.107H155.29C155.29 219.107 157.096 217.292 151.686 215.845C151.44 215.778 151.185 215.684 150.92 215.551C148.035 214.199 143.93 209.631 143.93 209.631H137.697C137.697 209.631 137.48 209.943 137.186 210.529C136.505 211.901 135.329 214.779 137.716 218.758Z" fill="var(--fill-0, #263238)"/>
<path id="Vector_15" d="M137.186 210.529C137.186 210.539 137.186 210.548 137.186 210.548C138.009 209.631 141.754 213.66 144.497 215.031C146.947 216.251 149.699 216.79 150.919 215.551C148.034 214.199 143.498 208.294 143.498 208.294H138.487C138.487 208.294 137.48 209.943 137.186 210.529Z" fill="var(--fill-0, #FFC2BC)"/>
</g>
<path id="Vector_16" d="M143.31 211.119L149.912 187.404L140.613 186.459L138.059 209.197" fill="var(--fill-0, #FFC2BC)"/>
<path id="Vector_17" d="M160.651 132.917C142.939 112.606 110.916 84.4067 110.916 84.4067C100.712 93.7556 101.341 110.076 112.302 118.525C121.112 125.318 133.092 133.45 148.6 141.749C140.882 164.42 138.29 188.932 138.015 204.707C138.015 204.707 139.42 205.515 141.946 205.95C144.966 206.47 146.916 205.928 146.916 205.928C151.387 187.441 158.428 163.542 162.883 145.918C164.425 140.096 164.153 136.315 160.651 132.917Z" fill="var(--fill-0, #263238)"/>
<path id="Vector_18" opacity="0.2" d="M160.651 132.917C142.939 112.606 110.916 84.4067 110.916 84.4067C100.712 93.7556 101.341 110.076 112.302 118.525C121.112 125.318 133.092 133.45 148.6 141.749C140.882 164.42 138.29 188.932 138.015 204.707C138.015 204.707 139.42 205.515 141.946 205.95C144.966 206.47 146.916 205.928 146.916 205.928C151.387 187.441 158.428 163.542 162.883 145.918C164.425 140.096 164.153 136.315 160.651 132.917Z" fill="var(--fill-0, white)"/>
<g id="Group_6">
<path id="Vector_19" d="M182.576 27.3534L187.337 21.622L191.069 27.7317C191.069 27.7317 185.744 32.3933 183.984 31.0494L182.576 27.3534Z" fill="var(--fill-0, #EEC1BB)"/>
<path id="Vector_20" d="M194.001 21.417L195.492 26.3387L191.07 27.7319L187.338 21.6222L194.001 21.417Z" fill="var(--fill-0, #EEC1BB)"/>
</g>
<g id="Group_7">
<path id="Vector_21" d="M179.949 27.4072L182.68 33.7505L185.204 32.3139L182.705 26.3546L179.949 27.4072Z" fill="var(--fill-0, #00ADEF)"/>
<path id="Vector_22" opacity="0.4" d="M179.949 27.4072L182.68 33.7505L185.204 32.3139L182.705 26.3546L179.949 27.4072Z" fill="var(--fill-0, white)"/>
</g>
<path id="Vector_23" d="M113.061 43.1243C113.061 43.1243 125.715 48.3856 124.279 40.8138C124.279 40.8138 132.616 40.0364 139.199 39.3176C139.199 39.3176 140.99 56.3329 138.579 83.4102L140.299 96.5053L130.399 99.4968L127.136 89.9984L123.187 99.9924L102.474 93.5233L108.716 80.9418C108.716 80.9418 107.712 61.3351 102.474 50.734C102.474 50.734 103.385 46.9537 113.061 43.1243Z" fill="var(--fill-0, #00ADEF)"/>
<path id="Vector_24" d="M114.107 28.718C115.262 32.99 116.681 40.8162 113.905 43.6658C113.905 43.6658 110.023 47.4101 121.298 47.0687C122.278 49.4161 126.074 53.726 126.074 53.726C126.074 53.726 126.813 47.1018 126.031 45.3909C129.19 42.3569 122.755 40.0757 122.755 40.0757C122.755 40.0757 122.192 38.9956 122.775 35.676L114.107 28.718Z" fill="var(--fill-0, #EEC1BB)"/>
<path id="Vector_25" opacity="0.2" d="M117.641 31.5574L122.771 35.6724C122.63 36.4574 122.534 37.2547 122.537 38.0293C120.698 37.7663 118.05 35.7689 117.714 33.8632C117.546 32.9127 117.519 32 117.641 31.5574Z" fill="var(--fill-0, black)"/>
<g id="Group_8">
<path id="Vector_26" d="M110.458 20.1446C111.754 27.042 112.157 29.9805 116.093 33.2888C122.014 38.2655 130.148 35.6324 130.925 28.6007C131.625 22.2716 129.388 12.0554 122.28 9.778C115.277 7.53464 109.162 13.2471 110.458 20.1446Z" fill="var(--fill-0, #EEC1BB)"/>
<path id="Vector_27" d="M116.389 15.1615C112.582 20.0729 120.4 25.721 112.582 25.3938C104.765 25.0665 107.941 14.0275 112.582 11.5184C117.224 9.01024 116.389 15.1615 116.389 15.1615Z" fill="var(--fill-0, #263238)"/>
<path id="Vector_28" d="M121.385 21.2946C121.469 21.8782 121.839 22.3295 122.213 22.3011C122.587 22.2737 122.823 21.778 122.738 21.1943C122.654 20.6106 122.283 20.1594 121.91 20.1877C121.536 20.2152 121.301 20.7109 121.385 21.2946Z" fill="var(--fill-0, #263238)"/>
<path id="Vector_29" d="M128.43 20.8788C128.514 21.4624 128.885 21.9137 129.259 21.8853C129.632 21.8579 129.868 21.3622 129.784 20.7785C129.7 20.1948 129.329 19.7436 128.955 19.7719C128.581 19.7994 128.347 20.2951 128.43 20.8788Z" fill="var(--fill-0, #263238)"/>
<path id="Vector_30" d="M128.795 19.8172L130.112 19.3117C130.112 19.3117 129.563 20.459 128.795 19.8172Z" fill="var(--fill-0, #263238)"/>
<path id="Vector_31" d="M126.607 21.9802C126.607 21.9802 127.938 24.4218 129.181 25.5551C128.529 26.3299 127.199 26.0962 127.199 26.0962L126.607 21.9802Z" fill="var(--fill-0, #D4827D)"/>
<path id="Vector_32" d="M124.221 28.4948C124.525 28.5269 124.848 28.5336 125.191 28.508C125.284 28.5014 125.348 28.4191 125.334 28.3236C125.321 28.2299 125.237 28.159 125.141 28.1646C122.634 28.351 121.203 26.6473 121.189 26.6293C121.127 26.5536 121.02 26.5385 120.95 26.5962C120.88 26.6539 120.872 26.7617 120.934 26.8364C120.99 26.9046 122.142 28.2772 124.221 28.4948Z" fill="var(--fill-0, #263238)"/>
<path id="Vector_33" d="M119.418 18.1568C119.508 18.1587 119.595 18.1237 119.659 18.0537C120.637 16.9592 121.877 17.1938 121.891 17.1967C122.075 17.2317 122.247 17.1134 122.27 16.9271C122.294 16.7407 122.162 16.56 121.975 16.5222C121.91 16.5099 120.354 16.2138 119.14 17.5722C119.019 17.7075 119.037 17.9251 119.18 18.0585C119.249 18.1228 119.334 18.1559 119.418 18.1568Z" fill="var(--fill-0, #263238)"/>
<path id="Vector_34" d="M130.015 17.5273C130.1 17.5339 130.184 17.5093 130.251 17.4506C130.387 17.3305 130.392 17.1148 130.262 16.9691C128.96 15.5066 127.409 15.6608 127.343 15.6684C127.157 15.6892 127.035 15.8576 127.069 16.0458C127.103 16.2331 127.281 16.3684 127.466 16.3486C127.526 16.3419 128.732 16.2398 129.767 17.4033C129.835 17.4781 129.925 17.5206 130.015 17.5273Z" fill="var(--fill-0, #263238)"/>
<path id="Vector_35" d="M121.75 20.2322L123.066 19.7267C123.066 19.7267 122.518 20.874 121.75 20.2322Z" fill="var(--fill-0, #263238)"/>
<path id="Vector_36" d="M119.059 11.3389C119.059 11.3389 117.705 19.4687 112.304 20.8288C106.903 22.1888 111.288 12.47 111.288 12.47C111.288 12.47 112.422 8.06467 119.718 8.06467C127.014 8.06467 135.433 15.4757 133.095 26.1288C133.095 26.1288 133.496 22.5727 131.878 19.7714C130.261 16.9691 128.597 19.3827 119.059 11.3389Z" fill="var(--fill-0, #263238)"/>
<path id="Vector_37" d="M109.788 26.7955C110.495 28.2094 111.654 29.0814 112.721 29.3642C114.326 29.7898 115.023 27.9503 114.488 26.1117C114.007 24.4576 112.592 22.2426 111.024 22.6427C109.479 23.037 108.981 25.1783 109.788 26.7955Z" fill="var(--fill-0, #EEC1BB)"/>
</g>
<g id="Group_9">
<path id="Vector_38" d="M111.575 42.9195C111.575 42.9195 113.807 68.7342 104.64 85.5708C95.4734 102.407 91.1566 104.933 91.1566 104.933L87.4148 97.669C87.4148 97.669 104.385 78.6099 104.91 76.1244C105.435 73.639 101.81 49.9541 101.81 49.9541C101.81 49.9541 106.582 45.3539 111.575 42.9195Z" fill="var(--fill-0, #263238)"/>
<path id="Vector_39" opacity="0.4" d="M104.637 85.5677C95.4716 102.412 91.1586 104.937 91.1586 104.937L87.4131 97.6641C87.4131 97.6641 104.381 78.6069 104.911 76.1195C105.062 75.3818 104.854 72.762 104.476 69.4424C104.088 65.9809 103.521 61.7627 103.01 58.1405C102.367 53.5724 101.809 49.9501 101.809 49.9501C101.809 49.9501 106.585 45.3537 111.579 42.9231C111.579 42.9231 113.811 68.7331 104.637 85.5677Z" fill="var(--fill-0, white)"/>
<path id="Vector_40" d="M113.129 41.222C113.129 41.222 110.375 41.5577 109.756 42.9158C109.137 44.2749 103.384 51.4296 103.384 51.4296L109.405 49.9523L105.866 53.0847C105.866 53.0847 108.997 62.8346 109.677 71.4118C109.677 71.4118 115.039 56.9822 111.575 42.9187L113.129 41.222Z" fill="var(--fill-0, #263238)"/>
<path id="Vector_41" opacity="0.25" d="M113.129 41.222C113.129 41.222 110.375 41.5577 109.756 42.9158C109.137 44.2749 103.384 51.4296 103.384 51.4296L109.405 49.9523L105.866 53.0847C105.866 53.0847 108.997 62.8346 109.677 71.4118C109.677 71.4118 115.039 56.9822 111.575 42.9187L113.129 41.222Z" fill="var(--fill-0, white)"/>
</g>
<g id="Group_10">
<path id="Vector_42" d="M128.343 39.8716C128.343 39.8716 137.824 43.3321 139.127 76.4047C139.127 76.4047 141.256 51.1498 139.572 38.8028L128.343 39.8716Z" fill="var(--fill-0, #263238)"/>
<path id="Vector_43" opacity="0.4" d="M128.343 39.8716C128.343 39.8716 137.824 43.3321 139.127 76.4047C139.127 76.4047 141.256 51.1498 139.572 38.8028L128.343 39.8716Z" fill="var(--fill-0, white)"/>
<path id="Vector_44" d="M124.7 39.3174C124.7 39.3174 126.696 39.0214 128.067 38.8029C129.439 38.5845 140.068 44.5693 140.068 44.5693L134.927 45.5888L138.669 46.9536C138.669 46.9536 139.983 59.2249 138.327 66.9263C138.327 66.9263 135.27 48.6238 128.94 41.2222C127.128 39.1018 124.7 39.3174 124.7 39.3174Z" fill="var(--fill-0, #263238)"/>
<path id="Vector_45" opacity="0.25" d="M124.7 39.3174C124.7 39.3174 126.696 39.0214 128.067 38.8029C129.439 38.5845 140.068 44.5693 140.068 44.5693L134.927 45.5888L138.669 46.9536C138.669 46.9536 139.983 59.2249 138.327 66.9263C138.327 66.9263 135.27 48.6238 128.94 41.2222C127.128 39.1018 124.7 39.3174 124.7 39.3174Z" fill="var(--fill-0, white)"/>
</g>
<g id="Group_11">
<path id="Vector_46" d="M122.755 40.0744C122.755 40.0744 126.476 42.6677 126.031 45.3896L133.492 45.5873C133.492 45.5873 128.625 40.5265 122.755 40.0744Z" fill="var(--fill-0, #00ADEF)"/>
<path id="Vector_47" d="M112.416 49.9531L121.297 47.0685C121.297 47.0685 116.596 43.276 115.13 41.2237L112.199 43.4273C112.199 43.4273 112.199 43.4273 112.189 43.4368C112.123 43.5976 111.253 45.7539 112.416 49.9531Z" fill="var(--fill-0, #00ADEF)"/>
<path id="Vector_48" opacity="0.4" d="M122.755 40.0744C122.755 40.0744 126.476 42.6677 126.031 45.3896L133.492 45.5873C133.492 45.5873 128.625 40.5265 122.755 40.0744Z" fill="var(--fill-0, white)"/>
<path id="Vector_49" opacity="0.4" d="M112.416 49.9531L121.297 47.0685C121.297 47.0685 116.596 43.276 115.13 41.2237L112.199 43.4273C112.199 43.4273 112.199 43.4273 112.189 43.4368C112.123 43.5976 111.253 45.7539 112.416 49.9531Z" fill="var(--fill-0, white)"/>
</g>
<g id="Group_12">
<path id="Vector_50" d="M69.1559 69.7848L62.4173 66.6051L61.62 73.7201C61.62 73.7201 68.4173 75.692 69.4434 73.7296L69.1559 69.7848Z" fill="var(--fill-0, #EEC1BB)"/>
<path id="Vector_51" d="M56.2924 69.2378L57.0234 74.327L61.6199 73.7188L62.4172 66.6048L56.2924 69.2378Z" fill="var(--fill-0, #EEC1BB)"/>
</g>
<g id="Group_13">
<path id="Vector_52" d="M67.3415 3.6167C67.3415 3.6167 50.3685 -3.43494 34.8701 7.69296C25.8667 14.1573 20.1425 29.0389 0 23.247C0 23.247 18.352 43.669 30.3736 41.1211C42.3951 38.5732 39.9842 31.7892 64.3224 38.438L67.3415 3.6167Z" fill="var(--fill-0, #00ADEF)"/>
<path id="Vector_53" d="M68.4451 2.06673L66.1845 1.92245L51.5144 231.746L53.7749 231.89L68.4451 2.06673Z" fill="var(--fill-0, #263238)"/>
<path id="Vector_54" d="M68.8516 1.95719C68.6321 2.78967 67.7788 3.28727 66.9464 3.0678C66.1139 2.84833 65.6163 1.99503 65.8357 1.16256C66.0552 0.330081 66.9085 -0.167509 67.741 0.0519623C68.5735 0.271433 69.0711 1.12471 68.8516 1.95719Z" fill="var(--fill-0, #263238)"/>
</g>
<path id="Vector_55" d="M112.143 9.28364C112.143 9.28364 104.86 10.2162 102.474 18.1634C100.086 26.1107 93.351 26.0124 93.351 26.0124" stroke="var(--stroke-0, #263238)" stroke-width="0.464678" stroke-miterlimit="10" stroke-linecap="round" stroke-linejoin="round"/>
<path id="Vector_56" d="M118.597 8.06474C118.597 8.06474 129.105 6.80309 133.493 15.6611C138.252 25.2673 131.641 29.4277 131.641 29.4277" stroke="var(--stroke-0, #263238)" stroke-width="0.464678" stroke-miterlimit="10" stroke-linecap="round" stroke-linejoin="round"/>
<path id="Vector_57" opacity="0.2" d="M104.476 69.4431C104.088 65.9816 103.521 61.7634 103.01 58.1411C103.379 57.725 103.785 57.4224 104.239 57.2427C104.239 57.2427 107.237 64.2792 104.476 69.4431Z" fill="var(--fill-0, black)"/>
<g id="Group_14">
<path id="Vector_58" d="M101.81 49.9538C101.81 49.9538 90.6715 67.3559 88.1773 68.575C85.6831 69.7941 70.3975 69.2502 70.3975 69.2502L69.3779 75.0677C69.3779 75.0677 86.8456 78.0809 91.5851 76.4059C96.3247 74.731 104.192 64.0589 104.192 64.0589C104.192 64.0589 105.362 53.9648 101.81 49.9538Z" fill="var(--fill-0, #263238)"/>
<path id="Vector_59" opacity="0.4" d="M101.81 49.9538C101.81 49.9538 90.6715 67.3559 88.1773 68.575C85.6831 69.7941 70.3975 69.2502 70.3975 69.2502L69.3779 75.0677C69.3779 75.0677 86.8456 78.0809 91.5851 76.4059C96.3247 74.731 104.192 64.0589 104.192 64.0589C104.192 64.0589 105.362 53.9648 101.81 49.9538Z" fill="var(--fill-0, white)"/>
</g>
<g id="Group_15">
<path id="Vector_60" d="M70.4136 75.7948L71.3092 68.9465L68.4057 68.8907L67.5072 75.2907L70.4136 75.7948Z" fill="var(--fill-0, #00ADEF)"/>
<path id="Vector_61" opacity="0.4" d="M70.4136 75.7948L71.3092 68.9465L68.4057 68.8907L67.5072 75.2907L70.4136 75.7948Z" fill="var(--fill-0, white)"/>
</g>
</g>
</svg>
