<svg preserveAspectRatio="none" width="100%" height="100%" overflow="visible" style="display: block;" viewBox="0 0 59.1014 70.2784" fill="none" xmlns="http://www.w3.org/2000/svg">
<g id="Group">
<path id="Vector" d="M36.9243 54.5529H26.3452L22.1703 70.2782L36.9243 54.5529Z" fill="var(--fill-0, #00ADEF)"/>
<path id="Vector_2" opacity="0.8" d="M36.9243 54.5529H26.3452L22.1703 70.2782L36.9243 54.5529Z" fill="var(--fill-0, white)"/>
<path id="Vector_3" d="M0 48.9331V10.1642C0 4.55103 4.55135 0 10.1649 0H48.9365C54.55 0 59.1014 4.55103 59.1014 10.1642V48.9331C59.1014 54.5462 54.55 59.0972 48.9365 59.0972H10.1649C4.5504 59.0972 0 54.5462 0 48.9331Z" fill="var(--fill-0, #00ADEF)"/>
<path id="Vector_4" opacity="0.8" d="M0 48.9331V10.1642C0 4.55103 4.55135 0 10.1649 0H48.9365C54.55 0 59.1014 4.55103 59.1014 10.1642V48.9331C59.1014 54.5462 54.55 59.0972 48.9365 59.0972H10.1649C4.5504 59.0972 0 54.5462 0 48.9331Z" fill="var(--fill-0, white)"/>
<g id="Group_2">
<path id="Vector_5" d="M24.5907 44.0718H10.4382V49.4731H24.5907V44.0718Z" fill="var(--fill-0, #263238)"/>
<path id="Vector_6" opacity="0.4" d="M24.5907 44.0718H10.4382V49.4731H24.5907V44.0718Z" fill="var(--fill-0, white)"/>
<path id="Vector_7" opacity="0.2" d="M23.6873 42.9492L21.0373 49.4731H26.9294L23.6873 42.9492Z" fill="var(--fill-0, black)"/>
<path id="Vector_8" d="M48.6613 41.266H35.1624V49.4734H48.6613V41.266Z" fill="var(--fill-0, #263238)"/>
<path id="Vector_9" opacity="0.4" d="M48.6613 41.266H35.1624V49.4734H48.6613V41.266Z" fill="var(--fill-0, white)"/>
<path id="Vector_10" opacity="0.2" d="M35.8989 41.266L39.8389 49.4734H32.4487L33.8523 41.266H35.8989Z" fill="var(--fill-0, black)"/>
<path id="Vector_11" d="M29.5493 11.163L20.5692 15.0076L29.5493 18.7282V11.163Z" fill="var(--fill-0, #00ADEF)"/>
<path id="Vector_12" d="M29.8998 10.2166H29.1999V39.3008H29.8998V10.2166Z" fill="var(--fill-0, #263238)"/>
<path id="Vector_13" opacity="0.2" d="M29.8998 10.2166H29.1999V39.3008H29.8998V10.2166Z" fill="var(--fill-0, white)"/>
<path id="Vector_14" d="M30.175 10.2493C30.175 10.5938 29.8958 10.8731 29.5512 10.8731C29.2067 10.8731 28.9274 10.5938 28.9274 10.2493C28.9274 9.9047 29.2067 9.62545 29.5512 9.62545C29.8958 9.62451 30.175 9.90375 30.175 10.2493Z" fill="var(--fill-0, #263238)"/>
<path id="Vector_15" d="M35.8983 36.7752H23.2013V49.4722H35.8983V36.7752Z" fill="var(--fill-0, #263238)"/>
<path id="Vector_16" opacity="0.4" d="M35.8983 36.7752H23.2013V49.4722H35.8983V36.7752Z" fill="var(--fill-0, white)"/>
</g>
</g>
</svg>
