<svg preserveAspectRatio="none" width="100%" height="100%" overflow="visible" style="display: block;" viewBox="0 0 361.376 261.541" fill="none" xmlns="http://www.w3.org/2000/svg">
<g id="Group">
<g id="Group_2">
<path id="Vector" d="M0 261.541V216.338H3.86563V194.799H9.51604V119.911H17.6843V110.248L35.1245 102.115V92.3724H37.5402V119.911H40.9225V194.799H44.3048V155.423H53.485V135.131H56.0473V194.799H63.02V172.091H67.6101V166.294H78.2394V146.485H84.061V132.473H91.2172V112.06H93.77V132.473H100.926V146.485H106.748V166.294H117.377V172.091H121.968V194.799H127.412V166.294H138.042V104.934H141.424V98.17H164.133V104.934H168.966V149.383H188.293V153.732H195.54V157.114H188.293V174.507H208.586V116.529H212.935V104.209H222.357V60.484H225.014V104.209H231.779V116.529H271.436V112.474H273.852V140.014H277.234V140.497H279.266V168.036H282.648V175.524H289.797V155.233H292.359V203.547H295.211V183.255H297.773V214.901H299.332V192.193H303.922V186.396H314.551V166.587H320.373V152.575H327.529V132.163H330.082V152.575H337.238V166.587H343.06V186.396H353.689V192.193H358.279V214.418H359.103V214.901H361.376V261.541H0Z" fill="var(--fill-0, #E6E6E6)"/>
<g id="Group_3">
<path id="Vector_2" d="M249.309 119.239H246.57V121.978H249.309V119.239Z" fill="var(--fill-0, #F0F0F0)"/>
<path id="Vector_3" d="M249.309 123.829H246.57V126.568H249.309V123.829Z" fill="var(--fill-0, #F0F0F0)"/>
<path id="Vector_4" d="M249.309 142.189H246.57V144.927H249.309V142.189Z" fill="var(--fill-0, #F0F0F0)"/>
<path id="Vector_5" d="M249.309 146.778H246.57V149.517H249.309V146.778Z" fill="var(--fill-0, #F0F0F0)"/>
<path id="Vector_6" d="M249.309 151.368H246.57V154.106H249.309V151.368Z" fill="var(--fill-0, #F0F0F0)"/>
<path id="Vector_7" d="M249.309 165.138H246.57V167.877H249.309V165.138Z" fill="var(--fill-0, #F0F0F0)"/>
<path id="Vector_8" d="M249.309 169.727H246.57V172.466H249.309V169.727Z" fill="var(--fill-0, #F0F0F0)"/>
<path id="Vector_9" d="M244.961 137.599H242.222V140.337H244.961V137.599Z" fill="var(--fill-0, #F0F0F0)"/>
<path id="Vector_10" d="M244.961 142.189H242.222V144.927H244.961V142.189Z" fill="var(--fill-0, #F0F0F0)"/>
<path id="Vector_11" d="M244.961 146.778H242.222V149.517H244.961V146.778Z" fill="var(--fill-0, #F0F0F0)"/>
<path id="Vector_12" d="M244.961 151.368H242.222V154.106H244.961V151.368Z" fill="var(--fill-0, #F0F0F0)"/>
<path id="Vector_13" d="M244.961 155.958H242.222V158.696H244.961V155.958Z" fill="var(--fill-0, #F0F0F0)"/>
<path id="Vector_14" d="M244.961 165.138H242.222V167.877H244.961V165.138Z" fill="var(--fill-0, #F0F0F0)"/>
<path id="Vector_15" d="M244.961 169.727H242.222V172.466H244.961V169.727Z" fill="var(--fill-0, #F0F0F0)"/>
<path id="Vector_16" d="M240.612 119.239H237.873V121.978H240.612V119.239Z" fill="var(--fill-0, #F0F0F0)"/>
<path id="Vector_17" d="M240.612 123.829H237.873V126.568H240.612V123.829Z" fill="var(--fill-0, #F0F0F0)"/>
<path id="Vector_18" d="M240.612 128.419H237.873V131.158H240.612V128.419Z" fill="var(--fill-0, #F0F0F0)"/>
<path id="Vector_19" d="M240.612 133.009H237.873V135.748H240.612V133.009Z" fill="var(--fill-0, #F0F0F0)"/>
<path id="Vector_20" d="M240.612 137.599H237.873V140.337H240.612V137.599Z" fill="var(--fill-0, #F0F0F0)"/>
<path id="Vector_21" d="M240.612 142.189H237.873V144.927H240.612V142.189Z" fill="var(--fill-0, #F0F0F0)"/>
<path id="Vector_22" d="M240.612 146.778H237.873V149.517H240.612V146.778Z" fill="var(--fill-0, #F0F0F0)"/>
<path id="Vector_23" d="M240.612 151.368H237.873V154.106H240.612V151.368Z" fill="var(--fill-0, #F0F0F0)"/>
<path id="Vector_24" d="M240.612 155.958H237.873V158.696H240.612V155.958Z" fill="var(--fill-0, #F0F0F0)"/>
<path id="Vector_25" d="M240.612 160.547H237.873V163.286H240.612V160.547Z" fill="var(--fill-0, #F0F0F0)"/>
<path id="Vector_26" d="M240.612 169.727H237.873V172.466H240.612V169.727Z" fill="var(--fill-0, #F0F0F0)"/>
<path id="Vector_27" d="M236.263 119.239H233.525V121.978H236.263V119.239Z" fill="var(--fill-0, #F0F0F0)"/>
<path id="Vector_28" d="M236.263 123.829H233.525V126.568H236.263V123.829Z" fill="var(--fill-0, #F0F0F0)"/>
<path id="Vector_29" d="M236.263 128.419H233.525V131.158H236.263V128.419Z" fill="var(--fill-0, #F0F0F0)"/>
<path id="Vector_30" d="M236.263 133.009H233.525V135.748H236.263V133.009Z" fill="var(--fill-0, #F0F0F0)"/>
<path id="Vector_31" d="M236.263 137.599H233.525V140.337H236.263V137.599Z" fill="var(--fill-0, #F0F0F0)"/>
<path id="Vector_32" d="M236.263 142.189H233.525V144.927H236.263V142.189Z" fill="var(--fill-0, #F0F0F0)"/>
<path id="Vector_33" d="M236.263 146.778H233.525V149.517H236.263V146.778Z" fill="var(--fill-0, #F0F0F0)"/>
<path id="Vector_34" d="M236.263 188.088H233.525V190.826H236.263V188.088Z" fill="var(--fill-0, #F0F0F0)"/>
<path id="Vector_35" d="M231.915 119.239H229.176V121.978H231.915V119.239Z" fill="var(--fill-0, #F0F0F0)"/>
<path id="Vector_36" d="M231.915 123.829H229.176V126.568H231.915V123.829Z" fill="var(--fill-0, #F0F0F0)"/>
<path id="Vector_37" d="M231.915 128.419H229.176V131.158H231.915V128.419Z" fill="var(--fill-0, #F0F0F0)"/>
<path id="Vector_38" d="M231.915 133.009H229.176V135.748H231.915V133.009Z" fill="var(--fill-0, #F0F0F0)"/>
<path id="Vector_39" d="M231.915 137.599H229.176V140.337H231.915V137.599Z" fill="var(--fill-0, #F0F0F0)"/>
<path id="Vector_40" d="M231.915 142.189H229.176V144.927H231.915V142.189Z" fill="var(--fill-0, #F0F0F0)"/>
<path id="Vector_41" d="M231.915 146.778H229.176V149.517H231.915V146.778Z" fill="var(--fill-0, #F0F0F0)"/>
<path id="Vector_42" d="M231.915 151.368H229.176V154.106H231.915V151.368Z" fill="var(--fill-0, #F0F0F0)"/>
<path id="Vector_43" d="M231.915 178.908H229.176V181.646H231.915V178.908Z" fill="var(--fill-0, #F0F0F0)"/>
<path id="Vector_44" d="M231.915 183.498H229.176V186.236H231.915V183.498Z" fill="var(--fill-0, #F0F0F0)"/>
<path id="Vector_45" d="M231.915 188.088H229.176V190.826H231.915V188.088Z" fill="var(--fill-0, #F0F0F0)"/>
<path id="Vector_46" d="M231.915 192.677H229.176V195.416H231.915V192.677Z" fill="var(--fill-0, #F0F0F0)"/>
<path id="Vector_47" d="M231.915 211.037H229.176V213.776H231.915V211.037Z" fill="var(--fill-0, #F0F0F0)"/>
<path id="Vector_48" d="M227.566 119.239H224.828V121.978H227.566V119.239Z" fill="var(--fill-0, #F0F0F0)"/>
<path id="Vector_49" d="M227.566 123.829H224.828V126.568H227.566V123.829Z" fill="var(--fill-0, #F0F0F0)"/>
<path id="Vector_50" d="M227.566 128.419H224.828V131.158H227.566V128.419Z" fill="var(--fill-0, #F0F0F0)"/>
<path id="Vector_51" d="M227.566 133.009H224.828V135.748H227.566V133.009Z" fill="var(--fill-0, #F0F0F0)"/>
<path id="Vector_52" d="M227.566 137.599H224.828V140.337H227.566V137.599Z" fill="var(--fill-0, #F0F0F0)"/>
<path id="Vector_53" d="M227.566 142.189H224.828V144.927H227.566V142.189Z" fill="var(--fill-0, #F0F0F0)"/>
<path id="Vector_54" d="M227.566 146.778H224.828V149.517H227.566V146.778Z" fill="var(--fill-0, #F0F0F0)"/>
<path id="Vector_55" d="M227.566 151.368H224.828V154.106H227.566V151.368Z" fill="var(--fill-0, #F0F0F0)"/>
<path id="Vector_56" d="M227.566 155.958H224.828V158.696H227.566V155.958Z" fill="var(--fill-0, #F0F0F0)"/>
<path id="Vector_57" d="M227.566 160.547H224.828V163.286H227.566V160.547Z" fill="var(--fill-0, #F0F0F0)"/>
<path id="Vector_58" d="M227.566 174.318H224.828V177.056H227.566V174.318Z" fill="var(--fill-0, #F0F0F0)"/>
<path id="Vector_59" d="M227.566 178.908H224.828V181.646H227.566V178.908Z" fill="var(--fill-0, #F0F0F0)"/>
<path id="Vector_60" d="M227.566 183.498H224.828V186.236H227.566V183.498Z" fill="var(--fill-0, #F0F0F0)"/>
<path id="Vector_61" d="M227.566 188.088H224.828V190.826H227.566V188.088Z" fill="var(--fill-0, #F0F0F0)"/>
<path id="Vector_62" d="M227.566 192.677H224.828V195.416H227.566V192.677Z" fill="var(--fill-0, #F0F0F0)"/>
<path id="Vector_63" d="M227.566 211.037H224.828V213.776H227.566V211.037Z" fill="var(--fill-0, #F0F0F0)"/>
<path id="Vector_64" d="M223.217 119.239H220.479V121.978H223.217V119.239Z" fill="var(--fill-0, #F0F0F0)"/>
<path id="Vector_65" d="M223.217 123.829H220.479V126.568H223.217V123.829Z" fill="var(--fill-0, #F0F0F0)"/>
<path id="Vector_66" d="M223.217 128.419H220.479V131.158H223.217V128.419Z" fill="var(--fill-0, #F0F0F0)"/>
<path id="Vector_67" d="M223.217 133.009H220.479V135.748H223.217V133.009Z" fill="var(--fill-0, #F0F0F0)"/>
<path id="Vector_68" d="M223.217 137.599H220.479V140.337H223.217V137.599Z" fill="var(--fill-0, #F0F0F0)"/>
<path id="Vector_69" d="M223.217 142.189H220.479V144.927H223.217V142.189Z" fill="var(--fill-0, #F0F0F0)"/>
<path id="Vector_70" d="M223.217 146.778H220.479V149.517H223.217V146.778Z" fill="var(--fill-0, #F0F0F0)"/>
<path id="Vector_71" d="M223.217 151.368H220.479V154.106H223.217V151.368Z" fill="var(--fill-0, #F0F0F0)"/>
<path id="Vector_72" d="M223.217 155.958H220.479V158.696H223.217V155.958Z" fill="var(--fill-0, #F0F0F0)"/>
<path id="Vector_73" d="M223.217 160.547H220.479V163.286H223.217V160.547Z" fill="var(--fill-0, #F0F0F0)"/>
<path id="Vector_74" d="M223.217 165.138H220.479V167.877H223.217V165.138Z" fill="var(--fill-0, #F0F0F0)"/>
<path id="Vector_75" d="M223.217 169.727H220.479V172.466H223.217V169.727Z" fill="var(--fill-0, #F0F0F0)"/>
<path id="Vector_76" d="M223.217 174.318H220.479V177.056H223.217V174.318Z" fill="var(--fill-0, #F0F0F0)"/>
<path id="Vector_77" d="M223.217 178.908H220.479V181.646H223.217V178.908Z" fill="var(--fill-0, #F0F0F0)"/>
<path id="Vector_78" d="M223.217 183.498H220.479V186.236H223.217V183.498Z" fill="var(--fill-0, #F0F0F0)"/>
<path id="Vector_79" d="M223.217 188.088H220.479V190.826H223.217V188.088Z" fill="var(--fill-0, #F0F0F0)"/>
<path id="Vector_80" d="M223.217 192.677H220.479V195.416H223.217V192.677Z" fill="var(--fill-0, #F0F0F0)"/>
<path id="Vector_81" d="M223.217 197.268H220.479V200.006H223.217V197.268Z" fill="var(--fill-0, #F0F0F0)"/>
<path id="Vector_82" d="M218.869 119.239H216.131V121.978H218.869V119.239Z" fill="var(--fill-0, #F0F0F0)"/>
<path id="Vector_83" d="M218.869 123.829H216.131V126.568H218.869V123.829Z" fill="var(--fill-0, #F0F0F0)"/>
<path id="Vector_84" d="M218.869 128.419H216.131V131.158H218.869V128.419Z" fill="var(--fill-0, #F0F0F0)"/>
<path id="Vector_85" d="M218.869 133.009H216.131V135.748H218.869V133.009Z" fill="var(--fill-0, #F0F0F0)"/>
<path id="Vector_86" d="M218.869 137.599H216.131V140.337H218.869V137.599Z" fill="var(--fill-0, #F0F0F0)"/>
<path id="Vector_87" d="M218.869 142.189H216.131V144.927H218.869V142.189Z" fill="var(--fill-0, #F0F0F0)"/>
<path id="Vector_88" d="M218.869 146.778H216.131V149.517H218.869V146.778Z" fill="var(--fill-0, #F0F0F0)"/>
<path id="Vector_89" d="M218.869 151.368H216.131V154.106H218.869V151.368Z" fill="var(--fill-0, #F0F0F0)"/>
<path id="Vector_90" d="M218.869 155.958H216.131V158.696H218.869V155.958Z" fill="var(--fill-0, #F0F0F0)"/>
<path id="Vector_91" d="M218.869 160.547H216.131V163.286H218.869V160.547Z" fill="var(--fill-0, #F0F0F0)"/>
<path id="Vector_92" d="M218.869 174.318H216.131V177.056H218.869V174.318Z" fill="var(--fill-0, #F0F0F0)"/>
<path id="Vector_93" d="M218.869 178.908H216.131V181.646H218.869V178.908Z" fill="var(--fill-0, #F0F0F0)"/>
<path id="Vector_94" d="M218.869 183.498H216.131V186.236H218.869V183.498Z" fill="var(--fill-0, #F0F0F0)"/>
<path id="Vector_95" d="M218.869 188.088H216.131V190.826H218.869V188.088Z" fill="var(--fill-0, #F0F0F0)"/>
<path id="Vector_96" d="M214.52 119.239H211.782V121.978H214.52V119.239Z" fill="var(--fill-0, #F0F0F0)"/>
<path id="Vector_97" d="M214.52 123.829H211.782V126.568H214.52V123.829Z" fill="var(--fill-0, #F0F0F0)"/>
<path id="Vector_98" d="M214.52 128.419H211.782V131.158H214.52V128.419Z" fill="var(--fill-0, #F0F0F0)"/>
<path id="Vector_99" d="M214.52 133.009H211.782V135.748H214.52V133.009Z" fill="var(--fill-0, #F0F0F0)"/>
<path id="Vector_100" d="M214.52 137.599H211.782V140.337H214.52V137.599Z" fill="var(--fill-0, #F0F0F0)"/>
<path id="Vector_101" d="M214.52 142.189H211.782V144.927H214.52V142.189Z" fill="var(--fill-0, #F0F0F0)"/>
<path id="Vector_102" d="M214.52 146.778H211.782V149.517H214.52V146.778Z" fill="var(--fill-0, #F0F0F0)"/>
<path id="Vector_103" d="M214.52 151.368H211.782V154.106H214.52V151.368Z" fill="var(--fill-0, #F0F0F0)"/>
<path id="Vector_104" d="M214.52 155.958H211.782V158.696H214.52V155.958Z" fill="var(--fill-0, #F0F0F0)"/>
<path id="Vector_105" d="M214.52 160.547H211.782V163.286H214.52V160.547Z" fill="var(--fill-0, #F0F0F0)"/>
<path id="Vector_106" d="M214.52 174.318H211.782V177.056H214.52V174.318Z" fill="var(--fill-0, #F0F0F0)"/>
<path id="Vector_107" d="M214.52 178.908H211.782V181.646H214.52V178.908Z" fill="var(--fill-0, #F0F0F0)"/>
<path id="Vector_108" d="M214.52 183.498H211.782V186.236H214.52V183.498Z" fill="var(--fill-0, #F0F0F0)"/>
<path id="Vector_109" d="M165.558 107.322H162.82V110.06H165.558V107.322Z" fill="var(--fill-0, #F0F0F0)"/>
<path id="Vector_110" d="M165.558 111.911H162.82V114.65H165.558V111.911Z" fill="var(--fill-0, #F0F0F0)"/>
<path id="Vector_111" d="M165.558 116.502H162.82V119.24H165.558V116.502Z" fill="var(--fill-0, #F0F0F0)"/>
<path id="Vector_112" d="M165.558 121.091H162.82V123.83H165.558V121.091Z" fill="var(--fill-0, #F0F0F0)"/>
<path id="Vector_113" d="M165.558 125.681H162.82V128.42H165.558V125.681Z" fill="var(--fill-0, #F0F0F0)"/>
<path id="Vector_114" d="M165.558 130.271H162.82V133.01H165.558V130.271Z" fill="var(--fill-0, #F0F0F0)"/>
<path id="Vector_115" d="M165.558 134.861H162.82V137.599H165.558V134.861Z" fill="var(--fill-0, #F0F0F0)"/>
<path id="Vector_116" d="M165.558 139.451H162.82V142.189H165.558V139.451Z" fill="var(--fill-0, #F0F0F0)"/>
<path id="Vector_117" d="M165.558 153.221H162.82V155.959H165.558V153.221Z" fill="var(--fill-0, #F0F0F0)"/>
<path id="Vector_118" d="M165.558 157.81H162.82V160.549H165.558V157.81Z" fill="var(--fill-0, #F0F0F0)"/>
<path id="Vector_119" d="M161.209 107.322H158.471V110.06H161.209V107.322Z" fill="var(--fill-0, #F0F0F0)"/>
<path id="Vector_120" d="M161.209 111.911H158.471V114.65H161.209V111.911Z" fill="var(--fill-0, #F0F0F0)"/>
<path id="Vector_121" d="M161.209 116.502H158.471V119.24H161.209V116.502Z" fill="var(--fill-0, #F0F0F0)"/>
<path id="Vector_122" d="M161.209 121.091H158.471V123.83H161.209V121.091Z" fill="var(--fill-0, #F0F0F0)"/>
<path id="Vector_123" d="M161.209 125.681H158.471V128.42H161.209V125.681Z" fill="var(--fill-0, #F0F0F0)"/>
<path id="Vector_124" d="M161.209 130.271H158.471V133.01H161.209V130.271Z" fill="var(--fill-0, #F0F0F0)"/>
<path id="Vector_125" d="M161.209 134.861H158.471V137.599H161.209V134.861Z" fill="var(--fill-0, #F0F0F0)"/>
<path id="Vector_126" d="M161.209 139.451H158.471V142.189H161.209V139.451Z" fill="var(--fill-0, #F0F0F0)"/>
<path id="Vector_127" d="M161.209 157.81H158.471V160.549H161.209V157.81Z" fill="var(--fill-0, #F0F0F0)"/>
<path id="Vector_128" d="M156.861 107.322H154.123V110.06H156.861V107.322Z" fill="var(--fill-0, #F0F0F0)"/>
<path id="Vector_129" d="M156.861 111.911H154.123V114.65H156.861V111.911Z" fill="var(--fill-0, #F0F0F0)"/>
<path id="Vector_130" d="M156.861 116.502H154.123V119.24H156.861V116.502Z" fill="var(--fill-0, #F0F0F0)"/>
<path id="Vector_131" d="M156.861 121.091H154.123V123.83H156.861V121.091Z" fill="var(--fill-0, #F0F0F0)"/>
<path id="Vector_132" d="M156.861 125.681H154.123V128.42H156.861V125.681Z" fill="var(--fill-0, #F0F0F0)"/>
<path id="Vector_133" d="M156.861 130.271H154.123V133.01H156.861V130.271Z" fill="var(--fill-0, #F0F0F0)"/>
<path id="Vector_134" d="M156.861 134.861H154.123V137.599H156.861V134.861Z" fill="var(--fill-0, #F0F0F0)"/>
<path id="Vector_135" d="M156.861 139.451H154.123V142.189H156.861V139.451Z" fill="var(--fill-0, #F0F0F0)"/>
<path id="Vector_136" d="M152.512 107.322H149.774V110.06H152.512V107.322Z" fill="var(--fill-0, #F0F0F0)"/>
<path id="Vector_137" d="M152.512 111.911H149.774V114.65H152.512V111.911Z" fill="var(--fill-0, #F0F0F0)"/>
<path id="Vector_138" d="M152.512 116.502H149.774V119.24H152.512V116.502Z" fill="var(--fill-0, #F0F0F0)"/>
<path id="Vector_139" d="M152.512 121.091H149.774V123.83H152.512V121.091Z" fill="var(--fill-0, #F0F0F0)"/>
<path id="Vector_140" d="M152.512 125.681H149.774V128.42H152.512V125.681Z" fill="var(--fill-0, #F0F0F0)"/>
<path id="Vector_141" d="M152.512 130.271H149.774V133.01H152.512V130.271Z" fill="var(--fill-0, #F0F0F0)"/>
<path id="Vector_142" d="M152.512 139.451H149.774V142.189H152.512V139.451Z" fill="var(--fill-0, #F0F0F0)"/>
<path id="Vector_143" d="M152.512 144.041H149.774V146.779H152.512V144.041Z" fill="var(--fill-0, #F0F0F0)"/>
<path id="Vector_144" d="M152.512 157.81H149.774V160.549H152.512V157.81Z" fill="var(--fill-0, #F0F0F0)"/>
<path id="Vector_145" d="M152.512 162.4H149.774V165.139H152.512V162.4Z" fill="var(--fill-0, #F0F0F0)"/>
<path id="Vector_146" d="M152.512 166.99H149.774V169.729H152.512V166.99Z" fill="var(--fill-0, #F0F0F0)"/>
<path id="Vector_147" d="M152.512 171.58H149.774V174.319H152.512V171.58Z" fill="var(--fill-0, #F0F0F0)"/>
<path id="Vector_148" d="M152.512 176.169H149.774V178.908H152.512V176.169Z" fill="var(--fill-0, #F0F0F0)"/>
<path id="Vector_149" d="M152.512 180.76H149.774V183.499H152.512V180.76Z" fill="var(--fill-0, #F0F0F0)"/>
<path id="Vector_150" d="M152.512 185.349H149.774V188.088H152.512V185.349Z" fill="var(--fill-0, #F0F0F0)"/>
<path id="Vector_151" d="M148.163 107.322H145.425V110.06H148.163V107.322Z" fill="var(--fill-0, #F0F0F0)"/>
<path id="Vector_152" d="M148.163 111.911H145.425V114.65H148.163V111.911Z" fill="var(--fill-0, #F0F0F0)"/>
<path id="Vector_153" d="M148.163 116.502H145.425V119.24H148.163V116.502Z" fill="var(--fill-0, #F0F0F0)"/>
<path id="Vector_154" d="M148.163 121.091H145.425V123.83H148.163V121.091Z" fill="var(--fill-0, #F0F0F0)"/>
<path id="Vector_155" d="M148.163 125.681H145.425V128.42H148.163V125.681Z" fill="var(--fill-0, #F0F0F0)"/>
<path id="Vector_156" d="M148.163 130.271H145.425V133.01H148.163V130.271Z" fill="var(--fill-0, #F0F0F0)"/>
<path id="Vector_157" d="M148.163 144.041H145.425V146.779H148.163V144.041Z" fill="var(--fill-0, #F0F0F0)"/>
<path id="Vector_158" d="M148.163 148.63H145.425V151.368H148.163V148.63Z" fill="var(--fill-0, #F0F0F0)"/>
<path id="Vector_159" d="M148.163 153.221H145.425V155.959H148.163V153.221Z" fill="var(--fill-0, #F0F0F0)"/>
<path id="Vector_160" d="M148.163 157.81H145.425V160.549H148.163V157.81Z" fill="var(--fill-0, #F0F0F0)"/>
<path id="Vector_161" d="M148.163 162.4H145.425V165.139H148.163V162.4Z" fill="var(--fill-0, #F0F0F0)"/>
<path id="Vector_162" d="M148.163 166.99H145.425V169.729H148.163V166.99Z" fill="var(--fill-0, #F0F0F0)"/>
<path id="Vector_163" d="M148.163 171.58H145.425V174.319H148.163V171.58Z" fill="var(--fill-0, #F0F0F0)"/>
<path id="Vector_164" d="M148.163 176.169H145.425V178.908H148.163V176.169Z" fill="var(--fill-0, #F0F0F0)"/>
<path id="Vector_165" d="M148.163 180.76H145.425V183.499H148.163V180.76Z" fill="var(--fill-0, #F0F0F0)"/>
<path id="Vector_166" d="M148.163 185.349H145.425V188.088H148.163V185.349Z" fill="var(--fill-0, #F0F0F0)"/>
<path id="Vector_167" d="M148.163 189.939H145.425V192.678H148.163V189.939Z" fill="var(--fill-0, #F0F0F0)"/>
<path id="Vector_168" d="M148.163 199.12H145.425V201.858H148.163V199.12Z" fill="var(--fill-0, #F0F0F0)"/>
<path id="Vector_169" d="M143.815 107.322H141.077V110.06H143.815V107.322Z" fill="var(--fill-0, #F0F0F0)"/>
<path id="Vector_170" d="M143.815 111.911H141.077V114.65H143.815V111.911Z" fill="var(--fill-0, #F0F0F0)"/>
<path id="Vector_171" d="M143.815 116.502H141.077V119.24H143.815V116.502Z" fill="var(--fill-0, #F0F0F0)"/>
<path id="Vector_172" d="M143.815 121.091H141.077V123.83H143.815V121.091Z" fill="var(--fill-0, #F0F0F0)"/>
<path id="Vector_173" d="M143.815 125.681H141.077V128.42H143.815V125.681Z" fill="var(--fill-0, #F0F0F0)"/>
<path id="Vector_174" d="M143.815 130.271H141.077V133.01H143.815V130.271Z" fill="var(--fill-0, #F0F0F0)"/>
<path id="Vector_175" d="M143.815 144.041H141.077V146.779H143.815V144.041Z" fill="var(--fill-0, #F0F0F0)"/>
<path id="Vector_176" d="M143.815 148.63H141.077V151.368H143.815V148.63Z" fill="var(--fill-0, #F0F0F0)"/>
<path id="Vector_177" d="M143.815 153.221H141.077V155.959H143.815V153.221Z" fill="var(--fill-0, #F0F0F0)"/>
<path id="Vector_178" d="M143.815 157.81H141.077V160.549H143.815V157.81Z" fill="var(--fill-0, #F0F0F0)"/>
<path id="Vector_179" d="M143.815 171.58H141.077V174.319H143.815V171.58Z" fill="var(--fill-0, #F0F0F0)"/>
<path id="Vector_180" d="M143.815 176.169H141.077V178.908H143.815V176.169Z" fill="var(--fill-0, #F0F0F0)"/>
<path id="Vector_181" d="M143.815 180.76H141.077V183.499H143.815V180.76Z" fill="var(--fill-0, #F0F0F0)"/>
<path id="Vector_182" d="M143.815 185.349H141.077V188.088H143.815V185.349Z" fill="var(--fill-0, #F0F0F0)"/>
<path id="Vector_183" d="M143.815 189.939H141.077V192.678H143.815V189.939Z" fill="var(--fill-0, #F0F0F0)"/>
<path id="Vector_184" d="M143.815 199.12H141.077V201.858H143.815V199.12Z" fill="var(--fill-0, #F0F0F0)"/>
<path id="Vector_185" d="M143.815 203.709H141.077V206.448H143.815V203.709Z" fill="var(--fill-0, #F0F0F0)"/>
<path id="Vector_186" d="M104.355 149.999H101.616V152.738H104.355V149.999Z" fill="var(--fill-0, #F0F0F0)"/>
<path id="Vector_187" d="M104.355 154.589H101.616V157.328H104.355V154.589Z" fill="var(--fill-0, #F0F0F0)"/>
<path id="Vector_188" d="M104.355 159.179H101.616V161.918H104.355V159.179Z" fill="var(--fill-0, #F0F0F0)"/>
<path id="Vector_189" d="M104.355 163.769H101.616V166.507H104.355V163.769Z" fill="var(--fill-0, #F0F0F0)"/>
<path id="Vector_190" d="M104.355 168.359H101.616V171.098H104.355V168.359Z" fill="var(--fill-0, #F0F0F0)"/>
<path id="Vector_191" d="M104.355 172.949H101.616V175.687H104.355V172.949Z" fill="var(--fill-0, #F0F0F0)"/>
<path id="Vector_192" d="M104.355 177.539H101.616V180.277H104.355V177.539Z" fill="var(--fill-0, #F0F0F0)"/>
<path id="Vector_193" d="M104.355 191.309H101.616V194.048H104.355V191.309Z" fill="var(--fill-0, #F0F0F0)"/>
<path id="Vector_194" d="M104.355 195.898H101.616V198.637H104.355V195.898Z" fill="var(--fill-0, #F0F0F0)"/>
<path id="Vector_195" d="M104.355 200.488H101.616V203.227H104.355V200.488Z" fill="var(--fill-0, #F0F0F0)"/>
<path id="Vector_196" d="M100.007 149.999H97.2685V152.738H100.007V149.999Z" fill="var(--fill-0, #F0F0F0)"/>
<path id="Vector_197" d="M100.007 154.589H97.2685V157.328H100.007V154.589Z" fill="var(--fill-0, #F0F0F0)"/>
<path id="Vector_198" d="M100.007 159.179H97.2685V161.918H100.007V159.179Z" fill="var(--fill-0, #F0F0F0)"/>
<path id="Vector_199" d="M100.007 163.769H97.2685V166.507H100.007V163.769Z" fill="var(--fill-0, #F0F0F0)"/>
<path id="Vector_200" d="M100.007 168.359H97.2685V171.098H100.007V168.359Z" fill="var(--fill-0, #F0F0F0)"/>
<path id="Vector_201" d="M100.007 172.949H97.2685V175.687H100.007V172.949Z" fill="var(--fill-0, #F0F0F0)"/>
<path id="Vector_202" d="M100.007 177.539H97.2685V180.277H100.007V177.539Z" fill="var(--fill-0, #F0F0F0)"/>
<path id="Vector_203" d="M95.6583 149.999H92.9196V152.738H95.6583V149.999Z" fill="var(--fill-0, #F0F0F0)"/>
<path id="Vector_204" d="M95.6583 154.589H92.9196V157.328H95.6583V154.589Z" fill="var(--fill-0, #F0F0F0)"/>
<path id="Vector_205" d="M95.6583 159.179H92.9196V161.918H95.6583V159.179Z" fill="var(--fill-0, #F0F0F0)"/>
<path id="Vector_206" d="M95.6583 163.769H92.9196V166.507H95.6583V163.769Z" fill="var(--fill-0, #F0F0F0)"/>
<path id="Vector_207" d="M95.6583 168.359H92.9196V171.098H95.6583V168.359Z" fill="var(--fill-0, #F0F0F0)"/>
<path id="Vector_208" d="M95.6583 172.949H92.9196V175.687H95.6583V172.949Z" fill="var(--fill-0, #F0F0F0)"/>
<path id="Vector_209" d="M95.6583 177.539H92.9196V180.277H95.6583V177.539Z" fill="var(--fill-0, #F0F0F0)"/>
<path id="Vector_210" d="M91.3093 149.999H88.5707V152.738H91.3093V149.999Z" fill="var(--fill-0, #F0F0F0)"/>
<path id="Vector_211" d="M91.3093 154.589H88.5707V157.328H91.3093V154.589Z" fill="var(--fill-0, #F0F0F0)"/>
<path id="Vector_212" d="M91.3093 159.179H88.5707V161.918H91.3093V159.179Z" fill="var(--fill-0, #F0F0F0)"/>
<path id="Vector_213" d="M91.3093 163.769H88.5707V166.507H91.3093V163.769Z" fill="var(--fill-0, #F0F0F0)"/>
<path id="Vector_214" d="M91.3093 168.359H88.5707V171.098H91.3093V168.359Z" fill="var(--fill-0, #F0F0F0)"/>
<path id="Vector_215" d="M91.3093 172.949H88.5707V175.687H91.3093V172.949Z" fill="var(--fill-0, #F0F0F0)"/>
<path id="Vector_216" d="M91.3093 177.539H88.5707V180.277H91.3093V177.539Z" fill="var(--fill-0, #F0F0F0)"/>
<path id="Vector_217" d="M91.3093 182.129H88.5707V184.867H91.3093V182.129Z" fill="var(--fill-0, #F0F0F0)"/>
<path id="Vector_218" d="M91.3093 186.719H88.5707V189.458H91.3093V186.719Z" fill="var(--fill-0, #F0F0F0)"/>
<path id="Vector_219" d="M91.3093 191.309H88.5707V194.048H91.3093V191.309Z" fill="var(--fill-0, #F0F0F0)"/>
<path id="Vector_220" d="M91.3093 195.898H88.5707V198.637H91.3093V195.898Z" fill="var(--fill-0, #F0F0F0)"/>
<path id="Vector_221" d="M86.9615 149.999H84.2228V152.738H86.9615V149.999Z" fill="var(--fill-0, #F0F0F0)"/>
<path id="Vector_222" d="M86.9615 154.589H84.2228V157.328H86.9615V154.589Z" fill="var(--fill-0, #F0F0F0)"/>
<path id="Vector_223" d="M86.9615 159.179H84.2228V161.918H86.9615V159.179Z" fill="var(--fill-0, #F0F0F0)"/>
<path id="Vector_224" d="M86.9615 163.769H84.2228V166.507H86.9615V163.769Z" fill="var(--fill-0, #F0F0F0)"/>
<path id="Vector_225" d="M86.9615 168.359H84.2228V171.098H86.9615V168.359Z" fill="var(--fill-0, #F0F0F0)"/>
<path id="Vector_226" d="M86.9615 172.949H84.2228V175.687H86.9615V172.949Z" fill="var(--fill-0, #F0F0F0)"/>
<path id="Vector_227" d="M86.9615 177.539H84.2228V180.277H86.9615V177.539Z" fill="var(--fill-0, #F0F0F0)"/>
<path id="Vector_228" d="M86.9615 182.129H84.2228V184.867H86.9615V182.129Z" fill="var(--fill-0, #F0F0F0)"/>
<path id="Vector_229" d="M86.9615 186.719H84.2228V189.458H86.9615V186.719Z" fill="var(--fill-0, #F0F0F0)"/>
<path id="Vector_230" d="M86.9615 191.309H84.2228V194.048H86.9615V191.309Z" fill="var(--fill-0, #F0F0F0)"/>
<path id="Vector_231" d="M86.9615 195.898H84.2228V198.637H86.9615V195.898Z" fill="var(--fill-0, #F0F0F0)"/>
<path id="Vector_232" d="M86.9615 200.488H84.2228V203.227H86.9615V200.488Z" fill="var(--fill-0, #F0F0F0)"/>
<path id="Vector_233" d="M86.9615 214.258H84.2228V216.996H86.9615V214.258Z" fill="var(--fill-0, #F0F0F0)"/>
<path id="Vector_234" d="M86.9615 218.847H84.2228V221.586H86.9615V218.847Z" fill="var(--fill-0, #F0F0F0)"/>
<path id="Vector_235" d="M82.6123 149.999H79.8737V152.738H82.6123V149.999Z" fill="var(--fill-0, #F0F0F0)"/>
<path id="Vector_236" d="M82.6123 154.589H79.8737V157.328H82.6123V154.589Z" fill="var(--fill-0, #F0F0F0)"/>
<path id="Vector_237" d="M82.6123 159.179H79.8737V161.918H82.6123V159.179Z" fill="var(--fill-0, #F0F0F0)"/>
<path id="Vector_238" d="M82.6123 172.949H79.8737V175.687H82.6123V172.949Z" fill="var(--fill-0, #F0F0F0)"/>
<path id="Vector_239" d="M82.6123 177.539H79.8737V180.277H82.6123V177.539Z" fill="var(--fill-0, #F0F0F0)"/>
<path id="Vector_240" d="M82.6123 182.129H79.8737V184.867H82.6123V182.129Z" fill="var(--fill-0, #F0F0F0)"/>
<path id="Vector_241" d="M82.6123 186.719H79.8737V189.458H82.6123V186.719Z" fill="var(--fill-0, #F0F0F0)"/>
<path id="Vector_242" d="M82.6123 191.309H79.8737V194.048H82.6123V191.309Z" fill="var(--fill-0, #F0F0F0)"/>
<path id="Vector_243" d="M82.6123 195.898H79.8737V198.637H82.6123V195.898Z" fill="var(--fill-0, #F0F0F0)"/>
<path id="Vector_244" d="M82.6123 200.488H79.8737V203.227H82.6123V200.488Z" fill="var(--fill-0, #F0F0F0)"/>
<path id="Vector_245" d="M82.6123 214.258H79.8737V216.996H82.6123V214.258Z" fill="var(--fill-0, #F0F0F0)"/>
<path id="Vector_246" d="M82.6123 218.847H79.8737V221.586H82.6123V218.847Z" fill="var(--fill-0, #F0F0F0)"/>
<path id="Vector_247" d="M82.6123 223.438H79.8737V226.176H82.6123V223.438Z" fill="var(--fill-0, #F0F0F0)"/>
<path id="Vector_248" d="M37.0326 122.461H34.2939V125.199H37.0326V122.461Z" fill="var(--fill-0, #F0F0F0)"/>
<path id="Vector_249" d="M37.0326 127.05H34.2939V129.789H37.0326V127.05Z" fill="var(--fill-0, #F0F0F0)"/>
<path id="Vector_250" d="M37.0326 131.64H34.2939V134.379H37.0326V131.64Z" fill="var(--fill-0, #F0F0F0)"/>
<path id="Vector_251" d="M37.0326 136.23H34.2939V138.969H37.0326V136.23Z" fill="var(--fill-0, #F0F0F0)"/>
<path id="Vector_252" d="M37.0326 140.82H34.2939V143.558H37.0326V140.82Z" fill="var(--fill-0, #F0F0F0)"/>
<path id="Vector_253" d="M37.0326 145.41H34.2939V148.148H37.0326V145.41Z" fill="var(--fill-0, #F0F0F0)"/>
<path id="Vector_254" d="M37.0326 149.999H34.2939V152.738H37.0326V149.999Z" fill="var(--fill-0, #F0F0F0)"/>
<path id="Vector_255" d="M37.0326 154.589H34.2939V157.328H37.0326V154.589Z" fill="var(--fill-0, #F0F0F0)"/>
<path id="Vector_256" d="M37.0326 159.179H34.2939V161.918H37.0326V159.179Z" fill="var(--fill-0, #F0F0F0)"/>
<path id="Vector_257" d="M37.0326 163.769H34.2939V166.507H37.0326V163.769Z" fill="var(--fill-0, #F0F0F0)"/>
<path id="Vector_258" d="M37.0326 168.359H34.2939V171.098H37.0326V168.359Z" fill="var(--fill-0, #F0F0F0)"/>
<path id="Vector_259" d="M37.0326 172.949H34.2939V175.687H37.0326V172.949Z" fill="var(--fill-0, #F0F0F0)"/>
<path id="Vector_260" d="M37.0326 177.539H34.2939V180.277H37.0326V177.539Z" fill="var(--fill-0, #F0F0F0)"/>
<path id="Vector_261" d="M37.0326 182.129H34.2939V184.867H37.0326V182.129Z" fill="var(--fill-0, #F0F0F0)"/>
<path id="Vector_262" d="M37.0326 186.719H34.2939V189.458H37.0326V186.719Z" fill="var(--fill-0, #F0F0F0)"/>
<path id="Vector_263" d="M37.0326 191.309H34.2939V194.048H37.0326V191.309Z" fill="var(--fill-0, #F0F0F0)"/>
<path id="Vector_264" d="M37.0326 195.898H34.2939V198.637H37.0326V195.898Z" fill="var(--fill-0, #F0F0F0)"/>
<path id="Vector_265" d="M37.0326 200.488H34.2939V203.227H37.0326V200.488Z" fill="var(--fill-0, #F0F0F0)"/>
<path id="Vector_266" d="M37.0326 205.078H34.2939V207.816H37.0326V205.078Z" fill="var(--fill-0, #F0F0F0)"/>
<path id="Vector_267" d="M37.0326 209.668H34.2939V212.406H37.0326V209.668Z" fill="var(--fill-0, #F0F0F0)"/>
<path id="Vector_268" d="M37.0326 214.258H34.2939V216.996H37.0326V214.258Z" fill="var(--fill-0, #F0F0F0)"/>
<path id="Vector_269" d="M37.0326 218.847H34.2939V221.586H37.0326V218.847Z" fill="var(--fill-0, #F0F0F0)"/>
<path id="Vector_270" d="M37.0326 223.438H34.2939V226.176H37.0326V223.438Z" fill="var(--fill-0, #F0F0F0)"/>
<path id="Vector_271" d="M32.6838 122.461H29.9451V125.199H32.6838V122.461Z" fill="var(--fill-0, #F0F0F0)"/>
<path id="Vector_272" d="M32.6838 127.05H29.9451V129.789H32.6838V127.05Z" fill="var(--fill-0, #F0F0F0)"/>
<path id="Vector_273" d="M32.6838 131.64H29.9451V134.379H32.6838V131.64Z" fill="var(--fill-0, #F0F0F0)"/>
<path id="Vector_274" d="M32.6838 136.23H29.9451V138.969H32.6838V136.23Z" fill="var(--fill-0, #F0F0F0)"/>
<path id="Vector_275" d="M32.6838 140.82H29.9451V143.558H32.6838V140.82Z" fill="var(--fill-0, #F0F0F0)"/>
<path id="Vector_276" d="M32.6838 145.41H29.9451V148.148H32.6838V145.41Z" fill="var(--fill-0, #F0F0F0)"/>
<path id="Vector_277" d="M32.6838 149.999H29.9451V152.738H32.6838V149.999Z" fill="var(--fill-0, #F0F0F0)"/>
<path id="Vector_278" d="M32.6838 154.589H29.9451V157.328H32.6838V154.589Z" fill="var(--fill-0, #F0F0F0)"/>
<path id="Vector_279" d="M32.6838 159.179H29.9451V161.918H32.6838V159.179Z" fill="var(--fill-0, #F0F0F0)"/>
<path id="Vector_280" d="M32.6838 163.769H29.9451V166.507H32.6838V163.769Z" fill="var(--fill-0, #F0F0F0)"/>
<path id="Vector_281" d="M32.6838 168.359H29.9451V171.098H32.6838V168.359Z" fill="var(--fill-0, #F0F0F0)"/>
<path id="Vector_282" d="M32.6838 172.949H29.9451V175.687H32.6838V172.949Z" fill="var(--fill-0, #F0F0F0)"/>
<path id="Vector_283" d="M32.6838 177.539H29.9451V180.277H32.6838V177.539Z" fill="var(--fill-0, #F0F0F0)"/>
<path id="Vector_284" d="M32.6838 182.129H29.9451V184.867H32.6838V182.129Z" fill="var(--fill-0, #F0F0F0)"/>
<path id="Vector_285" d="M32.6838 186.719H29.9451V189.458H32.6838V186.719Z" fill="var(--fill-0, #F0F0F0)"/>
<path id="Vector_286" d="M32.6838 191.309H29.9451V194.048H32.6838V191.309Z" fill="var(--fill-0, #F0F0F0)"/>
<path id="Vector_287" d="M32.6838 195.898H29.9451V198.637H32.6838V195.898Z" fill="var(--fill-0, #F0F0F0)"/>
<path id="Vector_288" d="M32.6838 200.488H29.9451V203.227H32.6838V200.488Z" fill="var(--fill-0, #F0F0F0)"/>
<path id="Vector_289" d="M32.6838 205.078H29.9451V207.816H32.6838V205.078Z" fill="var(--fill-0, #F0F0F0)"/>
<path id="Vector_290" d="M28.3346 122.461H25.596V125.199H28.3346V122.461Z" fill="var(--fill-0, #F0F0F0)"/>
<path id="Vector_291" d="M28.3346 127.05H25.596V129.789H28.3346V127.05Z" fill="var(--fill-0, #F0F0F0)"/>
<path id="Vector_292" d="M28.3346 131.64H25.596V134.379H28.3346V131.64Z" fill="var(--fill-0, #F0F0F0)"/>
<path id="Vector_293" d="M28.3346 136.23H25.596V138.969H28.3346V136.23Z" fill="var(--fill-0, #F0F0F0)"/>
<path id="Vector_294" d="M28.3346 140.82H25.596V143.558H28.3346V140.82Z" fill="var(--fill-0, #F0F0F0)"/>
<path id="Vector_295" d="M28.3346 145.41H25.596V148.148H28.3346V145.41Z" fill="var(--fill-0, #F0F0F0)"/>
<path id="Vector_296" d="M28.3346 149.999H25.596V152.738H28.3346V149.999Z" fill="var(--fill-0, #F0F0F0)"/>
<path id="Vector_297" d="M28.3346 154.589H25.596V157.328H28.3346V154.589Z" fill="var(--fill-0, #F0F0F0)"/>
<path id="Vector_298" d="M28.3346 159.179H25.596V161.918H28.3346V159.179Z" fill="var(--fill-0, #F0F0F0)"/>
<path id="Vector_299" d="M28.3346 163.769H25.596V166.507H28.3346V163.769Z" fill="var(--fill-0, #F0F0F0)"/>
<path id="Vector_300" d="M28.3346 168.359H25.596V171.098H28.3346V168.359Z" fill="var(--fill-0, #F0F0F0)"/>
<path id="Vector_301" d="M28.3346 172.949H25.596V175.687H28.3346V172.949Z" fill="var(--fill-0, #F0F0F0)"/>
<path id="Vector_302" d="M28.3346 177.539H25.596V180.277H28.3346V177.539Z" fill="var(--fill-0, #F0F0F0)"/>
<path id="Vector_303" d="M28.3346 182.129H25.596V184.867H28.3346V182.129Z" fill="var(--fill-0, #F0F0F0)"/>
<path id="Vector_304" d="M28.3346 186.719H25.596V189.458H28.3346V186.719Z" fill="var(--fill-0, #F0F0F0)"/>
<path id="Vector_305" d="M28.3346 191.309H25.596V194.048H28.3346V191.309Z" fill="var(--fill-0, #F0F0F0)"/>
<path id="Vector_306" d="M28.3346 195.898H25.596V198.637H28.3346V195.898Z" fill="var(--fill-0, #F0F0F0)"/>
<path id="Vector_307" d="M28.3346 200.488H25.596V203.227H28.3346V200.488Z" fill="var(--fill-0, #F0F0F0)"/>
<path id="Vector_308" d="M28.3346 205.078H25.596V207.816H28.3346V205.078Z" fill="var(--fill-0, #F0F0F0)"/>
<path id="Vector_309" d="M23.9868 122.461H21.2481V125.199H23.9868V122.461Z" fill="var(--fill-0, #F0F0F0)"/>
<path id="Vector_310" d="M23.9868 127.05H21.2481V129.789H23.9868V127.05Z" fill="var(--fill-0, #F0F0F0)"/>
<path id="Vector_311" d="M23.9868 131.64H21.2481V134.379H23.9868V131.64Z" fill="var(--fill-0, #F0F0F0)"/>
<path id="Vector_312" d="M23.9868 136.23H21.2481V138.969H23.9868V136.23Z" fill="var(--fill-0, #F0F0F0)"/>
<path id="Vector_313" d="M23.9868 140.82H21.2481V143.558H23.9868V140.82Z" fill="var(--fill-0, #F0F0F0)"/>
<path id="Vector_314" d="M23.9868 145.41H21.2481V148.148H23.9868V145.41Z" fill="var(--fill-0, #F0F0F0)"/>
<path id="Vector_315" d="M23.9868 149.999H21.2481V152.738H23.9868V149.999Z" fill="var(--fill-0, #F0F0F0)"/>
<path id="Vector_316" d="M23.9868 154.589H21.2481V157.328H23.9868V154.589Z" fill="var(--fill-0, #F0F0F0)"/>
<path id="Vector_317" d="M23.9868 159.179H21.2481V161.918H23.9868V159.179Z" fill="var(--fill-0, #F0F0F0)"/>
<path id="Vector_318" d="M23.9868 163.769H21.2481V166.507H23.9868V163.769Z" fill="var(--fill-0, #F0F0F0)"/>
<path id="Vector_319" d="M23.9868 168.359H21.2481V171.098H23.9868V168.359Z" fill="var(--fill-0, #F0F0F0)"/>
<path id="Vector_320" d="M23.9868 172.949H21.2481V175.687H23.9868V172.949Z" fill="var(--fill-0, #F0F0F0)"/>
<path id="Vector_321" d="M23.9868 177.539H21.2481V180.277H23.9868V177.539Z" fill="var(--fill-0, #F0F0F0)"/>
<path id="Vector_322" d="M23.9868 182.129H21.2481V184.867H23.9868V182.129Z" fill="var(--fill-0, #F0F0F0)"/>
<path id="Vector_323" d="M23.9868 186.719H21.2481V189.458H23.9868V186.719Z" fill="var(--fill-0, #F0F0F0)"/>
<path id="Vector_324" d="M19.6378 122.461H16.8991V125.199H19.6378V122.461Z" fill="var(--fill-0, #F0F0F0)"/>
<path id="Vector_325" d="M19.6378 127.05H16.8991V129.789H19.6378V127.05Z" fill="var(--fill-0, #F0F0F0)"/>
<path id="Vector_326" d="M19.6378 131.64H16.8991V134.379H19.6378V131.64Z" fill="var(--fill-0, #F0F0F0)"/>
<path id="Vector_327" d="M19.6378 136.23H16.8991V138.969H19.6378V136.23Z" fill="var(--fill-0, #F0F0F0)"/>
<path id="Vector_328" d="M19.6378 140.82H16.8991V143.558H19.6378V140.82Z" fill="var(--fill-0, #F0F0F0)"/>
<path id="Vector_329" d="M19.6378 145.41H16.8991V148.148H19.6378V145.41Z" fill="var(--fill-0, #F0F0F0)"/>
<path id="Vector_330" d="M19.6378 149.999H16.8991V152.738H19.6378V149.999Z" fill="var(--fill-0, #F0F0F0)"/>
<path id="Vector_331" d="M19.6378 154.589H16.8991V157.328H19.6378V154.589Z" fill="var(--fill-0, #F0F0F0)"/>
<path id="Vector_332" d="M19.6378 159.179H16.8991V161.918H19.6378V159.179Z" fill="var(--fill-0, #F0F0F0)"/>
<path id="Vector_333" d="M19.6378 163.769H16.8991V166.507H19.6378V163.769Z" fill="var(--fill-0, #F0F0F0)"/>
<path id="Vector_334" d="M19.6378 168.359H16.8991V171.098H19.6378V168.359Z" fill="var(--fill-0, #F0F0F0)"/>
<path id="Vector_335" d="M19.6378 172.949H16.8991V175.687H19.6378V172.949Z" fill="var(--fill-0, #F0F0F0)"/>
<path id="Vector_336" d="M19.6378 177.539H16.8991V180.277H19.6378V177.539Z" fill="var(--fill-0, #F0F0F0)"/>
<path id="Vector_337" d="M15.289 122.461H12.5503V125.199H15.289V122.461Z" fill="var(--fill-0, #F0F0F0)"/>
<path id="Vector_338" d="M15.289 127.05H12.5503V129.789H15.289V127.05Z" fill="var(--fill-0, #F0F0F0)"/>
<path id="Vector_339" d="M15.289 131.64H12.5503V134.379H15.289V131.64Z" fill="var(--fill-0, #F0F0F0)"/>
<path id="Vector_340" d="M15.289 136.23H12.5503V138.969H15.289V136.23Z" fill="var(--fill-0, #F0F0F0)"/>
<path id="Vector_341" d="M15.289 140.82H12.5503V143.558H15.289V140.82Z" fill="var(--fill-0, #F0F0F0)"/>
<path id="Vector_342" d="M15.289 145.41H12.5503V148.148H15.289V145.41Z" fill="var(--fill-0, #F0F0F0)"/>
<path id="Vector_343" d="M15.289 149.999H12.5503V152.738H15.289V149.999Z" fill="var(--fill-0, #F0F0F0)"/>
<path id="Vector_344" d="M15.289 154.589H12.5503V157.328H15.289V154.589Z" fill="var(--fill-0, #F0F0F0)"/>
<path id="Vector_345" d="M15.289 159.179H12.5503V161.918H15.289V159.179Z" fill="var(--fill-0, #F0F0F0)"/>
<path id="Vector_346" d="M15.289 163.769H12.5503V166.507H15.289V163.769Z" fill="var(--fill-0, #F0F0F0)"/>
<path id="Vector_347" d="M15.289 168.359H12.5503V171.098H15.289V168.359Z" fill="var(--fill-0, #F0F0F0)"/>
<path id="Vector_348" d="M15.289 172.949H12.5503V175.687H15.289V172.949Z" fill="var(--fill-0, #F0F0F0)"/>
<path id="Vector_349" d="M334.832 155.958H332.094V158.696H334.832V155.958Z" fill="var(--fill-0, #F0F0F0)"/>
<path id="Vector_350" d="M334.832 160.547H332.094V163.286H334.832V160.547Z" fill="var(--fill-0, #F0F0F0)"/>
<path id="Vector_351" d="M334.832 165.138H332.094V167.877H334.832V165.138Z" fill="var(--fill-0, #F0F0F0)"/>
<path id="Vector_352" d="M334.832 169.727H332.094V172.466H334.832V169.727Z" fill="var(--fill-0, #F0F0F0)"/>
<path id="Vector_353" d="M334.832 174.318H332.094V177.056H334.832V174.318Z" fill="var(--fill-0, #F0F0F0)"/>
<path id="Vector_354" d="M334.832 178.908H332.094V181.646H334.832V178.908Z" fill="var(--fill-0, #F0F0F0)"/>
<path id="Vector_355" d="M334.832 183.498H332.094V186.236H334.832V183.498Z" fill="var(--fill-0, #F0F0F0)"/>
<path id="Vector_356" d="M334.832 188.088H332.094V190.826H334.832V188.088Z" fill="var(--fill-0, #F0F0F0)"/>
<path id="Vector_357" d="M334.832 192.677H332.094V195.416H334.832V192.677Z" fill="var(--fill-0, #F0F0F0)"/>
<path id="Vector_358" d="M334.832 197.268H332.094V200.006H334.832V197.268Z" fill="var(--fill-0, #F0F0F0)"/>
<path id="Vector_359" d="M334.832 201.857H332.094V204.596H334.832V201.857Z" fill="var(--fill-0, #F0F0F0)"/>
<path id="Vector_360" d="M334.832 206.447H332.094V209.186H334.832V206.447Z" fill="var(--fill-0, #F0F0F0)"/>
<path id="Vector_361" d="M334.832 211.037H332.094V213.776H334.832V211.037Z" fill="var(--fill-0, #F0F0F0)"/>
<path id="Vector_362" d="M334.832 215.627H332.094V218.366H334.832V215.627Z" fill="var(--fill-0, #F0F0F0)"/>
<path id="Vector_363" d="M334.832 220.216H332.094V222.955H334.832V220.216Z" fill="var(--fill-0, #F0F0F0)"/>
<path id="Vector_364" d="M334.832 224.807H332.094V227.546H334.832V224.807Z" fill="var(--fill-0, #F0F0F0)"/>
<path id="Vector_365" d="M334.832 229.397H332.094V232.135H334.832V229.397Z" fill="var(--fill-0, #F0F0F0)"/>
<path id="Vector_366" d="M334.832 233.987H332.094V236.725H334.832V233.987Z" fill="var(--fill-0, #F0F0F0)"/>
<path id="Vector_367" d="M334.832 238.576H332.094V241.315H334.832V238.576Z" fill="var(--fill-0, #F0F0F0)"/>
<path id="Vector_368" d="M334.832 243.167H332.094V245.905H334.832V243.167Z" fill="var(--fill-0, #F0F0F0)"/>
<path id="Vector_369" d="M330.483 155.958H327.745V158.696H330.483V155.958Z" fill="var(--fill-0, #F0F0F0)"/>
<path id="Vector_370" d="M330.483 160.547H327.745V163.286H330.483V160.547Z" fill="var(--fill-0, #F0F0F0)"/>
<path id="Vector_371" d="M330.483 165.138H327.745V167.877H330.483V165.138Z" fill="var(--fill-0, #F0F0F0)"/>
<path id="Vector_372" d="M330.483 169.727H327.745V172.466H330.483V169.727Z" fill="var(--fill-0, #F0F0F0)"/>
<path id="Vector_373" d="M330.483 174.318H327.745V177.056H330.483V174.318Z" fill="var(--fill-0, #F0F0F0)"/>
<path id="Vector_374" d="M330.483 178.908H327.745V181.646H330.483V178.908Z" fill="var(--fill-0, #F0F0F0)"/>
<path id="Vector_375" d="M330.483 183.498H327.745V186.236H330.483V183.498Z" fill="var(--fill-0, #F0F0F0)"/>
<path id="Vector_376" d="M330.483 188.088H327.745V190.826H330.483V188.088Z" fill="var(--fill-0, #F0F0F0)"/>
<path id="Vector_377" d="M330.483 192.677H327.745V195.416H330.483V192.677Z" fill="var(--fill-0, #F0F0F0)"/>
<path id="Vector_378" d="M330.483 197.268H327.745V200.006H330.483V197.268Z" fill="var(--fill-0, #F0F0F0)"/>
<path id="Vector_379" d="M330.483 201.857H327.745V204.596H330.483V201.857Z" fill="var(--fill-0, #F0F0F0)"/>
<path id="Vector_380" d="M330.483 206.447H327.745V209.186H330.483V206.447Z" fill="var(--fill-0, #F0F0F0)"/>
<path id="Vector_381" d="M330.483 211.037H327.745V213.776H330.483V211.037Z" fill="var(--fill-0, #F0F0F0)"/>
<path id="Vector_382" d="M330.483 215.627H327.745V218.366H330.483V215.627Z" fill="var(--fill-0, #F0F0F0)"/>
<path id="Vector_383" d="M330.483 220.216H327.745V222.955H330.483V220.216Z" fill="var(--fill-0, #F0F0F0)"/>
<path id="Vector_384" d="M330.483 224.807H327.745V227.546H330.483V224.807Z" fill="var(--fill-0, #F0F0F0)"/>
<path id="Vector_385" d="M330.483 229.397H327.745V232.135H330.483V229.397Z" fill="var(--fill-0, #F0F0F0)"/>
<path id="Vector_386" d="M330.483 233.987H327.745V236.725H330.483V233.987Z" fill="var(--fill-0, #F0F0F0)"/>
<path id="Vector_387" d="M326.135 155.958H323.397V158.696H326.135V155.958Z" fill="var(--fill-0, #F0F0F0)"/>
<path id="Vector_388" d="M326.135 160.547H323.397V163.286H326.135V160.547Z" fill="var(--fill-0, #F0F0F0)"/>
<path id="Vector_389" d="M326.135 165.138H323.397V167.877H326.135V165.138Z" fill="var(--fill-0, #F0F0F0)"/>
<path id="Vector_390" d="M326.135 169.727H323.397V172.466H326.135V169.727Z" fill="var(--fill-0, #F0F0F0)"/>
<path id="Vector_391" d="M326.135 174.318H323.397V177.056H326.135V174.318Z" fill="var(--fill-0, #F0F0F0)"/>
<path id="Vector_392" d="M326.135 178.908H323.397V181.646H326.135V178.908Z" fill="var(--fill-0, #F0F0F0)"/>
<path id="Vector_393" d="M326.135 183.498H323.397V186.236H326.135V183.498Z" fill="var(--fill-0, #F0F0F0)"/>
<path id="Vector_394" d="M326.135 188.088H323.397V190.826H326.135V188.088Z" fill="var(--fill-0, #F0F0F0)"/>
<path id="Vector_395" d="M326.135 192.677H323.397V195.416H326.135V192.677Z" fill="var(--fill-0, #F0F0F0)"/>
<path id="Vector_396" d="M326.135 197.268H323.397V200.006H326.135V197.268Z" fill="var(--fill-0, #F0F0F0)"/>
<path id="Vector_397" d="M326.135 201.857H323.397V204.596H326.135V201.857Z" fill="var(--fill-0, #F0F0F0)"/>
<path id="Vector_398" d="M326.135 206.447H323.397V209.186H326.135V206.447Z" fill="var(--fill-0, #F0F0F0)"/>
<path id="Vector_399" d="M326.135 211.037H323.397V213.776H326.135V211.037Z" fill="var(--fill-0, #F0F0F0)"/>
<path id="Vector_400" d="M326.135 215.627H323.397V218.366H326.135V215.627Z" fill="var(--fill-0, #F0F0F0)"/>
<path id="Vector_401" d="M326.135 220.216H323.397V222.955H326.135V220.216Z" fill="var(--fill-0, #F0F0F0)"/>
<path id="Vector_402" d="M326.135 224.807H323.397V227.546H326.135V224.807Z" fill="var(--fill-0, #F0F0F0)"/>
<path id="Vector_403" d="M326.135 229.397H323.397V232.135H326.135V229.397Z" fill="var(--fill-0, #F0F0F0)"/>
<path id="Vector_404" d="M326.135 233.987H323.397V236.725H326.135V233.987Z" fill="var(--fill-0, #F0F0F0)"/>
<path id="Vector_405" d="M351.1 189.456H348.361V192.194H351.1V189.456Z" fill="var(--fill-0, #F0F0F0)"/>
<path id="Vector_406" d="M351.1 194.046H348.361V196.784H351.1V194.046Z" fill="var(--fill-0, #F0F0F0)"/>
<path id="Vector_407" d="M351.1 198.636H348.361V201.375H351.1V198.636Z" fill="var(--fill-0, #F0F0F0)"/>
<path id="Vector_408" d="M351.1 203.226H348.361V205.965H351.1V203.226Z" fill="var(--fill-0, #F0F0F0)"/>
<path id="Vector_409" d="M351.1 207.816H348.361V210.555H351.1V207.816Z" fill="var(--fill-0, #F0F0F0)"/>
<path id="Vector_410" d="M351.1 212.406H348.361V215.145H351.1V212.406Z" fill="var(--fill-0, #F0F0F0)"/>
<path id="Vector_411" d="M351.1 216.996H348.361V219.735H351.1V216.996Z" fill="var(--fill-0, #F0F0F0)"/>
<path id="Vector_412" d="M351.1 221.585H348.361V224.324H351.1V221.585Z" fill="var(--fill-0, #F0F0F0)"/>
<path id="Vector_413" d="M351.1 226.175H348.361V228.914H351.1V226.175Z" fill="var(--fill-0, #F0F0F0)"/>
<path id="Vector_414" d="M351.1 230.766H348.361V233.505H351.1V230.766Z" fill="var(--fill-0, #F0F0F0)"/>
<path id="Vector_415" d="M351.1 235.355H348.361V238.093H351.1V235.355Z" fill="var(--fill-0, #F0F0F0)"/>
<path id="Vector_416" d="M351.1 239.945H348.361V242.684H351.1V239.945Z" fill="var(--fill-0, #F0F0F0)"/>
<path id="Vector_417" d="M351.1 244.535H348.361V247.273H351.1V244.535Z" fill="var(--fill-0, #F0F0F0)"/>
<path id="Vector_418" d="M346.751 189.456H344.012V192.194H346.751V189.456Z" fill="var(--fill-0, #F0F0F0)"/>
<path id="Vector_419" d="M346.751 194.046H344.012V196.784H346.751V194.046Z" fill="var(--fill-0, #F0F0F0)"/>
<path id="Vector_420" d="M346.751 198.636H344.012V201.375H346.751V198.636Z" fill="var(--fill-0, #F0F0F0)"/>
<path id="Vector_421" d="M346.751 203.226H344.012V205.965H346.751V203.226Z" fill="var(--fill-0, #F0F0F0)"/>
<path id="Vector_422" d="M346.751 207.816H344.012V210.555H346.751V207.816Z" fill="var(--fill-0, #F0F0F0)"/>
<path id="Vector_423" d="M346.751 212.406H344.012V215.145H346.751V212.406Z" fill="var(--fill-0, #F0F0F0)"/>
<path id="Vector_424" d="M346.751 216.996H344.012V219.735H346.751V216.996Z" fill="var(--fill-0, #F0F0F0)"/>
<path id="Vector_425" d="M346.751 221.585H344.012V224.324H346.751V221.585Z" fill="var(--fill-0, #F0F0F0)"/>
<path id="Vector_426" d="M346.751 226.175H344.012V228.914H346.751V226.175Z" fill="var(--fill-0, #F0F0F0)"/>
<path id="Vector_427" d="M346.751 230.766H344.012V233.505H346.751V230.766Z" fill="var(--fill-0, #F0F0F0)"/>
<path id="Vector_428" d="M346.751 235.355H344.012V238.093H346.751V235.355Z" fill="var(--fill-0, #F0F0F0)"/>
<path id="Vector_429" d="M346.751 239.945H344.012V242.684H346.751V239.945Z" fill="var(--fill-0, #F0F0F0)"/>
<path id="Vector_430" d="M346.751 244.535H344.012V247.273H346.751V244.535Z" fill="var(--fill-0, #F0F0F0)"/>
<path id="Vector_431" d="M342.402 189.456H339.664V192.194H342.402V189.456Z" fill="var(--fill-0, #F0F0F0)"/>
<path id="Vector_432" d="M342.402 194.046H339.664V196.784H342.402V194.046Z" fill="var(--fill-0, #F0F0F0)"/>
<path id="Vector_433" d="M342.402 198.636H339.664V201.375H342.402V198.636Z" fill="var(--fill-0, #F0F0F0)"/>
<path id="Vector_434" d="M342.402 203.226H339.664V205.965H342.402V203.226Z" fill="var(--fill-0, #F0F0F0)"/>
<path id="Vector_435" d="M342.402 207.816H339.664V210.555H342.402V207.816Z" fill="var(--fill-0, #F0F0F0)"/>
<path id="Vector_436" d="M342.402 212.406H339.664V215.145H342.402V212.406Z" fill="var(--fill-0, #F0F0F0)"/>
<path id="Vector_437" d="M342.402 216.996H339.664V219.735H342.402V216.996Z" fill="var(--fill-0, #F0F0F0)"/>
<path id="Vector_438" d="M342.402 221.586H339.664V224.324H342.402V221.586Z" fill="var(--fill-0, #F0F0F0)"/>
<path id="Vector_439" d="M342.402 226.175H339.664V228.914H342.402V226.175Z" fill="var(--fill-0, #F0F0F0)"/>
<path id="Vector_440" d="M342.402 230.766H339.664V233.505H342.402V230.766Z" fill="var(--fill-0, #F0F0F0)"/>
<path id="Vector_441" d="M342.402 235.355H339.664V238.093H342.402V235.355Z" fill="var(--fill-0, #F0F0F0)"/>
<path id="Vector_442" d="M342.402 239.945H339.664V242.684H342.402V239.945Z" fill="var(--fill-0, #F0F0F0)"/>
<path id="Vector_443" d="M342.402 244.535H339.664V247.273H342.402V244.535Z" fill="var(--fill-0, #F0F0F0)"/>
<path id="Vector_444" d="M342.402 249.126H339.664V251.864H342.402V249.126Z" fill="var(--fill-0, #F0F0F0)"/>
<path id="Vector_445" d="M318.243 190.825H315.505V193.564H318.243V190.825Z" fill="var(--fill-0, #F0F0F0)"/>
<path id="Vector_446" d="M318.243 195.415H315.505V198.154H318.243V195.415Z" fill="var(--fill-0, #F0F0F0)"/>
<path id="Vector_447" d="M318.243 200.005H315.505V202.744H318.243V200.005Z" fill="var(--fill-0, #F0F0F0)"/>
<path id="Vector_448" d="M318.243 204.595H315.505V207.333H318.243V204.595Z" fill="var(--fill-0, #F0F0F0)"/>
<path id="Vector_449" d="M318.243 209.185H315.505V211.923H318.243V209.185Z" fill="var(--fill-0, #F0F0F0)"/>
<path id="Vector_450" d="M318.243 213.775H315.505V216.513H318.243V213.775Z" fill="var(--fill-0, #F0F0F0)"/>
<path id="Vector_451" d="M318.243 218.365H315.505V221.103H318.243V218.365Z" fill="var(--fill-0, #F0F0F0)"/>
<path id="Vector_452" d="M318.243 222.954H315.505V225.693H318.243V222.954Z" fill="var(--fill-0, #F0F0F0)"/>
<path id="Vector_453" d="M318.243 227.544H315.505V230.283H318.243V227.544Z" fill="var(--fill-0, #F0F0F0)"/>
<path id="Vector_454" d="M318.243 232.134H315.505V234.873H318.243V232.134Z" fill="var(--fill-0, #F0F0F0)"/>
<path id="Vector_455" d="M318.243 245.904H315.505V248.643H318.243V245.904Z" fill="var(--fill-0, #F0F0F0)"/>
<path id="Vector_456" d="M313.894 190.825H311.156V193.564H313.894V190.825Z" fill="var(--fill-0, #F0F0F0)"/>
<path id="Vector_457" d="M313.894 195.415H311.156V198.154H313.894V195.415Z" fill="var(--fill-0, #F0F0F0)"/>
<path id="Vector_458" d="M313.894 200.005H311.156V202.744H313.894V200.005Z" fill="var(--fill-0, #F0F0F0)"/>
<path id="Vector_459" d="M313.894 204.595H311.156V207.333H313.894V204.595Z" fill="var(--fill-0, #F0F0F0)"/>
<path id="Vector_460" d="M313.894 209.185H311.156V211.923H313.894V209.185Z" fill="var(--fill-0, #F0F0F0)"/>
<path id="Vector_461" d="M313.894 213.775H311.156V216.513H313.894V213.775Z" fill="var(--fill-0, #F0F0F0)"/>
<path id="Vector_462" d="M313.894 218.365H311.156V221.103H313.894V218.365Z" fill="var(--fill-0, #F0F0F0)"/>
<path id="Vector_463" d="M313.894 222.954H311.156V225.693H313.894V222.954Z" fill="var(--fill-0, #F0F0F0)"/>
<path id="Vector_464" d="M313.894 227.544H311.156V230.283H313.894V227.544Z" fill="var(--fill-0, #F0F0F0)"/>
<path id="Vector_465" d="M313.894 241.314H311.156V244.052H313.894V241.314Z" fill="var(--fill-0, #F0F0F0)"/>
<path id="Vector_466" d="M313.894 245.904H311.156V248.643H313.894V245.904Z" fill="var(--fill-0, #F0F0F0)"/>
<path id="Vector_467" d="M309.546 190.825H306.807V193.564H309.546V190.825Z" fill="var(--fill-0, #F0F0F0)"/>
<path id="Vector_468" d="M309.546 195.415H306.807V198.154H309.546V195.415Z" fill="var(--fill-0, #F0F0F0)"/>
<path id="Vector_469" d="M309.546 200.005H306.807V202.744H309.546V200.005Z" fill="var(--fill-0, #F0F0F0)"/>
<path id="Vector_470" d="M309.546 204.595H306.807V207.333H309.546V204.595Z" fill="var(--fill-0, #F0F0F0)"/>
<path id="Vector_471" d="M309.546 209.185H306.807V211.923H309.546V209.185Z" fill="var(--fill-0, #F0F0F0)"/>
<path id="Vector_472" d="M309.546 213.775H306.807V216.513H309.546V213.775Z" fill="var(--fill-0, #F0F0F0)"/>
<path id="Vector_473" d="M309.546 218.365H306.807V221.103H309.546V218.365Z" fill="var(--fill-0, #F0F0F0)"/>
<path id="Vector_474" d="M309.546 222.954H306.807V225.693H309.546V222.954Z" fill="var(--fill-0, #F0F0F0)"/>
<path id="Vector_475" d="M309.546 236.724H306.807V239.463H309.546V236.724Z" fill="var(--fill-0, #F0F0F0)"/>
<path id="Vector_476" d="M309.546 241.314H306.807V244.052H309.546V241.314Z" fill="var(--fill-0, #F0F0F0)"/>
<path id="Vector_477" d="M309.546 245.904H306.807V248.643H309.546V245.904Z" fill="var(--fill-0, #F0F0F0)"/>
<path id="Vector_478" d="M269.12 121.091H266.381V123.83H269.12V121.091Z" fill="var(--fill-0, #F0F0F0)"/>
<path id="Vector_479" d="M269.12 125.681H266.381V128.42H269.12V125.681Z" fill="var(--fill-0, #F0F0F0)"/>
<path id="Vector_480" d="M269.12 130.271H266.381V133.01H269.12V130.271Z" fill="var(--fill-0, #F0F0F0)"/>
<path id="Vector_481" d="M269.12 134.861H266.381V137.599H269.12V134.861Z" fill="var(--fill-0, #F0F0F0)"/>
<path id="Vector_482" d="M269.12 139.451H266.381V142.189H269.12V139.451Z" fill="var(--fill-0, #F0F0F0)"/>
<path id="Vector_483" d="M269.12 144.041H266.381V146.779H269.12V144.041Z" fill="var(--fill-0, #F0F0F0)"/>
<path id="Vector_484" d="M269.12 148.63H266.381V151.368H269.12V148.63Z" fill="var(--fill-0, #F0F0F0)"/>
<path id="Vector_485" d="M269.12 153.221H266.381V155.959H269.12V153.221Z" fill="var(--fill-0, #F0F0F0)"/>
<path id="Vector_486" d="M269.12 157.81H266.381V160.549H269.12V157.81Z" fill="var(--fill-0, #F0F0F0)"/>
<path id="Vector_487" d="M269.12 162.4H266.381V165.139H269.12V162.4Z" fill="var(--fill-0, #F0F0F0)"/>
<path id="Vector_488" d="M269.12 166.99H266.381V169.729H269.12V166.99Z" fill="var(--fill-0, #F0F0F0)"/>
<path id="Vector_489" d="M269.12 171.58H266.381V174.319H269.12V171.58Z" fill="var(--fill-0, #F0F0F0)"/>
<path id="Vector_490" d="M269.12 176.169H266.381V178.908H269.12V176.169Z" fill="var(--fill-0, #F0F0F0)"/>
<path id="Vector_491" d="M269.12 180.76H266.381V183.499H269.12V180.76Z" fill="var(--fill-0, #F0F0F0)"/>
<path id="Vector_492" d="M269.12 185.349H266.381V188.088H269.12V185.349Z" fill="var(--fill-0, #F0F0F0)"/>
<path id="Vector_493" d="M269.12 189.939H266.381V192.678H269.12V189.939Z" fill="var(--fill-0, #F0F0F0)"/>
<path id="Vector_494" d="M269.12 194.529H266.381V197.267H269.12V194.529Z" fill="var(--fill-0, #F0F0F0)"/>
<path id="Vector_495" d="M269.12 203.709H266.381V206.448H269.12V203.709Z" fill="var(--fill-0, #F0F0F0)"/>
<path id="Vector_496" d="M269.12 208.3H266.381V211.038H269.12V208.3Z" fill="var(--fill-0, #F0F0F0)"/>
<path id="Vector_497" d="M269.12 212.889H266.381V215.628H269.12V212.889Z" fill="var(--fill-0, #F0F0F0)"/>
<path id="Vector_498" d="M269.12 217.479H266.381V220.218H269.12V217.479Z" fill="var(--fill-0, #F0F0F0)"/>
<path id="Vector_499" d="M269.12 222.069H266.381V224.808H269.12V222.069Z" fill="var(--fill-0, #F0F0F0)"/>
<path id="Vector_500" d="M264.772 121.091H262.033V123.83H264.772V121.091Z" fill="var(--fill-0, #F0F0F0)"/>
<path id="Vector_501" d="M264.772 125.681H262.033V128.42H264.772V125.681Z" fill="var(--fill-0, #F0F0F0)"/>
<path id="Vector_502" d="M264.772 130.271H262.033V133.01H264.772V130.271Z" fill="var(--fill-0, #F0F0F0)"/>
<path id="Vector_503" d="M264.772 134.861H262.033V137.599H264.772V134.861Z" fill="var(--fill-0, #F0F0F0)"/>
<path id="Vector_504" d="M264.772 139.451H262.033V142.189H264.772V139.451Z" fill="var(--fill-0, #F0F0F0)"/>
<path id="Vector_505" d="M264.772 144.041H262.033V146.779H264.772V144.041Z" fill="var(--fill-0, #F0F0F0)"/>
<path id="Vector_506" d="M264.772 148.63H262.033V151.368H264.772V148.63Z" fill="var(--fill-0, #F0F0F0)"/>
<path id="Vector_507" d="M264.772 153.221H262.033V155.959H264.772V153.221Z" fill="var(--fill-0, #F0F0F0)"/>
<path id="Vector_508" d="M264.772 157.81H262.033V160.549H264.772V157.81Z" fill="var(--fill-0, #F0F0F0)"/>
<path id="Vector_509" d="M264.772 162.4H262.033V165.139H264.772V162.4Z" fill="var(--fill-0, #F0F0F0)"/>
<path id="Vector_510" d="M264.772 166.99H262.033V169.729H264.772V166.99Z" fill="var(--fill-0, #F0F0F0)"/>
<path id="Vector_511" d="M264.772 171.58H262.033V174.319H264.772V171.58Z" fill="var(--fill-0, #F0F0F0)"/>
<path id="Vector_512" d="M264.772 176.169H262.033V178.908H264.772V176.169Z" fill="var(--fill-0, #F0F0F0)"/>
<path id="Vector_513" d="M264.772 180.76H262.033V183.499H264.772V180.76Z" fill="var(--fill-0, #F0F0F0)"/>
<path id="Vector_514" d="M264.772 185.349H262.033V188.088H264.772V185.349Z" fill="var(--fill-0, #F0F0F0)"/>
<path id="Vector_515" d="M264.772 189.939H262.033V192.678H264.772V189.939Z" fill="var(--fill-0, #F0F0F0)"/>
<path id="Vector_516" d="M264.772 217.479H262.033V220.218H264.772V217.479Z" fill="var(--fill-0, #F0F0F0)"/>
<path id="Vector_517" d="M264.772 222.069H262.033V224.808H264.772V222.069Z" fill="var(--fill-0, #F0F0F0)"/>
<path id="Vector_518" d="M260.423 121.091H257.684V123.83H260.423V121.091Z" fill="var(--fill-0, #F0F0F0)"/>
<path id="Vector_519" d="M260.423 125.681H257.684V128.42H260.423V125.681Z" fill="var(--fill-0, #F0F0F0)"/>
<path id="Vector_520" d="M260.423 130.271H257.684V133.01H260.423V130.271Z" fill="var(--fill-0, #F0F0F0)"/>
<path id="Vector_521" d="M260.423 134.861H257.684V137.599H260.423V134.861Z" fill="var(--fill-0, #F0F0F0)"/>
<path id="Vector_522" d="M260.423 139.451H257.684V142.189H260.423V139.451Z" fill="var(--fill-0, #F0F0F0)"/>
<path id="Vector_523" d="M260.423 144.041H257.684V146.779H260.423V144.041Z" fill="var(--fill-0, #F0F0F0)"/>
<path id="Vector_524" d="M260.423 148.63H257.684V151.368H260.423V148.63Z" fill="var(--fill-0, #F0F0F0)"/>
<path id="Vector_525" d="M260.423 153.221H257.684V155.959H260.423V153.221Z" fill="var(--fill-0, #F0F0F0)"/>
<path id="Vector_526" d="M260.423 157.81H257.684V160.549H260.423V157.81Z" fill="var(--fill-0, #F0F0F0)"/>
<path id="Vector_527" d="M260.423 162.4H257.684V165.139H260.423V162.4Z" fill="var(--fill-0, #F0F0F0)"/>
<path id="Vector_528" d="M260.423 166.99H257.684V169.729H260.423V166.99Z" fill="var(--fill-0, #F0F0F0)"/>
<path id="Vector_529" d="M260.423 171.58H257.684V174.319H260.423V171.58Z" fill="var(--fill-0, #F0F0F0)"/>
<path id="Vector_530" d="M260.423 176.169H257.684V178.908H260.423V176.169Z" fill="var(--fill-0, #F0F0F0)"/>
<path id="Vector_531" d="M260.423 180.76H257.684V183.499H260.423V180.76Z" fill="var(--fill-0, #F0F0F0)"/>
<path id="Vector_532" d="M260.423 185.349H257.684V188.088H260.423V185.349Z" fill="var(--fill-0, #F0F0F0)"/>
<path id="Vector_533" d="M260.423 189.939H257.684V192.678H260.423V189.939Z" fill="var(--fill-0, #F0F0F0)"/>
<path id="Vector_534" d="M260.423 199.12H257.684V201.858H260.423V199.12Z" fill="var(--fill-0, #F0F0F0)"/>
<path id="Vector_535" d="M260.423 203.709H257.684V206.448H260.423V203.709Z" fill="var(--fill-0, #F0F0F0)"/>
<path id="Vector_536" d="M260.423 208.3H257.684V211.038H260.423V208.3Z" fill="var(--fill-0, #F0F0F0)"/>
<path id="Vector_537" d="M260.423 212.889H257.684V215.628H260.423V212.889Z" fill="var(--fill-0, #F0F0F0)"/>
<path id="Vector_538" d="M260.423 222.069H257.684V224.808H260.423V222.069Z" fill="var(--fill-0, #F0F0F0)"/>
<path id="Vector_539" d="M284.904 178.908H282.165V181.646H284.904V178.908Z" fill="var(--fill-0, #F0F0F0)"/>
<path id="Vector_540" d="M284.904 183.498H282.165V186.236H284.904V183.498Z" fill="var(--fill-0, #F0F0F0)"/>
<path id="Vector_541" d="M284.904 188.088H282.165V190.826H284.904V188.088Z" fill="var(--fill-0, #F0F0F0)"/>
<path id="Vector_542" d="M284.904 192.677H282.165V195.416H284.904V192.677Z" fill="var(--fill-0, #F0F0F0)"/>
<path id="Vector_543" d="M284.904 197.268H282.165V200.006H284.904V197.268Z" fill="var(--fill-0, #F0F0F0)"/>
<path id="Vector_544" d="M284.904 201.857H282.165V204.596H284.904V201.857Z" fill="var(--fill-0, #F0F0F0)"/>
<path id="Vector_545" d="M284.904 206.447H282.165V209.186H284.904V206.447Z" fill="var(--fill-0, #F0F0F0)"/>
<path id="Vector_546" d="M284.904 215.627H282.165V218.366H284.904V215.627Z" fill="var(--fill-0, #F0F0F0)"/>
<path id="Vector_547" d="M284.904 220.216H282.165V222.955H284.904V220.216Z" fill="var(--fill-0, #F0F0F0)"/>
<path id="Vector_548" d="M284.904 224.807H282.165V227.546H284.904V224.807Z" fill="var(--fill-0, #F0F0F0)"/>
<path id="Vector_549" d="M284.904 229.397H282.165V232.135H284.904V229.397Z" fill="var(--fill-0, #F0F0F0)"/>
<path id="Vector_550" d="M284.904 233.987H282.165V236.725H284.904V233.987Z" fill="var(--fill-0, #F0F0F0)"/>
<path id="Vector_551" d="M284.904 238.576H282.165V241.315H284.904V238.576Z" fill="var(--fill-0, #F0F0F0)"/>
<path id="Vector_552" d="M284.904 243.167H282.165V245.905H284.904V243.167Z" fill="var(--fill-0, #F0F0F0)"/>
<path id="Vector_553" d="M284.904 247.755H282.165V250.494H284.904V247.755Z" fill="var(--fill-0, #F0F0F0)"/>
<path id="Vector_554" d="M280.555 178.908H277.816V181.646H280.555V178.908Z" fill="var(--fill-0, #F0F0F0)"/>
<path id="Vector_555" d="M280.555 183.498H277.816V186.236H280.555V183.498Z" fill="var(--fill-0, #F0F0F0)"/>
<path id="Vector_556" d="M280.555 188.088H277.816V190.826H280.555V188.088Z" fill="var(--fill-0, #F0F0F0)"/>
<path id="Vector_557" d="M280.555 192.677H277.816V195.416H280.555V192.677Z" fill="var(--fill-0, #F0F0F0)"/>
<path id="Vector_558" d="M280.555 197.268H277.816V200.006H280.555V197.268Z" fill="var(--fill-0, #F0F0F0)"/>
<path id="Vector_559" d="M280.555 201.857H277.816V204.596H280.555V201.857Z" fill="var(--fill-0, #F0F0F0)"/>
<path id="Vector_560" d="M280.555 215.628H277.816V218.366H280.555V215.628Z" fill="var(--fill-0, #F0F0F0)"/>
<path id="Vector_561" d="M280.555 220.216H277.816V222.955H280.555V220.216Z" fill="var(--fill-0, #F0F0F0)"/>
<path id="Vector_562" d="M280.555 224.807H277.816V227.546H280.555V224.807Z" fill="var(--fill-0, #F0F0F0)"/>
<path id="Vector_563" d="M280.555 229.397H277.816V232.135H280.555V229.397Z" fill="var(--fill-0, #F0F0F0)"/>
<path id="Vector_564" d="M280.555 233.987H277.816V236.725H280.555V233.987Z" fill="var(--fill-0, #F0F0F0)"/>
<path id="Vector_565" d="M280.555 238.576H277.816V241.315H280.555V238.576Z" fill="var(--fill-0, #F0F0F0)"/>
<path id="Vector_566" d="M280.555 243.167H277.816V245.905H280.555V243.167Z" fill="var(--fill-0, #F0F0F0)"/>
<path id="Vector_567" d="M280.555 247.755H277.816V250.494H280.555V247.755Z" fill="var(--fill-0, #F0F0F0)"/>
<path id="Vector_568" d="M276.207 178.908H273.468V181.646H276.207V178.908Z" fill="var(--fill-0, #F0F0F0)"/>
<path id="Vector_569" d="M276.207 183.498H273.468V186.236H276.207V183.498Z" fill="var(--fill-0, #F0F0F0)"/>
<path id="Vector_570" d="M276.207 188.088H273.468V190.826H276.207V188.088Z" fill="var(--fill-0, #F0F0F0)"/>
<path id="Vector_571" d="M276.207 192.677H273.468V195.416H276.207V192.677Z" fill="var(--fill-0, #F0F0F0)"/>
<path id="Vector_572" d="M276.207 197.268H273.468V200.006H276.207V197.268Z" fill="var(--fill-0, #F0F0F0)"/>
<path id="Vector_573" d="M276.207 201.857H273.468V204.596H276.207V201.857Z" fill="var(--fill-0, #F0F0F0)"/>
<path id="Vector_574" d="M276.207 211.037H273.468V213.776H276.207V211.037Z" fill="var(--fill-0, #F0F0F0)"/>
<path id="Vector_575" d="M276.207 215.627H273.468V218.366H276.207V215.627Z" fill="var(--fill-0, #F0F0F0)"/>
<path id="Vector_576" d="M276.207 220.216H273.468V222.955H276.207V220.216Z" fill="var(--fill-0, #F0F0F0)"/>
<path id="Vector_577" d="M276.207 224.807H273.468V227.546H276.207V224.807Z" fill="var(--fill-0, #F0F0F0)"/>
<path id="Vector_578" d="M276.207 229.397H273.468V232.135H276.207V229.397Z" fill="var(--fill-0, #F0F0F0)"/>
<path id="Vector_579" d="M276.207 233.987H273.468V236.725H276.207V233.987Z" fill="var(--fill-0, #F0F0F0)"/>
<path id="Vector_580" d="M276.207 238.576H273.468V241.315H276.207V238.576Z" fill="var(--fill-0, #F0F0F0)"/>
<path id="Vector_581" d="M276.207 243.167H273.468V245.905H276.207V243.167Z" fill="var(--fill-0, #F0F0F0)"/>
<path id="Vector_582" d="M276.207 247.755H273.468V250.494H276.207V247.755Z" fill="var(--fill-0, #F0F0F0)"/>
<path id="Vector_583" d="M184.564 153.221H181.825V155.959H184.564V153.221Z" fill="var(--fill-0, #F0F0F0)"/>
<path id="Vector_584" d="M184.564 157.81H181.825V160.549H184.564V157.81Z" fill="var(--fill-0, #F0F0F0)"/>
<path id="Vector_585" d="M184.564 162.4H181.825V165.139H184.564V162.4Z" fill="var(--fill-0, #F0F0F0)"/>
<path id="Vector_586" d="M184.564 166.99H181.825V169.729H184.564V166.99Z" fill="var(--fill-0, #F0F0F0)"/>
<path id="Vector_587" d="M184.564 171.58H181.825V174.319H184.564V171.58Z" fill="var(--fill-0, #F0F0F0)"/>
<path id="Vector_588" d="M184.564 176.169H181.825V178.908H184.564V176.169Z" fill="var(--fill-0, #F0F0F0)"/>
<path id="Vector_589" d="M184.564 180.76H181.825V183.499H184.564V180.76Z" fill="var(--fill-0, #F0F0F0)"/>
<path id="Vector_590" d="M184.564 185.349H181.825V188.088H184.564V185.349Z" fill="var(--fill-0, #F0F0F0)"/>
<path id="Vector_591" d="M184.564 189.939H181.825V192.678H184.564V189.939Z" fill="var(--fill-0, #F0F0F0)"/>
<path id="Vector_592" d="M184.564 194.529H181.825V197.267H184.564V194.529Z" fill="var(--fill-0, #F0F0F0)"/>
<path id="Vector_593" d="M184.564 199.12H181.825V201.858H184.564V199.12Z" fill="var(--fill-0, #F0F0F0)"/>
<path id="Vector_594" d="M184.564 203.709H181.825V206.448H184.564V203.709Z" fill="var(--fill-0, #F0F0F0)"/>
<path id="Vector_595" d="M184.564 208.3H181.825V211.038H184.564V208.3Z" fill="var(--fill-0, #F0F0F0)"/>
<path id="Vector_596" d="M184.564 217.479H181.825V220.218H184.564V217.479Z" fill="var(--fill-0, #F0F0F0)"/>
<path id="Vector_597" d="M184.564 222.069H181.825V224.808H184.564V222.069Z" fill="var(--fill-0, #F0F0F0)"/>
<path id="Vector_598" d="M184.564 226.659H181.825V229.398H184.564V226.659Z" fill="var(--fill-0, #F0F0F0)"/>
<path id="Vector_599" d="M184.564 231.248H181.825V233.987H184.564V231.248Z" fill="var(--fill-0, #F0F0F0)"/>
<path id="Vector_600" d="M184.564 240.428H181.825V243.166H184.564V240.428Z" fill="var(--fill-0, #F0F0F0)"/>
<path id="Vector_601" d="M184.564 245.018H181.825V247.756H184.564V245.018Z" fill="var(--fill-0, #F0F0F0)"/>
<path id="Vector_602" d="M184.564 249.607H181.825V252.346H184.564V249.607Z" fill="var(--fill-0, #F0F0F0)"/>
<path id="Vector_603" d="M180.215 153.221H177.476V155.959H180.215V153.221Z" fill="var(--fill-0, #F0F0F0)"/>
<path id="Vector_604" d="M180.215 157.81H177.476V160.549H180.215V157.81Z" fill="var(--fill-0, #F0F0F0)"/>
<path id="Vector_605" d="M180.215 162.4H177.476V165.139H180.215V162.4Z" fill="var(--fill-0, #F0F0F0)"/>
<path id="Vector_606" d="M180.215 166.99H177.476V169.729H180.215V166.99Z" fill="var(--fill-0, #F0F0F0)"/>
<path id="Vector_607" d="M180.215 171.58H177.476V174.319H180.215V171.58Z" fill="var(--fill-0, #F0F0F0)"/>
<path id="Vector_608" d="M180.215 176.169H177.476V178.908H180.215V176.169Z" fill="var(--fill-0, #F0F0F0)"/>
<path id="Vector_609" d="M180.215 180.76H177.476V183.499H180.215V180.76Z" fill="var(--fill-0, #F0F0F0)"/>
<path id="Vector_610" d="M180.215 185.349H177.476V188.088H180.215V185.349Z" fill="var(--fill-0, #F0F0F0)"/>
<path id="Vector_611" d="M180.215 189.939H177.476V192.678H180.215V189.939Z" fill="var(--fill-0, #F0F0F0)"/>
<path id="Vector_612" d="M180.215 194.529H177.476V197.267H180.215V194.529Z" fill="var(--fill-0, #F0F0F0)"/>
<path id="Vector_613" d="M180.215 199.12H177.476V201.858H180.215V199.12Z" fill="var(--fill-0, #F0F0F0)"/>
<path id="Vector_614" d="M180.215 203.709H177.476V206.448H180.215V203.709Z" fill="var(--fill-0, #F0F0F0)"/>
<path id="Vector_615" d="M180.215 208.3H177.476V211.038H180.215V208.3Z" fill="var(--fill-0, #F0F0F0)"/>
<path id="Vector_616" d="M180.215 222.069H177.476V224.808H180.215V222.069Z" fill="var(--fill-0, #F0F0F0)"/>
<path id="Vector_617" d="M180.215 226.659H177.476V229.398H180.215V226.659Z" fill="var(--fill-0, #F0F0F0)"/>
<path id="Vector_618" d="M180.215 235.838H177.476V238.577H180.215V235.838Z" fill="var(--fill-0, #F0F0F0)"/>
<path id="Vector_619" d="M180.215 240.428H177.476V243.166H180.215V240.428Z" fill="var(--fill-0, #F0F0F0)"/>
<path id="Vector_620" d="M180.215 245.018H177.476V247.756H180.215V245.018Z" fill="var(--fill-0, #F0F0F0)"/>
<path id="Vector_621" d="M180.215 249.607H177.476V252.346H180.215V249.607Z" fill="var(--fill-0, #F0F0F0)"/>
<path id="Vector_622" d="M175.866 153.221H173.127V155.959H175.866V153.221Z" fill="var(--fill-0, #F0F0F0)"/>
<path id="Vector_623" d="M175.866 157.81H173.127V160.549H175.866V157.81Z" fill="var(--fill-0, #F0F0F0)"/>
<path id="Vector_624" d="M175.866 162.4H173.127V165.139H175.866V162.4Z" fill="var(--fill-0, #F0F0F0)"/>
<path id="Vector_625" d="M175.866 166.99H173.127V169.729H175.866V166.99Z" fill="var(--fill-0, #F0F0F0)"/>
<path id="Vector_626" d="M175.866 171.58H173.127V174.319H175.866V171.58Z" fill="var(--fill-0, #F0F0F0)"/>
<path id="Vector_627" d="M175.866 176.169H173.127V178.908H175.866V176.169Z" fill="var(--fill-0, #F0F0F0)"/>
<path id="Vector_628" d="M175.866 180.76H173.127V183.499H175.866V180.76Z" fill="var(--fill-0, #F0F0F0)"/>
<path id="Vector_629" d="M175.866 185.349H173.127V188.088H175.866V185.349Z" fill="var(--fill-0, #F0F0F0)"/>
<path id="Vector_630" d="M175.866 189.939H173.127V192.678H175.866V189.939Z" fill="var(--fill-0, #F0F0F0)"/>
<path id="Vector_631" d="M175.866 194.529H173.127V197.267H175.866V194.529Z" fill="var(--fill-0, #F0F0F0)"/>
<path id="Vector_632" d="M175.866 199.12H173.127V201.858H175.866V199.12Z" fill="var(--fill-0, #F0F0F0)"/>
<path id="Vector_633" d="M175.866 203.709H173.127V206.448H175.866V203.709Z" fill="var(--fill-0, #F0F0F0)"/>
<path id="Vector_634" d="M175.866 208.3H173.127V211.038H175.866V208.3Z" fill="var(--fill-0, #F0F0F0)"/>
<path id="Vector_635" d="M175.866 212.889H173.127V215.628H175.866V212.889Z" fill="var(--fill-0, #F0F0F0)"/>
<path id="Vector_636" d="M175.866 222.069H173.127V224.808H175.866V222.069Z" fill="var(--fill-0, #F0F0F0)"/>
<path id="Vector_637" d="M175.866 231.248H173.127V233.987H175.866V231.248Z" fill="var(--fill-0, #F0F0F0)"/>
<path id="Vector_638" d="M175.866 235.838H173.127V238.577H175.866V235.838Z" fill="var(--fill-0, #F0F0F0)"/>
<path id="Vector_639" d="M175.866 240.428H173.127V243.166H175.866V240.428Z" fill="var(--fill-0, #F0F0F0)"/>
<path id="Vector_640" d="M175.866 245.018H173.127V247.756H175.866V245.018Z" fill="var(--fill-0, #F0F0F0)"/>
<path id="Vector_641" d="M175.866 249.607H173.127V252.346H175.866V249.607Z" fill="var(--fill-0, #F0F0F0)"/>
<path id="Vector_642" d="M202.28 179.391H199.542V182.13H202.28V179.391Z" fill="var(--fill-0, #F0F0F0)"/>
<path id="Vector_643" d="M202.28 183.981H199.542V186.72H202.28V183.981Z" fill="var(--fill-0, #F0F0F0)"/>
<path id="Vector_644" d="M202.28 188.571H199.542V191.31H202.28V188.571Z" fill="var(--fill-0, #F0F0F0)"/>
<path id="Vector_645" d="M202.28 193.161H199.542V195.899H202.28V193.161Z" fill="var(--fill-0, #F0F0F0)"/>
<path id="Vector_646" d="M202.28 197.75H199.542V200.489H202.28V197.75Z" fill="var(--fill-0, #F0F0F0)"/>
<path id="Vector_647" d="M202.28 202.34H199.542V205.079H202.28V202.34Z" fill="var(--fill-0, #F0F0F0)"/>
<path id="Vector_648" d="M202.28 216.11H199.542V218.849H202.28V216.11Z" fill="var(--fill-0, #F0F0F0)"/>
<path id="Vector_649" d="M202.28 220.7H199.542V223.439H202.28V220.7Z" fill="var(--fill-0, #F0F0F0)"/>
<path id="Vector_650" d="M202.28 225.29H199.542V228.029H202.28V225.29Z" fill="var(--fill-0, #F0F0F0)"/>
<path id="Vector_651" d="M202.28 229.88H199.542V232.619H202.28V229.88Z" fill="var(--fill-0, #F0F0F0)"/>
<path id="Vector_652" d="M202.28 234.47H199.542V237.208H202.28V234.47Z" fill="var(--fill-0, #F0F0F0)"/>
<path id="Vector_653" d="M202.28 239.06H199.542V241.798H202.28V239.06Z" fill="var(--fill-0, #F0F0F0)"/>
<path id="Vector_654" d="M202.28 243.649H199.542V246.388H202.28V243.649Z" fill="var(--fill-0, #F0F0F0)"/>
<path id="Vector_655" d="M197.931 179.391H195.193V182.13H197.931V179.391Z" fill="var(--fill-0, #F0F0F0)"/>
<path id="Vector_656" d="M197.931 183.981H195.193V186.72H197.931V183.981Z" fill="var(--fill-0, #F0F0F0)"/>
<path id="Vector_657" d="M197.931 188.571H195.193V191.31H197.931V188.571Z" fill="var(--fill-0, #F0F0F0)"/>
<path id="Vector_658" d="M197.931 193.161H195.193V195.899H197.931V193.161Z" fill="var(--fill-0, #F0F0F0)"/>
<path id="Vector_659" d="M197.931 197.75H195.193V200.489H197.931V197.75Z" fill="var(--fill-0, #F0F0F0)"/>
<path id="Vector_660" d="M197.931 202.34H195.193V205.079H197.931V202.34Z" fill="var(--fill-0, #F0F0F0)"/>
<path id="Vector_661" d="M197.931 216.11H195.193V218.849H197.931V216.11Z" fill="var(--fill-0, #F0F0F0)"/>
<path id="Vector_662" d="M197.931 220.7H195.193V223.439H197.931V220.7Z" fill="var(--fill-0, #F0F0F0)"/>
<path id="Vector_663" d="M197.931 225.29H195.193V228.029H197.931V225.29Z" fill="var(--fill-0, #F0F0F0)"/>
<path id="Vector_664" d="M197.931 229.88H195.193V232.619H197.931V229.88Z" fill="var(--fill-0, #F0F0F0)"/>
<path id="Vector_665" d="M197.931 234.47H195.193V237.208H197.931V234.47Z" fill="var(--fill-0, #F0F0F0)"/>
<path id="Vector_666" d="M197.931 239.06H195.193V241.798H197.931V239.06Z" fill="var(--fill-0, #F0F0F0)"/>
<path id="Vector_667" d="M197.931 248.239H195.193V250.978H197.931V248.239Z" fill="var(--fill-0, #F0F0F0)"/>
<path id="Vector_668" d="M53.461 159.179H50.7223V161.918H53.461V159.179Z" fill="var(--fill-0, #F0F0F0)"/>
<path id="Vector_669" d="M53.461 163.769H50.7223V166.507H53.461V163.769Z" fill="var(--fill-0, #F0F0F0)"/>
<path id="Vector_670" d="M53.461 168.359H50.7223V171.098H53.461V168.359Z" fill="var(--fill-0, #F0F0F0)"/>
<path id="Vector_671" d="M53.461 172.949H50.7223V175.687H53.461V172.949Z" fill="var(--fill-0, #F0F0F0)"/>
<path id="Vector_672" d="M53.461 177.539H50.7223V180.277H53.461V177.539Z" fill="var(--fill-0, #F0F0F0)"/>
<path id="Vector_673" d="M53.461 182.129H50.7223V184.867H53.461V182.129Z" fill="var(--fill-0, #F0F0F0)"/>
<path id="Vector_674" d="M53.461 186.719H50.7223V189.458H53.461V186.719Z" fill="var(--fill-0, #F0F0F0)"/>
<path id="Vector_675" d="M53.461 191.309H50.7223V194.048H53.461V191.309Z" fill="var(--fill-0, #F0F0F0)"/>
<path id="Vector_676" d="M53.461 195.898H50.7223V198.637H53.461V195.898Z" fill="var(--fill-0, #F0F0F0)"/>
<path id="Vector_677" d="M53.461 200.488H50.7223V203.227H53.461V200.488Z" fill="var(--fill-0, #F0F0F0)"/>
<path id="Vector_678" d="M53.461 205.078H50.7223V207.816H53.461V205.078Z" fill="var(--fill-0, #F0F0F0)"/>
<path id="Vector_679" d="M53.461 214.258H50.7223V216.996H53.461V214.258Z" fill="var(--fill-0, #F0F0F0)"/>
<path id="Vector_680" d="M53.461 218.847H50.7223V221.586H53.461V218.847Z" fill="var(--fill-0, #F0F0F0)"/>
<path id="Vector_681" d="M53.461 223.438H50.7223V226.176H53.461V223.438Z" fill="var(--fill-0, #F0F0F0)"/>
<path id="Vector_682" d="M53.461 228.027H50.7223V230.766H53.461V228.027Z" fill="var(--fill-0, #F0F0F0)"/>
<path id="Vector_683" d="M53.461 232.618H50.7223V235.357H53.461V232.618Z" fill="var(--fill-0, #F0F0F0)"/>
<path id="Vector_684" d="M53.461 237.206H50.7223V239.945H53.461V237.206Z" fill="var(--fill-0, #F0F0F0)"/>
<path id="Vector_685" d="M53.461 241.797H50.7223V244.536H53.461V241.797Z" fill="var(--fill-0, #F0F0F0)"/>
<path id="Vector_686" d="M53.461 246.387H50.7223V249.126H53.461V246.387Z" fill="var(--fill-0, #F0F0F0)"/>
<path id="Vector_687" d="M49.112 159.179H46.3733V161.918H49.112V159.179Z" fill="var(--fill-0, #F0F0F0)"/>
<path id="Vector_688" d="M49.112 163.769H46.3733V166.507H49.112V163.769Z" fill="var(--fill-0, #F0F0F0)"/>
<path id="Vector_689" d="M49.112 168.359H46.3733V171.098H49.112V168.359Z" fill="var(--fill-0, #F0F0F0)"/>
<path id="Vector_690" d="M49.112 172.949H46.3733V175.687H49.112V172.949Z" fill="var(--fill-0, #F0F0F0)"/>
<path id="Vector_691" d="M49.112 177.539H46.3733V180.277H49.112V177.539Z" fill="var(--fill-0, #F0F0F0)"/>
<path id="Vector_692" d="M49.112 182.129H46.3733V184.867H49.112V182.129Z" fill="var(--fill-0, #F0F0F0)"/>
<path id="Vector_693" d="M49.112 186.719H46.3733V189.458H49.112V186.719Z" fill="var(--fill-0, #F0F0F0)"/>
<path id="Vector_694" d="M49.112 191.309H46.3733V194.048H49.112V191.309Z" fill="var(--fill-0, #F0F0F0)"/>
<path id="Vector_695" d="M49.112 195.898H46.3733V198.637H49.112V195.898Z" fill="var(--fill-0, #F0F0F0)"/>
<path id="Vector_696" d="M49.112 200.488H46.3733V203.227H49.112V200.488Z" fill="var(--fill-0, #F0F0F0)"/>
<path id="Vector_697" d="M49.112 205.078H46.3733V207.816H49.112V205.078Z" fill="var(--fill-0, #F0F0F0)"/>
<path id="Vector_698" d="M49.112 209.668H46.3733V212.406H49.112V209.668Z" fill="var(--fill-0, #F0F0F0)"/>
<path id="Vector_699" d="M49.112 214.258H46.3733V216.996H49.112V214.258Z" fill="var(--fill-0, #F0F0F0)"/>
<path id="Vector_700" d="M49.112 218.847H46.3733V221.586H49.112V218.847Z" fill="var(--fill-0, #F0F0F0)"/>
<path id="Vector_701" d="M49.112 223.438H46.3733V226.176H49.112V223.438Z" fill="var(--fill-0, #F0F0F0)"/>
<path id="Vector_702" d="M49.112 228.027H46.3733V230.766H49.112V228.027Z" fill="var(--fill-0, #F0F0F0)"/>
<path id="Vector_703" d="M49.112 232.618H46.3733V235.357H49.112V232.618Z" fill="var(--fill-0, #F0F0F0)"/>
<path id="Vector_704" d="M49.112 237.206H46.3733V239.945H49.112V237.206Z" fill="var(--fill-0, #F0F0F0)"/>
<path id="Vector_705" d="M49.112 241.797H46.3733V244.536H49.112V241.797Z" fill="var(--fill-0, #F0F0F0)"/>
<path id="Vector_706" d="M49.112 246.387H46.3733V249.126H49.112V246.387Z" fill="var(--fill-0, #F0F0F0)"/>
<path id="Vector_707" d="M74.8811 177.056H72.1425V179.795H74.8811V177.056Z" fill="var(--fill-0, #F0F0F0)"/>
<path id="Vector_708" d="M74.8811 181.646H72.1425V184.385H74.8811V181.646Z" fill="var(--fill-0, #F0F0F0)"/>
<path id="Vector_709" d="M74.8811 186.235H72.1425V188.974H74.8811V186.235Z" fill="var(--fill-0, #F0F0F0)"/>
<path id="Vector_710" d="M74.8811 190.825H72.1425V193.564H74.8811V190.825Z" fill="var(--fill-0, #F0F0F0)"/>
<path id="Vector_711" d="M74.8811 195.415H72.1425V198.154H74.8811V195.415Z" fill="var(--fill-0, #F0F0F0)"/>
<path id="Vector_712" d="M74.8811 200.005H72.1425V202.744H74.8811V200.005Z" fill="var(--fill-0, #F0F0F0)"/>
<path id="Vector_713" d="M74.8811 204.595H72.1425V207.333H74.8811V204.595Z" fill="var(--fill-0, #F0F0F0)"/>
<path id="Vector_714" d="M74.8811 209.185H72.1425V211.923H74.8811V209.185Z" fill="var(--fill-0, #F0F0F0)"/>
<path id="Vector_715" d="M74.8811 213.775H72.1425V216.513H74.8811V213.775Z" fill="var(--fill-0, #F0F0F0)"/>
<path id="Vector_716" d="M74.8811 218.365H72.1425V221.103H74.8811V218.365Z" fill="var(--fill-0, #F0F0F0)"/>
<path id="Vector_717" d="M70.5331 177.056H67.7944V179.795H70.5331V177.056Z" fill="var(--fill-0, #F0F0F0)"/>
<path id="Vector_718" d="M70.5331 181.646H67.7944V184.385H70.5331V181.646Z" fill="var(--fill-0, #F0F0F0)"/>
<path id="Vector_719" d="M70.5331 186.235H67.7944V188.974H70.5331V186.235Z" fill="var(--fill-0, #F0F0F0)"/>
<path id="Vector_720" d="M70.5331 190.825H67.7944V193.564H70.5331V190.825Z" fill="var(--fill-0, #F0F0F0)"/>
<path id="Vector_721" d="M70.5331 195.415H67.7944V198.154H70.5331V195.415Z" fill="var(--fill-0, #F0F0F0)"/>
<path id="Vector_722" d="M70.5331 200.005H67.7944V202.744H70.5331V200.005Z" fill="var(--fill-0, #F0F0F0)"/>
<path id="Vector_723" d="M70.5331 204.595H67.7944V207.333H70.5331V204.595Z" fill="var(--fill-0, #F0F0F0)"/>
<path id="Vector_724" d="M70.5331 209.185H67.7944V211.923H70.5331V209.185Z" fill="var(--fill-0, #F0F0F0)"/>
<path id="Vector_725" d="M70.5331 213.775H67.7944V216.513H70.5331V213.775Z" fill="var(--fill-0, #F0F0F0)"/>
</g>
</g>
<path id="Vector_726" d="M116.156 43.2637C116.156 38.9615 112.668 35.4735 108.366 35.4735C107.589 35.4735 106.838 35.5907 106.129 35.8035C106.243 35.0223 106.304 34.2241 106.304 33.4117C106.304 24.3011 98.9181 16.9156 89.8068 16.9156C88.7683 16.9156 87.7534 17.0159 86.7679 17.1993C84.2321 13.0503 79.6741 10.2707 74.455 10.2707C66.5554 10.2707 60.1483 16.6168 60.031 24.4874C59.9506 24.4855 59.8721 24.4751 59.7908 24.4751C52.4511 24.4751 46.5018 30.424 46.5018 37.7632C46.5018 45.1023 52.4521 51.0512 59.7908 51.0512H108.595L108.585 51.0398C112.785 50.9245 116.156 47.4913 116.156 43.2637Z" fill="var(--fill-0, #F0F0F0)"/>
<path id="Vector_727" d="M333.046 23.4304C333.046 20.6839 330.82 18.4567 328.072 18.4567C327.575 18.4567 327.096 18.5314 326.644 18.6676C326.717 18.1691 326.755 17.6594 326.755 17.1411C326.755 11.3246 322.039 6.60902 316.223 6.60902C315.56 6.60902 314.912 6.67334 314.283 6.79061C312.663 4.14152 309.753 2.36725 306.421 2.36725C301.378 2.36725 297.286 6.41987 297.211 11.4447C297.16 11.4438 297.11 11.4372 297.058 11.4372C292.372 11.4372 288.573 15.2354 288.573 19.9216C288.573 24.607 292.371 28.4061 297.058 28.4061H328.219L328.212 28.3995C330.893 28.3229 333.046 26.1306 333.046 23.4304Z" fill="var(--fill-0, #F0F0F0)"/>
<path id="Vector_728" d="M198.184 12.9031C198.184 11.2206 196.82 9.85679 195.138 9.85679C194.833 9.85679 194.54 9.90218 194.263 9.98541C194.307 9.67993 194.331 9.36783 194.331 9.05005C194.331 5.4864 191.442 2.59802 187.878 2.59802C187.473 2.59802 187.075 2.63774 186.689 2.70962C185.698 1.08668 183.915 0 181.874 0C178.785 0 176.279 2.48264 176.232 5.56016C176.201 5.56016 176.17 5.55544 176.139 5.55544C173.268 5.55544 170.941 7.88297 170.941 10.7524C170.941 13.6228 173.268 15.9494 176.139 15.9494H195.227L195.223 15.9456C196.866 15.9002 198.184 14.5573 198.184 12.9031Z" fill="var(--fill-0, #F0F0F0)"/>
</g>
</svg>
