<svg preserveAspectRatio="none" width="100%" height="100%" overflow="visible" style="display: block;" viewBox="0 0 37.1752 44.3873" fill="none" xmlns="http://www.w3.org/2000/svg">
<g id="_01_align_center">
<path id="Vector" d="M18.5876 44.3873L17.2982 43.2822C15.5207 41.7939 0 28.3906 0 18.5864C0 8.32148 8.32198 8.06183e-05 18.5876 8.06183e-05C28.8533 8.06183e-05 37.1752 8.32148 37.1752 18.5864C37.1752 28.3907 21.6545 41.794 19.8844 43.2895L18.5876 44.3873ZM18.5876 4.01898C10.5455 4.02809 4.02838 10.5448 4.01927 18.5863C4.01927 24.7455 13.5682 34.5848 18.5876 39.0881C23.6071 34.5829 33.156 24.7381 33.156 18.5863C33.1469 10.5448 26.6298 4.02817 18.5876 4.01898Z" fill="var(--fill-0, #00ADEF)"/>
<path id="Vector_2" d="M18.5876 25.9534C14.5184 25.9534 11.2197 22.6549 11.2197 18.586C11.2197 14.5171 14.5184 11.2185 18.5876 11.2185C22.6569 11.2185 25.9556 14.5171 25.9556 18.586C25.9556 22.6549 22.657 25.9534 18.5876 25.9534ZM18.5876 14.9022C16.553 14.9022 14.9037 16.5514 14.9037 18.5859C14.9037 20.6204 16.553 22.2696 18.5876 22.2696C20.6223 22.2696 22.2716 20.6204 22.2716 18.5859C22.2716 16.5514 20.6223 14.9022 18.5876 14.9022Z" fill="var(--fill-0, #00ADEF)"/>
</g>
</svg>
