<svg xmlns="http://www.w3.org/2000/svg" xmlns:xlink="http://www.w3.org/1999/xlink" width="640" height="640" viewBox="0 0 640 640"><defs><clipPath id="a"><circle cx="320" cy="320" r="320" transform="translate(406 -124)" fill="none" stroke="#707070" stroke-width="1"/></clipPath></defs><g transform="translate(-640 -220)"><circle cx="320" cy="320" r="320" transform="translate(640 220)" fill="#f2f2f2"/><g transform="translate(234 344)" clip-path="url(#a)"><g transform="translate(-50 -65.574)"><path d="M648.1,238.976a41.106,41.106,0,0,1-1.11,9.462L615.544,382.2a35.306,35.306,0,0,1-42.508,26.3l-125.967-39.09-6.148-1.9a36.476,36.476,0,0,1-27.634,5.737c-18.284-3.235-30.945-18.115-28.28-33.258s19.657-24.767,37.941-21.556a36.549,36.549,0,0,1,24.026,14.825l.093.017.32.056,109.641,13.56,9.217-111.209a40.994,40.994,0,0,1,81.854,3.292Z" transform="translate(196.167 104.094)" fill="#9f616a"/><path d="M609.828,238.974a41.106,41.106,0,0,1-1.11,9.462L582.926,387.844a35.306,35.306,0,0,1-42.508,26.3L414.444,379.115l5.644-54.551h0l95.934,13.174,11.964-102.054a40.994,40.994,0,0,1,81.854,3.292Z" transform="translate(234.435 104.095)" fill="#6c63ff"/><path d="M581.768,192.4A66.771,66.771,0,1,0,495,256.119L507.9,341.427l65.8-54.837s-14.215-18.106-21.839-38.524A66.7,66.7,0,0,0,581.768,192.4Z" transform="translate(256.772 11.166)" fill="#9f616a"/><path d="M588.679,184.739l-74.241,25.81L444.25,572.893l99.559,12.154,44.87,5.478,62.633-17.632L605.341,230.2a120.253,120.253,0,0,0-16.662-45.462Z" transform="translate(236.607 87.049)" fill="#6c63ff"/><path d="M471.687,254.931c3.471.592,7.553-7.824,11.442-16.018,8.154-17.156,13.336-28.062,13.731-43.479.335-13.139-3.315-9.691-6.865-38.9-1.172-9.635-17.632-9.617-20.982-14.191-5.658-7.729,3.023-10.915-11.056-15.558-26.371-8.695-38.292,4.813-55.044,5.972-.423.03-8.726,8.149-13.362,8.568-8.124.736-19.849-.527-25.1-12.907-4.918-11.574-8.166,22.246-3.776,26.432A88.934,88.934,0,0,1,371,167.971c.186.734-7.739-23.132-10.323-16.067-1.86,5.085-3.559,37.967,1.17,38.951,3.954.822,36.806,13.439,73.228-11.442,1.291-.878.072.527,4.577,11.442,5.682,13.769,6.965,14.514,6.865,18.307-.214,8.21-6.378,10.627-4.576,16.018a11.084,11.084,0,0,0,11.442,6.865c4.829-1,5.658-6.972,9.153-6.865,2.986.091,6.548,4.6,6.865,9.153.667,9.591-13.525,12.227-16.018,25.173-1.405,7.305,15.117-5.12,18.307-4.578Z" transform="translate(352.226 -10.373)" fill="#090814"/><g transform="translate(628.774 475.573) rotate(175.008)"><path d="M7.188,112.73a7.188,7.188,0,0,1-7.163-7.776C11,76.588,9.507,43.753,8.1,6.6A7.23,7.23,0,0,1,15.278,0H61.641a7.23,7.23,0,0,1,7.165,6.6c-3.767,36.093-1.735,69.217,8.078,98.354a7.188,7.188,0,0,1-7.151,7.776Z" transform="translate(3.821 0)" fill="#6c63ff"/><path d="M84.432,13.279,80.973,26.4a6.482,6.482,0,0,1-6.514,4.215h-21.6a1.8,1.8,0,0,1-.406.63l-2.4,2.4a2.682,2.682,0,0,1-1.884.724H34.831a2.682,2.682,0,0,1-1.884-.724l-2.4-2.4a1.8,1.8,0,0,1-.406-.63H10.106A6.482,6.482,0,0,1,3.593,26.4L.133,13.284A4.541,4.541,0,0,1,1.478,8.841,7.407,7.407,0,0,1,6.645,6.87c22.1-9.049,45.817-9.271,71.272,0a7.409,7.409,0,0,1,5.17,1.965A4.543,4.543,0,0,1,84.432,13.279Z" transform="translate(0 91.673)" fill="#3f3d56"/></g></g></g></g></svg>