<svg preserveAspectRatio="none" width="100%" height="100%" overflow="visible" style="display: block;" viewBox="0 0 483.684 315.1" fill="none" xmlns="http://www.w3.org/2000/svg">
<g id="Group">
<path id="Vector" d="M200.75 107.086L198.465 108.506L195.88 107.086L194.898 218L204.88 215.97L203.027 105.283L200.75 107.086Z" fill="var(--fill-0, #444445)"/>
<path id="Vector_2" d="M198.682 107.595C198.682 107.595 182.862 99.6753 168.073 104.007C153.284 108.339 146.43 118.388 147.939 126.056C149.448 133.725 157.815 138.152 157.815 138.152L124.861 165.5L165.058 186.299C165.058 186.299 157.404 197.785 160.953 206.049C164.502 214.309 184.445 219.611 191.377 218.69C193.386 218.421 196.11 217.752 198.965 216.937V107.372L198.682 107.595Z" fill="url(#paint0_linear_0_188)"/>
<path id="Vector_3" d="M317.85 128.851C317.85 128.851 310.914 135.935 294.237 136.303C284.202 136.526 262.502 130.03 262.796 116.156C262.973 107.896 270.317 103.731 270.317 103.731L230.158 82.6593L198.965 107.368V216.926C205.971 214.932 213.768 212.063 213.768 212.063L252.874 233.106L284.181 208.486C284.181 208.486 269.884 195.26 272.541 187.733C275.198 180.206 283.898 175.499 291.425 173.097C298.952 170.699 311.198 170.6 316.483 172.269C321.768 173.937 326.252 176.232 326.252 176.232L356.454 149.079L317.85 128.851Z" fill="url(#paint1_linear_0_188)"/>
<path id="Vector_4" d="M262.796 116.16C262.974 107.9 270.317 103.734 270.317 103.734L230.916 83.0597V118.225V221.294L252.871 233.11L284.177 208.489C284.177 208.489 269.881 195.263 272.538 187.737C275.194 180.21 283.894 175.502 291.421 173.101C294.918 171.989 299.423 171.39 303.784 171.213C302.976 159.418 302.119 146.858 301.361 135.669C299.211 136.006 296.859 136.243 294.237 136.3C284.206 136.526 262.502 130.03 262.796 116.16Z" fill="url(#paint2_linear_0_188)"/>
<path id="Vector_5" d="M317.85 128.851C317.85 128.851 310.915 135.935 294.238 136.303C284.202 136.526 262.503 130.03 262.797 116.156C262.807 115.692 262.913 115.288 262.963 114.853C262.503 114.839 262.233 114.832 262.233 114.832V225.742L284.174 208.486C284.174 208.486 269.878 195.26 272.534 187.733C275.191 180.206 283.891 175.499 291.418 173.098C298.945 170.7 311.191 170.6 316.476 172.269C321.761 173.937 326.246 176.232 326.246 176.232L356.447 149.079L317.85 128.851Z" fill="url(#paint3_linear_0_188)"/>
<path id="Vector_6" d="M158.289 138.478L157.195 138.662L124.858 165.493L158.289 182.788V138.478Z" fill="url(#paint4_linear_0_188)"/>
<path id="Vector_7" d="M166.51 186.705V186.047L164.675 186.904C163.181 189.362 157.882 198.901 160.953 206.041C161.874 208.181 163.903 210.118 166.514 211.804L166.51 186.705Z" fill="url(#paint5_linear_0_188)"/>
<path id="Vector_8" d="M272.088 217.999L284.18 208.489C284.18 208.489 272.077 197.271 272.247 189.621C272.169 189.603 272.091 189.585 272.091 189.585L272.088 217.999Z" fill="url(#paint6_linear_0_188)"/>
<path id="Vector_9" d="M326.252 176.236L356.454 149.083L317.85 128.851V172.733C322.515 174.334 326.252 176.236 326.252 176.236Z" fill="url(#paint7_linear_0_188)"/>
<g id="Group_2">
<path id="Vector_10" d="M149.901 315.1L149.363 314.403L181.636 289.601C181.307 289.155 180.117 287.806 176.025 284.823C172.876 282.532 169.518 277.406 169.575 271.583C169.607 268.388 170.737 263.812 175.94 260.171C194.828 246.973 218.88 255.666 221.529 256.693L252.868 233.096L213.768 212.063C211.391 213.438 190.531 224.85 170.429 214.429C163.953 211.068 160.262 206.828 159.458 201.816C158.286 194.538 163.525 188.017 165.062 186.288L125.711 165.939L95.3364 190.925L95.0636 190.751C94.8688 190.627 75.2164 178.457 58.1852 189.359C48.3094 195.675 43.4388 201.944 43.708 207.99C44.0551 215.818 53.0914 220.621 53.18 220.67L53.7467 220.964L53.2721 221.389L23.5526 248.071L22.961 247.413L52.22 221.142C50.1584 219.93 43.1448 215.287 42.826 208.029C42.5426 201.639 47.5513 195.111 57.7105 188.612C74.1112 178.135 92.7789 188.382 95.262 189.837L125.601 164.884L125.86 165.018L166.514 186.044L166.096 186.469C166.026 186.543 159.062 193.801 160.333 201.678C161.095 206.393 164.626 210.42 170.836 213.64C191.643 224.432 213.308 211.312 213.524 211.178L213.743 211.043L254.508 232.968L253.955 233.383L221.66 257.695L221.427 257.599C221.175 257.497 195.958 247.253 176.447 260.897C171.552 264.322 170.489 268.601 170.457 271.59C170.4 277.105 173.574 281.944 176.546 284.111C182.061 288.128 182.6 289.385 182.632 289.676L182.66 289.924L182.462 290.076L149.901 315.1Z" fill="var(--fill-0, #6E6F72)"/>
</g>
<g id="Group_3">
<path id="Vector_11" d="M379.308 300.337L339.203 279.007C336.989 280.481 319.136 291.666 300.96 283.304C292.93 279.613 288.322 274.892 287.259 269.27C285.87 261.953 290.911 255.513 292.399 253.806L252.874 233.11L284.181 208.49C281.885 206.821 272.562 199.557 272.08 190.989C271.854 186.88 273.717 183.1 277.624 179.76C297.602 162.677 322.77 174.168 325.657 175.584L356.446 149.083L356.715 149.228L395.733 170.36L395.432 170.771C395.361 170.866 388.589 180.299 391.607 189.136C393.583 194.927 399.276 199.227 408.532 201.912C434.28 209.382 444.408 196.84 444.503 196.712L444.73 196.422L445.059 196.596L483.684 217.1L483.27 217.883L444.957 197.545C443.239 199.429 432.424 209.779 408.284 202.766C398.734 199.992 392.839 195.501 390.767 189.416C387.933 181.11 393.105 172.637 394.43 170.665L356.567 150.156L325.784 176.647L325.519 176.505C325.257 176.36 298.86 162.769 278.201 180.433C274.517 183.589 272.753 187.121 272.966 190.939C273.476 200.067 285.052 208.026 285.169 208.107L285.672 208.447L285.194 208.823L254.5 232.961L293.84 253.562L293.433 253.987C293.366 254.057 286.628 261.188 288.134 269.115C289.14 274.435 293.582 278.937 301.332 282.503C320.213 291.178 338.739 278.264 338.923 278.136L339.146 277.977L339.387 278.104L379.73 299.562L379.308 300.337Z" fill="var(--fill-0, #6E6F72)"/>
</g>
<g id="Group_4">
<path id="Vector_12" d="M125.708 165.946L125.442 165.808L87.3201 145.544L79.2792 149.993C71.0931 154.52 55.0537 154.162 37.6825 143.146C34.3174 141.014 32.2416 138.12 31.5155 134.543C29.9746 126.97 34.8664 118.742 36.1239 116.787L0 98.3364L0.400275 97.5465L37.4239 116.45L37.137 116.865C37.0733 116.957 30.7362 126.258 32.3868 134.366C33.0634 137.695 35.0046 140.398 38.1572 142.395C55.2202 153.213 70.8947 153.616 78.8506 149.214L87.3166 144.535L125.594 164.884L156.84 138.538C154.814 137.012 147.085 130.636 147.67 122.55C148.112 116.425 153.242 110.889 162.919 106.083C180.616 97.3021 196.422 106.21 198.685 107.592L230.151 82.6594L191.016 61.9529C188.243 62.9553 160.776 72.5966 146.827 64.7971C140.454 61.2374 136.295 56.2502 135.126 50.7637C134.283 46.8179 135.063 42.9783 137.323 39.9535L141.789 33.9675L103.933 16.5691L104.302 15.7616L143.15 33.6204L138.028 40.4848C135.927 43.3007 135.201 46.8887 135.991 50.583C137.11 55.8217 141.109 60.5963 147.259 64.032C161.297 71.874 190.598 61.1701 190.896 61.0603L191.08 60.9894L231.759 82.5178L231.228 82.9393L198.731 108.69L198.462 108.513C198.295 108.403 181.863 97.6705 163.309 106.887C153.936 111.541 148.97 116.833 148.548 122.62C147.925 131.217 157.705 138.092 157.807 138.159L158.282 138.489L125.708 165.946Z" fill="var(--fill-0, #6E6F72)"/>
</g>
<g id="Group_5">
<path id="Vector_13" d="M356.56 150.146L317.978 129.358C315.696 131.168 297.556 144.542 274.635 131.649C266.672 127.172 262.474 122.153 262.173 116.734C261.794 110.047 267.415 104.928 269.247 103.444L230.158 82.6633L262.102 56.8775C259.962 55.3332 251.766 48.8974 251.528 40.7827C251.39 36.1001 253.958 31.7364 259.155 27.8154C276.742 14.5435 300.504 23.6571 303.192 24.7551L334.396 0L334.949 0.694237L303.327 25.7752L303.082 25.6689C302.834 25.5556 277.844 14.8198 259.69 28.5202C254.734 32.2606 252.283 36.3764 252.414 40.7579C252.665 49.4429 262.98 56.4135 263.087 56.4844L263.59 56.8173L231.759 82.511L270.897 103.32L270.32 103.738C270.246 103.795 262.64 109.37 263.058 116.691C263.345 121.792 267.391 126.566 275.074 130.884C298.949 144.308 317.46 128.656 317.641 128.497L317.871 128.295L356.461 149.087L387.331 123.758C385.447 122.22 378.331 115.902 378.543 108.06C378.678 103.065 381.791 98.4997 387.792 94.4866C406.913 81.7105 425.326 89.967 427.653 91.1039L461.442 67.5531L461.949 68.2793L427.724 92.1382L427.483 92.0072C427.288 91.9044 408.188 81.9195 388.288 95.2233C382.539 99.0628 379.56 103.391 379.432 108.081C379.205 116.468 388.213 123.326 388.309 123.393L388.759 123.733L356.56 150.146Z" fill="var(--fill-0, #6E6F72)"/>
</g>
<path id="Vector_14" d="M158.29 157.885V181.793L166.097 186.472V210.6C166.097 210.6 174.588 220.132 192.887 218.067C211.19 216.002 213.524 211.181 213.524 211.181L252.871 233.11L272.085 218.786L272.078 190.985C272.078 190.985 271.135 180.398 285.053 174.748C309.346 164.887 325.658 175.58 325.658 175.58L356.56 150.145L158.29 157.885Z" fill="url(#paint8_linear_0_188)"/>
</g>
<defs>
<linearGradient id="paint0_linear_0_188" x1="156.96" y1="160.748" x2="231.065" y2="160.748" gradientUnits="userSpaceOnUse">
<stop/>
<stop offset="1" stop-color="#7B7D7F"/>
</linearGradient>
<linearGradient id="paint1_linear_0_188" x1="165.754" y1="157.886" x2="244.575" y2="157.886" gradientUnits="userSpaceOnUse">
<stop stop-color="#7B7D7F"/>
<stop offset="0.2418" stop-color="#545557"/>
<stop offset="1"/>
</linearGradient>
<linearGradient id="paint2_linear_0_188" x1="185.943" y1="158.085" x2="266.966" y2="158.085" gradientUnits="userSpaceOnUse">
<stop stop-color="#7B7D7F"/>
<stop offset="0.2418" stop-color="#545557"/>
<stop offset="1"/>
</linearGradient>
<linearGradient id="paint3_linear_0_188" x1="204.085" y1="170.289" x2="308.847" y2="170.289" gradientUnits="userSpaceOnUse">
<stop stop-color="#7B7D7F"/>
<stop offset="0.2418" stop-color="#545557"/>
<stop offset="1"/>
</linearGradient>
<linearGradient id="paint4_linear_0_188" x1="192.857" y1="131.312" x2="140.907" y2="174.705" gradientUnits="userSpaceOnUse">
<stop stop-color="#7B7D7F"/>
<stop offset="1"/>
</linearGradient>
<linearGradient id="paint5_linear_0_188" x1="182.935" y1="178.446" x2="161.387" y2="204.421" gradientUnits="userSpaceOnUse">
<stop stop-color="#7B7D7F"/>
<stop offset="1"/>
</linearGradient>
<linearGradient id="paint6_linear_0_188" x1="259.996" y1="203.79" x2="279.328" y2="203.79" gradientUnits="userSpaceOnUse">
<stop stop-color="#7B7D7F"/>
<stop offset="1"/>
</linearGradient>
<linearGradient id="paint7_linear_0_188" x1="298.073" y1="152.543" x2="339.546" y2="152.543" gradientUnits="userSpaceOnUse">
<stop stop-color="#7B7D7F"/>
<stop offset="1"/>
</linearGradient>
<linearGradient id="paint8_linear_0_188" x1="257.424" y1="165.304" x2="257.424" y2="222.271" gradientUnits="userSpaceOnUse">
<stop/>
<stop offset="1"/>
</linearGradient>
</defs>
</svg>
