<svg preserveAspectRatio="none" width="100%" height="100%" overflow="visible" style="display: block;" viewBox="0 0 127.829 200.401" fill="none" xmlns="http://www.w3.org/2000/svg">
<g id="Group">
<path id="Vector" d="M112.86 40.0767C112.86 40.0767 113.367 38.3907 116.197 37.7071C119.02 37.0341 126.229 35.1852 127.082 32.3622C127.926 29.5357 128.22 27.1307 127.082 27.9737C125.956 28.8308 124.259 31.6573 124.259 31.6573L125.251 27.8036C125.251 27.8036 124.968 24.5804 124.259 25.7139C123.554 26.8473 121.996 31.8026 121.996 31.8026C121.996 31.8026 122.555 29.1071 122.279 27.2688C121.996 25.4305 120.969 22.4021 120.352 25.473C119.729 28.5404 119.874 32.0222 119.307 32.1213C118.737 32.217 119.591 26.5675 118.737 25.8626C117.894 25.1507 116.612 24.0243 116.612 26.2735C116.612 28.5368 113.898 31.5086 113.898 31.5086C113.898 31.5086 108.138 32.6456 107.844 34.4803C107.568 36.3222 106.431 39.0424 106.431 39.0424L112.86 40.0767Z" fill="var(--fill-0, #FBCCA8)"/>
<path id="Vector_2" d="M73.2438 36.6027C73.2438 36.6027 70.2081 40.3359 77.5901 52.4106C84.9722 64.4605 89.8144 71.6862 91.6493 70.3119C93.4736 68.9376 103.048 70.5493 93.9801 56.5937C84.9013 42.656 82.2694 37.474 78.1144 35.3842C73.9664 33.2838 73.2438 36.6027 73.2438 36.6027Z" fill="var(--fill-0, #1D223F)"/>
<path id="Vector_3" d="M89.4105 174.263L104.635 183.323C104.635 183.323 104.975 187.294 99.4634 186.954C93.941 186.635 89.1661 185.927 85.808 184.616C82.4606 183.306 82.4606 183.306 82.4606 183.306L82.333 184.754L76.8107 182.82L76.3679 175.18C76.3679 175.18 79.6586 173.88 81.2102 173.558C82.7687 173.264 89.4105 174.263 89.4105 174.263Z" fill="var(--fill-0, #40363B)"/>
<path id="Vector_4" d="M58.1572 181.69L63.7505 198.086C63.7505 198.086 63.0349 201.423 57.3213 200.084C51.6253 198.735 52.2487 198.086 50.0313 194.197C47.7926 190.308 47.1408 191.392 47.1408 191.392C47.1408 191.392 46.3048 192.887 45.7664 189.284C45.2245 185.689 45.8656 181.464 45.8656 181.464L58.1572 181.69Z" fill="var(--fill-0, #40363B)"/>
<path id="Vector_5" d="M85.7796 95.5943L91.6491 133.2L88.5107 174.188C88.5107 174.188 79.5133 178.13 76.2226 176.72C72.9389 175.3 75.5814 132.19 75.5814 132.19L65.2735 99.1434L85.7796 95.5943Z" fill="var(--fill-0, #635E4C)"/>
<path id="Vector_6" d="M74.6252 94.6314L58.5398 182.583C58.5398 182.583 49.5354 185.966 46.3509 183.415C43.1593 180.886 54.4131 89.8639 54.4131 89.8639L74.6252 94.6314Z" fill="var(--fill-0, #786E53)"/>
<path id="Vector_7" d="M61.8977 37.9131C61.8977 37.9131 73.1975 36.2165 74.8943 37.9131C76.591 39.6168 83.378 59.1226 84.2281 71.5763C85.0818 84.0194 85.9249 93.0692 84.2281 95.0527C82.5314 97.0327 73.4703 102.417 66.4106 99.0162C59.3296 95.623 55.6988 71.2965 55.2596 65.6364C54.8097 59.9692 51.9759 42.3441 51.9759 42.3441L61.8977 37.9131Z" fill="var(--fill-0, #BDBEC0)"/>
<g id="Group_2">
<path id="Vector_8" d="M67.8197 33.2517V43.7184C67.8197 43.7184 60.7392 42.0784 58.065 38.4833C55.3696 34.8917 56.085 32.1183 56.085 32.1183L67.8197 33.2517Z" fill="var(--fill-0, #EDB996)"/>
<path id="Vector_9" d="M67.8206 35.8693V43.7184L71.352 48.8083C71.352 48.8083 71.8479 42.3725 70.5727 39.4007C69.3083 36.4325 67.8206 35.8693 67.8206 35.8693Z" fill="var(--fill-0, white)"/>
<path id="Vector_10" d="M56.1948 34.665C56.1948 34.665 57.6435 39.6486 61.6708 41.3736C65.6981 43.0985 67.8233 43.7219 67.8233 43.7219L66.3356 50.9264C66.3356 50.9264 58.699 48.663 56.928 43.3713C55.1677 38.0618 56.1948 34.665 56.1948 34.665Z" fill="var(--fill-0, white)"/>
</g>
<path id="Vector_11" d="M66.2618 8.92157C66.2618 8.92157 73.9025 24.6197 73.194 28.1511C72.4785 31.6967 69.8006 35.5114 65.27 34.803C60.7395 34.0911 58.7664 33.9565 56.0814 32.1182C53.3857 30.2799 45.3236 21.9349 45.4724 15.8497C45.5538 12.2511 61.4196 6.68303 59.3544 6.37842C64.1436 7.08328 66.2618 8.92157 66.2618 8.92157Z" fill="var(--fill-0, #FBCCA8)"/>
<path id="Vector_12" d="M62.8685 1.14345C62.8685 1.14345 66.4072 2.63464 67.9587 5.38324C69.5067 8.11058 71.3593 13.0729 69.234 11.8934C67.1051 10.7069 63.5664 9.4955 63.5664 9.4955C63.5664 9.4955 62.8685 6.6619 62.0184 9.20151C61.1753 11.7553 60.1764 14.4331 60.3216 15.1379C60.4669 15.8499 58.2034 17.6952 57.92 15.8499C57.6437 14.0151 56.9282 12.3149 56.5066 14.1568C56.0851 15.9951 56.2126 18.8216 55.6529 18.5418C55.0933 18.2584 54.3777 19.3883 53.9562 19.8098C53.5347 20.2313 54.6611 21.5029 55.0933 22.7816C55.5042 24.0496 55.5148 28.4629 55.2314 26.4582C54.5265 21.5596 48.8022 21.6481 50.9665 27.1347C51.59 28.7215 56.0851 32.1147 56.0851 32.1147C56.0851 32.1147 57.6437 34.835 55.3696 34.8881C53.1131 34.9377 45.3273 26.4653 43.209 20.5926C41.0801 14.7235 41.6681 15.5984 43.7758 10.6537C45.9047 5.70555 45.9047 4.28875 48.8731 4.01602C51.845 3.72203 53.8074 1.56849 54.523 1.13991C55.2279 0.718406 53.2407 0.148142 56.6519 0.0100041C60.0276 -0.124592 62.8685 1.14345 62.8685 1.14345Z" fill="var(--fill-0, #7F5E28)"/>
<path id="Vector_13" d="M68.773 36.5735C68.773 36.5735 74.8904 33.956 76.0169 34.6608C77.1539 35.3728 80.2605 32.8225 84.2243 50.9222C88.1845 69.0254 92.414 98.1654 92.414 98.1654L83.9409 106.078C83.9409 106.078 80.8308 74.9653 77.7136 59.1184C74.6071 43.2962 68.773 36.5735 68.773 36.5735Z" fill="var(--fill-0, #1D223F)"/>
<path id="Vector_14" d="M71.9112 35.3835L80.6033 50.175L78.4745 52.9094L81.3896 54.9815V83.6292C81.3896 83.6292 76.8523 53.9366 75.0813 49.2328C73.3032 44.5361 68.773 36.5772 68.773 36.5772L71.9112 35.3835Z" fill="var(--fill-0, #00ADEF)"/>
<path id="Vector_15" d="M55.9929 37.1616C55.9929 37.1616 62.1635 62.5436 63.4848 70.3112C64.7954 78.0859 71.3982 105.706 70.2718 108.349C69.1418 110.988 66.5949 112.787 57.7357 110.421C48.8695 108.073 45.9436 107.414 45.9436 107.414C45.9436 107.414 50.3714 80.5264 50.4741 77.4271C50.5662 74.3101 41.6503 52.7783 43.7792 43.7178C45.2811 37.2749 53.3894 36.6019 53.8676 36.6019C54.3422 36.6019 55.9929 37.1616 55.9929 37.1616Z" fill="var(--fill-0, #1D223F)"/>
<path id="Vector_16" d="M55.9927 37.1614L66.3637 84.387L53.864 56.391L55.9927 54.326L52.727 52.1548V37.1614L55.9006 35.8686L55.9927 37.1614Z" fill="var(--fill-0, #00ADEF)"/>
<path id="Vector_17" d="M66.3892 18.0809L71.1788 21.5137L68.2597 23.1079L66.3892 18.0809Z" fill="var(--fill-0, #E2AC88)"/>
<path id="Vector_18" d="M47.5909 38.9681C47.5909 38.9681 52.1569 43.2043 48.1966 56.7844C44.2364 70.3574 41.693 76.5842 39.5748 75.7377C37.4459 74.8769 28.3954 80.9657 33.4856 65.1187C38.5758 49.293 38.4554 45.1843 41.9126 42.0744C45.3734 38.9681 47.5909 38.9681 47.5909 38.9681Z" fill="var(--fill-0, #1D223F)"/>
<g id="Group_3">
<path id="Vector_19" d="M15.5579 64.1058C15.5579 64.1058 10.9423 60.9959 8.51589 59.6642C6.10361 58.3253 0.0640687 54.1174 0.00739259 51.3192C-0.056368 48.521 0.290769 46.2541 1.10903 47.3096C1.92729 48.3652 2.77744 51.3794 2.77744 51.3794L2.84119 47.6178C2.84119 47.6178 3.91096 44.7381 4.26518 45.9495C4.62649 47.1715 4.80715 52.0913 4.80715 52.0913C4.80715 52.0913 4.97009 49.488 5.68562 47.8764C6.41179 46.2577 8.11562 43.7641 7.91725 46.7146C7.70117 49.6828 6.69162 52.821 7.18754 53.0619C7.687 53.2956 8.33169 47.9012 9.28456 47.4726C10.241 47.0369 11.8244 46.3745 11.1159 48.4006C9.61045 52.5872 12.2848 53.8588 12.2848 53.8588C12.2848 53.8588 17.2653 56.3382 17.0704 58.1057C16.8614 59.8554 17.2086 62.6146 17.2086 62.6146L15.5579 64.1058Z" fill="var(--fill-0, #FBCCA8)"/>
<path id="Vector_20" d="M12.0226 54.8864C12.0226 54.8864 12.6779 48.1778 14.0982 49.584C15.5256 51.0043 15.2317 56.6538 15.2317 56.6538L12.0226 54.8864Z" fill="var(--fill-0, #FBCCA8)"/>
</g>
<path id="Vector_21" d="M40.1449 66.6284C40.1449 66.6284 17.5028 54.3058 16.2453 56.6541C14.9842 58.9954 12.1398 62.4949 15.5404 65.3674C18.9374 68.2506 35.0724 79.3442 39.695 76.3795C44.3176 73.4184 40.1449 66.6284 40.1449 66.6284Z" fill="var(--fill-0, #1D223F)"/>
<path id="Vector_22" d="M106.877 36.6019C106.877 36.6019 98.6519 47.7699 93.9017 56.6214C89.1515 65.4693 86.7038 72.447 95.1875 69.8153C103.671 67.1659 108.577 53.7878 111.776 45.4888C114.996 37.1899 114.426 39.3257 114.426 39.3257L106.877 36.6019Z" fill="var(--fill-0, #1D223F)"/>
<path id="Vector_23" d="M69.4637 22.7529C69.1591 22.5404 67.466 22.7954 66.832 24.3716C66.2086 25.9584 64.6678 26.7448 64.6678 26.7448C64.6678 26.7448 68.008 27.7932 68.9678 27.0458C69.9313 26.3055 70.4165 24.8498 70.4165 24.8498C70.4165 24.8498 73.197 25.6609 73.8027 25.1331C74.4261 24.6125 74.2702 22.6998 74.2702 22.6998C74.2702 22.6998 73.0659 23.309 72.4815 22.8556C71.8758 22.4023 70.7388 22.2287 70.1898 22.2216C69.6373 22.2039 69.4637 22.7529 69.4637 22.7529Z" fill="var(--fill-0, #7F5E28)"/>
</g>
</svg>
