<svg preserveAspectRatio="none" width="100%" height="100%" overflow="visible" style="display: block;" viewBox="0 0 34.2036 34.2012" fill="none" xmlns="http://www.w3.org/2000/svg">
<path id="Vector" d="M34.2036 17.0836C34.2041 16.7102 34.121 16.3414 33.9603 16.0044C33.7997 15.6674 33.5656 15.3708 33.2753 15.1364L31.072 13.299L32.0808 10.6708C32.2117 10.3223 32.2637 9.94911 32.2331 9.57807C32.2026 9.20702 32.0903 8.84737 31.9043 8.52498C31.7183 8.2026 31.4632 7.92551 31.1575 7.71365C30.8517 7.50179 30.5028 7.36043 30.1359 7.29974L27.3097 6.81115L26.8706 4.03003C26.81 3.66263 26.6688 3.31326 26.4571 3.00707C26.2454 2.70088 25.9686 2.44548 25.6465 2.25925C25.3244 2.07303 24.9651 1.96061 24.5944 1.9301C24.2237 1.89959 23.8509 1.95174 23.5027 2.0828L20.8114 3.07553L19.0424 0.887002C18.8004 0.608503 18.5016 0.385211 18.1661 0.232196C17.8306 0.0791797 17.4662 0 17.0975 0C16.7288 0 16.3644 0.0791797 16.0288 0.232196C15.6933 0.385211 15.3945 0.608503 15.1525 0.887002L13.3172 3.09225L10.6928 2.0828C10.3446 1.95164 9.97172 1.89941 9.60096 1.92987C9.2302 1.96034 8.87079 2.07273 8.54863 2.25896C8.22647 2.44519 7.94957 2.70063 7.73786 3.00688C7.52615 3.31312 7.38491 3.66256 7.3243 4.03003L6.83687 6.86007L4.06023 7.29852C3.69319 7.35924 3.34415 7.50065 3.03824 7.71258C2.73232 7.92452 2.47713 8.2017 2.29102 8.5242C2.10491 8.84669 1.99251 9.20647 1.96192 9.57766C1.93132 9.94885 1.98328 10.3222 2.11406 10.6709L3.10565 13.3659L0.918504 15.1364C0.631205 15.3729 0.399827 15.6702 0.24101 16.0069C0.0821931 16.3437 -0.000116712 16.7115 1.24211e-07 17.0839C0.000116961 17.4563 0.0826573 17.824 0.241686 18.1606C0.400714 18.4973 0.632278 18.7945 0.919726 19.0308L3.12302 20.8682L2.11406 23.4963C1.98325 23.8448 1.93124 24.218 1.96176 24.5891C1.99228 24.9601 2.10458 25.3198 2.29058 25.6422C2.47658 25.9646 2.73166 26.2417 3.03744 26.4535C3.34323 26.6654 3.69213 26.8068 4.05903 26.8675L6.88521 27.3561L7.32431 30.1371C7.38506 30.5045 7.52637 30.8537 7.73807 31.1599C7.94977 31.466 8.2266 31.7213 8.54865 31.9075C8.8707 32.0937 9.22997 32.2062 9.60061 32.2367C9.97125 32.2673 10.3441 32.2153 10.6922 32.0844L13.3835 31.0916L15.1525 33.2802C15.3885 33.5681 15.6854 33.8001 16.0217 33.9593C16.358 34.1186 16.7254 34.2012 17.0975 34.2012C17.4695 34.2012 17.8369 34.1186 18.1732 33.9593C18.5096 33.8001 18.8064 33.5681 19.0424 33.2802L20.8777 31.0749L23.5022 32.0844C23.8504 32.2155 24.2233 32.2676 24.5941 32.2372C24.9648 32.2067 25.3242 32.0943 25.6463 31.9081C25.9685 31.7218 26.2454 31.4664 26.4571 31.1602C26.6688 30.854 26.8101 30.5046 26.8707 30.1371L27.3582 27.3071L30.1348 26.8687C30.5019 26.8079 30.8509 26.6665 31.1568 26.4546C31.4627 26.2427 31.7179 25.9655 31.904 25.643C32.0901 25.3205 32.2025 24.9607 32.2331 24.5895C32.2637 24.2183 32.2118 23.8449 32.081 23.4963L31.0894 20.8012L33.2765 19.0308C33.5665 18.7961 33.8002 18.4994 33.9607 18.1625C34.1211 17.8255 34.2041 17.4569 34.2036 17.0836Z" fill="var(--fill-0, #00ADEF)"/>
</svg>
