<svg preserveAspectRatio="none" width="100%" height="100%" overflow="visible" style="display: block;" viewBox="0 0 90.7571 131.039" fill="none" xmlns="http://www.w3.org/2000/svg">
<g id="Group">
<path id="Vector" d="M85.3721 46.5849C89.0135 55.2521 90.7989 63.6007 90.7564 71.6658C90.7209 78.0308 89.6441 83.0746 87.5223 86.8221C85.4217 90.6049 82.9138 93.5271 80.0162 95.5708C77.1222 97.6429 71.9328 100.987 64.4516 105.577C62.3829 106.884 60.7286 108.11 59.4676 109.275C58.2243 110.422 57.2926 111.57 56.6869 112.725C56.0635 113.894 55.5817 115.112 55.2452 116.423C54.9087 117.708 54.4022 120.028 53.7043 123.351C52.5106 130.576 48.894 132.702 42.8544 129.758C39.6912 128.214 37.0487 125.653 34.9233 122.076C32.8015 118.473 31.7317 114.188 31.7601 109.165C31.7955 102.899 32.6244 97.8625 34.2113 94.0336C35.8195 90.2153 37.9165 87.194 40.5449 84.9908C43.152 82.7771 46.6871 80.3579 51.1327 77.7191C55.0398 75.4522 57.8488 73.6458 59.588 72.3565C61.3237 71.0672 62.7761 69.4096 63.9804 67.38C65.1671 65.3398 65.7763 62.7895 65.7941 59.7186C65.8259 53.7326 64.0477 47.8281 60.4736 41.9661C56.8995 36.1041 52.2697 31.7864 46.5773 29.0094C39.9214 25.7614 35.0189 25.432 31.8522 28.0602C28.6641 30.6494 25.9827 35.47 23.7617 42.4726C21.6611 49.9179 17.7363 52.2237 11.9837 49.4185C8.59372 47.7643 5.74575 44.9024 3.43974 40.8256C1.11248 36.7168 -0.0175063 32.9836 0.000204968 29.5336C0.0391698 22.4319 1.90593 16.1449 5.64301 10.6689C9.38009 5.19298 14.7962 1.78202 21.8913 0.436061C29.0042 -0.874482 37.2789 0.769017 46.7084 5.36654C55.4826 9.64528 63.2153 15.4258 69.9137 22.6834C76.605 29.9764 81.7519 37.9282 85.3721 46.5849Z" fill="var(--fill-0, #00A3E1)"/>
</g>
</svg>
